<svg width="1280" height="720" viewBox="0 0 1280 720" fill="none" xmlns="http://www.w3.org/2000/svg">
<rect width="1280" height="720" fill="#ECECEC"/>
<path d="M1225.56 699C1225.94 699 1226.31 699.152 1226.58 699.423C1226.85 699.694 1227 700.061 1227 700.444V710.556C1227 710.939 1226.85 711.306 1226.58 711.577C1226.31 711.848 1225.94 712 1225.56 712H1215.44C1215.06 712 1214.69 711.848 1214.42 711.577C1214.15 711.306 1214 710.939 1214 710.556V700.444C1214 700.061 1214.15 699.694 1214.42 699.423C1214.69 699.152 1215.06 699 1215.44 699H1225.56ZM1225.19 710.194V706.367C1225.19 705.742 1224.95 705.143 1224.5 704.702C1224.06 704.26 1223.46 704.012 1222.84 704.012C1222.23 704.012 1221.51 704.388 1221.16 704.951V704.149H1219.15V710.194H1221.16V706.634C1221.16 706.078 1221.61 705.623 1222.17 705.623C1222.44 705.623 1222.69 705.729 1222.88 705.919C1223.07 706.109 1223.18 706.366 1223.18 706.634V710.194H1225.19ZM1216.8 703.016C1217.12 703.016 1217.43 702.888 1217.66 702.66C1217.89 702.433 1218.02 702.124 1218.02 701.802C1218.02 701.131 1217.47 700.582 1216.8 700.582C1216.48 700.582 1216.17 700.71 1215.94 700.939C1215.71 701.168 1215.58 701.479 1215.58 701.802C1215.58 702.474 1216.13 703.016 1216.8 703.016ZM1217.81 710.194V704.149H1215.81V710.194H1217.81Z" fill="#1A0F2E" fill-opacity="0.54"/>
<path d="M1245.6 712C1245.16 712 1244.78 711.841 1244.47 711.523C1244.16 711.205 1244 710.822 1244 710.375V700.625C1244 700.178 1244.16 699.796 1244.47 699.478C1244.78 699.16 1245.16 699.001 1245.6 699H1250.4L1252 700.625H1258.4C1258.84 700.625 1259.22 700.784 1259.53 701.103C1259.84 701.421 1260 701.804 1260 702.25V710.375C1260 710.822 1259.84 711.205 1259.53 711.523C1259.22 711.842 1258.84 712.001 1258.4 712H1245.6Z" fill="#1A0F2E" fill-opacity="0.54"/>
<path d="M1026.66 710V708.944H1028.92C1029.61 708.944 1030.2 708.804 1030.69 708.524C1031.18 708.244 1031.56 707.856 1031.83 707.36C1032.09 706.864 1032.22 706.288 1032.22 705.632C1032.22 704.984 1032.09 704.42 1031.83 703.94C1031.57 703.46 1031.2 703.088 1030.7 702.824C1030.21 702.552 1029.62 702.416 1028.92 702.416H1026.67V701.36H1028.92C1029.85 701.36 1030.66 701.536 1031.35 701.888C1032.04 702.24 1032.57 702.74 1032.94 703.388C1033.33 704.028 1033.52 704.784 1033.52 705.656C1033.52 706.528 1033.33 707.292 1032.94 707.948C1032.56 708.596 1032.02 709.1 1031.34 709.46C1030.66 709.82 1029.86 710 1028.94 710H1026.66ZM1025.89 710V701.36H1027.16V710H1025.89ZM1037.52 710.12C1036.9 710.12 1036.36 709.984 1035.88 709.712C1035.42 709.44 1035.06 709.064 1034.79 708.584C1034.53 708.104 1034.4 707.552 1034.4 706.928C1034.4 706.296 1034.52 705.744 1034.78 705.272C1035.04 704.792 1035.41 704.42 1035.88 704.156C1036.36 703.892 1036.9 703.76 1037.5 703.76C1038.1 703.76 1038.61 703.888 1039.04 704.144C1039.48 704.392 1039.82 704.74 1040.05 705.188C1040.29 705.636 1040.41 706.168 1040.41 706.784C1040.41 706.88 1040.4 706.972 1040.4 707.06C1040.4 707.14 1040.39 707.224 1040.37 707.312H1035.24V706.376H1039.5L1039.18 706.748C1039.18 706.092 1039.04 705.592 1038.74 705.248C1038.44 704.904 1038.03 704.732 1037.5 704.732C1036.94 704.732 1036.48 704.928 1036.15 705.32C1035.82 705.704 1035.66 706.24 1035.66 706.928C1035.66 707.624 1035.82 708.168 1036.15 708.56C1036.48 708.952 1036.95 709.148 1037.54 709.148C1037.9 709.148 1038.21 709.076 1038.48 708.932C1038.74 708.78 1038.94 708.56 1039.06 708.272H1040.24C1040.04 708.848 1039.7 709.3 1039.22 709.628C1038.75 709.956 1038.18 710.12 1037.52 710.12ZM1043.92 710.12C1043.12 710.12 1042.48 709.944 1042.01 709.592C1041.54 709.24 1041.27 708.744 1041.2 708.104H1042.36C1042.41 708.456 1042.57 708.728 1042.84 708.92C1043.11 709.104 1043.48 709.196 1043.94 709.196C1044.35 709.196 1044.66 709.124 1044.88 708.98C1045.09 708.836 1045.2 708.632 1045.2 708.368C1045.2 708.176 1045.14 708.016 1045.01 707.888C1044.89 707.752 1044.65 707.64 1044.29 707.552L1043.3 707.324C1042.69 707.172 1042.23 706.948 1041.92 706.652C1041.63 706.348 1041.48 705.976 1041.48 705.536C1041.48 704.984 1041.68 704.552 1042.09 704.24C1042.51 703.92 1043.08 703.76 1043.8 703.76C1044.51 703.76 1045.08 703.92 1045.51 704.24C1045.95 704.56 1046.2 705.008 1046.26 705.584H1045.1C1045.06 705.296 1044.92 705.076 1044.68 704.924C1044.46 704.764 1044.15 704.684 1043.76 704.684C1043.39 704.684 1043.11 704.752 1042.91 704.888C1042.72 705.016 1042.62 705.196 1042.62 705.428C1042.62 705.62 1042.69 705.78 1042.84 705.908C1042.99 706.036 1043.24 706.144 1043.58 706.232L1044.59 706.484C1045.17 706.628 1045.61 706.864 1045.91 707.192C1046.2 707.512 1046.35 707.9 1046.35 708.356C1046.35 708.908 1046.14 709.34 1045.7 709.652C1045.28 709.964 1044.68 710.12 1043.92 710.12ZM1050.36 710.12C1049.74 710.12 1049.2 709.984 1048.73 709.712C1048.26 709.44 1047.9 709.064 1047.64 708.584C1047.37 708.104 1047.24 707.552 1047.24 706.928C1047.24 706.296 1047.37 705.744 1047.62 705.272C1047.89 704.792 1048.26 704.42 1048.73 704.156C1049.2 703.892 1049.74 703.76 1050.35 703.76C1050.94 703.76 1051.45 703.888 1051.88 704.144C1052.32 704.392 1052.66 704.74 1052.89 705.188C1053.13 705.636 1053.25 706.168 1053.25 706.784C1053.25 706.88 1053.25 706.972 1053.24 707.06C1053.24 707.14 1053.23 707.224 1053.22 707.312H1048.08V706.376H1052.34L1052.03 706.748C1052.03 706.092 1051.88 705.592 1051.58 705.248C1051.29 704.904 1050.88 704.732 1050.35 704.732C1049.78 704.732 1049.33 704.928 1048.99 705.32C1048.66 705.704 1048.5 706.24 1048.5 706.928C1048.5 707.624 1048.66 708.168 1048.99 708.56C1049.33 708.952 1049.79 709.148 1050.38 709.148C1050.74 709.148 1051.06 709.076 1051.32 708.932C1051.58 708.78 1051.78 708.56 1051.91 708.272H1053.08C1052.88 708.848 1052.54 709.3 1052.06 709.628C1051.59 709.956 1051.02 710.12 1050.36 710.12ZM1054.53 710V703.88H1055.72V705.32H1055.78V710H1054.53ZM1058.87 710V706.064C1058.87 705.64 1058.76 705.324 1058.55 705.116C1058.34 704.908 1058.03 704.804 1057.61 704.804C1057.25 704.804 1056.93 704.884 1056.65 705.044C1056.38 705.204 1056.16 705.424 1056 705.704C1055.85 705.984 1055.78 706.316 1055.78 706.7L1055.62 705.236C1055.82 704.78 1056.13 704.42 1056.54 704.156C1056.96 703.892 1057.44 703.76 1058 703.76C1058.65 703.76 1059.17 703.944 1059.54 704.312C1059.92 704.68 1060.11 705.168 1060.11 705.776V710H1058.87ZM1063.31 710L1060.82 703.88H1062.15L1064.19 709.436H1063.6L1065.62 703.88H1066.9L1064.42 710H1063.31ZM1070.42 710.12C1069.8 710.12 1069.25 709.984 1068.78 709.712C1068.31 709.432 1067.94 709.052 1067.67 708.572C1067.41 708.084 1067.28 707.532 1067.28 706.916C1067.28 706.292 1067.41 705.744 1067.67 705.272C1067.95 704.8 1068.31 704.432 1068.78 704.168C1069.25 703.896 1069.8 703.76 1070.42 703.76C1071.05 703.76 1071.61 703.896 1072.08 704.168C1072.55 704.432 1072.91 704.8 1073.17 705.272C1073.43 705.744 1073.57 706.292 1073.57 706.916C1073.57 707.532 1073.43 708.084 1073.17 708.572C1072.91 709.052 1072.55 709.432 1072.08 709.712C1071.61 709.984 1071.05 710.12 1070.42 710.12ZM1070.42 709.1C1070.8 709.1 1071.12 709.008 1071.39 708.824C1071.67 708.64 1071.89 708.384 1072.05 708.056C1072.21 707.728 1072.29 707.344 1072.29 706.904C1072.29 706.248 1072.12 705.732 1071.77 705.356C1071.42 704.972 1070.97 704.78 1070.42 704.78C1069.88 704.78 1069.43 704.972 1069.08 705.356C1068.73 705.74 1068.56 706.256 1068.56 706.904C1068.56 707.344 1068.64 707.728 1068.79 708.056C1068.95 708.384 1069.17 708.64 1069.45 708.824C1069.74 709.008 1070.06 709.1 1070.42 709.1ZM1074.85 710V701.36H1076.1V710H1074.85ZM1079.6 710L1077.1 703.88H1078.44L1080.48 709.436H1079.89L1081.9 703.88H1083.19L1080.7 710H1079.6ZM1084.12 710V703.88H1085.37V710H1084.12ZM1084.06 702.68V701.276H1085.44V702.68H1084.06ZM1091.5 710V708.596L1091.62 708.632C1091.49 709.088 1091.23 709.452 1090.83 709.724C1090.43 709.988 1089.95 710.12 1089.39 710.12C1088.84 710.12 1088.35 709.988 1087.94 709.724C1087.53 709.46 1087.21 709.092 1086.98 708.62C1086.75 708.148 1086.64 707.596 1086.64 706.964C1086.64 706.324 1086.76 705.764 1086.99 705.284C1087.22 704.804 1087.54 704.432 1087.96 704.168C1088.38 703.904 1088.86 703.772 1089.42 703.772C1090.01 703.772 1090.49 703.912 1090.86 704.192C1091.25 704.464 1091.5 704.848 1091.62 705.344L1091.45 705.368V701.36H1092.69V710H1091.5ZM1089.7 709.076C1090.25 709.076 1090.69 708.888 1091.01 708.512C1091.33 708.128 1091.49 707.6 1091.49 706.928C1091.49 706.272 1091.32 705.756 1091 705.38C1090.68 704.996 1090.24 704.804 1089.69 704.804C1089.14 704.804 1088.71 704.996 1088.39 705.38C1088.08 705.756 1087.92 706.284 1087.92 706.964C1087.92 707.628 1088.08 708.148 1088.39 708.524C1088.71 708.892 1089.15 709.076 1089.7 709.076ZM1097.11 710.12C1096.48 710.12 1095.93 709.984 1095.46 709.712C1094.99 709.432 1094.62 709.052 1094.36 708.572C1094.09 708.084 1093.96 707.532 1093.96 706.916C1093.96 706.292 1094.09 705.744 1094.36 705.272C1094.63 704.8 1095 704.432 1095.46 704.168C1095.93 703.896 1096.48 703.76 1097.11 703.76C1097.74 703.76 1098.29 703.896 1098.76 704.168C1099.23 704.432 1099.6 704.8 1099.85 705.272C1100.12 705.744 1100.25 706.292 1100.25 706.916C1100.25 707.532 1100.12 708.084 1099.85 708.572C1099.6 709.052 1099.23 709.432 1098.76 709.712C1098.29 709.984 1097.74 710.12 1097.11 710.12ZM1097.11 709.1C1097.48 709.1 1097.81 709.008 1098.08 708.824C1098.36 708.64 1098.58 708.384 1098.74 708.056C1098.9 707.728 1098.98 707.344 1098.98 706.904C1098.98 706.248 1098.8 705.732 1098.45 705.356C1098.11 704.972 1097.66 704.78 1097.11 704.78C1096.56 704.78 1096.11 704.972 1095.76 705.356C1095.42 705.74 1095.25 706.256 1095.25 706.904C1095.25 707.344 1095.32 707.728 1095.47 708.056C1095.63 708.384 1095.85 708.64 1096.13 708.824C1096.42 709.008 1096.75 709.1 1097.11 709.1ZM1107.16 710.108C1106.59 710.108 1106.11 709.972 1105.72 709.7C1105.35 709.42 1105.1 709.032 1104.98 708.536L1105.15 708.512V712.46H1103.9V703.88H1105.09V705.284L1104.97 705.248C1105.1 704.784 1105.37 704.42 1105.78 704.156C1106.2 703.892 1106.69 703.76 1107.25 703.76C1107.8 703.76 1108.28 703.892 1108.68 704.156C1109.08 704.42 1109.4 704.788 1109.61 705.26C1109.84 705.732 1109.95 706.284 1109.95 706.916C1109.95 707.556 1109.83 708.116 1109.6 708.596C1109.37 709.076 1109.04 709.448 1108.63 709.712C1108.21 709.976 1107.72 710.108 1107.16 710.108ZM1106.9 709.076C1107.44 709.076 1107.88 708.884 1108.2 708.5C1108.52 708.116 1108.68 707.588 1108.68 706.916C1108.68 706.252 1108.52 705.736 1108.2 705.368C1107.88 704.992 1107.44 704.804 1106.89 704.804C1106.34 704.804 1105.91 704.996 1105.58 705.38C1105.26 705.756 1105.1 706.28 1105.1 706.952C1105.1 707.608 1105.26 708.128 1105.58 708.512C1105.91 708.888 1106.35 709.076 1106.9 709.076ZM1113.96 710.12C1113.33 710.12 1112.79 709.984 1112.31 709.712C1111.84 709.432 1111.47 709.052 1111.21 708.572C1110.95 708.084 1110.81 707.532 1110.81 706.916C1110.81 706.292 1110.95 705.744 1111.21 705.272C1111.48 704.8 1111.85 704.432 1112.31 704.168C1112.79 703.896 1113.33 703.76 1113.96 703.76C1114.59 703.76 1115.14 703.896 1115.61 704.168C1116.09 704.432 1116.45 704.8 1116.71 705.272C1116.97 705.744 1117.1 706.292 1117.1 706.916C1117.1 707.532 1116.97 708.084 1116.71 708.572C1116.45 709.052 1116.09 709.432 1115.61 709.712C1115.14 709.984 1114.59 710.12 1113.96 710.12ZM1113.96 709.1C1114.33 709.1 1114.66 709.008 1114.93 708.824C1115.21 708.64 1115.43 708.384 1115.59 708.056C1115.75 707.728 1115.83 707.344 1115.83 706.904C1115.83 706.248 1115.65 705.732 1115.3 705.356C1114.96 704.972 1114.51 704.78 1113.96 704.78C1113.41 704.78 1112.97 704.972 1112.61 705.356C1112.27 705.74 1112.1 706.256 1112.1 706.904C1112.1 707.344 1112.17 707.728 1112.33 708.056C1112.49 708.384 1112.71 708.64 1112.99 708.824C1113.27 709.008 1113.6 709.1 1113.96 709.1ZM1118.38 710V703.88H1119.57V705.404H1119.63V710H1118.38ZM1119.63 706.808L1119.48 705.356C1119.62 704.836 1119.87 704.44 1120.22 704.168C1120.57 703.896 1120.99 703.76 1121.48 703.76C1121.66 703.76 1121.79 703.776 1121.86 703.808V704.984C1121.82 704.968 1121.77 704.96 1121.7 704.96C1121.62 704.952 1121.54 704.948 1121.43 704.948C1120.83 704.948 1120.38 705.104 1120.08 705.416C1119.78 705.728 1119.63 706.192 1119.63 706.808ZM1122.86 710V708.512H1124.34V710H1122.86ZM1122.86 705.656V704.168H1124.34V705.656H1122.86ZM1129.24 710.12C1128.94 710.12 1128.65 710.096 1128.37 710.048C1128.09 710.008 1127.88 709.956 1127.75 709.892V708.812C1127.93 708.884 1128.14 708.944 1128.39 708.992C1128.64 709.04 1128.89 709.064 1129.15 709.064C1129.67 709.064 1130.07 708.956 1130.33 708.74C1130.61 708.516 1130.74 708.164 1130.74 707.684V701.36H1132.01V707.732C1132.01 708.532 1131.78 709.132 1131.31 709.532C1130.83 709.924 1130.15 710.12 1129.24 710.12ZM1137.4 710C1137.36 709.848 1137.33 709.68 1137.31 709.496C1137.31 709.312 1137.3 709.088 1137.3 708.824H1137.24V705.908C1137.24 705.516 1137.14 705.224 1136.94 705.032C1136.75 704.832 1136.44 704.732 1136.02 704.732C1135.61 704.732 1135.28 704.812 1135.03 704.972C1134.79 705.132 1134.65 705.36 1134.61 705.656H1133.43C1133.48 705.08 1133.74 704.62 1134.21 704.276C1134.67 703.932 1135.29 703.76 1136.07 703.76C1136.87 703.76 1137.47 703.948 1137.87 704.324C1138.27 704.692 1138.47 705.236 1138.47 705.956V708.824C1138.47 709.008 1138.48 709.196 1138.5 709.388C1138.53 709.58 1138.56 709.784 1138.61 710H1137.4ZM1135.29 710.12C1134.66 710.12 1134.17 709.968 1133.8 709.664C1133.43 709.352 1133.25 708.932 1133.25 708.404C1133.25 707.86 1133.44 707.432 1133.82 707.12C1134.21 706.8 1134.77 706.584 1135.5 706.472L1137.52 706.148V707.024L1135.69 707.312C1135.29 707.376 1134.98 707.484 1134.77 707.636C1134.57 707.788 1134.47 708.008 1134.47 708.296C1134.47 708.576 1134.56 708.788 1134.75 708.932C1134.94 709.068 1135.21 709.136 1135.57 709.136C1136.05 709.136 1136.45 709.02 1136.76 708.788C1137.08 708.556 1137.24 708.264 1137.24 707.912L1137.4 708.8C1137.25 709.224 1137 709.552 1136.63 709.784C1136.26 710.008 1135.81 710.12 1135.29 710.12ZM1140.08 710V703.88H1141.32V710H1140.08ZM1140.02 702.68V701.276H1141.4V702.68H1140.02ZM1143.08 710V703.88H1144.26V705.404H1144.32V710H1143.08ZM1144.32 706.808L1144.17 705.356C1144.31 704.836 1144.56 704.44 1144.91 704.168C1145.26 703.896 1145.68 703.76 1146.17 703.76C1146.36 703.76 1146.48 703.776 1146.56 703.808V704.984C1146.52 704.968 1146.46 704.96 1146.39 704.96C1146.32 704.952 1146.23 704.948 1146.12 704.948C1145.52 704.948 1145.07 705.104 1144.77 705.416C1144.47 705.728 1144.32 706.192 1144.32 706.808ZM1153.85 710.12C1153.25 710.12 1152.7 710.012 1152.18 709.796C1151.67 709.572 1151.23 709.264 1150.85 708.872C1150.48 708.472 1150.2 708 1149.99 707.456C1149.78 706.912 1149.68 706.316 1149.68 705.668C1149.68 705.02 1149.78 704.428 1149.98 703.892C1150.18 703.348 1150.47 702.88 1150.84 702.488C1151.22 702.088 1151.66 701.78 1152.17 701.564C1152.68 701.348 1153.24 701.24 1153.84 701.24C1154.51 701.24 1155.12 701.376 1155.65 701.648C1156.19 701.912 1156.62 702.288 1156.96 702.776C1157.3 703.264 1157.52 703.832 1157.6 704.48H1156.35C1156.24 703.8 1155.97 703.272 1155.52 702.896C1155.08 702.512 1154.52 702.32 1153.85 702.32C1153.28 702.32 1152.78 702.46 1152.34 702.74C1151.91 703.012 1151.57 703.4 1151.33 703.904C1151.09 704.4 1150.97 704.988 1150.97 705.668C1150.97 706.34 1151.09 706.932 1151.33 707.444C1151.58 707.948 1151.92 708.34 1152.35 708.62C1152.78 708.9 1153.28 709.04 1153.85 709.04C1154.52 709.04 1155.08 708.852 1155.53 708.476C1155.99 708.092 1156.26 707.56 1156.36 706.88H1157.62C1157.53 707.536 1157.32 708.108 1156.97 708.596C1156.63 709.076 1156.19 709.452 1155.65 709.724C1155.12 709.988 1154.52 710.12 1153.85 710.12ZM1162.57 710C1162.53 709.848 1162.5 709.68 1162.49 709.496C1162.48 709.312 1162.47 709.088 1162.47 708.824H1162.41V705.908C1162.41 705.516 1162.31 705.224 1162.11 705.032C1161.92 704.832 1161.61 704.732 1161.19 704.732C1160.78 704.732 1160.45 704.812 1160.21 704.972C1159.97 705.132 1159.83 705.36 1159.79 705.656H1158.6C1158.65 705.08 1158.91 704.62 1159.38 704.276C1159.84 703.932 1160.46 703.76 1161.24 703.76C1162.04 703.76 1162.64 703.948 1163.04 704.324C1163.44 704.692 1163.64 705.236 1163.64 705.956V708.824C1163.64 709.008 1163.65 709.196 1163.67 709.388C1163.7 709.58 1163.73 709.784 1163.78 710H1162.57ZM1160.46 710.12C1159.83 710.12 1159.34 709.968 1158.97 709.664C1158.6 709.352 1158.42 708.932 1158.42 708.404C1158.42 707.86 1158.61 707.432 1158.99 707.12C1159.39 706.8 1159.95 706.584 1160.67 706.472L1162.69 706.148V707.024L1160.87 707.312C1160.46 707.376 1160.15 707.484 1159.94 707.636C1159.74 707.788 1159.64 708.008 1159.64 708.296C1159.64 708.576 1159.73 708.788 1159.92 708.932C1160.11 709.068 1160.39 709.136 1160.75 709.136C1161.23 709.136 1161.62 709.02 1161.93 708.788C1162.25 708.556 1162.41 708.264 1162.41 707.912L1162.57 708.8C1162.43 709.224 1162.17 709.552 1161.8 709.784C1161.43 710.008 1160.99 710.12 1160.46 710.12ZM1165.33 710V703.88H1166.52V705.32H1166.58V710H1165.33ZM1169.46 710V706.004C1169.46 705.588 1169.36 705.284 1169.17 705.092C1168.98 704.9 1168.7 704.804 1168.34 704.804C1168.01 704.804 1167.7 704.884 1167.43 705.044C1167.17 705.196 1166.96 705.412 1166.81 705.692C1166.65 705.964 1166.58 706.288 1166.58 706.664L1166.42 705.236C1166.62 704.78 1166.92 704.42 1167.32 704.156C1167.73 703.892 1168.19 703.76 1168.69 703.76C1169.3 703.76 1169.78 703.936 1170.14 704.288C1170.51 704.64 1170.69 705.104 1170.69 705.68V710H1169.46ZM1173.59 710V706.004C1173.59 705.588 1173.49 705.284 1173.29 705.092C1173.09 704.9 1172.82 704.804 1172.46 704.804C1172.13 704.804 1171.83 704.884 1171.56 705.044C1171.29 705.196 1171.08 705.412 1170.92 705.692C1170.77 705.964 1170.69 706.288 1170.69 706.664L1170.44 705.236C1170.65 704.78 1170.96 704.42 1171.38 704.156C1171.8 703.892 1172.27 703.76 1172.79 703.76C1173.41 703.76 1173.9 703.94 1174.27 704.3C1174.64 704.652 1174.82 705.124 1174.82 705.716V710H1173.59ZM1179.76 710.108C1179.19 710.108 1178.71 709.972 1178.32 709.7C1177.95 709.42 1177.7 709.032 1177.58 708.536L1177.75 708.512V712.46H1176.5V703.88H1177.69V705.284L1177.57 705.248C1177.69 704.784 1177.97 704.42 1178.38 704.156C1178.8 703.892 1179.29 703.76 1179.85 703.76C1180.4 703.76 1180.87 703.892 1181.27 704.156C1181.68 704.42 1181.99 704.788 1182.21 705.26C1182.43 705.732 1182.55 706.284 1182.55 706.916C1182.55 707.556 1182.43 708.116 1182.2 708.596C1181.97 709.076 1181.64 709.448 1181.23 709.712C1180.81 709.976 1180.32 710.108 1179.76 710.108ZM1179.5 709.076C1180.04 709.076 1180.47 708.884 1180.79 708.5C1181.11 708.116 1181.27 707.588 1181.27 706.916C1181.27 706.252 1181.11 705.736 1180.79 705.368C1180.47 704.992 1180.04 704.804 1179.49 704.804C1178.94 704.804 1178.51 704.996 1178.18 705.38C1177.86 705.756 1177.7 706.28 1177.7 706.952C1177.7 707.608 1177.86 708.128 1178.18 708.512C1178.51 708.888 1178.95 709.076 1179.5 709.076ZM1186.53 710.12C1185.92 710.12 1185.37 709.984 1184.9 709.712C1184.44 709.44 1184.07 709.064 1183.81 708.584C1183.54 708.104 1183.41 707.552 1183.41 706.928C1183.41 706.296 1183.54 705.744 1183.8 705.272C1184.06 704.792 1184.43 704.42 1184.9 704.156C1185.37 703.892 1185.91 703.76 1186.52 703.76C1187.11 703.76 1187.62 703.888 1188.06 704.144C1188.5 704.392 1188.83 704.74 1189.06 705.188C1189.3 705.636 1189.42 706.168 1189.42 706.784C1189.42 706.88 1189.42 706.972 1189.41 707.06C1189.41 707.14 1189.4 707.224 1189.39 707.312H1184.25V706.376H1188.51L1188.2 706.748C1188.2 706.092 1188.05 705.592 1187.76 705.248C1187.46 704.904 1187.05 704.732 1186.52 704.732C1185.95 704.732 1185.5 704.928 1185.16 705.32C1184.84 705.704 1184.67 706.24 1184.67 706.928C1184.67 707.624 1184.84 708.168 1185.16 708.56C1185.5 708.952 1185.96 709.148 1186.56 709.148C1186.92 709.148 1187.23 709.076 1187.49 708.932C1187.76 708.78 1187.95 708.56 1188.08 708.272H1189.26C1189.06 708.848 1188.72 709.3 1188.24 709.628C1187.76 709.956 1187.2 710.12 1186.53 710.12ZM1190.7 710V701.36H1191.95V710H1190.7ZM1196.36 710.12C1195.74 710.12 1195.19 709.984 1194.72 709.712C1194.25 709.432 1193.88 709.052 1193.62 708.572C1193.35 708.084 1193.22 707.532 1193.22 706.916C1193.22 706.292 1193.35 705.744 1193.62 705.272C1193.89 704.8 1194.26 704.432 1194.72 704.168C1195.19 703.896 1195.74 703.76 1196.36 703.76C1197 703.76 1197.55 703.896 1198.02 704.168C1198.49 704.432 1198.86 704.8 1199.11 705.272C1199.38 705.744 1199.51 706.292 1199.51 706.916C1199.51 707.532 1199.38 708.084 1199.11 708.572C1198.86 709.052 1198.49 709.432 1198.02 709.712C1197.55 709.984 1197 710.12 1196.36 710.12ZM1196.36 709.1C1196.74 709.1 1197.06 709.008 1197.34 708.824C1197.62 708.64 1197.84 708.384 1198 708.056C1198.16 707.728 1198.24 707.344 1198.24 706.904C1198.24 706.248 1198.06 705.732 1197.71 705.356C1197.36 704.972 1196.92 704.78 1196.36 704.78C1195.82 704.78 1195.37 704.972 1195.02 705.356C1194.68 705.74 1194.5 706.256 1194.5 706.904C1194.5 707.344 1194.58 707.728 1194.73 708.056C1194.89 708.384 1195.11 708.64 1195.39 708.824C1195.68 709.008 1196 709.1 1196.36 709.1Z" fill="#1A0F2E" fill-opacity="0.54"/>
<g filter="url(#filter0_d_34_21)">
<rect x="20" y="252" width="1240" height="438" rx="10" fill="white"/>
</g>
<rect x="301" y="10" width="407" height="48" rx="10" fill="#1A0F2E"/>
<rect x="724" y="10" width="536" height="48" rx="10" fill="#1A0F2E"/>
<path d="M59.72 39V32.88H61.484V34.32H61.52V39H59.72ZM63.836 39V35.112C63.836 34.8 63.752 34.572 63.584 34.428C63.424 34.276 63.196 34.2 62.9 34.2C62.644 34.2 62.408 34.26 62.192 34.38C61.984 34.492 61.82 34.656 61.7 34.872C61.58 35.08 61.52 35.328 61.52 35.616L61.364 34.236C61.564 33.788 61.852 33.432 62.228 33.168C62.612 32.896 63.072 32.76 63.608 32.76C64.248 32.76 64.744 32.94 65.096 33.3C65.456 33.66 65.636 34.112 65.636 34.656V39H63.836ZM67.952 39V35.112C67.952 34.8 67.868 34.572 67.7 34.428C67.54 34.276 67.312 34.2 67.016 34.2C66.76 34.2 66.524 34.26 66.308 34.38C66.1 34.492 65.936 34.656 65.816 34.872C65.696 35.08 65.636 35.328 65.636 35.616L65.36 34.236C65.56 33.788 65.856 33.432 66.248 33.168C66.648 32.896 67.128 32.76 67.688 32.76C68.352 32.76 68.86 32.948 69.212 33.324C69.572 33.692 69.752 34.176 69.752 34.776V39H67.952ZM71.1765 41.46L72.8685 37.716L73.1805 37.2L74.7645 32.88H76.6845L72.9765 41.46H71.1765ZM72.4725 38.88L70.1205 32.88H72.0645L73.9965 38.352L72.4725 38.88ZM81.2936 39.12C80.6696 39.12 80.0936 39.012 79.5656 38.796C79.0376 38.572 78.5776 38.26 78.1856 37.86C77.8016 37.46 77.5016 36.988 77.2856 36.444C77.0696 35.892 76.9616 35.292 76.9616 34.644C76.9616 33.996 77.0656 33.404 77.2736 32.868C77.4896 32.332 77.7896 31.868 78.1736 31.476C78.5656 31.076 79.0256 30.772 79.5536 30.564C80.0816 30.348 80.6616 30.24 81.2936 30.24C82.0056 30.24 82.6456 30.38 83.2136 30.66C83.7896 30.932 84.2576 31.32 84.6176 31.824C84.9856 32.32 85.2096 32.904 85.2896 33.576H83.4896C83.3856 32.96 83.1336 32.496 82.7336 32.184C82.3336 31.864 81.8576 31.704 81.3056 31.704C80.8176 31.704 80.3856 31.82 80.0096 32.052C79.6416 32.284 79.3536 32.62 79.1456 33.06C78.9376 33.492 78.8336 34.016 78.8336 34.632C78.8336 35.256 78.9376 35.796 79.1456 36.252C79.3616 36.7 79.6576 37.048 80.0336 37.296C80.4096 37.536 80.8416 37.656 81.3296 37.656C81.8496 37.656 82.3096 37.5 82.7096 37.188C83.1096 36.876 83.3696 36.412 83.4896 35.796H85.3136C85.2096 36.468 84.9736 37.056 84.6056 37.56C84.2376 38.056 83.7696 38.44 83.2016 38.712C82.6336 38.984 81.9976 39.12 81.2936 39.12ZM89.2021 39.12C88.5301 39.12 87.9381 38.988 87.4261 38.724C86.9221 38.452 86.5261 38.076 86.2381 37.596C85.9581 37.108 85.8181 36.548 85.8181 35.916C85.8181 35.284 85.9581 34.732 86.2381 34.26C86.5261 33.788 86.9221 33.42 87.4261 33.156C87.9381 32.892 88.5301 32.76 89.2021 32.76C89.8821 32.76 90.4741 32.892 90.9781 33.156C91.4901 33.42 91.8861 33.788 92.1661 34.26C92.4461 34.732 92.5861 35.284 92.5861 35.916C92.5861 36.548 92.4421 37.108 92.1541 37.596C91.8741 38.076 91.4781 38.452 90.9661 38.724C90.4621 38.988 89.8741 39.12 89.2021 39.12ZM89.2021 37.704C89.4821 37.704 89.7341 37.632 89.9581 37.488C90.1901 37.344 90.3741 37.14 90.5101 36.876C90.6461 36.604 90.7141 36.28 90.7141 35.904C90.7141 35.352 90.5661 34.928 90.2701 34.632C89.9821 34.328 89.6261 34.176 89.2021 34.176C88.7781 34.176 88.4181 34.328 88.1221 34.632C87.8341 34.936 87.6901 35.36 87.6901 35.904C87.6901 36.28 87.7581 36.604 87.8941 36.876C88.0301 37.14 88.2101 37.344 88.4341 37.488C88.6661 37.632 88.9221 37.704 89.2021 37.704ZM93.8911 39V32.472C93.8911 31.736 94.0911 31.18 94.4911 30.804C94.8911 30.428 95.4831 30.24 96.2671 30.24C96.4351 30.24 96.5791 30.248 96.6991 30.264C96.8271 30.28 96.9511 30.308 97.0711 30.348V31.728C97.0151 31.704 96.9471 31.688 96.8671 31.68C96.7871 31.664 96.6911 31.656 96.5791 31.656C96.2751 31.656 96.0511 31.728 95.9071 31.872C95.7631 32.016 95.6911 32.224 95.6911 32.496V39H93.8911ZM92.8711 34.248V32.88H96.9391V34.248H92.8711ZM98.4614 39V32.472C98.4614 31.736 98.6614 31.18 99.0614 30.804C99.4614 30.428 100.053 30.24 100.837 30.24C101.005 30.24 101.149 30.248 101.269 30.264C101.397 30.28 101.521 30.308 101.641 30.348V31.728C101.585 31.704 101.517 31.688 101.437 31.68C101.357 31.664 101.261 31.656 101.149 31.656C100.845 31.656 100.621 31.728 100.477 31.872C100.333 32.016 100.261 32.224 100.261 32.496V39H98.4614ZM97.4414 34.248V32.88H101.509V34.248H97.4414ZM105.127 39.12C104.447 39.12 103.855 38.988 103.351 38.724C102.847 38.452 102.455 38.076 102.175 37.596C101.903 37.116 101.767 36.564 101.767 35.94C101.767 35.308 101.903 34.756 102.175 34.284C102.455 33.804 102.843 33.432 103.339 33.168C103.835 32.896 104.411 32.76 105.067 32.76C105.699 32.76 106.247 32.888 106.711 33.144C107.175 33.4 107.535 33.756 107.791 34.212C108.047 34.668 108.175 35.204 108.175 35.82C108.175 35.948 108.171 36.068 108.163 36.18C108.155 36.284 108.143 36.384 108.127 36.48H102.823V35.292H106.675L106.363 35.508C106.363 35.012 106.243 34.648 106.003 34.416C105.771 34.176 105.451 34.056 105.043 34.056C104.571 34.056 104.203 34.216 103.939 34.536C103.683 34.856 103.555 35.336 103.555 35.976C103.555 36.6 103.683 37.064 103.939 37.368C104.203 37.672 104.595 37.824 105.115 37.824C105.403 37.824 105.651 37.776 105.859 37.68C106.067 37.584 106.223 37.428 106.327 37.212H108.019C107.819 37.804 107.475 38.272 106.987 38.616C106.507 38.952 105.887 39.12 105.127 39.12ZM112.135 39.12C111.455 39.12 110.863 38.988 110.359 38.724C109.855 38.452 109.463 38.076 109.183 37.596C108.911 37.116 108.775 36.564 108.775 35.94C108.775 35.308 108.911 34.756 109.183 34.284C109.463 33.804 109.851 33.432 110.347 33.168C110.843 32.896 111.419 32.76 112.075 32.76C112.707 32.76 113.255 32.888 113.719 33.144C114.183 33.4 114.543 33.756 114.799 34.212C115.055 34.668 115.183 35.204 115.183 35.82C115.183 35.948 115.179 36.068 115.171 36.18C115.163 36.284 115.151 36.384 115.135 36.48H109.831V35.292H113.683L113.371 35.508C113.371 35.012 113.251 34.648 113.011 34.416C112.779 34.176 112.459 34.056 112.051 34.056C111.579 34.056 111.211 34.216 110.947 34.536C110.691 34.856 110.563 35.336 110.563 35.976C110.563 36.6 110.691 37.064 110.947 37.368C111.211 37.672 111.603 37.824 112.123 37.824C112.411 37.824 112.659 37.776 112.867 37.68C113.075 37.584 113.231 37.428 113.335 37.212H115.027C114.827 37.804 114.483 38.272 113.995 38.616C113.515 38.952 112.895 39.12 112.135 39.12ZM118.431 36.456V35.016H122.823V36.456H118.431ZM127.56 39V37.56H129.744C130.368 37.56 130.896 37.436 131.328 37.188C131.768 36.932 132.1 36.584 132.324 36.144C132.556 35.704 132.672 35.2 132.672 34.632C132.672 34.072 132.56 33.58 132.336 33.156C132.112 32.732 131.78 32.4 131.34 32.16C130.908 31.92 130.376 31.8 129.744 31.8H127.596V30.36H129.744C130.712 30.36 131.556 30.536 132.276 30.888C132.996 31.232 133.552 31.728 133.944 32.376C134.344 33.016 134.544 33.776 134.544 34.656C134.544 35.536 134.344 36.304 133.944 36.96C133.544 37.608 132.984 38.112 132.264 38.472C131.552 38.824 130.716 39 129.756 39H127.56ZM126.432 39V30.36H128.28V39H126.432ZM139.287 39C139.239 38.824 139.203 38.636 139.179 38.436C139.163 38.236 139.155 38.004 139.155 37.74H139.107V34.848C139.107 34.6 139.023 34.408 138.855 34.272C138.695 34.128 138.455 34.056 138.135 34.056C137.831 34.056 137.587 34.108 137.403 34.212C137.227 34.316 137.111 34.468 137.055 34.668H135.339C135.419 34.116 135.703 33.66 136.191 33.3C136.679 32.94 137.347 32.76 138.195 32.76C139.075 32.76 139.747 32.956 140.211 33.348C140.675 33.74 140.907 34.304 140.907 35.04V37.74C140.907 37.94 140.919 38.144 140.943 38.352C140.975 38.552 141.023 38.768 141.087 39H139.287ZM137.151 39.12C136.543 39.12 136.059 38.968 135.699 38.664C135.339 38.352 135.159 37.94 135.159 37.428C135.159 36.86 135.371 36.404 135.795 36.06C136.227 35.708 136.827 35.48 137.595 35.376L139.383 35.124V36.168L137.895 36.396C137.575 36.444 137.339 36.532 137.187 36.66C137.035 36.788 136.959 36.964 136.959 37.188C136.959 37.388 137.031 37.54 137.175 37.644C137.319 37.748 137.511 37.8 137.751 37.8C138.127 37.8 138.447 37.7 138.711 37.5C138.975 37.292 139.107 37.052 139.107 36.78L139.275 37.74C139.099 38.196 138.831 38.54 138.471 38.772C138.111 39.004 137.671 39.12 137.151 39.12ZM144.598 39.12C143.702 39.12 142.99 38.94 142.462 38.58C141.934 38.22 141.646 37.724 141.598 37.092H143.206C143.246 37.364 143.382 37.572 143.614 37.716C143.854 37.852 144.182 37.92 144.598 37.92C144.974 37.92 145.246 37.868 145.414 37.764C145.59 37.652 145.678 37.496 145.678 37.296C145.678 37.144 145.626 37.028 145.522 36.948C145.426 36.86 145.246 36.788 144.982 36.732L143.998 36.528C143.27 36.376 142.734 36.148 142.39 35.844C142.046 35.532 141.874 35.132 141.874 34.644C141.874 34.052 142.102 33.592 142.558 33.264C143.014 32.928 143.65 32.76 144.466 32.76C145.274 32.76 145.918 32.924 146.398 33.252C146.878 33.572 147.142 34.02 147.19 34.596H145.582C145.55 34.388 145.438 34.232 145.246 34.128C145.054 34.016 144.782 33.96 144.43 33.96C144.11 33.96 143.87 34.008 143.71 34.104C143.558 34.192 143.482 34.32 143.482 34.488C143.482 34.632 143.546 34.748 143.674 34.836C143.802 34.916 144.014 34.988 144.31 35.052L145.414 35.28C146.03 35.408 146.494 35.648 146.806 36C147.126 36.344 147.286 36.752 147.286 37.224C147.286 37.824 147.05 38.292 146.578 38.628C146.114 38.956 145.454 39.12 144.598 39.12ZM148.173 39V30.36H149.973V39H148.173ZM152.433 39V35.208C152.433 34.872 152.345 34.62 152.169 34.452C152.001 34.284 151.753 34.2 151.425 34.2C151.145 34.2 150.893 34.264 150.669 34.392C150.453 34.52 150.281 34.696 150.153 34.92C150.033 35.144 149.973 35.408 149.973 35.712L149.817 34.236C150.017 33.788 150.309 33.432 150.693 33.168C151.085 32.896 151.565 32.76 152.133 32.76C152.813 32.76 153.333 32.952 153.693 33.336C154.053 33.712 154.233 34.22 154.233 34.86V39H152.433ZM159.335 39.12C158.751 39.12 158.275 38.984 157.907 38.712C157.547 38.44 157.335 38.068 157.271 37.596L157.367 37.584V39H155.603V30.36H157.403V34.236L157.295 34.212C157.383 33.764 157.615 33.412 157.991 33.156C158.375 32.892 158.855 32.76 159.431 32.76C159.983 32.76 160.459 32.892 160.859 33.156C161.267 33.412 161.579 33.776 161.795 34.248C162.019 34.72 162.131 35.276 162.131 35.916C162.131 36.564 162.015 37.128 161.783 37.608C161.551 38.088 161.227 38.46 160.811 38.724C160.395 38.988 159.903 39.12 159.335 39.12ZM158.831 37.68C159.255 37.68 159.599 37.528 159.863 37.224C160.127 36.92 160.259 36.488 160.259 35.928C160.259 35.368 160.123 34.94 159.851 34.644C159.587 34.348 159.239 34.2 158.807 34.2C158.391 34.2 158.047 34.352 157.775 34.656C157.511 34.952 157.379 35.38 157.379 35.94C157.379 36.5 157.511 36.932 157.775 37.236C158.047 37.532 158.399 37.68 158.831 37.68ZM166.159 39.12C165.487 39.12 164.895 38.988 164.383 38.724C163.879 38.452 163.483 38.076 163.195 37.596C162.915 37.108 162.775 36.548 162.775 35.916C162.775 35.284 162.915 34.732 163.195 34.26C163.483 33.788 163.879 33.42 164.383 33.156C164.895 32.892 165.487 32.76 166.159 32.76C166.839 32.76 167.431 32.892 167.935 33.156C168.447 33.42 168.843 33.788 169.123 34.26C169.403 34.732 169.543 35.284 169.543 35.916C169.543 36.548 169.399 37.108 169.111 37.596C168.831 38.076 168.435 38.452 167.923 38.724C167.419 38.988 166.831 39.12 166.159 39.12ZM166.159 37.704C166.439 37.704 166.691 37.632 166.915 37.488C167.147 37.344 167.331 37.14 167.467 36.876C167.603 36.604 167.671 36.28 167.671 35.904C167.671 35.352 167.523 34.928 167.227 34.632C166.939 34.328 166.583 34.176 166.159 34.176C165.735 34.176 165.375 34.328 165.079 34.632C164.791 34.936 164.647 35.36 164.647 35.904C164.647 36.28 164.715 36.604 164.851 36.876C164.987 37.14 165.167 37.344 165.391 37.488C165.623 37.632 165.879 37.704 166.159 37.704ZM174.314 39C174.266 38.824 174.23 38.636 174.206 38.436C174.19 38.236 174.182 38.004 174.182 37.74H174.134V34.848C174.134 34.6 174.05 34.408 173.882 34.272C173.722 34.128 173.482 34.056 173.162 34.056C172.858 34.056 172.614 34.108 172.43 34.212C172.254 34.316 172.138 34.468 172.082 34.668H170.366C170.446 34.116 170.73 33.66 171.218 33.3C171.706 32.94 172.374 32.76 173.222 32.76C174.102 32.76 174.774 32.956 175.238 33.348C175.702 33.74 175.934 34.304 175.934 35.04V37.74C175.934 37.94 175.946 38.144 175.97 38.352C176.002 38.552 176.05 38.768 176.114 39H174.314ZM172.178 39.12C171.57 39.12 171.086 38.968 170.726 38.664C170.366 38.352 170.186 37.94 170.186 37.428C170.186 36.86 170.398 36.404 170.822 36.06C171.254 35.708 171.854 35.48 172.622 35.376L174.41 35.124V36.168L172.922 36.396C172.602 36.444 172.366 36.532 172.214 36.66C172.062 36.788 171.986 36.964 171.986 37.188C171.986 37.388 172.058 37.54 172.202 37.644C172.346 37.748 172.538 37.8 172.778 37.8C173.154 37.8 173.474 37.7 173.738 37.5C174.002 37.292 174.134 37.052 174.134 36.78L174.302 37.74C174.126 38.196 173.858 38.54 173.498 38.772C173.138 39.004 172.698 39.12 172.178 39.12ZM177.318 39V32.88H179.082V34.32H179.118V39H177.318ZM179.118 35.808L178.962 34.356C179.106 33.836 179.342 33.44 179.67 33.168C179.998 32.896 180.406 32.76 180.894 32.76C181.046 32.76 181.158 32.776 181.23 32.808V34.488C181.19 34.472 181.134 34.464 181.062 34.464C180.99 34.456 180.902 34.452 180.798 34.452C180.222 34.452 179.798 34.556 179.526 34.764C179.254 34.964 179.118 35.312 179.118 35.808ZM186.325 39V37.644L186.445 37.668C186.365 38.108 186.125 38.46 185.725 38.724C185.333 38.988 184.861 39.12 184.309 39.12C183.749 39.12 183.261 38.992 182.845 38.736C182.437 38.472 182.121 38.104 181.897 37.632C181.673 37.16 181.561 36.604 181.561 35.964C181.561 35.316 181.677 34.752 181.909 34.272C182.141 33.792 182.465 33.42 182.881 33.156C183.305 32.892 183.797 32.76 184.357 32.76C184.941 32.76 185.413 32.896 185.773 33.168C186.141 33.44 186.357 33.812 186.421 34.284L186.289 34.296V30.36H188.089V39H186.325ZM184.885 37.68C185.309 37.68 185.653 37.532 185.917 37.236C186.181 36.932 186.313 36.5 186.313 35.94C186.313 35.38 186.177 34.952 185.905 34.656C185.641 34.352 185.293 34.2 184.861 34.2C184.445 34.2 184.101 34.352 183.829 34.656C183.565 34.96 183.433 35.392 183.433 35.952C183.433 36.512 183.565 36.94 183.829 37.236C184.101 37.532 184.453 37.68 184.885 37.68ZM196.146 39V37.644L196.266 37.668C196.186 38.108 195.946 38.46 195.546 38.724C195.154 38.988 194.682 39.12 194.13 39.12C193.57 39.12 193.082 38.992 192.666 38.736C192.258 38.472 191.942 38.104 191.718 37.632C191.494 37.16 191.382 36.604 191.382 35.964C191.382 35.316 191.498 34.752 191.73 34.272C191.962 33.792 192.286 33.42 192.702 33.156C193.126 32.892 193.618 32.76 194.178 32.76C194.762 32.76 195.234 32.896 195.594 33.168C195.962 33.44 196.178 33.812 196.242 34.284L196.11 34.296V30.36H197.91V39H196.146ZM194.706 37.68C195.13 37.68 195.474 37.532 195.738 37.236C196.002 36.932 196.134 36.5 196.134 35.94C196.134 35.38 195.998 34.952 195.726 34.656C195.462 34.352 195.114 34.2 194.682 34.2C194.266 34.2 193.922 34.352 193.65 34.656C193.386 34.96 193.254 35.392 193.254 35.952C193.254 36.512 193.386 36.94 193.65 37.236C193.922 37.532 194.274 37.68 194.706 37.68ZM202.229 39.12C201.549 39.12 200.957 38.988 200.453 38.724C199.949 38.452 199.557 38.076 199.277 37.596C199.005 37.116 198.869 36.564 198.869 35.94C198.869 35.308 199.005 34.756 199.277 34.284C199.557 33.804 199.945 33.432 200.441 33.168C200.937 32.896 201.513 32.76 202.169 32.76C202.801 32.76 203.349 32.888 203.813 33.144C204.277 33.4 204.637 33.756 204.893 34.212C205.149 34.668 205.277 35.204 205.277 35.82C205.277 35.948 205.273 36.068 205.265 36.18C205.257 36.284 205.245 36.384 205.229 36.48H199.925V35.292H203.777L203.465 35.508C203.465 35.012 203.345 34.648 203.105 34.416C202.873 34.176 202.553 34.056 202.145 34.056C201.673 34.056 201.305 34.216 201.041 34.536C200.785 34.856 200.657 35.336 200.657 35.976C200.657 36.6 200.785 37.064 201.041 37.368C201.305 37.672 201.697 37.824 202.217 37.824C202.505 37.824 202.753 37.776 202.961 37.68C203.169 37.584 203.325 37.428 203.429 37.212H205.121C204.921 37.804 204.577 38.272 204.089 38.616C203.609 38.952 202.989 39.12 202.229 39.12ZM212.497 39.12C211.873 39.12 211.297 39.012 210.769 38.796C210.241 38.572 209.781 38.26 209.389 37.86C209.005 37.46 208.705 36.988 208.489 36.444C208.273 35.892 208.165 35.292 208.165 34.644C208.165 33.996 208.269 33.404 208.477 32.868C208.693 32.332 208.993 31.868 209.377 31.476C209.769 31.076 210.229 30.772 210.757 30.564C211.285 30.348 211.865 30.24 212.497 30.24C213.209 30.24 213.849 30.38 214.417 30.66C214.993 30.932 215.461 31.32 215.821 31.824C216.189 32.32 216.413 32.904 216.493 33.576H214.693C214.589 32.96 214.337 32.496 213.937 32.184C213.537 31.864 213.061 31.704 212.509 31.704C212.021 31.704 211.589 31.82 211.213 32.052C210.845 32.284 210.557 32.62 210.349 33.06C210.141 33.492 210.037 34.016 210.037 34.632C210.037 35.256 210.141 35.796 210.349 36.252C210.565 36.7 210.861 37.048 211.237 37.296C211.613 37.536 212.045 37.656 212.533 37.656C213.053 37.656 213.513 37.5 213.913 37.188C214.313 36.876 214.573 36.412 214.693 35.796H216.517C216.413 36.468 216.177 37.056 215.809 37.56C215.441 38.056 214.973 38.44 214.405 38.712C213.837 38.984 213.201 39.12 212.497 39.12ZM220.405 39.12C219.733 39.12 219.141 38.988 218.629 38.724C218.125 38.452 217.729 38.076 217.441 37.596C217.161 37.108 217.021 36.548 217.021 35.916C217.021 35.284 217.161 34.732 217.441 34.26C217.729 33.788 218.125 33.42 218.629 33.156C219.141 32.892 219.733 32.76 220.405 32.76C221.085 32.76 221.677 32.892 222.181 33.156C222.693 33.42 223.089 33.788 223.369 34.26C223.649 34.732 223.789 35.284 223.789 35.916C223.789 36.548 223.645 37.108 223.357 37.596C223.077 38.076 222.681 38.452 222.169 38.724C221.665 38.988 221.077 39.12 220.405 39.12ZM220.405 37.704C220.685 37.704 220.937 37.632 221.161 37.488C221.393 37.344 221.577 37.14 221.713 36.876C221.849 36.604 221.917 36.28 221.917 35.904C221.917 35.352 221.769 34.928 221.473 34.632C221.185 34.328 220.829 34.176 220.405 34.176C219.981 34.176 219.621 34.328 219.325 34.632C219.037 34.936 218.893 35.36 218.893 35.904C218.893 36.28 218.961 36.604 219.097 36.876C219.233 37.14 219.413 37.344 219.637 37.488C219.869 37.632 220.125 37.704 220.405 37.704ZM224.743 39V32.88H226.507V34.32H226.543V39H224.743ZM229.003 39V35.208C229.003 34.872 228.915 34.62 228.739 34.452C228.571 34.284 228.323 34.2 227.995 34.2C227.715 34.2 227.463 34.264 227.239 34.392C227.023 34.52 226.851 34.696 226.723 34.92C226.603 35.144 226.543 35.408 226.543 35.712L226.387 34.236C226.587 33.788 226.879 33.432 227.263 33.168C227.655 32.896 228.135 32.76 228.703 32.76C229.383 32.76 229.903 32.952 230.263 33.336C230.623 33.712 230.803 34.22 230.803 34.86V39H229.003ZM234.819 39.132C234.035 39.132 233.451 38.944 233.067 38.568C232.691 38.184 232.503 37.604 232.503 36.828V31.512L234.303 30.84V36.888C234.303 37.16 234.379 37.364 234.531 37.5C234.683 37.636 234.919 37.704 235.239 37.704C235.359 37.704 235.471 37.692 235.575 37.668C235.679 37.644 235.783 37.616 235.887 37.584V38.952C235.783 39.008 235.635 39.052 235.443 39.084C235.259 39.116 235.051 39.132 234.819 39.132ZM231.363 34.248V32.88H235.887V34.248H231.363ZM236.966 39V32.88H238.73V34.32H238.766V39H236.966ZM238.766 35.808L238.61 34.356C238.754 33.836 238.99 33.44 239.318 33.168C239.646 32.896 240.054 32.76 240.542 32.76C240.694 32.76 240.806 32.776 240.878 32.808V34.488C240.838 34.472 240.782 34.464 240.71 34.464C240.638 34.456 240.55 34.452 240.446 34.452C239.87 34.452 239.446 34.556 239.174 34.764C238.902 34.964 238.766 35.312 238.766 35.808ZM244.558 39.12C243.886 39.12 243.294 38.988 242.782 38.724C242.278 38.452 241.882 38.076 241.594 37.596C241.314 37.108 241.174 36.548 241.174 35.916C241.174 35.284 241.314 34.732 241.594 34.26C241.882 33.788 242.278 33.42 242.782 33.156C243.294 32.892 243.886 32.76 244.558 32.76C245.238 32.76 245.83 32.892 246.334 33.156C246.846 33.42 247.242 33.788 247.522 34.26C247.802 34.732 247.942 35.284 247.942 35.916C247.942 36.548 247.798 37.108 247.51 37.596C247.23 38.076 246.834 38.452 246.322 38.724C245.818 38.988 245.23 39.12 244.558 39.12ZM244.558 37.704C244.838 37.704 245.09 37.632 245.314 37.488C245.546 37.344 245.73 37.14 245.866 36.876C246.002 36.604 246.07 36.28 246.07 35.904C246.07 35.352 245.922 34.928 245.626 34.632C245.338 34.328 244.982 34.176 244.558 34.176C244.134 34.176 243.774 34.328 243.478 34.632C243.19 34.936 243.046 35.36 243.046 35.904C243.046 36.28 243.114 36.604 243.25 36.876C243.386 37.14 243.566 37.344 243.79 37.488C244.022 37.632 244.278 37.704 244.558 37.704ZM248.896 39V30.36H250.696V39H248.896ZM255.982 39C255.934 38.824 255.898 38.636 255.874 38.436C255.858 38.236 255.85 38.004 255.85 37.74H255.802V34.848C255.802 34.6 255.718 34.408 255.55 34.272C255.39 34.128 255.15 34.056 254.83 34.056C254.526 34.056 254.282 34.108 254.098 34.212C253.922 34.316 253.806 34.468 253.75 34.668H252.034C252.114 34.116 252.398 33.66 252.886 33.3C253.374 32.94 254.042 32.76 254.89 32.76C255.77 32.76 256.442 32.956 256.906 33.348C257.37 33.74 257.602 34.304 257.602 35.04V37.74C257.602 37.94 257.614 38.144 257.638 38.352C257.67 38.552 257.718 38.768 257.782 39H255.982ZM253.846 39.12C253.238 39.12 252.754 38.968 252.394 38.664C252.034 38.352 251.854 37.94 251.854 37.428C251.854 36.86 252.066 36.404 252.49 36.06C252.922 35.708 253.522 35.48 254.29 35.376L256.078 35.124V36.168L254.59 36.396C254.27 36.444 254.034 36.532 253.882 36.66C253.73 36.788 253.654 36.964 253.654 37.188C253.654 37.388 253.726 37.54 253.87 37.644C254.014 37.748 254.206 37.8 254.446 37.8C254.822 37.8 255.142 37.7 255.406 37.5C255.67 37.292 255.802 37.052 255.802 36.78L255.97 37.74C255.794 38.196 255.526 38.54 255.166 38.772C254.806 39.004 254.366 39.12 253.846 39.12ZM263.177 39V37.644L263.297 37.668C263.217 38.108 262.977 38.46 262.577 38.724C262.185 38.988 261.713 39.12 261.161 39.12C260.601 39.12 260.113 38.992 259.697 38.736C259.289 38.472 258.973 38.104 258.749 37.632C258.525 37.16 258.413 36.604 258.413 35.964C258.413 35.316 258.529 34.752 258.761 34.272C258.993 33.792 259.317 33.42 259.733 33.156C260.157 32.892 260.649 32.76 261.209 32.76C261.793 32.76 262.265 32.896 262.625 33.168C262.993 33.44 263.209 33.812 263.273 34.284L263.141 34.296V30.36H264.941V39H263.177ZM261.737 37.68C262.161 37.68 262.505 37.532 262.769 37.236C263.033 36.932 263.165 36.5 263.165 35.94C263.165 35.38 263.029 34.952 262.757 34.656C262.493 34.352 262.145 34.2 261.713 34.2C261.297 34.2 260.953 34.352 260.681 34.656C260.417 34.96 260.285 35.392 260.285 35.952C260.285 36.512 260.417 36.94 260.681 37.236C260.953 37.532 261.305 37.68 261.737 37.68ZM269.284 39.12C268.612 39.12 268.02 38.988 267.508 38.724C267.004 38.452 266.608 38.076 266.32 37.596C266.04 37.108 265.9 36.548 265.9 35.916C265.9 35.284 266.04 34.732 266.32 34.26C266.608 33.788 267.004 33.42 267.508 33.156C268.02 32.892 268.612 32.76 269.284 32.76C269.964 32.76 270.556 32.892 271.06 33.156C271.572 33.42 271.968 33.788 272.248 34.26C272.528 34.732 272.668 35.284 272.668 35.916C272.668 36.548 272.524 37.108 272.236 37.596C271.956 38.076 271.56 38.452 271.048 38.724C270.544 38.988 269.956 39.12 269.284 39.12ZM269.284 37.704C269.564 37.704 269.816 37.632 270.04 37.488C270.272 37.344 270.456 37.14 270.592 36.876C270.728 36.604 270.796 36.28 270.796 35.904C270.796 35.352 270.648 34.928 270.352 34.632C270.064 34.328 269.708 34.176 269.284 34.176C268.86 34.176 268.5 34.328 268.204 34.632C267.916 34.936 267.772 35.36 267.772 35.904C267.772 36.28 267.84 36.604 267.976 36.876C268.112 37.14 268.292 37.344 268.516 37.488C268.748 37.632 269.004 37.704 269.284 37.704ZM273.622 39V32.88H275.386V34.32H275.422V39H273.622ZM275.422 35.808L275.266 34.356C275.41 33.836 275.646 33.44 275.974 33.168C276.302 32.896 276.71 32.76 277.198 32.76C277.35 32.76 277.462 32.776 277.534 32.808V34.488C277.494 34.472 277.438 34.464 277.366 34.464C277.294 34.456 277.206 34.452 277.102 34.452C276.526 34.452 276.102 34.556 275.83 34.764C275.558 34.964 275.422 35.312 275.422 35.808ZM278.31 39V32.88H280.11V39H278.31ZM278.25 32.064V30.12H280.17V32.064H278.25ZM285.22 39C285.172 38.824 285.136 38.636 285.112 38.436C285.096 38.236 285.088 38.004 285.088 37.74H285.04V34.848C285.04 34.6 284.956 34.408 284.788 34.272C284.628 34.128 284.388 34.056 284.068 34.056C283.764 34.056 283.52 34.108 283.336 34.212C283.16 34.316 283.044 34.468 282.988 34.668H281.272C281.352 34.116 281.636 33.66 282.124 33.3C282.612 32.94 283.28 32.76 284.128 32.76C285.008 32.76 285.68 32.956 286.144 33.348C286.608 33.74 286.84 34.304 286.84 35.04V37.74C286.84 37.94 286.852 38.144 286.876 38.352C286.908 38.552 286.956 38.768 287.02 39H285.22ZM283.084 39.12C282.476 39.12 281.992 38.968 281.632 38.664C281.272 38.352 281.092 37.94 281.092 37.428C281.092 36.86 281.304 36.404 281.728 36.06C282.16 35.708 282.76 35.48 283.528 35.376L285.316 35.124V36.168L283.828 36.396C283.508 36.444 283.272 36.532 283.12 36.66C282.968 36.788 282.892 36.964 282.892 37.188C282.892 37.388 282.964 37.54 283.108 37.644C283.252 37.748 283.444 37.8 283.684 37.8C284.06 37.8 284.38 37.7 284.644 37.5C284.908 37.292 285.04 37.052 285.04 36.78L285.208 37.74C285.032 38.196 284.764 38.54 284.404 38.772C284.044 39.004 283.604 39.12 283.084 39.12Z" fill="#1A0F2E"/>
<path d="M322.552 39V30.36H326.416C327.04 30.36 327.584 30.468 328.048 30.684C328.512 30.892 328.872 31.188 329.128 31.572C329.384 31.956 329.512 32.404 329.512 32.916C329.512 33.42 329.384 33.864 329.128 34.248C328.872 34.624 328.512 34.92 328.048 35.136C327.584 35.344 327.04 35.448 326.416 35.448H324.016V34.092H326.368C326.808 34.092 327.144 33.992 327.376 33.792C327.616 33.584 327.736 33.296 327.736 32.928C327.736 32.552 327.62 32.268 327.388 32.076C327.156 31.876 326.816 31.776 326.368 31.776H324.4V39H322.552ZM327.424 39L323.956 34.512H325.912L329.92 39H327.424ZM333.252 39.12C332.572 39.12 331.98 38.988 331.476 38.724C330.972 38.452 330.58 38.076 330.3 37.596C330.028 37.116 329.892 36.564 329.892 35.94C329.892 35.308 330.028 34.756 330.3 34.284C330.58 33.804 330.968 33.432 331.464 33.168C331.96 32.896 332.536 32.76 333.192 32.76C333.824 32.76 334.372 32.888 334.836 33.144C335.3 33.4 335.66 33.756 335.916 34.212C336.172 34.668 336.3 35.204 336.3 35.82C336.3 35.948 336.296 36.068 336.288 36.18C336.28 36.284 336.268 36.384 336.252 36.48H330.948V35.292H334.8L334.488 35.508C334.488 35.012 334.368 34.648 334.128 34.416C333.896 34.176 333.576 34.056 333.168 34.056C332.696 34.056 332.328 34.216 332.064 34.536C331.808 34.856 331.68 35.336 331.68 35.976C331.68 36.6 331.808 37.064 332.064 37.368C332.328 37.672 332.72 37.824 333.24 37.824C333.528 37.824 333.776 37.776 333.984 37.68C334.192 37.584 334.348 37.428 334.452 37.212H336.144C335.944 37.804 335.6 38.272 335.112 38.616C334.632 38.952 334.012 39.12 333.252 39.12ZM340.986 39C340.938 38.824 340.902 38.636 340.878 38.436C340.862 38.236 340.854 38.004 340.854 37.74H340.806V34.848C340.806 34.6 340.722 34.408 340.554 34.272C340.394 34.128 340.154 34.056 339.834 34.056C339.53 34.056 339.286 34.108 339.102 34.212C338.926 34.316 338.81 34.468 338.754 34.668H337.038C337.118 34.116 337.402 33.66 337.89 33.3C338.378 32.94 339.046 32.76 339.894 32.76C340.774 32.76 341.446 32.956 341.91 33.348C342.374 33.74 342.606 34.304 342.606 35.04V37.74C342.606 37.94 342.618 38.144 342.642 38.352C342.674 38.552 342.722 38.768 342.786 39H340.986ZM338.85 39.12C338.242 39.12 337.758 38.968 337.398 38.664C337.038 38.352 336.858 37.94 336.858 37.428C336.858 36.86 337.07 36.404 337.494 36.06C337.926 35.708 338.526 35.48 339.294 35.376L341.082 35.124V36.168L339.594 36.396C339.274 36.444 339.038 36.532 338.886 36.66C338.734 36.788 338.658 36.964 338.658 37.188C338.658 37.388 338.73 37.54 338.874 37.644C339.018 37.748 339.21 37.8 339.45 37.8C339.826 37.8 340.146 37.7 340.41 37.5C340.674 37.292 340.806 37.052 340.806 36.78L340.974 37.74C340.798 38.196 340.53 38.54 340.17 38.772C339.81 39.004 339.37 39.12 338.85 39.12ZM343.99 39V30.36H345.79V39H343.99ZM351.177 39L348.765 32.88H350.697L352.581 38.592H351.573L353.445 32.88H355.329L352.917 39H351.177ZM358.321 39.12C357.425 39.12 356.713 38.94 356.185 38.58C355.657 38.22 355.369 37.724 355.321 37.092H356.929C356.969 37.364 357.105 37.572 357.337 37.716C357.577 37.852 357.905 37.92 358.321 37.92C358.697 37.92 358.969 37.868 359.137 37.764C359.313 37.652 359.401 37.496 359.401 37.296C359.401 37.144 359.349 37.028 359.245 36.948C359.149 36.86 358.969 36.788 358.705 36.732L357.721 36.528C356.993 36.376 356.457 36.148 356.113 35.844C355.769 35.532 355.597 35.132 355.597 34.644C355.597 34.052 355.825 33.592 356.281 33.264C356.737 32.928 357.373 32.76 358.189 32.76C358.997 32.76 359.641 32.924 360.121 33.252C360.601 33.572 360.865 34.02 360.913 34.596H359.305C359.273 34.388 359.161 34.232 358.969 34.128C358.777 34.016 358.505 33.96 358.153 33.96C357.833 33.96 357.593 34.008 357.433 34.104C357.281 34.192 357.205 34.32 357.205 34.488C357.205 34.632 357.269 34.748 357.397 34.836C357.525 34.916 357.737 34.988 358.033 35.052L359.137 35.28C359.753 35.408 360.217 35.648 360.529 36C360.849 36.344 361.009 36.752 361.009 37.224C361.009 37.824 360.773 38.292 360.301 38.628C359.837 38.956 359.177 39.12 358.321 39.12ZM364.061 39V30.36H366.941L369.341 38.688H368.297L370.697 30.36H373.589V39H371.765V30.876H372.077L369.737 39H367.829L365.513 30.948H365.813V39H364.061ZM377.784 39.12C377.104 39.12 376.512 38.988 376.008 38.724C375.504 38.452 375.112 38.076 374.832 37.596C374.56 37.116 374.424 36.564 374.424 35.94C374.424 35.308 374.56 34.756 374.832 34.284C375.112 33.804 375.5 33.432 375.996 33.168C376.492 32.896 377.068 32.76 377.724 32.76C378.356 32.76 378.904 32.888 379.368 33.144C379.832 33.4 380.192 33.756 380.448 34.212C380.704 34.668 380.832 35.204 380.832 35.82C380.832 35.948 380.828 36.068 380.82 36.18C380.812 36.284 380.8 36.384 380.784 36.48H375.48V35.292H379.332L379.02 35.508C379.02 35.012 378.9 34.648 378.66 34.416C378.428 34.176 378.108 34.056 377.7 34.056C377.228 34.056 376.86 34.216 376.596 34.536C376.34 34.856 376.212 35.336 376.212 35.976C376.212 36.6 376.34 37.064 376.596 37.368C376.86 37.672 377.252 37.824 377.772 37.824C378.06 37.824 378.308 37.776 378.516 37.68C378.724 37.584 378.88 37.428 378.984 37.212H380.676C380.476 37.804 380.132 38.272 379.644 38.616C379.164 38.952 378.544 39.12 377.784 39.12ZM384.534 39.132C383.75 39.132 383.166 38.944 382.782 38.568C382.406 38.184 382.218 37.604 382.218 36.828V31.512L384.018 30.84V36.888C384.018 37.16 384.094 37.364 384.246 37.5C384.398 37.636 384.634 37.704 384.954 37.704C385.074 37.704 385.186 37.692 385.29 37.668C385.394 37.644 385.498 37.616 385.602 37.584V38.952C385.498 39.008 385.35 39.052 385.158 39.084C384.974 39.116 384.766 39.132 384.534 39.132ZM381.078 34.248V32.88H385.602V34.248H381.078ZM390.416 39C390.368 38.824 390.332 38.636 390.308 38.436C390.292 38.236 390.284 38.004 390.284 37.74H390.236V34.848C390.236 34.6 390.152 34.408 389.984 34.272C389.824 34.128 389.584 34.056 389.264 34.056C388.96 34.056 388.716 34.108 388.532 34.212C388.356 34.316 388.24 34.468 388.184 34.668H386.468C386.548 34.116 386.832 33.66 387.32 33.3C387.808 32.94 388.476 32.76 389.324 32.76C390.204 32.76 390.876 32.956 391.34 33.348C391.804 33.74 392.036 34.304 392.036 35.04V37.74C392.036 37.94 392.048 38.144 392.072 38.352C392.104 38.552 392.152 38.768 392.216 39H390.416ZM388.28 39.12C387.672 39.12 387.188 38.968 386.828 38.664C386.468 38.352 386.288 37.94 386.288 37.428C386.288 36.86 386.5 36.404 386.924 36.06C387.356 35.708 387.956 35.48 388.724 35.376L390.512 35.124V36.168L389.024 36.396C388.704 36.444 388.468 36.532 388.316 36.66C388.164 36.788 388.088 36.964 388.088 37.188C388.088 37.388 388.16 37.54 388.304 37.644C388.448 37.748 388.64 37.8 388.88 37.8C389.256 37.8 389.576 37.7 389.84 37.5C390.104 37.292 390.236 37.052 390.236 36.78L390.404 37.74C390.228 38.196 389.96 38.54 389.6 38.772C389.24 39.004 388.8 39.12 388.28 39.12Z" fill="white" fill-opacity="0.44"/>
<path d="M441.288 39L444.384 30.36H445.968L443.124 39H441.288ZM447.624 39L444.792 30.36H446.448L449.544 39H447.624ZM442.92 35.652H447.768V37.092H442.92V35.652ZM450.556 39V32.88H452.32V34.32H452.356V39H450.556ZM454.816 39V35.208C454.816 34.872 454.728 34.62 454.552 34.452C454.384 34.284 454.136 34.2 453.808 34.2C453.528 34.2 453.276 34.264 453.052 34.392C452.836 34.52 452.664 34.696 452.536 34.92C452.416 35.144 452.356 35.408 452.356 35.712L452.2 34.236C452.4 33.788 452.692 33.432 453.076 33.168C453.468 32.896 453.948 32.76 454.516 32.76C455.196 32.76 455.716 32.952 456.076 33.336C456.436 33.712 456.616 34.22 456.616 34.86V39H454.816ZM461.685 39C461.637 38.824 461.601 38.636 461.577 38.436C461.561 38.236 461.553 38.004 461.553 37.74H461.505V34.848C461.505 34.6 461.421 34.408 461.253 34.272C461.093 34.128 460.853 34.056 460.533 34.056C460.229 34.056 459.985 34.108 459.801 34.212C459.625 34.316 459.509 34.468 459.453 34.668H457.737C457.817 34.116 458.101 33.66 458.589 33.3C459.077 32.94 459.745 32.76 460.593 32.76C461.473 32.76 462.145 32.956 462.609 33.348C463.073 33.74 463.305 34.304 463.305 35.04V37.74C463.305 37.94 463.317 38.144 463.341 38.352C463.373 38.552 463.421 38.768 463.485 39H461.685ZM459.549 39.12C458.941 39.12 458.457 38.968 458.097 38.664C457.737 38.352 457.557 37.94 457.557 37.428C457.557 36.86 457.769 36.404 458.193 36.06C458.625 35.708 459.225 35.48 459.993 35.376L461.781 35.124V36.168L460.293 36.396C459.973 36.444 459.737 36.532 459.585 36.66C459.433 36.788 459.357 36.964 459.357 37.188C459.357 37.388 459.429 37.54 459.573 37.644C459.717 37.748 459.909 37.8 460.149 37.8C460.525 37.8 460.845 37.7 461.109 37.5C461.373 37.292 461.505 37.052 461.505 36.78L461.673 37.74C461.497 38.196 461.229 38.54 460.869 38.772C460.509 39.004 460.069 39.12 459.549 39.12ZM461.085 32.004H459.501L460.689 30.12H463.065L461.085 32.004ZM464.689 39V30.36H466.489V39H464.689ZM467.923 39V32.88H469.723V39H467.923ZM467.863 32.064V30.12H469.783V32.064H467.863ZM473.594 39.12C472.698 39.12 471.986 38.94 471.458 38.58C470.93 38.22 470.642 37.724 470.594 37.092H472.202C472.242 37.364 472.378 37.572 472.61 37.716C472.85 37.852 473.178 37.92 473.594 37.92C473.97 37.92 474.242 37.868 474.41 37.764C474.586 37.652 474.674 37.496 474.674 37.296C474.674 37.144 474.622 37.028 474.518 36.948C474.422 36.86 474.242 36.788 473.978 36.732L472.994 36.528C472.266 36.376 471.73 36.148 471.386 35.844C471.042 35.532 470.87 35.132 470.87 34.644C470.87 34.052 471.098 33.592 471.554 33.264C472.01 32.928 472.646 32.76 473.462 32.76C474.27 32.76 474.914 32.924 475.394 33.252C475.874 33.572 476.138 34.02 476.186 34.596H474.578C474.546 34.388 474.434 34.232 474.242 34.128C474.05 34.016 473.778 33.96 473.426 33.96C473.106 33.96 472.866 34.008 472.706 34.104C472.554 34.192 472.478 34.32 472.478 34.488C472.478 34.632 472.542 34.748 472.67 34.836C472.798 34.916 473.01 34.988 473.306 35.052L474.41 35.28C475.026 35.408 475.49 35.648 475.802 36C476.122 36.344 476.282 36.752 476.282 37.224C476.282 37.824 476.046 38.292 475.574 38.628C475.11 38.956 474.45 39.12 473.594 39.12ZM480.26 39.12C479.58 39.12 478.988 38.988 478.484 38.724C477.98 38.452 477.588 38.076 477.308 37.596C477.036 37.116 476.9 36.564 476.9 35.94C476.9 35.308 477.036 34.756 477.308 34.284C477.588 33.804 477.976 33.432 478.472 33.168C478.968 32.896 479.544 32.76 480.2 32.76C480.832 32.76 481.38 32.888 481.844 33.144C482.308 33.4 482.668 33.756 482.924 34.212C483.18 34.668 483.308 35.204 483.308 35.82C483.308 35.948 483.304 36.068 483.296 36.18C483.288 36.284 483.276 36.384 483.26 36.48H477.956V35.292H481.808L481.496 35.508C481.496 35.012 481.376 34.648 481.136 34.416C480.904 34.176 480.584 34.056 480.176 34.056C479.704 34.056 479.336 34.216 479.072 34.536C478.816 34.856 478.688 35.336 478.688 35.976C478.688 36.6 478.816 37.064 479.072 37.368C479.336 37.672 479.728 37.824 480.248 37.824C480.536 37.824 480.784 37.776 480.992 37.68C481.2 37.584 481.356 37.428 481.46 37.212H483.152C482.952 37.804 482.608 38.272 482.12 38.616C481.64 38.952 481.02 39.12 480.26 39.12ZM489.22 39L486.124 30.36H488.044L490.408 37.56H490.18L492.556 30.36H494.38L491.284 39H489.22ZM497.381 39.12C496.701 39.12 496.109 38.988 495.605 38.724C495.101 38.452 494.709 38.076 494.429 37.596C494.157 37.116 494.021 36.564 494.021 35.94C494.021 35.308 494.157 34.756 494.429 34.284C494.709 33.804 495.097 33.432 495.593 33.168C496.089 32.896 496.665 32.76 497.321 32.76C497.953 32.76 498.501 32.888 498.965 33.144C499.429 33.4 499.789 33.756 500.045 34.212C500.301 34.668 500.429 35.204 500.429 35.82C500.429 35.948 500.425 36.068 500.417 36.18C500.409 36.284 500.397 36.384 500.381 36.48H495.077V35.292H498.929L498.617 35.508C498.617 35.012 498.497 34.648 498.257 34.416C498.025 34.176 497.705 34.056 497.297 34.056C496.825 34.056 496.457 34.216 496.193 34.536C495.937 34.856 495.809 35.336 495.809 35.976C495.809 36.6 495.937 37.064 496.193 37.368C496.457 37.672 496.849 37.824 497.369 37.824C497.657 37.824 497.905 37.776 498.113 37.68C498.321 37.584 498.477 37.428 498.581 37.212H500.273C500.073 37.804 499.729 38.272 499.241 38.616C498.761 38.952 498.141 39.12 497.381 39.12ZM501.392 39V32.88H503.156V34.32H503.192V39H501.392ZM503.192 35.808L503.036 34.356C503.18 33.836 503.416 33.44 503.744 33.168C504.072 32.896 504.48 32.76 504.968 32.76C505.12 32.76 505.232 32.776 505.304 32.808V34.488C505.264 34.472 505.208 34.464 505.136 34.464C505.064 34.456 504.976 34.452 504.872 34.452C504.296 34.452 503.872 34.556 503.6 34.764C503.328 34.964 503.192 35.312 503.192 35.808ZM509.229 39.132C508.445 39.132 507.861 38.944 507.477 38.568C507.101 38.184 506.913 37.604 506.913 36.828V31.512L508.713 30.84V36.888C508.713 37.16 508.789 37.364 508.941 37.5C509.093 37.636 509.329 37.704 509.649 37.704C509.769 37.704 509.881 37.692 509.985 37.668C510.089 37.644 510.193 37.616 510.297 37.584V38.952C510.193 39.008 510.045 39.052 509.853 39.084C509.669 39.116 509.461 39.132 509.229 39.132ZM505.773 34.248V32.88H510.297V34.248H505.773ZM511.318 39V32.88H513.118V39H511.318ZM511.258 32.064V30.12H513.178V32.064H511.258ZM517.301 39.12C516.661 39.12 516.097 38.984 515.609 38.712C515.121 38.44 514.737 38.064 514.457 37.584C514.185 37.104 514.049 36.556 514.049 35.94C514.049 35.324 514.185 34.776 514.457 34.296C514.737 33.816 515.121 33.44 515.609 33.168C516.097 32.896 516.661 32.76 517.301 32.76C517.837 32.76 518.317 32.86 518.741 33.06C519.173 33.252 519.525 33.52 519.797 33.864C520.077 34.208 520.257 34.612 520.337 35.076H518.597C518.509 34.78 518.349 34.556 518.117 34.404C517.893 34.252 517.629 34.176 517.325 34.176C517.037 34.176 516.785 34.248 516.569 34.392C516.361 34.536 516.201 34.74 516.089 35.004C515.977 35.268 515.921 35.58 515.921 35.94C515.921 36.3 515.977 36.612 516.089 36.876C516.201 37.14 516.361 37.344 516.569 37.488C516.785 37.632 517.037 37.704 517.325 37.704C517.629 37.704 517.893 37.628 518.117 37.476C518.349 37.324 518.509 37.1 518.597 36.804H520.337C520.257 37.268 520.077 37.672 519.797 38.016C519.525 38.36 519.173 38.632 518.741 38.832C518.317 39.024 517.837 39.12 517.301 39.12ZM525.002 39C524.954 38.824 524.918 38.636 524.894 38.436C524.878 38.236 524.87 38.004 524.87 37.74H524.822V34.848C524.822 34.6 524.738 34.408 524.57 34.272C524.41 34.128 524.17 34.056 523.85 34.056C523.546 34.056 523.302 34.108 523.118 34.212C522.942 34.316 522.826 34.468 522.77 34.668H521.054C521.134 34.116 521.418 33.66 521.906 33.3C522.394 32.94 523.062 32.76 523.91 32.76C524.79 32.76 525.462 32.956 525.926 33.348C526.39 33.74 526.622 34.304 526.622 35.04V37.74C526.622 37.94 526.634 38.144 526.658 38.352C526.69 38.552 526.738 38.768 526.802 39H525.002ZM522.866 39.12C522.258 39.12 521.774 38.968 521.414 38.664C521.054 38.352 520.874 37.94 520.874 37.428C520.874 36.86 521.086 36.404 521.51 36.06C521.942 35.708 522.542 35.48 523.31 35.376L525.098 35.124V36.168L523.61 36.396C523.29 36.444 523.054 36.532 522.902 36.66C522.75 36.788 522.674 36.964 522.674 37.188C522.674 37.388 522.746 37.54 522.89 37.644C523.034 37.748 523.226 37.8 523.466 37.8C523.842 37.8 524.162 37.7 524.426 37.5C524.69 37.292 524.822 37.052 524.822 36.78L524.99 37.74C524.814 38.196 524.546 38.54 524.186 38.772C523.826 39.004 523.386 39.12 522.866 39.12ZM528.005 39V30.36H529.805V39H528.005Z" fill="white"/>
<path d="M45.2353 33.4706H33V37.2353C33 38.2338 33.3966 39.1913 34.1027 39.8973C34.8087 40.6034 35.7662 41 36.7647 41H41.4706C42.4691 41 43.4266 40.6034 44.1326 39.8973C44.8387 39.1913 45.2353 38.2338 45.2353 37.2353V33.4706ZM45.2353 33.4706H47.1176C47.6169 33.4706 48.0957 33.6689 48.4487 34.0219C48.8017 34.3749 49 34.8537 49 35.3529V36.2941C49 36.7933 48.8017 37.2721 48.4487 37.6251C48.0957 37.9782 47.6169 38.1765 47.1176 38.1765H45.2353M41.4706 30.6471C41.4706 30.6471 42.4118 29.7059 41.9412 28.7647L41 26.8824C40.5294 25.9412 41.4706 25 41.4706 25M37.3671 30.6471C37.3671 30.6471 38.3082 29.7059 37.8376 28.7647L36.8965 26.8824C36.4259 25.9412 37.3671 25 37.3671 25" stroke="#1A0F2E" stroke-width="2" stroke-linecap="round" stroke-linejoin="round"/>
<line x1="418.5" y1="21" x2="418.5" y2="48" stroke="#8436E4" stroke-width="3"/>
<path d="M579.288 39L582.384 30.36H583.968L581.124 39H579.288ZM585.624 39L582.792 30.36H584.448L587.544 39H585.624ZM580.92 35.652H585.768V37.092H580.92V35.652ZM588.556 39V32.88H590.32V34.32H590.356V39H588.556ZM592.816 39V35.208C592.816 34.872 592.728 34.62 592.552 34.452C592.384 34.284 592.136 34.2 591.808 34.2C591.528 34.2 591.276 34.264 591.052 34.392C590.836 34.52 590.664 34.696 590.536 34.92C590.416 35.144 590.356 35.408 590.356 35.712L590.2 34.236C590.4 33.788 590.692 33.432 591.076 33.168C591.468 32.896 591.948 32.76 592.516 32.76C593.196 32.76 593.716 32.952 594.076 33.336C594.436 33.712 594.616 34.22 594.616 34.86V39H592.816ZM599.685 39C599.637 38.824 599.601 38.636 599.577 38.436C599.561 38.236 599.553 38.004 599.553 37.74H599.505V34.848C599.505 34.6 599.421 34.408 599.253 34.272C599.093 34.128 598.853 34.056 598.533 34.056C598.229 34.056 597.985 34.108 597.801 34.212C597.625 34.316 597.509 34.468 597.453 34.668H595.737C595.817 34.116 596.101 33.66 596.589 33.3C597.077 32.94 597.745 32.76 598.593 32.76C599.473 32.76 600.145 32.956 600.609 33.348C601.073 33.74 601.305 34.304 601.305 35.04V37.74C601.305 37.94 601.317 38.144 601.341 38.352C601.373 38.552 601.421 38.768 601.485 39H599.685ZM597.549 39.12C596.941 39.12 596.457 38.968 596.097 38.664C595.737 38.352 595.557 37.94 595.557 37.428C595.557 36.86 595.769 36.404 596.193 36.06C596.625 35.708 597.225 35.48 597.993 35.376L599.781 35.124V36.168L598.293 36.396C597.973 36.444 597.737 36.532 597.585 36.66C597.433 36.788 597.357 36.964 597.357 37.188C597.357 37.388 597.429 37.54 597.573 37.644C597.717 37.748 597.909 37.8 598.149 37.8C598.525 37.8 598.845 37.7 599.109 37.5C599.373 37.292 599.505 37.052 599.505 36.78L599.673 37.74C599.497 38.196 599.229 38.54 598.869 38.772C598.509 39.004 598.069 39.12 597.549 39.12ZM599.085 32.004H597.501L598.689 30.12H601.065L599.085 32.004ZM602.689 39V30.36H604.489V39H602.689ZM605.923 39V32.88H607.723V39H605.923ZM605.863 32.064V30.12H607.783V32.064H605.863ZM611.594 39.12C610.698 39.12 609.986 38.94 609.458 38.58C608.93 38.22 608.642 37.724 608.594 37.092H610.202C610.242 37.364 610.378 37.572 610.61 37.716C610.85 37.852 611.178 37.92 611.594 37.92C611.97 37.92 612.242 37.868 612.41 37.764C612.586 37.652 612.674 37.496 612.674 37.296C612.674 37.144 612.622 37.028 612.518 36.948C612.422 36.86 612.242 36.788 611.978 36.732L610.994 36.528C610.266 36.376 609.73 36.148 609.386 35.844C609.042 35.532 608.87 35.132 608.87 34.644C608.87 34.052 609.098 33.592 609.554 33.264C610.01 32.928 610.646 32.76 611.462 32.76C612.27 32.76 612.914 32.924 613.394 33.252C613.874 33.572 614.138 34.02 614.186 34.596H612.578C612.546 34.388 612.434 34.232 612.242 34.128C612.05 34.016 611.778 33.96 611.426 33.96C611.106 33.96 610.866 34.008 610.706 34.104C610.554 34.192 610.478 34.32 610.478 34.488C610.478 34.632 610.542 34.748 610.67 34.836C610.798 34.916 611.01 34.988 611.306 35.052L612.41 35.28C613.026 35.408 613.49 35.648 613.802 36C614.122 36.344 614.282 36.752 614.282 37.224C614.282 37.824 614.046 38.292 613.574 38.628C613.11 38.956 612.45 39.12 611.594 39.12ZM618.26 39.12C617.58 39.12 616.988 38.988 616.484 38.724C615.98 38.452 615.588 38.076 615.308 37.596C615.036 37.116 614.9 36.564 614.9 35.94C614.9 35.308 615.036 34.756 615.308 34.284C615.588 33.804 615.976 33.432 616.472 33.168C616.968 32.896 617.544 32.76 618.2 32.76C618.832 32.76 619.38 32.888 619.844 33.144C620.308 33.4 620.668 33.756 620.924 34.212C621.18 34.668 621.308 35.204 621.308 35.82C621.308 35.948 621.304 36.068 621.296 36.18C621.288 36.284 621.276 36.384 621.26 36.48H615.956V35.292H619.808L619.496 35.508C619.496 35.012 619.376 34.648 619.136 34.416C618.904 34.176 618.584 34.056 618.176 34.056C617.704 34.056 617.336 34.216 617.072 34.536C616.816 34.856 616.688 35.336 616.688 35.976C616.688 36.6 616.816 37.064 617.072 37.368C617.336 37.672 617.728 37.824 618.248 37.824C618.536 37.824 618.784 37.776 618.992 37.68C619.2 37.584 619.356 37.428 619.46 37.212H621.152C620.952 37.804 620.608 38.272 620.12 38.616C619.64 38.952 619.02 39.12 618.26 39.12ZM624.436 39V30.36H626.284V39H624.436ZM630.028 39V30.36H631.876V39H630.028ZM625.3 33.792H630.868V35.208H625.3V33.792ZM636.097 39.12C635.425 39.12 634.833 38.988 634.321 38.724C633.817 38.452 633.421 38.076 633.133 37.596C632.853 37.108 632.713 36.548 632.713 35.916C632.713 35.284 632.853 34.732 633.133 34.26C633.421 33.788 633.817 33.42 634.321 33.156C634.833 32.892 635.425 32.76 636.097 32.76C636.777 32.76 637.369 32.892 637.873 33.156C638.385 33.42 638.781 33.788 639.061 34.26C639.341 34.732 639.481 35.284 639.481 35.916C639.481 36.548 639.337 37.108 639.049 37.596C638.769 38.076 638.373 38.452 637.861 38.724C637.357 38.988 636.769 39.12 636.097 39.12ZM636.097 37.704C636.377 37.704 636.629 37.632 636.853 37.488C637.085 37.344 637.269 37.14 637.405 36.876C637.541 36.604 637.609 36.28 637.609 35.904C637.609 35.352 637.461 34.928 637.165 34.632C636.877 34.328 636.521 34.176 636.097 34.176C635.673 34.176 635.313 34.328 635.017 34.632C634.729 34.936 634.585 35.36 634.585 35.904C634.585 36.28 634.653 36.604 634.789 36.876C634.925 37.14 635.105 37.344 635.329 37.488C635.561 37.632 635.817 37.704 636.097 37.704ZM640.435 39V32.88H642.199V34.32H642.235V39H640.435ZM642.235 35.808L642.079 34.356C642.223 33.836 642.459 33.44 642.787 33.168C643.115 32.896 643.523 32.76 644.011 32.76C644.163 32.76 644.275 32.776 644.347 32.808V34.488C644.307 34.472 644.251 34.464 644.179 34.464C644.107 34.456 644.019 34.452 643.915 34.452C643.339 34.452 642.915 34.556 642.643 34.764C642.371 34.964 642.235 35.312 642.235 35.808ZM645.122 39V32.88H646.922V39H645.122ZM645.062 32.064V30.12H646.982V32.064H645.062ZM647.977 39V37.752L651.385 33.612L651.745 34.248H648.073V32.88H653.185V34.128L649.849 38.184L649.513 37.632H653.233V39H647.977ZM657.097 39.12C656.425 39.12 655.833 38.988 655.321 38.724C654.817 38.452 654.421 38.076 654.133 37.596C653.853 37.108 653.713 36.548 653.713 35.916C653.713 35.284 653.853 34.732 654.133 34.26C654.421 33.788 654.817 33.42 655.321 33.156C655.833 32.892 656.425 32.76 657.097 32.76C657.777 32.76 658.369 32.892 658.873 33.156C659.385 33.42 659.781 33.788 660.061 34.26C660.341 34.732 660.481 35.284 660.481 35.916C660.481 36.548 660.337 37.108 660.049 37.596C659.769 38.076 659.373 38.452 658.861 38.724C658.357 38.988 657.769 39.12 657.097 39.12ZM657.097 37.704C657.377 37.704 657.629 37.632 657.853 37.488C658.085 37.344 658.269 37.14 658.405 36.876C658.541 36.604 658.609 36.28 658.609 35.904C658.609 35.352 658.461 34.928 658.165 34.632C657.877 34.328 657.521 34.176 657.097 34.176C656.673 34.176 656.313 34.328 656.017 34.632C655.729 34.936 655.585 35.36 655.585 35.904C655.585 36.28 655.653 36.604 655.789 36.876C655.925 37.14 656.105 37.344 656.329 37.488C656.561 37.632 656.817 37.704 657.097 37.704ZM661.435 39V32.88H663.199V34.32H663.235V39H661.435ZM665.695 39V35.208C665.695 34.872 665.607 34.62 665.431 34.452C665.263 34.284 665.015 34.2 664.687 34.2C664.407 34.2 664.155 34.264 663.931 34.392C663.715 34.52 663.543 34.696 663.415 34.92C663.295 35.144 663.235 35.408 663.235 35.712L663.079 34.236C663.279 33.788 663.571 33.432 663.955 33.168C664.347 32.896 664.827 32.76 665.395 32.76C666.075 32.76 666.595 32.952 666.955 33.336C667.315 33.712 667.495 34.22 667.495 34.86V39H665.695ZM671.511 39.132C670.727 39.132 670.143 38.944 669.759 38.568C669.383 38.184 669.195 37.604 669.195 36.828V31.512L670.995 30.84V36.888C670.995 37.16 671.071 37.364 671.223 37.5C671.375 37.636 671.611 37.704 671.931 37.704C672.051 37.704 672.163 37.692 672.267 37.668C672.371 37.644 672.475 37.616 672.579 37.584V38.952C672.475 39.008 672.327 39.052 672.135 39.084C671.951 39.116 671.743 39.132 671.511 39.132ZM668.055 34.248V32.88H672.579V34.248H668.055ZM677.392 39C677.344 38.824 677.308 38.636 677.284 38.436C677.268 38.236 677.26 38.004 677.26 37.74H677.212V34.848C677.212 34.6 677.128 34.408 676.96 34.272C676.8 34.128 676.56 34.056 676.24 34.056C675.936 34.056 675.692 34.108 675.508 34.212C675.332 34.316 675.216 34.468 675.16 34.668H673.444C673.524 34.116 673.808 33.66 674.296 33.3C674.784 32.94 675.452 32.76 676.3 32.76C677.18 32.76 677.852 32.956 678.316 33.348C678.78 33.74 679.012 34.304 679.012 35.04V37.74C679.012 37.94 679.024 38.144 679.048 38.352C679.08 38.552 679.128 38.768 679.192 39H677.392ZM675.256 39.12C674.648 39.12 674.164 38.968 673.804 38.664C673.444 38.352 673.264 37.94 673.264 37.428C673.264 36.86 673.476 36.404 673.9 36.06C674.332 35.708 674.932 35.48 675.7 35.376L677.488 35.124V36.168L676 36.396C675.68 36.444 675.444 36.532 675.292 36.66C675.14 36.788 675.064 36.964 675.064 37.188C675.064 37.388 675.136 37.54 675.28 37.644C675.424 37.748 675.616 37.8 675.856 37.8C676.232 37.8 676.552 37.7 676.816 37.5C677.08 37.292 677.212 37.052 677.212 36.78L677.38 37.74C677.204 38.196 676.936 38.54 676.576 38.772C676.216 39.004 675.776 39.12 675.256 39.12ZM680.396 39V30.36H682.196V39H680.396Z" fill="white" fill-opacity="0.44"/>
<line x1="556.5" y1="21" x2="556.5" y2="48" stroke="#8436E4" stroke-width="3"/>
<defs>
<filter id="filter0_d_34_21" x="16" y="248" width="1252" height="450" filterUnits="userSpaceOnUse" color-interpolation-filters="sRGB">
<feFlood flood-opacity="0" result="BackgroundImageFix"/>
<feColorMatrix in="SourceAlpha" type="matrix" values="0 0 0 0 0 0 0 0 0 0 0 0 0 0 0 0 0 0 127 0" result="hardAlpha"/>
<feOffset dx="2" dy="2"/>
<feGaussianBlur stdDeviation="3"/>
<feComposite in2="hardAlpha" operator="out"/>
<feColorMatrix type="matrix" values="0 0 0 0 0 0 0 0 0 0 0 0 0 0 0 0 0 0 0.25 0"/>
<feBlend mode="normal" in2="BackgroundImageFix" result="effect1_dropShadow_34_21"/>
<feBlend mode="normal" in="SourceGraphic" in2="effect1_dropShadow_34_21" result="shape"/>
</filter>
</defs>
</svg>
