<svg width="1280" height="720" viewBox="0 0 1280 720" fill="none" xmlns="http://www.w3.org/2000/svg">
<rect width="1280" height="720" fill="#ECECEC"/>
<path d="M1225.56 694C1225.94 694 1226.31 694.152 1226.58 694.423C1226.85 694.694 1227 695.061 1227 695.444V705.556C1227 705.939 1226.85 706.306 1226.58 706.577C1226.31 706.848 1225.94 707 1225.56 707H1215.44C1215.06 707 1214.69 706.848 1214.42 706.577C1214.15 706.306 1214 705.939 1214 705.556V695.444C1214 695.061 1214.15 694.694 1214.42 694.423C1214.69 694.152 1215.06 694 1215.44 694H1225.56ZM1225.19 705.194V701.367C1225.19 700.742 1224.95 700.143 1224.5 699.702C1224.06 699.26 1223.46 699.012 1222.84 699.012C1222.23 699.012 1221.51 699.388 1221.16 699.951V699.149H1219.15V705.194H1221.16V701.634C1221.16 701.078 1221.61 700.623 1222.17 700.623C1222.44 700.623 1222.69 700.729 1222.88 700.919C1223.07 701.109 1223.18 701.366 1223.18 701.634V705.194H1225.19ZM1216.8 698.016C1217.12 698.016 1217.43 697.888 1217.66 697.66C1217.89 697.433 1218.02 697.124 1218.02 696.802C1218.02 696.131 1217.47 695.582 1216.8 695.582C1216.48 695.582 1216.17 695.71 1215.94 695.939C1215.71 696.168 1215.58 696.479 1215.58 696.802C1215.58 697.474 1216.13 698.016 1216.8 698.016ZM1217.81 705.194V699.149H1215.81V705.194H1217.81Z" fill="#1A0F2E" fill-opacity="0.54"/>
<path d="M1245.6 707C1245.16 707 1244.78 706.841 1244.47 706.523C1244.16 706.205 1244 705.822 1244 705.375V695.625C1244 695.178 1244.16 694.796 1244.47 694.478C1244.78 694.16 1245.16 694.001 1245.6 694H1250.4L1252 695.625H1258.4C1258.84 695.625 1259.22 695.784 1259.53 696.103C1259.84 696.421 1260 696.804 1260 697.25V705.375C1260 705.822 1259.84 706.205 1259.53 706.523C1259.22 706.842 1258.84 707.001 1258.4 707H1245.6Z" fill="#1A0F2E" fill-opacity="0.54"/>
<path d="M1026.66 705V703.944H1028.92C1029.61 703.944 1030.2 703.804 1030.69 703.524C1031.18 703.244 1031.56 702.856 1031.83 702.36C1032.09 701.864 1032.22 701.288 1032.22 700.632C1032.22 699.984 1032.09 699.42 1031.83 698.94C1031.57 698.46 1031.2 698.088 1030.7 697.824C1030.21 697.552 1029.62 697.416 1028.92 697.416H1026.67V696.36H1028.92C1029.85 696.36 1030.66 696.536 1031.35 696.888C1032.04 697.24 1032.57 697.74 1032.94 698.388C1033.33 699.028 1033.52 699.784 1033.52 700.656C1033.52 701.528 1033.33 702.292 1032.94 702.948C1032.56 703.596 1032.02 704.1 1031.34 704.46C1030.66 704.82 1029.86 705 1028.94 705H1026.66ZM1025.89 705V696.36H1027.16V705H1025.89ZM1037.52 705.12C1036.9 705.12 1036.36 704.984 1035.88 704.712C1035.42 704.44 1035.06 704.064 1034.79 703.584C1034.53 703.104 1034.4 702.552 1034.4 701.928C1034.4 701.296 1034.52 700.744 1034.78 700.272C1035.04 699.792 1035.41 699.42 1035.88 699.156C1036.36 698.892 1036.9 698.76 1037.5 698.76C1038.1 698.76 1038.61 698.888 1039.04 699.144C1039.48 699.392 1039.82 699.74 1040.05 700.188C1040.29 700.636 1040.41 701.168 1040.41 701.784C1040.41 701.88 1040.4 701.972 1040.4 702.06C1040.4 702.14 1040.39 702.224 1040.37 702.312H1035.24V701.376H1039.5L1039.18 701.748C1039.18 701.092 1039.04 700.592 1038.74 700.248C1038.44 699.904 1038.03 699.732 1037.5 699.732C1036.94 699.732 1036.48 699.928 1036.15 700.32C1035.82 700.704 1035.66 701.24 1035.66 701.928C1035.66 702.624 1035.82 703.168 1036.15 703.56C1036.48 703.952 1036.95 704.148 1037.54 704.148C1037.9 704.148 1038.21 704.076 1038.48 703.932C1038.74 703.78 1038.94 703.56 1039.06 703.272H1040.24C1040.04 703.848 1039.7 704.3 1039.22 704.628C1038.75 704.956 1038.18 705.12 1037.52 705.12ZM1043.92 705.12C1043.12 705.12 1042.48 704.944 1042.01 704.592C1041.54 704.24 1041.27 703.744 1041.2 703.104H1042.36C1042.41 703.456 1042.57 703.728 1042.84 703.92C1043.11 704.104 1043.48 704.196 1043.94 704.196C1044.35 704.196 1044.66 704.124 1044.88 703.98C1045.09 703.836 1045.2 703.632 1045.2 703.368C1045.2 703.176 1045.14 703.016 1045.01 702.888C1044.89 702.752 1044.65 702.64 1044.29 702.552L1043.3 702.324C1042.69 702.172 1042.23 701.948 1041.92 701.652C1041.63 701.348 1041.48 700.976 1041.48 700.536C1041.48 699.984 1041.68 699.552 1042.09 699.24C1042.51 698.92 1043.08 698.76 1043.8 698.76C1044.51 698.76 1045.08 698.92 1045.51 699.24C1045.95 699.56 1046.2 700.008 1046.26 700.584H1045.1C1045.06 700.296 1044.92 700.076 1044.68 699.924C1044.46 699.764 1044.15 699.684 1043.76 699.684C1043.39 699.684 1043.11 699.752 1042.91 699.888C1042.72 700.016 1042.62 700.196 1042.62 700.428C1042.62 700.62 1042.69 700.78 1042.84 700.908C1042.99 701.036 1043.24 701.144 1043.58 701.232L1044.59 701.484C1045.17 701.628 1045.61 701.864 1045.91 702.192C1046.2 702.512 1046.35 702.9 1046.35 703.356C1046.35 703.908 1046.14 704.34 1045.7 704.652C1045.28 704.964 1044.68 705.12 1043.92 705.12ZM1050.36 705.12C1049.74 705.12 1049.2 704.984 1048.73 704.712C1048.26 704.44 1047.9 704.064 1047.64 703.584C1047.37 703.104 1047.24 702.552 1047.24 701.928C1047.24 701.296 1047.37 700.744 1047.62 700.272C1047.89 699.792 1048.26 699.42 1048.73 699.156C1049.2 698.892 1049.74 698.76 1050.35 698.76C1050.94 698.76 1051.45 698.888 1051.88 699.144C1052.32 699.392 1052.66 699.74 1052.89 700.188C1053.13 700.636 1053.25 701.168 1053.25 701.784C1053.25 701.88 1053.25 701.972 1053.24 702.06C1053.24 702.14 1053.23 702.224 1053.22 702.312H1048.08V701.376H1052.34L1052.03 701.748C1052.03 701.092 1051.88 700.592 1051.58 700.248C1051.29 699.904 1050.88 699.732 1050.35 699.732C1049.78 699.732 1049.33 699.928 1048.99 700.32C1048.66 700.704 1048.5 701.24 1048.5 701.928C1048.5 702.624 1048.66 703.168 1048.99 703.56C1049.33 703.952 1049.79 704.148 1050.38 704.148C1050.74 704.148 1051.06 704.076 1051.32 703.932C1051.58 703.78 1051.78 703.56 1051.91 703.272H1053.08C1052.88 703.848 1052.54 704.3 1052.06 704.628C1051.59 704.956 1051.02 705.12 1050.36 705.12ZM1054.53 705V698.88H1055.72V700.32H1055.78V705H1054.53ZM1058.87 705V701.064C1058.87 700.64 1058.76 700.324 1058.55 700.116C1058.34 699.908 1058.03 699.804 1057.61 699.804C1057.25 699.804 1056.93 699.884 1056.65 700.044C1056.38 700.204 1056.16 700.424 1056 700.704C1055.85 700.984 1055.78 701.316 1055.78 701.7L1055.62 700.236C1055.82 699.78 1056.13 699.42 1056.54 699.156C1056.96 698.892 1057.44 698.76 1058 698.76C1058.65 698.76 1059.17 698.944 1059.54 699.312C1059.92 699.68 1060.11 700.168 1060.11 700.776V705H1058.87ZM1063.31 705L1060.82 698.88H1062.15L1064.19 704.436H1063.6L1065.62 698.88H1066.9L1064.42 705H1063.31ZM1070.42 705.12C1069.8 705.12 1069.25 704.984 1068.78 704.712C1068.31 704.432 1067.94 704.052 1067.67 703.572C1067.41 703.084 1067.28 702.532 1067.28 701.916C1067.28 701.292 1067.41 700.744 1067.67 700.272C1067.95 699.8 1068.31 699.432 1068.78 699.168C1069.25 698.896 1069.8 698.76 1070.42 698.76C1071.05 698.76 1071.61 698.896 1072.08 699.168C1072.55 699.432 1072.91 699.8 1073.17 700.272C1073.43 700.744 1073.57 701.292 1073.57 701.916C1073.57 702.532 1073.43 703.084 1073.17 703.572C1072.91 704.052 1072.55 704.432 1072.08 704.712C1071.61 704.984 1071.05 705.12 1070.42 705.12ZM1070.42 704.1C1070.8 704.1 1071.12 704.008 1071.39 703.824C1071.67 703.64 1071.89 703.384 1072.05 703.056C1072.21 702.728 1072.29 702.344 1072.29 701.904C1072.29 701.248 1072.12 700.732 1071.77 700.356C1071.42 699.972 1070.97 699.78 1070.42 699.78C1069.88 699.78 1069.43 699.972 1069.08 700.356C1068.73 700.74 1068.56 701.256 1068.56 701.904C1068.56 702.344 1068.64 702.728 1068.79 703.056C1068.95 703.384 1069.17 703.64 1069.45 703.824C1069.74 704.008 1070.06 704.1 1070.42 704.1ZM1074.85 705V696.36H1076.1V705H1074.85ZM1079.6 705L1077.1 698.88H1078.44L1080.48 704.436H1079.89L1081.9 698.88H1083.19L1080.7 705H1079.6ZM1084.12 705V698.88H1085.37V705H1084.12ZM1084.06 697.68V696.276H1085.44V697.68H1084.06ZM1091.5 705V703.596L1091.62 703.632C1091.49 704.088 1091.23 704.452 1090.83 704.724C1090.43 704.988 1089.95 705.12 1089.39 705.12C1088.84 705.12 1088.35 704.988 1087.94 704.724C1087.53 704.46 1087.21 704.092 1086.98 703.62C1086.75 703.148 1086.64 702.596 1086.64 701.964C1086.64 701.324 1086.76 700.764 1086.99 700.284C1087.22 699.804 1087.54 699.432 1087.96 699.168C1088.38 698.904 1088.86 698.772 1089.42 698.772C1090.01 698.772 1090.49 698.912 1090.86 699.192C1091.25 699.464 1091.5 699.848 1091.62 700.344L1091.45 700.368V696.36H1092.69V705H1091.5ZM1089.7 704.076C1090.25 704.076 1090.69 703.888 1091.01 703.512C1091.33 703.128 1091.49 702.6 1091.49 701.928C1091.49 701.272 1091.32 700.756 1091 700.38C1090.68 699.996 1090.24 699.804 1089.69 699.804C1089.14 699.804 1088.71 699.996 1088.39 700.38C1088.08 700.756 1087.92 701.284 1087.92 701.964C1087.92 702.628 1088.08 703.148 1088.39 703.524C1088.71 703.892 1089.15 704.076 1089.7 704.076ZM1097.11 705.12C1096.48 705.12 1095.93 704.984 1095.46 704.712C1094.99 704.432 1094.62 704.052 1094.36 703.572C1094.09 703.084 1093.96 702.532 1093.96 701.916C1093.96 701.292 1094.09 700.744 1094.36 700.272C1094.63 699.8 1095 699.432 1095.46 699.168C1095.93 698.896 1096.48 698.76 1097.11 698.76C1097.74 698.76 1098.29 698.896 1098.76 699.168C1099.23 699.432 1099.6 699.8 1099.85 700.272C1100.12 700.744 1100.25 701.292 1100.25 701.916C1100.25 702.532 1100.12 703.084 1099.85 703.572C1099.6 704.052 1099.23 704.432 1098.76 704.712C1098.29 704.984 1097.74 705.12 1097.11 705.12ZM1097.11 704.1C1097.48 704.1 1097.81 704.008 1098.08 703.824C1098.36 703.64 1098.58 703.384 1098.74 703.056C1098.9 702.728 1098.98 702.344 1098.98 701.904C1098.98 701.248 1098.8 700.732 1098.45 700.356C1098.11 699.972 1097.66 699.78 1097.11 699.78C1096.56 699.78 1096.11 699.972 1095.76 700.356C1095.42 700.74 1095.25 701.256 1095.25 701.904C1095.25 702.344 1095.32 702.728 1095.47 703.056C1095.63 703.384 1095.85 703.64 1096.13 703.824C1096.42 704.008 1096.75 704.1 1097.11 704.1ZM1107.16 705.108C1106.59 705.108 1106.11 704.972 1105.72 704.7C1105.35 704.42 1105.1 704.032 1104.98 703.536L1105.15 703.512V707.46H1103.9V698.88H1105.09V700.284L1104.97 700.248C1105.1 699.784 1105.37 699.42 1105.78 699.156C1106.2 698.892 1106.69 698.76 1107.25 698.76C1107.8 698.76 1108.28 698.892 1108.68 699.156C1109.08 699.42 1109.4 699.788 1109.61 700.26C1109.84 700.732 1109.95 701.284 1109.95 701.916C1109.95 702.556 1109.83 703.116 1109.6 703.596C1109.37 704.076 1109.04 704.448 1108.63 704.712C1108.21 704.976 1107.72 705.108 1107.16 705.108ZM1106.9 704.076C1107.44 704.076 1107.88 703.884 1108.2 703.5C1108.52 703.116 1108.68 702.588 1108.68 701.916C1108.68 701.252 1108.52 700.736 1108.2 700.368C1107.88 699.992 1107.44 699.804 1106.89 699.804C1106.34 699.804 1105.91 699.996 1105.58 700.38C1105.26 700.756 1105.1 701.28 1105.1 701.952C1105.1 702.608 1105.26 703.128 1105.58 703.512C1105.91 703.888 1106.35 704.076 1106.9 704.076ZM1113.96 705.12C1113.33 705.12 1112.79 704.984 1112.31 704.712C1111.84 704.432 1111.47 704.052 1111.21 703.572C1110.95 703.084 1110.81 702.532 1110.81 701.916C1110.81 701.292 1110.95 700.744 1111.21 700.272C1111.48 699.8 1111.85 699.432 1112.31 699.168C1112.79 698.896 1113.33 698.76 1113.96 698.76C1114.59 698.76 1115.14 698.896 1115.61 699.168C1116.09 699.432 1116.45 699.8 1116.71 700.272C1116.97 700.744 1117.1 701.292 1117.1 701.916C1117.1 702.532 1116.97 703.084 1116.71 703.572C1116.45 704.052 1116.09 704.432 1115.61 704.712C1115.14 704.984 1114.59 705.12 1113.96 705.12ZM1113.96 704.1C1114.33 704.1 1114.66 704.008 1114.93 703.824C1115.21 703.64 1115.43 703.384 1115.59 703.056C1115.75 702.728 1115.83 702.344 1115.83 701.904C1115.83 701.248 1115.65 700.732 1115.3 700.356C1114.96 699.972 1114.51 699.78 1113.96 699.78C1113.41 699.78 1112.97 699.972 1112.61 700.356C1112.27 700.74 1112.1 701.256 1112.1 701.904C1112.1 702.344 1112.17 702.728 1112.33 703.056C1112.49 703.384 1112.71 703.64 1112.99 703.824C1113.27 704.008 1113.6 704.1 1113.96 704.1ZM1118.38 705V698.88H1119.57V700.404H1119.63V705H1118.38ZM1119.63 701.808L1119.48 700.356C1119.62 699.836 1119.87 699.44 1120.22 699.168C1120.57 698.896 1120.99 698.76 1121.48 698.76C1121.66 698.76 1121.79 698.776 1121.86 698.808V699.984C1121.82 699.968 1121.77 699.96 1121.7 699.96C1121.62 699.952 1121.54 699.948 1121.43 699.948C1120.83 699.948 1120.38 700.104 1120.08 700.416C1119.78 700.728 1119.63 701.192 1119.63 701.808ZM1122.86 705V703.512H1124.34V705H1122.86ZM1122.86 700.656V699.168H1124.34V700.656H1122.86ZM1129.24 705.12C1128.94 705.12 1128.65 705.096 1128.37 705.048C1128.09 705.008 1127.88 704.956 1127.75 704.892V703.812C1127.93 703.884 1128.14 703.944 1128.39 703.992C1128.64 704.04 1128.89 704.064 1129.15 704.064C1129.67 704.064 1130.07 703.956 1130.33 703.74C1130.61 703.516 1130.74 703.164 1130.74 702.684V696.36H1132.01V702.732C1132.01 703.532 1131.78 704.132 1131.31 704.532C1130.83 704.924 1130.15 705.12 1129.24 705.12ZM1137.4 705C1137.36 704.848 1137.33 704.68 1137.31 704.496C1137.31 704.312 1137.3 704.088 1137.3 703.824H1137.24V700.908C1137.24 700.516 1137.14 700.224 1136.94 700.032C1136.75 699.832 1136.44 699.732 1136.02 699.732C1135.61 699.732 1135.28 699.812 1135.03 699.972C1134.79 700.132 1134.65 700.36 1134.61 700.656H1133.43C1133.48 700.08 1133.74 699.62 1134.21 699.276C1134.67 698.932 1135.29 698.76 1136.07 698.76C1136.87 698.76 1137.47 698.948 1137.87 699.324C1138.27 699.692 1138.47 700.236 1138.47 700.956V703.824C1138.47 704.008 1138.48 704.196 1138.5 704.388C1138.53 704.58 1138.56 704.784 1138.61 705H1137.4ZM1135.29 705.12C1134.66 705.12 1134.17 704.968 1133.8 704.664C1133.43 704.352 1133.25 703.932 1133.25 703.404C1133.25 702.86 1133.44 702.432 1133.82 702.12C1134.21 701.8 1134.77 701.584 1135.5 701.472L1137.52 701.148V702.024L1135.69 702.312C1135.29 702.376 1134.98 702.484 1134.77 702.636C1134.57 702.788 1134.47 703.008 1134.47 703.296C1134.47 703.576 1134.56 703.788 1134.75 703.932C1134.94 704.068 1135.21 704.136 1135.57 704.136C1136.05 704.136 1136.45 704.02 1136.76 703.788C1137.08 703.556 1137.24 703.264 1137.24 702.912L1137.4 703.8C1137.25 704.224 1137 704.552 1136.63 704.784C1136.26 705.008 1135.81 705.12 1135.29 705.12ZM1140.08 705V698.88H1141.32V705H1140.08ZM1140.02 697.68V696.276H1141.4V697.68H1140.02ZM1143.08 705V698.88H1144.26V700.404H1144.32V705H1143.08ZM1144.32 701.808L1144.17 700.356C1144.31 699.836 1144.56 699.44 1144.91 699.168C1145.26 698.896 1145.68 698.76 1146.17 698.76C1146.36 698.76 1146.48 698.776 1146.56 698.808V699.984C1146.52 699.968 1146.46 699.96 1146.39 699.96C1146.32 699.952 1146.23 699.948 1146.12 699.948C1145.52 699.948 1145.07 700.104 1144.77 700.416C1144.47 700.728 1144.32 701.192 1144.32 701.808ZM1153.85 705.12C1153.25 705.12 1152.7 705.012 1152.18 704.796C1151.67 704.572 1151.23 704.264 1150.85 703.872C1150.48 703.472 1150.2 703 1149.99 702.456C1149.78 701.912 1149.68 701.316 1149.68 700.668C1149.68 700.02 1149.78 699.428 1149.98 698.892C1150.18 698.348 1150.47 697.88 1150.84 697.488C1151.22 697.088 1151.66 696.78 1152.17 696.564C1152.68 696.348 1153.24 696.24 1153.84 696.24C1154.51 696.24 1155.12 696.376 1155.65 696.648C1156.19 696.912 1156.62 697.288 1156.96 697.776C1157.3 698.264 1157.52 698.832 1157.6 699.48H1156.35C1156.24 698.8 1155.97 698.272 1155.52 697.896C1155.08 697.512 1154.52 697.32 1153.85 697.32C1153.28 697.32 1152.78 697.46 1152.34 697.74C1151.91 698.012 1151.57 698.4 1151.33 698.904C1151.09 699.4 1150.97 699.988 1150.97 700.668C1150.97 701.34 1151.09 701.932 1151.33 702.444C1151.58 702.948 1151.92 703.34 1152.35 703.62C1152.78 703.9 1153.28 704.04 1153.85 704.04C1154.52 704.04 1155.08 703.852 1155.53 703.476C1155.99 703.092 1156.26 702.56 1156.36 701.88H1157.62C1157.53 702.536 1157.32 703.108 1156.97 703.596C1156.63 704.076 1156.19 704.452 1155.65 704.724C1155.12 704.988 1154.52 705.12 1153.85 705.12ZM1162.57 705C1162.53 704.848 1162.5 704.68 1162.49 704.496C1162.48 704.312 1162.47 704.088 1162.47 703.824H1162.41V700.908C1162.41 700.516 1162.31 700.224 1162.11 700.032C1161.92 699.832 1161.61 699.732 1161.19 699.732C1160.78 699.732 1160.45 699.812 1160.21 699.972C1159.97 700.132 1159.83 700.36 1159.79 700.656H1158.6C1158.65 700.08 1158.91 699.62 1159.38 699.276C1159.84 698.932 1160.46 698.76 1161.24 698.76C1162.04 698.76 1162.64 698.948 1163.04 699.324C1163.44 699.692 1163.64 700.236 1163.64 700.956V703.824C1163.64 704.008 1163.65 704.196 1163.67 704.388C1163.7 704.58 1163.73 704.784 1163.78 705H1162.57ZM1160.46 705.12C1159.83 705.12 1159.34 704.968 1158.97 704.664C1158.6 704.352 1158.42 703.932 1158.42 703.404C1158.42 702.86 1158.61 702.432 1158.99 702.12C1159.39 701.8 1159.95 701.584 1160.67 701.472L1162.69 701.148V702.024L1160.87 702.312C1160.46 702.376 1160.15 702.484 1159.94 702.636C1159.74 702.788 1159.64 703.008 1159.64 703.296C1159.64 703.576 1159.73 703.788 1159.92 703.932C1160.11 704.068 1160.39 704.136 1160.75 704.136C1161.23 704.136 1161.62 704.02 1161.93 703.788C1162.25 703.556 1162.41 703.264 1162.41 702.912L1162.57 703.8C1162.43 704.224 1162.17 704.552 1161.8 704.784C1161.43 705.008 1160.99 705.12 1160.46 705.12ZM1165.33 705V698.88H1166.52V700.32H1166.58V705H1165.33ZM1169.46 705V701.004C1169.46 700.588 1169.36 700.284 1169.17 700.092C1168.98 699.9 1168.7 699.804 1168.34 699.804C1168.01 699.804 1167.7 699.884 1167.43 700.044C1167.17 700.196 1166.96 700.412 1166.81 700.692C1166.65 700.964 1166.58 701.288 1166.58 701.664L1166.42 700.236C1166.62 699.78 1166.92 699.42 1167.32 699.156C1167.73 698.892 1168.19 698.76 1168.69 698.76C1169.3 698.76 1169.78 698.936 1170.14 699.288C1170.51 699.64 1170.69 700.104 1170.69 700.68V705H1169.46ZM1173.59 705V701.004C1173.59 700.588 1173.49 700.284 1173.29 700.092C1173.09 699.9 1172.82 699.804 1172.46 699.804C1172.13 699.804 1171.83 699.884 1171.56 700.044C1171.29 700.196 1171.08 700.412 1170.92 700.692C1170.77 700.964 1170.69 701.288 1170.69 701.664L1170.44 700.236C1170.65 699.78 1170.96 699.42 1171.38 699.156C1171.8 698.892 1172.27 698.76 1172.79 698.76C1173.41 698.76 1173.9 698.94 1174.27 699.3C1174.64 699.652 1174.82 700.124 1174.82 700.716V705H1173.59ZM1179.76 705.108C1179.19 705.108 1178.71 704.972 1178.32 704.7C1177.95 704.42 1177.7 704.032 1177.58 703.536L1177.75 703.512V707.46H1176.5V698.88H1177.69V700.284L1177.57 700.248C1177.69 699.784 1177.97 699.42 1178.38 699.156C1178.8 698.892 1179.29 698.76 1179.85 698.76C1180.4 698.76 1180.87 698.892 1181.27 699.156C1181.68 699.42 1181.99 699.788 1182.21 700.26C1182.43 700.732 1182.55 701.284 1182.55 701.916C1182.55 702.556 1182.43 703.116 1182.2 703.596C1181.97 704.076 1181.64 704.448 1181.23 704.712C1180.81 704.976 1180.32 705.108 1179.76 705.108ZM1179.5 704.076C1180.04 704.076 1180.47 703.884 1180.79 703.5C1181.11 703.116 1181.27 702.588 1181.27 701.916C1181.27 701.252 1181.11 700.736 1180.79 700.368C1180.47 699.992 1180.04 699.804 1179.49 699.804C1178.94 699.804 1178.51 699.996 1178.18 700.38C1177.86 700.756 1177.7 701.28 1177.7 701.952C1177.7 702.608 1177.86 703.128 1178.18 703.512C1178.51 703.888 1178.95 704.076 1179.5 704.076ZM1186.53 705.12C1185.92 705.12 1185.37 704.984 1184.9 704.712C1184.44 704.44 1184.07 704.064 1183.81 703.584C1183.54 703.104 1183.41 702.552 1183.41 701.928C1183.41 701.296 1183.54 700.744 1183.8 700.272C1184.06 699.792 1184.43 699.42 1184.9 699.156C1185.37 698.892 1185.91 698.76 1186.52 698.76C1187.11 698.76 1187.62 698.888 1188.06 699.144C1188.5 699.392 1188.83 699.74 1189.06 700.188C1189.3 700.636 1189.42 701.168 1189.42 701.784C1189.42 701.88 1189.42 701.972 1189.41 702.06C1189.41 702.14 1189.4 702.224 1189.39 702.312H1184.25V701.376H1188.51L1188.2 701.748C1188.2 701.092 1188.05 700.592 1187.76 700.248C1187.46 699.904 1187.05 699.732 1186.52 699.732C1185.95 699.732 1185.5 699.928 1185.16 700.32C1184.84 700.704 1184.67 701.24 1184.67 701.928C1184.67 702.624 1184.84 703.168 1185.16 703.56C1185.5 703.952 1185.96 704.148 1186.56 704.148C1186.92 704.148 1187.23 704.076 1187.49 703.932C1187.76 703.78 1187.95 703.56 1188.08 703.272H1189.26C1189.06 703.848 1188.72 704.3 1188.24 704.628C1187.76 704.956 1187.2 705.12 1186.53 705.12ZM1190.7 705V696.36H1191.95V705H1190.7ZM1196.36 705.12C1195.74 705.12 1195.19 704.984 1194.72 704.712C1194.25 704.432 1193.88 704.052 1193.62 703.572C1193.35 703.084 1193.22 702.532 1193.22 701.916C1193.22 701.292 1193.35 700.744 1193.62 700.272C1193.89 699.8 1194.26 699.432 1194.72 699.168C1195.19 698.896 1195.74 698.76 1196.36 698.76C1197 698.76 1197.55 698.896 1198.02 699.168C1198.49 699.432 1198.86 699.8 1199.11 700.272C1199.38 700.744 1199.51 701.292 1199.51 701.916C1199.51 702.532 1199.38 703.084 1199.11 703.572C1198.86 704.052 1198.49 704.432 1198.02 704.712C1197.55 704.984 1197 705.12 1196.36 705.12ZM1196.36 704.1C1196.74 704.1 1197.06 704.008 1197.34 703.824C1197.62 703.64 1197.84 703.384 1198 703.056C1198.16 702.728 1198.24 702.344 1198.24 701.904C1198.24 701.248 1198.06 700.732 1197.71 700.356C1197.36 699.972 1196.92 699.78 1196.36 699.78C1195.82 699.78 1195.37 699.972 1195.02 700.356C1194.68 700.74 1194.5 701.256 1194.5 701.904C1194.5 702.344 1194.58 702.728 1194.73 703.056C1194.89 703.384 1195.11 703.64 1195.39 703.824C1195.68 704.008 1196 704.1 1196.36 704.1Z" fill="#1A0F2E" fill-opacity="0.54"/>
<g filter="url(#filter0_d_2_2)">
<rect x="20" y="276" width="1240" height="404" rx="10" fill="white"/>
</g>
<rect x="20" y="40" width="1240" height="48" rx="10" fill="#1A0F2E"/>
<g filter="url(#filter1_d_2_2)">
<rect x="965" y="108" width="295" height="148" rx="10" fill="white"/>
</g>
<g filter="url(#filter2_d_2_2)">
<rect x="650" y="108" width="295" height="148" rx="10" fill="white"/>
</g>
<g filter="url(#filter3_d_2_2)">
<rect x="335" y="108" width="295" height="148" rx="10" fill="white"/>
</g>
<g filter="url(#filter4_d_2_2)">
<rect x="20" y="108" width="295" height="148" rx="10" fill="white"/>
</g>
<path d="M53.72 25V18.88H55.484V20.32H55.52V25H53.72ZM57.836 25V21.112C57.836 20.8 57.752 20.572 57.584 20.428C57.424 20.276 57.196 20.2 56.9 20.2C56.644 20.2 56.408 20.26 56.192 20.38C55.984 20.492 55.82 20.656 55.7 20.872C55.58 21.08 55.52 21.328 55.52 21.616L55.364 20.236C55.564 19.788 55.852 19.432 56.228 19.168C56.612 18.896 57.072 18.76 57.608 18.76C58.248 18.76 58.744 18.94 59.096 19.3C59.456 19.66 59.636 20.112 59.636 20.656V25H57.836ZM61.952 25V21.112C61.952 20.8 61.868 20.572 61.7 20.428C61.54 20.276 61.312 20.2 61.016 20.2C60.76 20.2 60.524 20.26 60.308 20.38C60.1 20.492 59.936 20.656 59.816 20.872C59.696 21.08 59.636 21.328 59.636 21.616L59.36 20.236C59.56 19.788 59.856 19.432 60.248 19.168C60.648 18.896 61.128 18.76 61.688 18.76C62.352 18.76 62.86 18.948 63.212 19.324C63.572 19.692 63.752 20.176 63.752 20.776V25H61.952ZM65.1765 27.46L66.8685 23.716L67.1805 23.2L68.7645 18.88H70.6845L66.9765 27.46H65.1765ZM66.4725 24.88L64.1205 18.88H66.0645L67.9965 24.352L66.4725 24.88ZM75.2936 25.12C74.6696 25.12 74.0936 25.012 73.5656 24.796C73.0376 24.572 72.5776 24.26 72.1856 23.86C71.8016 23.46 71.5016 22.988 71.2856 22.444C71.0696 21.892 70.9616 21.292 70.9616 20.644C70.9616 19.996 71.0656 19.404 71.2736 18.868C71.4896 18.332 71.7896 17.868 72.1736 17.476C72.5656 17.076 73.0256 16.772 73.5536 16.564C74.0816 16.348 74.6616 16.24 75.2936 16.24C76.0056 16.24 76.6456 16.38 77.2136 16.66C77.7896 16.932 78.2576 17.32 78.6176 17.824C78.9856 18.32 79.2096 18.904 79.2896 19.576H77.4896C77.3856 18.96 77.1336 18.496 76.7336 18.184C76.3336 17.864 75.8576 17.704 75.3056 17.704C74.8176 17.704 74.3856 17.82 74.0096 18.052C73.6416 18.284 73.3536 18.62 73.1456 19.06C72.9376 19.492 72.8336 20.016 72.8336 20.632C72.8336 21.256 72.9376 21.796 73.1456 22.252C73.3616 22.7 73.6576 23.048 74.0336 23.296C74.4096 23.536 74.8416 23.656 75.3296 23.656C75.8496 23.656 76.3096 23.5 76.7096 23.188C77.1096 22.876 77.3696 22.412 77.4896 21.796H79.3136C79.2096 22.468 78.9736 23.056 78.6056 23.56C78.2376 24.056 77.7696 24.44 77.2016 24.712C76.6336 24.984 75.9976 25.12 75.2936 25.12ZM83.2021 25.12C82.5301 25.12 81.9381 24.988 81.4261 24.724C80.9221 24.452 80.5261 24.076 80.2381 23.596C79.9581 23.108 79.8181 22.548 79.8181 21.916C79.8181 21.284 79.9581 20.732 80.2381 20.26C80.5261 19.788 80.9221 19.42 81.4261 19.156C81.9381 18.892 82.5301 18.76 83.2021 18.76C83.8821 18.76 84.4741 18.892 84.9781 19.156C85.4901 19.42 85.8861 19.788 86.1661 20.26C86.4461 20.732 86.5861 21.284 86.5861 21.916C86.5861 22.548 86.4421 23.108 86.1541 23.596C85.8741 24.076 85.4781 24.452 84.9661 24.724C84.4621 24.988 83.8741 25.12 83.2021 25.12ZM83.2021 23.704C83.4821 23.704 83.7341 23.632 83.9581 23.488C84.1901 23.344 84.3741 23.14 84.5101 22.876C84.6461 22.604 84.7141 22.28 84.7141 21.904C84.7141 21.352 84.5661 20.928 84.2701 20.632C83.9821 20.328 83.6261 20.176 83.2021 20.176C82.7781 20.176 82.4181 20.328 82.1221 20.632C81.8341 20.936 81.6901 21.36 81.6901 21.904C81.6901 22.28 81.7581 22.604 81.8941 22.876C82.0301 23.14 82.2101 23.344 82.4341 23.488C82.6661 23.632 82.9221 23.704 83.2021 23.704ZM87.8911 25V18.472C87.8911 17.736 88.0911 17.18 88.4911 16.804C88.8911 16.428 89.4831 16.24 90.2671 16.24C90.4351 16.24 90.5791 16.248 90.6991 16.264C90.8271 16.28 90.9511 16.308 91.0711 16.348V17.728C91.0151 17.704 90.9471 17.688 90.8671 17.68C90.7871 17.664 90.6911 17.656 90.5791 17.656C90.2751 17.656 90.0511 17.728 89.9071 17.872C89.7631 18.016 89.6911 18.224 89.6911 18.496V25H87.8911ZM86.8711 20.248V18.88H90.9391V20.248H86.8711ZM92.4614 25V18.472C92.4614 17.736 92.6614 17.18 93.0614 16.804C93.4614 16.428 94.0534 16.24 94.8374 16.24C95.0054 16.24 95.1494 16.248 95.2694 16.264C95.3974 16.28 95.5214 16.308 95.6414 16.348V17.728C95.5854 17.704 95.5174 17.688 95.4374 17.68C95.3574 17.664 95.2614 17.656 95.1494 17.656C94.8454 17.656 94.6214 17.728 94.4774 17.872C94.3334 18.016 94.2614 18.224 94.2614 18.496V25H92.4614ZM91.4414 20.248V18.88H95.5094V20.248H91.4414ZM99.1273 25.12C98.4473 25.12 97.8553 24.988 97.3513 24.724C96.8473 24.452 96.4553 24.076 96.1753 23.596C95.9033 23.116 95.7673 22.564 95.7673 21.94C95.7673 21.308 95.9033 20.756 96.1753 20.284C96.4553 19.804 96.8433 19.432 97.3393 19.168C97.8353 18.896 98.4113 18.76 99.0673 18.76C99.6993 18.76 100.247 18.888 100.711 19.144C101.175 19.4 101.535 19.756 101.791 20.212C102.047 20.668 102.175 21.204 102.175 21.82C102.175 21.948 102.171 22.068 102.163 22.18C102.155 22.284 102.143 22.384 102.127 22.48H96.8233V21.292H100.675L100.363 21.508C100.363 21.012 100.243 20.648 100.003 20.416C99.7713 20.176 99.4513 20.056 99.0433 20.056C98.5713 20.056 98.2033 20.216 97.9393 20.536C97.6833 20.856 97.5553 21.336 97.5553 21.976C97.5553 22.6 97.6833 23.064 97.9393 23.368C98.2033 23.672 98.5953 23.824 99.1153 23.824C99.4033 23.824 99.6513 23.776 99.8593 23.68C100.067 23.584 100.223 23.428 100.327 23.212H102.019C101.819 23.804 101.475 24.272 100.987 24.616C100.507 24.952 99.8873 25.12 99.1273 25.12ZM106.135 25.12C105.455 25.12 104.863 24.988 104.359 24.724C103.855 24.452 103.463 24.076 103.183 23.596C102.911 23.116 102.775 22.564 102.775 21.94C102.775 21.308 102.911 20.756 103.183 20.284C103.463 19.804 103.851 19.432 104.347 19.168C104.843 18.896 105.419 18.76 106.075 18.76C106.707 18.76 107.255 18.888 107.719 19.144C108.183 19.4 108.543 19.756 108.799 20.212C109.055 20.668 109.183 21.204 109.183 21.82C109.183 21.948 109.179 22.068 109.171 22.18C109.163 22.284 109.151 22.384 109.135 22.48H103.831V21.292H107.683L107.371 21.508C107.371 21.012 107.251 20.648 107.011 20.416C106.779 20.176 106.459 20.056 106.051 20.056C105.579 20.056 105.211 20.216 104.947 20.536C104.691 20.856 104.563 21.336 104.563 21.976C104.563 22.6 104.691 23.064 104.947 23.368C105.211 23.672 105.603 23.824 106.123 23.824C106.411 23.824 106.659 23.776 106.867 23.68C107.075 23.584 107.231 23.428 107.335 23.212H109.027C108.827 23.804 108.483 24.272 107.995 24.616C107.515 24.952 106.895 25.12 106.135 25.12ZM112.431 22.456V21.016H116.823V22.456H112.431ZM121.56 25V23.56H123.744C124.368 23.56 124.896 23.436 125.328 23.188C125.768 22.932 126.1 22.584 126.324 22.144C126.556 21.704 126.672 21.2 126.672 20.632C126.672 20.072 126.56 19.58 126.336 19.156C126.112 18.732 125.78 18.4 125.34 18.16C124.908 17.92 124.376 17.8 123.744 17.8H121.596V16.36H123.744C124.712 16.36 125.556 16.536 126.276 16.888C126.996 17.232 127.552 17.728 127.944 18.376C128.344 19.016 128.544 19.776 128.544 20.656C128.544 21.536 128.344 22.304 127.944 22.96C127.544 23.608 126.984 24.112 126.264 24.472C125.552 24.824 124.716 25 123.756 25H121.56ZM120.432 25V16.36H122.28V25H120.432ZM133.287 25C133.239 24.824 133.203 24.636 133.179 24.436C133.163 24.236 133.155 24.004 133.155 23.74H133.107V20.848C133.107 20.6 133.023 20.408 132.855 20.272C132.695 20.128 132.455 20.056 132.135 20.056C131.831 20.056 131.587 20.108 131.403 20.212C131.227 20.316 131.111 20.468 131.055 20.668H129.339C129.419 20.116 129.703 19.66 130.191 19.3C130.679 18.94 131.347 18.76 132.195 18.76C133.075 18.76 133.747 18.956 134.211 19.348C134.675 19.74 134.907 20.304 134.907 21.04V23.74C134.907 23.94 134.919 24.144 134.943 24.352C134.975 24.552 135.023 24.768 135.087 25H133.287ZM131.151 25.12C130.543 25.12 130.059 24.968 129.699 24.664C129.339 24.352 129.159 23.94 129.159 23.428C129.159 22.86 129.371 22.404 129.795 22.06C130.227 21.708 130.827 21.48 131.595 21.376L133.383 21.124V22.168L131.895 22.396C131.575 22.444 131.339 22.532 131.187 22.66C131.035 22.788 130.959 22.964 130.959 23.188C130.959 23.388 131.031 23.54 131.175 23.644C131.319 23.748 131.511 23.8 131.751 23.8C132.127 23.8 132.447 23.7 132.711 23.5C132.975 23.292 133.107 23.052 133.107 22.78L133.275 23.74C133.099 24.196 132.831 24.54 132.471 24.772C132.111 25.004 131.671 25.12 131.151 25.12ZM138.598 25.12C137.702 25.12 136.99 24.94 136.462 24.58C135.934 24.22 135.646 23.724 135.598 23.092H137.206C137.246 23.364 137.382 23.572 137.614 23.716C137.854 23.852 138.182 23.92 138.598 23.92C138.974 23.92 139.246 23.868 139.414 23.764C139.59 23.652 139.678 23.496 139.678 23.296C139.678 23.144 139.626 23.028 139.522 22.948C139.426 22.86 139.246 22.788 138.982 22.732L137.998 22.528C137.27 22.376 136.734 22.148 136.39 21.844C136.046 21.532 135.874 21.132 135.874 20.644C135.874 20.052 136.102 19.592 136.558 19.264C137.014 18.928 137.65 18.76 138.466 18.76C139.274 18.76 139.918 18.924 140.398 19.252C140.878 19.572 141.142 20.02 141.19 20.596H139.582C139.55 20.388 139.438 20.232 139.246 20.128C139.054 20.016 138.782 19.96 138.43 19.96C138.11 19.96 137.87 20.008 137.71 20.104C137.558 20.192 137.482 20.32 137.482 20.488C137.482 20.632 137.546 20.748 137.674 20.836C137.802 20.916 138.014 20.988 138.31 21.052L139.414 21.28C140.03 21.408 140.494 21.648 140.806 22C141.126 22.344 141.286 22.752 141.286 23.224C141.286 23.824 141.05 24.292 140.578 24.628C140.114 24.956 139.454 25.12 138.598 25.12ZM142.173 25V16.36H143.973V25H142.173ZM146.433 25V21.208C146.433 20.872 146.345 20.62 146.169 20.452C146.001 20.284 145.753 20.2 145.425 20.2C145.145 20.2 144.893 20.264 144.669 20.392C144.453 20.52 144.281 20.696 144.153 20.92C144.033 21.144 143.973 21.408 143.973 21.712L143.817 20.236C144.017 19.788 144.309 19.432 144.693 19.168C145.085 18.896 145.565 18.76 146.133 18.76C146.813 18.76 147.333 18.952 147.693 19.336C148.053 19.712 148.233 20.22 148.233 20.86V25H146.433ZM153.335 25.12C152.751 25.12 152.275 24.984 151.907 24.712C151.547 24.44 151.335 24.068 151.271 23.596L151.367 23.584V25H149.603V16.36H151.403V20.236L151.295 20.212C151.383 19.764 151.615 19.412 151.991 19.156C152.375 18.892 152.855 18.76 153.431 18.76C153.983 18.76 154.459 18.892 154.859 19.156C155.267 19.412 155.579 19.776 155.795 20.248C156.019 20.72 156.131 21.276 156.131 21.916C156.131 22.564 156.015 23.128 155.783 23.608C155.551 24.088 155.227 24.46 154.811 24.724C154.395 24.988 153.903 25.12 153.335 25.12ZM152.831 23.68C153.255 23.68 153.599 23.528 153.863 23.224C154.127 22.92 154.259 22.488 154.259 21.928C154.259 21.368 154.123 20.94 153.851 20.644C153.587 20.348 153.239 20.2 152.807 20.2C152.391 20.2 152.047 20.352 151.775 20.656C151.511 20.952 151.379 21.38 151.379 21.94C151.379 22.5 151.511 22.932 151.775 23.236C152.047 23.532 152.399 23.68 152.831 23.68ZM160.159 25.12C159.487 25.12 158.895 24.988 158.383 24.724C157.879 24.452 157.483 24.076 157.195 23.596C156.915 23.108 156.775 22.548 156.775 21.916C156.775 21.284 156.915 20.732 157.195 20.26C157.483 19.788 157.879 19.42 158.383 19.156C158.895 18.892 159.487 18.76 160.159 18.76C160.839 18.76 161.431 18.892 161.935 19.156C162.447 19.42 162.843 19.788 163.123 20.26C163.403 20.732 163.543 21.284 163.543 21.916C163.543 22.548 163.399 23.108 163.111 23.596C162.831 24.076 162.435 24.452 161.923 24.724C161.419 24.988 160.831 25.12 160.159 25.12ZM160.159 23.704C160.439 23.704 160.691 23.632 160.915 23.488C161.147 23.344 161.331 23.14 161.467 22.876C161.603 22.604 161.671 22.28 161.671 21.904C161.671 21.352 161.523 20.928 161.227 20.632C160.939 20.328 160.583 20.176 160.159 20.176C159.735 20.176 159.375 20.328 159.079 20.632C158.791 20.936 158.647 21.36 158.647 21.904C158.647 22.28 158.715 22.604 158.851 22.876C158.987 23.14 159.167 23.344 159.391 23.488C159.623 23.632 159.879 23.704 160.159 23.704ZM168.314 25C168.266 24.824 168.23 24.636 168.206 24.436C168.19 24.236 168.182 24.004 168.182 23.74H168.134V20.848C168.134 20.6 168.05 20.408 167.882 20.272C167.722 20.128 167.482 20.056 167.162 20.056C166.858 20.056 166.614 20.108 166.43 20.212C166.254 20.316 166.138 20.468 166.082 20.668H164.366C164.446 20.116 164.73 19.66 165.218 19.3C165.706 18.94 166.374 18.76 167.222 18.76C168.102 18.76 168.774 18.956 169.238 19.348C169.702 19.74 169.934 20.304 169.934 21.04V23.74C169.934 23.94 169.946 24.144 169.97 24.352C170.002 24.552 170.05 24.768 170.114 25H168.314ZM166.178 25.12C165.57 25.12 165.086 24.968 164.726 24.664C164.366 24.352 164.186 23.94 164.186 23.428C164.186 22.86 164.398 22.404 164.822 22.06C165.254 21.708 165.854 21.48 166.622 21.376L168.41 21.124V22.168L166.922 22.396C166.602 22.444 166.366 22.532 166.214 22.66C166.062 22.788 165.986 22.964 165.986 23.188C165.986 23.388 166.058 23.54 166.202 23.644C166.346 23.748 166.538 23.8 166.778 23.8C167.154 23.8 167.474 23.7 167.738 23.5C168.002 23.292 168.134 23.052 168.134 22.78L168.302 23.74C168.126 24.196 167.858 24.54 167.498 24.772C167.138 25.004 166.698 25.12 166.178 25.12ZM171.318 25V18.88H173.082V20.32H173.118V25H171.318ZM173.118 21.808L172.962 20.356C173.106 19.836 173.342 19.44 173.67 19.168C173.998 18.896 174.406 18.76 174.894 18.76C175.046 18.76 175.158 18.776 175.23 18.808V20.488C175.19 20.472 175.134 20.464 175.062 20.464C174.99 20.456 174.902 20.452 174.798 20.452C174.222 20.452 173.798 20.556 173.526 20.764C173.254 20.964 173.118 21.312 173.118 21.808ZM180.325 25V23.644L180.445 23.668C180.365 24.108 180.125 24.46 179.725 24.724C179.333 24.988 178.861 25.12 178.309 25.12C177.749 25.12 177.261 24.992 176.845 24.736C176.437 24.472 176.121 24.104 175.897 23.632C175.673 23.16 175.561 22.604 175.561 21.964C175.561 21.316 175.677 20.752 175.909 20.272C176.141 19.792 176.465 19.42 176.881 19.156C177.305 18.892 177.797 18.76 178.357 18.76C178.941 18.76 179.413 18.896 179.773 19.168C180.141 19.44 180.357 19.812 180.421 20.284L180.289 20.296V16.36H182.089V25H180.325ZM178.885 23.68C179.309 23.68 179.653 23.532 179.917 23.236C180.181 22.932 180.313 22.5 180.313 21.94C180.313 21.38 180.177 20.952 179.905 20.656C179.641 20.352 179.293 20.2 178.861 20.2C178.445 20.2 178.101 20.352 177.829 20.656C177.565 20.96 177.433 21.392 177.433 21.952C177.433 22.512 177.565 22.94 177.829 23.236C178.101 23.532 178.453 23.68 178.885 23.68ZM190.146 25V23.644L190.266 23.668C190.186 24.108 189.946 24.46 189.546 24.724C189.154 24.988 188.682 25.12 188.13 25.12C187.57 25.12 187.082 24.992 186.666 24.736C186.258 24.472 185.942 24.104 185.718 23.632C185.494 23.16 185.382 22.604 185.382 21.964C185.382 21.316 185.498 20.752 185.73 20.272C185.962 19.792 186.286 19.42 186.702 19.156C187.126 18.892 187.618 18.76 188.178 18.76C188.762 18.76 189.234 18.896 189.594 19.168C189.962 19.44 190.178 19.812 190.242 20.284L190.11 20.296V16.36H191.91V25H190.146ZM188.706 23.68C189.13 23.68 189.474 23.532 189.738 23.236C190.002 22.932 190.134 22.5 190.134 21.94C190.134 21.38 189.998 20.952 189.726 20.656C189.462 20.352 189.114 20.2 188.682 20.2C188.266 20.2 187.922 20.352 187.65 20.656C187.386 20.96 187.254 21.392 187.254 21.952C187.254 22.512 187.386 22.94 187.65 23.236C187.922 23.532 188.274 23.68 188.706 23.68ZM196.229 25.12C195.549 25.12 194.957 24.988 194.453 24.724C193.949 24.452 193.557 24.076 193.277 23.596C193.005 23.116 192.869 22.564 192.869 21.94C192.869 21.308 193.005 20.756 193.277 20.284C193.557 19.804 193.945 19.432 194.441 19.168C194.937 18.896 195.513 18.76 196.169 18.76C196.801 18.76 197.349 18.888 197.813 19.144C198.277 19.4 198.637 19.756 198.893 20.212C199.149 20.668 199.277 21.204 199.277 21.82C199.277 21.948 199.273 22.068 199.265 22.18C199.257 22.284 199.245 22.384 199.229 22.48H193.925V21.292H197.777L197.465 21.508C197.465 21.012 197.345 20.648 197.105 20.416C196.873 20.176 196.553 20.056 196.145 20.056C195.673 20.056 195.305 20.216 195.041 20.536C194.785 20.856 194.657 21.336 194.657 21.976C194.657 22.6 194.785 23.064 195.041 23.368C195.305 23.672 195.697 23.824 196.217 23.824C196.505 23.824 196.753 23.776 196.961 23.68C197.169 23.584 197.325 23.428 197.429 23.212H199.121C198.921 23.804 198.577 24.272 198.089 24.616C197.609 24.952 196.989 25.12 196.229 25.12ZM206.497 25.12C205.873 25.12 205.297 25.012 204.769 24.796C204.241 24.572 203.781 24.26 203.389 23.86C203.005 23.46 202.705 22.988 202.489 22.444C202.273 21.892 202.165 21.292 202.165 20.644C202.165 19.996 202.269 19.404 202.477 18.868C202.693 18.332 202.993 17.868 203.377 17.476C203.769 17.076 204.229 16.772 204.757 16.564C205.285 16.348 205.865 16.24 206.497 16.24C207.209 16.24 207.849 16.38 208.417 16.66C208.993 16.932 209.461 17.32 209.821 17.824C210.189 18.32 210.413 18.904 210.493 19.576H208.693C208.589 18.96 208.337 18.496 207.937 18.184C207.537 17.864 207.061 17.704 206.509 17.704C206.021 17.704 205.589 17.82 205.213 18.052C204.845 18.284 204.557 18.62 204.349 19.06C204.141 19.492 204.037 20.016 204.037 20.632C204.037 21.256 204.141 21.796 204.349 22.252C204.565 22.7 204.861 23.048 205.237 23.296C205.613 23.536 206.045 23.656 206.533 23.656C207.053 23.656 207.513 23.5 207.913 23.188C208.313 22.876 208.573 22.412 208.693 21.796H210.517C210.413 22.468 210.177 23.056 209.809 23.56C209.441 24.056 208.973 24.44 208.405 24.712C207.837 24.984 207.201 25.12 206.497 25.12ZM214.405 25.12C213.733 25.12 213.141 24.988 212.629 24.724C212.125 24.452 211.729 24.076 211.441 23.596C211.161 23.108 211.021 22.548 211.021 21.916C211.021 21.284 211.161 20.732 211.441 20.26C211.729 19.788 212.125 19.42 212.629 19.156C213.141 18.892 213.733 18.76 214.405 18.76C215.085 18.76 215.677 18.892 216.181 19.156C216.693 19.42 217.089 19.788 217.369 20.26C217.649 20.732 217.789 21.284 217.789 21.916C217.789 22.548 217.645 23.108 217.357 23.596C217.077 24.076 216.681 24.452 216.169 24.724C215.665 24.988 215.077 25.12 214.405 25.12ZM214.405 23.704C214.685 23.704 214.937 23.632 215.161 23.488C215.393 23.344 215.577 23.14 215.713 22.876C215.849 22.604 215.917 22.28 215.917 21.904C215.917 21.352 215.769 20.928 215.473 20.632C215.185 20.328 214.829 20.176 214.405 20.176C213.981 20.176 213.621 20.328 213.325 20.632C213.037 20.936 212.893 21.36 212.893 21.904C212.893 22.28 212.961 22.604 213.097 22.876C213.233 23.14 213.413 23.344 213.637 23.488C213.869 23.632 214.125 23.704 214.405 23.704ZM218.743 25V18.88H220.507V20.32H220.543V25H218.743ZM223.003 25V21.208C223.003 20.872 222.915 20.62 222.739 20.452C222.571 20.284 222.323 20.2 221.995 20.2C221.715 20.2 221.463 20.264 221.239 20.392C221.023 20.52 220.851 20.696 220.723 20.92C220.603 21.144 220.543 21.408 220.543 21.712L220.387 20.236C220.587 19.788 220.879 19.432 221.263 19.168C221.655 18.896 222.135 18.76 222.703 18.76C223.383 18.76 223.903 18.952 224.263 19.336C224.623 19.712 224.803 20.22 224.803 20.86V25H223.003ZM228.819 25.132C228.035 25.132 227.451 24.944 227.067 24.568C226.691 24.184 226.503 23.604 226.503 22.828V17.512L228.303 16.84V22.888C228.303 23.16 228.379 23.364 228.531 23.5C228.683 23.636 228.919 23.704 229.239 23.704C229.359 23.704 229.471 23.692 229.575 23.668C229.679 23.644 229.783 23.616 229.887 23.584V24.952C229.783 25.008 229.635 25.052 229.443 25.084C229.259 25.116 229.051 25.132 228.819 25.132ZM225.363 20.248V18.88H229.887V20.248H225.363ZM230.966 25V18.88H232.73V20.32H232.766V25H230.966ZM232.766 21.808L232.61 20.356C232.754 19.836 232.99 19.44 233.318 19.168C233.646 18.896 234.054 18.76 234.542 18.76C234.694 18.76 234.806 18.776 234.878 18.808V20.488C234.838 20.472 234.782 20.464 234.71 20.464C234.638 20.456 234.55 20.452 234.446 20.452C233.87 20.452 233.446 20.556 233.174 20.764C232.902 20.964 232.766 21.312 232.766 21.808ZM238.558 25.12C237.886 25.12 237.294 24.988 236.782 24.724C236.278 24.452 235.882 24.076 235.594 23.596C235.314 23.108 235.174 22.548 235.174 21.916C235.174 21.284 235.314 20.732 235.594 20.26C235.882 19.788 236.278 19.42 236.782 19.156C237.294 18.892 237.886 18.76 238.558 18.76C239.238 18.76 239.83 18.892 240.334 19.156C240.846 19.42 241.242 19.788 241.522 20.26C241.802 20.732 241.942 21.284 241.942 21.916C241.942 22.548 241.798 23.108 241.51 23.596C241.23 24.076 240.834 24.452 240.322 24.724C239.818 24.988 239.23 25.12 238.558 25.12ZM238.558 23.704C238.838 23.704 239.09 23.632 239.314 23.488C239.546 23.344 239.73 23.14 239.866 22.876C240.002 22.604 240.07 22.28 240.07 21.904C240.07 21.352 239.922 20.928 239.626 20.632C239.338 20.328 238.982 20.176 238.558 20.176C238.134 20.176 237.774 20.328 237.478 20.632C237.19 20.936 237.046 21.36 237.046 21.904C237.046 22.28 237.114 22.604 237.25 22.876C237.386 23.14 237.566 23.344 237.79 23.488C238.022 23.632 238.278 23.704 238.558 23.704ZM242.896 25V16.36H244.696V25H242.896ZM249.982 25C249.934 24.824 249.898 24.636 249.874 24.436C249.858 24.236 249.85 24.004 249.85 23.74H249.802V20.848C249.802 20.6 249.718 20.408 249.55 20.272C249.39 20.128 249.15 20.056 248.83 20.056C248.526 20.056 248.282 20.108 248.098 20.212C247.922 20.316 247.806 20.468 247.75 20.668H246.034C246.114 20.116 246.398 19.66 246.886 19.3C247.374 18.94 248.042 18.76 248.89 18.76C249.77 18.76 250.442 18.956 250.906 19.348C251.37 19.74 251.602 20.304 251.602 21.04V23.74C251.602 23.94 251.614 24.144 251.638 24.352C251.67 24.552 251.718 24.768 251.782 25H249.982ZM247.846 25.12C247.238 25.12 246.754 24.968 246.394 24.664C246.034 24.352 245.854 23.94 245.854 23.428C245.854 22.86 246.066 22.404 246.49 22.06C246.922 21.708 247.522 21.48 248.29 21.376L250.078 21.124V22.168L248.59 22.396C248.27 22.444 248.034 22.532 247.882 22.66C247.73 22.788 247.654 22.964 247.654 23.188C247.654 23.388 247.726 23.54 247.87 23.644C248.014 23.748 248.206 23.8 248.446 23.8C248.822 23.8 249.142 23.7 249.406 23.5C249.67 23.292 249.802 23.052 249.802 22.78L249.97 23.74C249.794 24.196 249.526 24.54 249.166 24.772C248.806 25.004 248.366 25.12 247.846 25.12ZM257.177 25V23.644L257.297 23.668C257.217 24.108 256.977 24.46 256.577 24.724C256.185 24.988 255.713 25.12 255.161 25.12C254.601 25.12 254.113 24.992 253.697 24.736C253.289 24.472 252.973 24.104 252.749 23.632C252.525 23.16 252.413 22.604 252.413 21.964C252.413 21.316 252.529 20.752 252.761 20.272C252.993 19.792 253.317 19.42 253.733 19.156C254.157 18.892 254.649 18.76 255.209 18.76C255.793 18.76 256.265 18.896 256.625 19.168C256.993 19.44 257.209 19.812 257.273 20.284L257.141 20.296V16.36H258.941V25H257.177ZM255.737 23.68C256.161 23.68 256.505 23.532 256.769 23.236C257.033 22.932 257.165 22.5 257.165 21.94C257.165 21.38 257.029 20.952 256.757 20.656C256.493 20.352 256.145 20.2 255.713 20.2C255.297 20.2 254.953 20.352 254.681 20.656C254.417 20.96 254.285 21.392 254.285 21.952C254.285 22.512 254.417 22.94 254.681 23.236C254.953 23.532 255.305 23.68 255.737 23.68ZM263.284 25.12C262.612 25.12 262.02 24.988 261.508 24.724C261.004 24.452 260.608 24.076 260.32 23.596C260.04 23.108 259.9 22.548 259.9 21.916C259.9 21.284 260.04 20.732 260.32 20.26C260.608 19.788 261.004 19.42 261.508 19.156C262.02 18.892 262.612 18.76 263.284 18.76C263.964 18.76 264.556 18.892 265.06 19.156C265.572 19.42 265.968 19.788 266.248 20.26C266.528 20.732 266.668 21.284 266.668 21.916C266.668 22.548 266.524 23.108 266.236 23.596C265.956 24.076 265.56 24.452 265.048 24.724C264.544 24.988 263.956 25.12 263.284 25.12ZM263.284 23.704C263.564 23.704 263.816 23.632 264.04 23.488C264.272 23.344 264.456 23.14 264.592 22.876C264.728 22.604 264.796 22.28 264.796 21.904C264.796 21.352 264.648 20.928 264.352 20.632C264.064 20.328 263.708 20.176 263.284 20.176C262.86 20.176 262.5 20.328 262.204 20.632C261.916 20.936 261.772 21.36 261.772 21.904C261.772 22.28 261.84 22.604 261.976 22.876C262.112 23.14 262.292 23.344 262.516 23.488C262.748 23.632 263.004 23.704 263.284 23.704ZM267.622 25V18.88H269.386V20.32H269.422V25H267.622ZM269.422 21.808L269.266 20.356C269.41 19.836 269.646 19.44 269.974 19.168C270.302 18.896 270.71 18.76 271.198 18.76C271.35 18.76 271.462 18.776 271.534 18.808V20.488C271.494 20.472 271.438 20.464 271.366 20.464C271.294 20.456 271.206 20.452 271.102 20.452C270.526 20.452 270.102 20.556 269.83 20.764C269.558 20.964 269.422 21.312 269.422 21.808ZM272.31 25V18.88H274.11V25H272.31ZM272.25 18.064V16.12H274.17V18.064H272.25ZM279.22 25C279.172 24.824 279.136 24.636 279.112 24.436C279.096 24.236 279.088 24.004 279.088 23.74H279.04V20.848C279.04 20.6 278.956 20.408 278.788 20.272C278.628 20.128 278.388 20.056 278.068 20.056C277.764 20.056 277.52 20.108 277.336 20.212C277.16 20.316 277.044 20.468 276.988 20.668H275.272C275.352 20.116 275.636 19.66 276.124 19.3C276.612 18.94 277.28 18.76 278.128 18.76C279.008 18.76 279.68 18.956 280.144 19.348C280.608 19.74 280.84 20.304 280.84 21.04V23.74C280.84 23.94 280.852 24.144 280.876 24.352C280.908 24.552 280.956 24.768 281.02 25H279.22ZM277.084 25.12C276.476 25.12 275.992 24.968 275.632 24.664C275.272 24.352 275.092 23.94 275.092 23.428C275.092 22.86 275.304 22.404 275.728 22.06C276.16 21.708 276.76 21.48 277.528 21.376L279.316 21.124V22.168L277.828 22.396C277.508 22.444 277.272 22.532 277.12 22.66C276.968 22.788 276.892 22.964 276.892 23.188C276.892 23.388 276.964 23.54 277.108 23.644C277.252 23.748 277.444 23.8 277.684 23.8C278.06 23.8 278.38 23.7 278.644 23.5C278.908 23.292 279.04 23.052 279.04 22.78L279.208 23.74C279.032 24.196 278.764 24.54 278.404 24.772C278.044 25.004 277.604 25.12 277.084 25.12Z" fill="#1A0F2E"/>
<path d="M39.2353 19.4706H27V23.2353C27 24.2338 27.3966 25.1913 28.1027 25.8973C28.8087 26.6034 29.7662 27 30.7647 27H35.4706C36.4691 27 37.4266 26.6034 38.1326 25.8973C38.8387 25.1913 39.2353 24.2338 39.2353 23.2353V19.4706ZM39.2353 19.4706H41.1176C41.6169 19.4706 42.0957 19.6689 42.4487 20.0219C42.8017 20.3749 43 20.8537 43 21.3529V22.2941C43 22.7933 42.8017 23.2721 42.4487 23.6251C42.0957 23.9782 41.6169 24.1765 41.1176 24.1765H39.2353M35.4706 16.6471C35.4706 16.6471 36.4118 15.7059 35.9412 14.7647L35 12.8824C34.5294 11.9412 35.4706 11 35.4706 11M31.3671 16.6471C31.3671 16.6471 32.3082 15.7059 31.8376 14.7647L30.8965 12.8824C30.4259 11.9412 31.3671 11 31.3671 11" stroke="#1A0F2E" stroke-width="2" stroke-linecap="round" stroke-linejoin="round"/>
<defs>
<filter id="filter0_d_2_2" x="16" y="272" width="1252" height="416" filterUnits="userSpaceOnUse" color-interpolation-filters="sRGB">
<feFlood flood-opacity="0" result="BackgroundImageFix"/>
<feColorMatrix in="SourceAlpha" type="matrix" values="0 0 0 0 0 0 0 0 0 0 0 0 0 0 0 0 0 0 127 0" result="hardAlpha"/>
<feOffset dx="2" dy="2"/>
<feGaussianBlur stdDeviation="3"/>
<feComposite in2="hardAlpha" operator="out"/>
<feColorMatrix type="matrix" values="0 0 0 0 0 0 0 0 0 0 0 0 0 0 0 0 0 0 0.25 0"/>
<feBlend mode="normal" in2="BackgroundImageFix" result="effect1_dropShadow_2_2"/>
<feBlend mode="normal" in="SourceGraphic" in2="effect1_dropShadow_2_2" result="shape"/>
</filter>
<filter id="filter1_d_2_2" x="961" y="104" width="307" height="160" filterUnits="userSpaceOnUse" color-interpolation-filters="sRGB">
<feFlood flood-opacity="0" result="BackgroundImageFix"/>
<feColorMatrix in="SourceAlpha" type="matrix" values="0 0 0 0 0 0 0 0 0 0 0 0 0 0 0 0 0 0 127 0" result="hardAlpha"/>
<feOffset dx="2" dy="2"/>
<feGaussianBlur stdDeviation="3"/>
<feComposite in2="hardAlpha" operator="out"/>
<feColorMatrix type="matrix" values="0 0 0 0 0 0 0 0 0 0 0 0 0 0 0 0 0 0 0.25 0"/>
<feBlend mode="normal" in2="BackgroundImageFix" result="effect1_dropShadow_2_2"/>
<feBlend mode="normal" in="SourceGraphic" in2="effect1_dropShadow_2_2" result="shape"/>
</filter>
<filter id="filter2_d_2_2" x="646" y="104" width="307" height="160" filterUnits="userSpaceOnUse" color-interpolation-filters="sRGB">
<feFlood flood-opacity="0" result="BackgroundImageFix"/>
<feColorMatrix in="SourceAlpha" type="matrix" values="0 0 0 0 0 0 0 0 0 0 0 0 0 0 0 0 0 0 127 0" result="hardAlpha"/>
<feOffset dx="2" dy="2"/>
<feGaussianBlur stdDeviation="3"/>
<feComposite in2="hardAlpha" operator="out"/>
<feColorMatrix type="matrix" values="0 0 0 0 0 0 0 0 0 0 0 0 0 0 0 0 0 0 0.25 0"/>
<feBlend mode="normal" in2="BackgroundImageFix" result="effect1_dropShadow_2_2"/>
<feBlend mode="normal" in="SourceGraphic" in2="effect1_dropShadow_2_2" result="shape"/>
</filter>
<filter id="filter3_d_2_2" x="331" y="104" width="307" height="160" filterUnits="userSpaceOnUse" color-interpolation-filters="sRGB">
<feFlood flood-opacity="0" result="BackgroundImageFix"/>
<feColorMatrix in="SourceAlpha" type="matrix" values="0 0 0 0 0 0 0 0 0 0 0 0 0 0 0 0 0 0 127 0" result="hardAlpha"/>
<feOffset dx="2" dy="2"/>
<feGaussianBlur stdDeviation="3"/>
<feComposite in2="hardAlpha" operator="out"/>
<feColorMatrix type="matrix" values="0 0 0 0 0 0 0 0 0 0 0 0 0 0 0 0 0 0 0.25 0"/>
<feBlend mode="normal" in2="BackgroundImageFix" result="effect1_dropShadow_2_2"/>
<feBlend mode="normal" in="SourceGraphic" in2="effect1_dropShadow_2_2" result="shape"/>
</filter>
<filter id="filter4_d_2_2" x="16" y="104" width="307" height="160" filterUnits="userSpaceOnUse" color-interpolation-filters="sRGB">
<feFlood flood-opacity="0" result="BackgroundImageFix"/>
<feColorMatrix in="SourceAlpha" type="matrix" values="0 0 0 0 0 0 0 0 0 0 0 0 0 0 0 0 0 0 127 0" result="hardAlpha"/>
<feOffset dx="2" dy="2"/>
<feGaussianBlur stdDeviation="3"/>
<feComposite in2="hardAlpha" operator="out"/>
<feColorMatrix type="matrix" values="0 0 0 0 0 0 0 0 0 0 0 0 0 0 0 0 0 0 0.25 0"/>
<feBlend mode="normal" in2="BackgroundImageFix" result="effect1_dropShadow_2_2"/>
<feBlend mode="normal" in="SourceGraphic" in2="effect1_dropShadow_2_2" result="shape"/>
</filter>
</defs>
</svg>
