<svg width="1280" height="720" viewBox="0 0 1280 720" fill="none" xmlns="http://www.w3.org/2000/svg">
<rect width="1280" height="720" fill="#ECECEC"/>
<path d="M1225.56 699C1225.94 699 1226.31 699.152 1226.58 699.423C1226.85 699.694 1227 700.061 1227 700.444V710.556C1227 710.939 1226.85 711.306 1226.58 711.577C1226.31 711.848 1225.94 712 1225.56 712H1215.44C1215.06 712 1214.69 711.848 1214.42 711.577C1214.15 711.306 1214 710.939 1214 710.556V700.444C1214 700.061 1214.15 699.694 1214.42 699.423C1214.69 699.152 1215.06 699 1215.44 699H1225.56ZM1225.19 710.194V706.367C1225.19 705.742 1224.95 705.143 1224.5 704.702C1224.06 704.26 1223.46 704.012 1222.84 704.012C1222.23 704.012 1221.51 704.388 1221.16 704.951V704.149H1219.15V710.194H1221.16V706.634C1221.16 706.078 1221.61 705.623 1222.17 705.623C1222.44 705.623 1222.69 705.729 1222.88 705.919C1223.07 706.109 1223.18 706.366 1223.18 706.634V710.194H1225.19ZM1216.8 703.016C1217.12 703.016 1217.43 702.888 1217.66 702.66C1217.89 702.433 1218.02 702.124 1218.02 701.802C1218.02 701.131 1217.47 700.582 1216.8 700.582C1216.48 700.582 1216.17 700.71 1215.94 700.939C1215.71 701.168 1215.58 701.479 1215.58 701.802C1215.58 702.474 1216.13 703.016 1216.8 703.016ZM1217.81 710.194V704.149H1215.81V710.194H1217.81Z" fill="#1A0F2E" fill-opacity="0.54"/>
<path d="M1245.6 712C1245.16 712 1244.78 711.841 1244.47 711.523C1244.16 711.205 1244 710.822 1244 710.375V700.625C1244 700.178 1244.16 699.796 1244.47 699.478C1244.78 699.16 1245.16 699.001 1245.6 699H1250.4L1252 700.625H1258.4C1258.84 700.625 1259.22 700.784 1259.53 701.103C1259.84 701.421 1260 701.804 1260 702.25V710.375C1260 710.822 1259.84 711.205 1259.53 711.523C1259.22 711.842 1258.84 712.001 1258.4 712H1245.6Z" fill="#1A0F2E" fill-opacity="0.54"/>
<path d="M1026.66 710V708.944H1028.92C1029.61 708.944 1030.2 708.804 1030.69 708.524C1031.18 708.244 1031.56 707.856 1031.83 707.36C1032.09 706.864 1032.22 706.288 1032.22 705.632C1032.22 704.984 1032.09 704.42 1031.83 703.94C1031.57 703.46 1031.2 703.088 1030.7 702.824C1030.21 702.552 1029.62 702.416 1028.92 702.416H1026.67V701.36H1028.92C1029.85 701.36 1030.66 701.536 1031.35 701.888C1032.04 702.24 1032.57 702.74 1032.94 703.388C1033.33 704.028 1033.52 704.784 1033.52 705.656C1033.52 706.528 1033.33 707.292 1032.94 707.948C1032.56 708.596 1032.02 709.1 1031.34 709.46C1030.66 709.82 1029.86 710 1028.94 710H1026.66ZM1025.89 710V701.36H1027.16V710H1025.89ZM1037.52 710.12C1036.9 710.12 1036.36 709.984 1035.88 709.712C1035.42 709.44 1035.06 709.064 1034.79 708.584C1034.53 708.104 1034.4 707.552 1034.4 706.928C1034.4 706.296 1034.52 705.744 1034.78 705.272C1035.04 704.792 1035.41 704.42 1035.88 704.156C1036.36 703.892 1036.9 703.76 1037.5 703.76C1038.1 703.76 1038.61 703.888 1039.04 704.144C1039.48 704.392 1039.82 704.74 1040.05 705.188C1040.29 705.636 1040.41 706.168 1040.41 706.784C1040.41 706.88 1040.4 706.972 1040.4 707.06C1040.4 707.14 1040.39 707.224 1040.37 707.312H1035.24V706.376H1039.5L1039.18 706.748C1039.18 706.092 1039.04 705.592 1038.74 705.248C1038.44 704.904 1038.03 704.732 1037.5 704.732C1036.94 704.732 1036.48 704.928 1036.15 705.32C1035.82 705.704 1035.66 706.24 1035.66 706.928C1035.66 707.624 1035.82 708.168 1036.15 708.56C1036.48 708.952 1036.95 709.148 1037.54 709.148C1037.9 709.148 1038.21 709.076 1038.48 708.932C1038.74 708.78 1038.94 708.56 1039.06 708.272H1040.24C1040.04 708.848 1039.7 709.3 1039.22 709.628C1038.75 709.956 1038.18 710.12 1037.52 710.12ZM1043.92 710.12C1043.12 710.12 1042.48 709.944 1042.01 709.592C1041.54 709.24 1041.27 708.744 1041.2 708.104H1042.36C1042.41 708.456 1042.57 708.728 1042.84 708.92C1043.11 709.104 1043.48 709.196 1043.94 709.196C1044.35 709.196 1044.66 709.124 1044.88 708.98C1045.09 708.836 1045.2 708.632 1045.2 708.368C1045.2 708.176 1045.14 708.016 1045.01 707.888C1044.89 707.752 1044.65 707.64 1044.29 707.552L1043.3 707.324C1042.69 707.172 1042.23 706.948 1041.92 706.652C1041.63 706.348 1041.48 705.976 1041.48 705.536C1041.48 704.984 1041.68 704.552 1042.09 704.24C1042.51 703.92 1043.08 703.76 1043.8 703.76C1044.51 703.76 1045.08 703.92 1045.51 704.24C1045.95 704.56 1046.2 705.008 1046.26 705.584H1045.1C1045.06 705.296 1044.92 705.076 1044.68 704.924C1044.46 704.764 1044.15 704.684 1043.76 704.684C1043.39 704.684 1043.11 704.752 1042.91 704.888C1042.72 705.016 1042.62 705.196 1042.62 705.428C1042.62 705.62 1042.69 705.78 1042.84 705.908C1042.99 706.036 1043.24 706.144 1043.58 706.232L1044.59 706.484C1045.17 706.628 1045.61 706.864 1045.91 707.192C1046.2 707.512 1046.35 707.9 1046.35 708.356C1046.35 708.908 1046.14 709.34 1045.7 709.652C1045.28 709.964 1044.68 710.12 1043.92 710.12ZM1050.36 710.12C1049.74 710.12 1049.2 709.984 1048.73 709.712C1048.26 709.44 1047.9 709.064 1047.64 708.584C1047.37 708.104 1047.24 707.552 1047.24 706.928C1047.24 706.296 1047.37 705.744 1047.62 705.272C1047.89 704.792 1048.26 704.42 1048.73 704.156C1049.2 703.892 1049.74 703.76 1050.35 703.76C1050.94 703.76 1051.45 703.888 1051.88 704.144C1052.32 704.392 1052.66 704.74 1052.89 705.188C1053.13 705.636 1053.25 706.168 1053.25 706.784C1053.25 706.88 1053.25 706.972 1053.24 707.06C1053.24 707.14 1053.23 707.224 1053.22 707.312H1048.08V706.376H1052.34L1052.03 706.748C1052.03 706.092 1051.88 705.592 1051.58 705.248C1051.29 704.904 1050.88 704.732 1050.35 704.732C1049.78 704.732 1049.33 704.928 1048.99 705.32C1048.66 705.704 1048.5 706.24 1048.5 706.928C1048.5 707.624 1048.66 708.168 1048.99 708.56C1049.33 708.952 1049.79 709.148 1050.38 709.148C1050.74 709.148 1051.06 709.076 1051.32 708.932C1051.58 708.78 1051.78 708.56 1051.91 708.272H1053.08C1052.88 708.848 1052.54 709.3 1052.06 709.628C1051.59 709.956 1051.02 710.12 1050.36 710.12ZM1054.53 710V703.88H1055.72V705.32H1055.78V710H1054.53ZM1058.87 710V706.064C1058.87 705.64 1058.76 705.324 1058.55 705.116C1058.34 704.908 1058.03 704.804 1057.61 704.804C1057.25 704.804 1056.93 704.884 1056.65 705.044C1056.38 705.204 1056.16 705.424 1056 705.704C1055.85 705.984 1055.78 706.316 1055.78 706.7L1055.62 705.236C1055.82 704.78 1056.13 704.42 1056.54 704.156C1056.96 703.892 1057.44 703.76 1058 703.76C1058.65 703.76 1059.17 703.944 1059.54 704.312C1059.92 704.68 1060.11 705.168 1060.11 705.776V710H1058.87ZM1063.31 710L1060.82 703.88H1062.15L1064.19 709.436H1063.6L1065.62 703.88H1066.9L1064.42 710H1063.31ZM1070.42 710.12C1069.8 710.12 1069.25 709.984 1068.78 709.712C1068.31 709.432 1067.94 709.052 1067.67 708.572C1067.41 708.084 1067.28 707.532 1067.28 706.916C1067.28 706.292 1067.41 705.744 1067.67 705.272C1067.95 704.8 1068.31 704.432 1068.78 704.168C1069.25 703.896 1069.8 703.76 1070.42 703.76C1071.05 703.76 1071.61 703.896 1072.08 704.168C1072.55 704.432 1072.91 704.8 1073.17 705.272C1073.43 705.744 1073.57 706.292 1073.57 706.916C1073.57 707.532 1073.43 708.084 1073.17 708.572C1072.91 709.052 1072.55 709.432 1072.08 709.712C1071.61 709.984 1071.05 710.12 1070.42 710.12ZM1070.42 709.1C1070.8 709.1 1071.12 709.008 1071.39 708.824C1071.67 708.64 1071.89 708.384 1072.05 708.056C1072.21 707.728 1072.29 707.344 1072.29 706.904C1072.29 706.248 1072.12 705.732 1071.77 705.356C1071.42 704.972 1070.97 704.78 1070.42 704.78C1069.88 704.78 1069.43 704.972 1069.08 705.356C1068.73 705.74 1068.56 706.256 1068.56 706.904C1068.56 707.344 1068.64 707.728 1068.79 708.056C1068.95 708.384 1069.17 708.64 1069.45 708.824C1069.74 709.008 1070.06 709.1 1070.42 709.1ZM1074.85 710V701.36H1076.1V710H1074.85ZM1079.6 710L1077.1 703.88H1078.44L1080.48 709.436H1079.89L1081.9 703.88H1083.19L1080.7 710H1079.6ZM1084.12 710V703.88H1085.37V710H1084.12ZM1084.06 702.68V701.276H1085.44V702.68H1084.06ZM1091.5 710V708.596L1091.62 708.632C1091.49 709.088 1091.23 709.452 1090.83 709.724C1090.43 709.988 1089.95 710.12 1089.39 710.12C1088.84 710.12 1088.35 709.988 1087.94 709.724C1087.53 709.46 1087.21 709.092 1086.98 708.62C1086.75 708.148 1086.64 707.596 1086.64 706.964C1086.64 706.324 1086.76 705.764 1086.99 705.284C1087.22 704.804 1087.54 704.432 1087.96 704.168C1088.38 703.904 1088.86 703.772 1089.42 703.772C1090.01 703.772 1090.49 703.912 1090.86 704.192C1091.25 704.464 1091.5 704.848 1091.62 705.344L1091.45 705.368V701.36H1092.69V710H1091.5ZM1089.7 709.076C1090.25 709.076 1090.69 708.888 1091.01 708.512C1091.33 708.128 1091.49 707.6 1091.49 706.928C1091.49 706.272 1091.32 705.756 1091 705.38C1090.68 704.996 1090.24 704.804 1089.69 704.804C1089.14 704.804 1088.71 704.996 1088.39 705.38C1088.08 705.756 1087.92 706.284 1087.92 706.964C1087.92 707.628 1088.08 708.148 1088.39 708.524C1088.71 708.892 1089.15 709.076 1089.7 709.076ZM1097.11 710.12C1096.48 710.12 1095.93 709.984 1095.46 709.712C1094.99 709.432 1094.62 709.052 1094.36 708.572C1094.09 708.084 1093.96 707.532 1093.96 706.916C1093.96 706.292 1094.09 705.744 1094.36 705.272C1094.63 704.8 1095 704.432 1095.46 704.168C1095.93 703.896 1096.48 703.76 1097.11 703.76C1097.74 703.76 1098.29 703.896 1098.76 704.168C1099.23 704.432 1099.6 704.8 1099.85 705.272C1100.12 705.744 1100.25 706.292 1100.25 706.916C1100.25 707.532 1100.12 708.084 1099.85 708.572C1099.6 709.052 1099.23 709.432 1098.76 709.712C1098.29 709.984 1097.74 710.12 1097.11 710.12ZM1097.11 709.1C1097.48 709.1 1097.81 709.008 1098.08 708.824C1098.36 708.64 1098.58 708.384 1098.74 708.056C1098.9 707.728 1098.98 707.344 1098.98 706.904C1098.98 706.248 1098.8 705.732 1098.45 705.356C1098.11 704.972 1097.66 704.78 1097.11 704.78C1096.56 704.78 1096.11 704.972 1095.76 705.356C1095.42 705.74 1095.25 706.256 1095.25 706.904C1095.25 707.344 1095.32 707.728 1095.47 708.056C1095.63 708.384 1095.85 708.64 1096.13 708.824C1096.42 709.008 1096.75 709.1 1097.11 709.1ZM1107.16 710.108C1106.59 710.108 1106.11 709.972 1105.72 709.7C1105.35 709.42 1105.1 709.032 1104.98 708.536L1105.15 708.512V712.46H1103.9V703.88H1105.09V705.284L1104.97 705.248C1105.1 704.784 1105.37 704.42 1105.78 704.156C1106.2 703.892 1106.69 703.76 1107.25 703.76C1107.8 703.76 1108.28 703.892 1108.68 704.156C1109.08 704.42 1109.4 704.788 1109.61 705.26C1109.84 705.732 1109.95 706.284 1109.95 706.916C1109.95 707.556 1109.83 708.116 1109.6 708.596C1109.37 709.076 1109.04 709.448 1108.63 709.712C1108.21 709.976 1107.72 710.108 1107.16 710.108ZM1106.9 709.076C1107.44 709.076 1107.88 708.884 1108.2 708.5C1108.52 708.116 1108.68 707.588 1108.68 706.916C1108.68 706.252 1108.52 705.736 1108.2 705.368C1107.88 704.992 1107.44 704.804 1106.89 704.804C1106.34 704.804 1105.91 704.996 1105.58 705.38C1105.26 705.756 1105.1 706.28 1105.1 706.952C1105.1 707.608 1105.26 708.128 1105.58 708.512C1105.91 708.888 1106.35 709.076 1106.9 709.076ZM1113.96 710.12C1113.33 710.12 1112.79 709.984 1112.31 709.712C1111.84 709.432 1111.47 709.052 1111.21 708.572C1110.95 708.084 1110.81 707.532 1110.81 706.916C1110.81 706.292 1110.95 705.744 1111.21 705.272C1111.48 704.8 1111.85 704.432 1112.31 704.168C1112.79 703.896 1113.33 703.76 1113.96 703.76C1114.59 703.76 1115.14 703.896 1115.61 704.168C1116.09 704.432 1116.45 704.8 1116.71 705.272C1116.97 705.744 1117.1 706.292 1117.1 706.916C1117.1 707.532 1116.97 708.084 1116.71 708.572C1116.45 709.052 1116.09 709.432 1115.61 709.712C1115.14 709.984 1114.59 710.12 1113.96 710.12ZM1113.96 709.1C1114.33 709.1 1114.66 709.008 1114.93 708.824C1115.21 708.64 1115.43 708.384 1115.59 708.056C1115.75 707.728 1115.83 707.344 1115.83 706.904C1115.83 706.248 1115.65 705.732 1115.3 705.356C1114.96 704.972 1114.51 704.78 1113.96 704.78C1113.41 704.78 1112.97 704.972 1112.61 705.356C1112.27 705.74 1112.1 706.256 1112.1 706.904C1112.1 707.344 1112.17 707.728 1112.33 708.056C1112.49 708.384 1112.71 708.64 1112.99 708.824C1113.27 709.008 1113.6 709.1 1113.96 709.1ZM1118.38 710V703.88H1119.57V705.404H1119.63V710H1118.38ZM1119.63 706.808L1119.48 705.356C1119.62 704.836 1119.87 704.44 1120.22 704.168C1120.57 703.896 1120.99 703.76 1121.48 703.76C1121.66 703.76 1121.79 703.776 1121.86 703.808V704.984C1121.82 704.968 1121.77 704.96 1121.7 704.96C1121.62 704.952 1121.54 704.948 1121.43 704.948C1120.83 704.948 1120.38 705.104 1120.08 705.416C1119.78 705.728 1119.63 706.192 1119.63 706.808ZM1122.86 710V708.512H1124.34V710H1122.86ZM1122.86 705.656V704.168H1124.34V705.656H1122.86ZM1129.24 710.12C1128.94 710.12 1128.65 710.096 1128.37 710.048C1128.09 710.008 1127.88 709.956 1127.75 709.892V708.812C1127.93 708.884 1128.14 708.944 1128.39 708.992C1128.64 709.04 1128.89 709.064 1129.15 709.064C1129.67 709.064 1130.07 708.956 1130.33 708.74C1130.61 708.516 1130.74 708.164 1130.74 707.684V701.36H1132.01V707.732C1132.01 708.532 1131.78 709.132 1131.31 709.532C1130.83 709.924 1130.15 710.12 1129.24 710.12ZM1137.4 710C1137.36 709.848 1137.33 709.68 1137.31 709.496C1137.31 709.312 1137.3 709.088 1137.3 708.824H1137.24V705.908C1137.24 705.516 1137.14 705.224 1136.94 705.032C1136.75 704.832 1136.44 704.732 1136.02 704.732C1135.61 704.732 1135.28 704.812 1135.03 704.972C1134.79 705.132 1134.65 705.36 1134.61 705.656H1133.43C1133.48 705.08 1133.74 704.62 1134.21 704.276C1134.67 703.932 1135.29 703.76 1136.07 703.76C1136.87 703.76 1137.47 703.948 1137.87 704.324C1138.27 704.692 1138.47 705.236 1138.47 705.956V708.824C1138.47 709.008 1138.48 709.196 1138.5 709.388C1138.53 709.58 1138.56 709.784 1138.61 710H1137.4ZM1135.29 710.12C1134.66 710.12 1134.17 709.968 1133.8 709.664C1133.43 709.352 1133.25 708.932 1133.25 708.404C1133.25 707.86 1133.44 707.432 1133.82 707.12C1134.21 706.8 1134.77 706.584 1135.5 706.472L1137.52 706.148V707.024L1135.69 707.312C1135.29 707.376 1134.98 707.484 1134.77 707.636C1134.57 707.788 1134.47 708.008 1134.47 708.296C1134.47 708.576 1134.56 708.788 1134.75 708.932C1134.94 709.068 1135.21 709.136 1135.57 709.136C1136.05 709.136 1136.45 709.02 1136.76 708.788C1137.08 708.556 1137.24 708.264 1137.24 707.912L1137.4 708.8C1137.25 709.224 1137 709.552 1136.63 709.784C1136.26 710.008 1135.81 710.12 1135.29 710.12ZM1140.08 710V703.88H1141.32V710H1140.08ZM1140.02 702.68V701.276H1141.4V702.68H1140.02ZM1143.08 710V703.88H1144.26V705.404H1144.32V710H1143.08ZM1144.32 706.808L1144.17 705.356C1144.31 704.836 1144.56 704.44 1144.91 704.168C1145.26 703.896 1145.68 703.76 1146.17 703.76C1146.36 703.76 1146.48 703.776 1146.56 703.808V704.984C1146.52 704.968 1146.46 704.96 1146.39 704.96C1146.32 704.952 1146.23 704.948 1146.12 704.948C1145.52 704.948 1145.07 705.104 1144.77 705.416C1144.47 705.728 1144.32 706.192 1144.32 706.808ZM1153.85 710.12C1153.25 710.12 1152.7 710.012 1152.18 709.796C1151.67 709.572 1151.23 709.264 1150.85 708.872C1150.48 708.472 1150.2 708 1149.99 707.456C1149.78 706.912 1149.68 706.316 1149.68 705.668C1149.68 705.02 1149.78 704.428 1149.98 703.892C1150.18 703.348 1150.47 702.88 1150.84 702.488C1151.22 702.088 1151.66 701.78 1152.17 701.564C1152.68 701.348 1153.24 701.24 1153.84 701.24C1154.51 701.24 1155.12 701.376 1155.65 701.648C1156.19 701.912 1156.62 702.288 1156.96 702.776C1157.3 703.264 1157.52 703.832 1157.6 704.48H1156.35C1156.24 703.8 1155.97 703.272 1155.52 702.896C1155.08 702.512 1154.52 702.32 1153.85 702.32C1153.28 702.32 1152.78 702.46 1152.34 702.74C1151.91 703.012 1151.57 703.4 1151.33 703.904C1151.09 704.4 1150.97 704.988 1150.97 705.668C1150.97 706.34 1151.09 706.932 1151.33 707.444C1151.58 707.948 1151.92 708.34 1152.35 708.62C1152.78 708.9 1153.28 709.04 1153.85 709.04C1154.52 709.04 1155.08 708.852 1155.53 708.476C1155.99 708.092 1156.26 707.56 1156.36 706.88H1157.62C1157.53 707.536 1157.32 708.108 1156.97 708.596C1156.63 709.076 1156.19 709.452 1155.65 709.724C1155.12 709.988 1154.52 710.12 1153.85 710.12ZM1162.57 710C1162.53 709.848 1162.5 709.68 1162.49 709.496C1162.48 709.312 1162.47 709.088 1162.47 708.824H1162.41V705.908C1162.41 705.516 1162.31 705.224 1162.11 705.032C1161.92 704.832 1161.61 704.732 1161.19 704.732C1160.78 704.732 1160.45 704.812 1160.21 704.972C1159.97 705.132 1159.83 705.36 1159.79 705.656H1158.6C1158.65 705.08 1158.91 704.62 1159.38 704.276C1159.84 703.932 1160.46 703.76 1161.24 703.76C1162.04 703.76 1162.64 703.948 1163.04 704.324C1163.44 704.692 1163.64 705.236 1163.64 705.956V708.824C1163.64 709.008 1163.65 709.196 1163.67 709.388C1163.7 709.58 1163.73 709.784 1163.78 710H1162.57ZM1160.46 710.12C1159.83 710.12 1159.34 709.968 1158.97 709.664C1158.6 709.352 1158.42 708.932 1158.42 708.404C1158.42 707.86 1158.61 707.432 1158.99 707.12C1159.39 706.8 1159.95 706.584 1160.67 706.472L1162.69 706.148V707.024L1160.87 707.312C1160.46 707.376 1160.15 707.484 1159.94 707.636C1159.74 707.788 1159.64 708.008 1159.64 708.296C1159.64 708.576 1159.73 708.788 1159.92 708.932C1160.11 709.068 1160.39 709.136 1160.75 709.136C1161.23 709.136 1161.62 709.02 1161.93 708.788C1162.25 708.556 1162.41 708.264 1162.41 707.912L1162.57 708.8C1162.43 709.224 1162.17 709.552 1161.8 709.784C1161.43 710.008 1160.99 710.12 1160.46 710.12ZM1165.33 710V703.88H1166.52V705.32H1166.58V710H1165.33ZM1169.46 710V706.004C1169.46 705.588 1169.36 705.284 1169.17 705.092C1168.98 704.9 1168.7 704.804 1168.34 704.804C1168.01 704.804 1167.7 704.884 1167.43 705.044C1167.17 705.196 1166.96 705.412 1166.81 705.692C1166.65 705.964 1166.58 706.288 1166.58 706.664L1166.42 705.236C1166.62 704.78 1166.92 704.42 1167.32 704.156C1167.73 703.892 1168.19 703.76 1168.69 703.76C1169.3 703.76 1169.78 703.936 1170.14 704.288C1170.51 704.64 1170.69 705.104 1170.69 705.68V710H1169.46ZM1173.59 710V706.004C1173.59 705.588 1173.49 705.284 1173.29 705.092C1173.09 704.9 1172.82 704.804 1172.46 704.804C1172.13 704.804 1171.83 704.884 1171.56 705.044C1171.29 705.196 1171.08 705.412 1170.92 705.692C1170.77 705.964 1170.69 706.288 1170.69 706.664L1170.44 705.236C1170.65 704.78 1170.96 704.42 1171.38 704.156C1171.8 703.892 1172.27 703.76 1172.79 703.76C1173.41 703.76 1173.9 703.94 1174.27 704.3C1174.64 704.652 1174.82 705.124 1174.82 705.716V710H1173.59ZM1179.76 710.108C1179.19 710.108 1178.71 709.972 1178.32 709.7C1177.95 709.42 1177.7 709.032 1177.58 708.536L1177.75 708.512V712.46H1176.5V703.88H1177.69V705.284L1177.57 705.248C1177.69 704.784 1177.97 704.42 1178.38 704.156C1178.8 703.892 1179.29 703.76 1179.85 703.76C1180.4 703.76 1180.87 703.892 1181.27 704.156C1181.68 704.42 1181.99 704.788 1182.21 705.26C1182.43 705.732 1182.55 706.284 1182.55 706.916C1182.55 707.556 1182.43 708.116 1182.2 708.596C1181.97 709.076 1181.64 709.448 1181.23 709.712C1180.81 709.976 1180.32 710.108 1179.76 710.108ZM1179.5 709.076C1180.04 709.076 1180.47 708.884 1180.79 708.5C1181.11 708.116 1181.27 707.588 1181.27 706.916C1181.27 706.252 1181.11 705.736 1180.79 705.368C1180.47 704.992 1180.04 704.804 1179.49 704.804C1178.94 704.804 1178.51 704.996 1178.18 705.38C1177.86 705.756 1177.7 706.28 1177.7 706.952C1177.7 707.608 1177.86 708.128 1178.18 708.512C1178.51 708.888 1178.95 709.076 1179.5 709.076ZM1186.53 710.12C1185.92 710.12 1185.37 709.984 1184.9 709.712C1184.44 709.44 1184.07 709.064 1183.81 708.584C1183.54 708.104 1183.41 707.552 1183.41 706.928C1183.41 706.296 1183.54 705.744 1183.8 705.272C1184.06 704.792 1184.43 704.42 1184.9 704.156C1185.37 703.892 1185.91 703.76 1186.52 703.76C1187.11 703.76 1187.62 703.888 1188.06 704.144C1188.5 704.392 1188.83 704.74 1189.06 705.188C1189.3 705.636 1189.42 706.168 1189.42 706.784C1189.42 706.88 1189.42 706.972 1189.41 707.06C1189.41 707.14 1189.4 707.224 1189.39 707.312H1184.25V706.376H1188.51L1188.2 706.748C1188.2 706.092 1188.05 705.592 1187.76 705.248C1187.46 704.904 1187.05 704.732 1186.52 704.732C1185.95 704.732 1185.5 704.928 1185.16 705.32C1184.84 705.704 1184.67 706.24 1184.67 706.928C1184.67 707.624 1184.84 708.168 1185.16 708.56C1185.5 708.952 1185.96 709.148 1186.56 709.148C1186.92 709.148 1187.23 709.076 1187.49 708.932C1187.76 708.78 1187.95 708.56 1188.08 708.272H1189.26C1189.06 708.848 1188.72 709.3 1188.24 709.628C1187.76 709.956 1187.2 710.12 1186.53 710.12ZM1190.7 710V701.36H1191.95V710H1190.7ZM1196.36 710.12C1195.74 710.12 1195.19 709.984 1194.72 709.712C1194.25 709.432 1193.88 709.052 1193.62 708.572C1193.35 708.084 1193.22 707.532 1193.22 706.916C1193.22 706.292 1193.35 705.744 1193.62 705.272C1193.89 704.8 1194.26 704.432 1194.72 704.168C1195.19 703.896 1195.74 703.76 1196.36 703.76C1197 703.76 1197.55 703.896 1198.02 704.168C1198.49 704.432 1198.86 704.8 1199.11 705.272C1199.38 705.744 1199.51 706.292 1199.51 706.916C1199.51 707.532 1199.38 708.084 1199.11 708.572C1198.86 709.052 1198.49 709.432 1198.02 709.712C1197.55 709.984 1197 710.12 1196.36 710.12ZM1196.36 709.1C1196.74 709.1 1197.06 709.008 1197.34 708.824C1197.62 708.64 1197.84 708.384 1198 708.056C1198.16 707.728 1198.24 707.344 1198.24 706.904C1198.24 706.248 1198.06 705.732 1197.71 705.356C1197.36 704.972 1196.92 704.78 1196.36 704.78C1195.82 704.78 1195.37 704.972 1195.02 705.356C1194.68 705.74 1194.5 706.256 1194.5 706.904C1194.5 707.344 1194.58 707.728 1194.73 708.056C1194.89 708.384 1195.11 708.64 1195.39 708.824C1195.68 709.008 1196 709.1 1196.36 709.1Z" fill="#1A0F2E" fill-opacity="0.54"/>
<g filter="url(#filter0_d_2_2)">
<rect x="20" y="252" width="1240" height="438" rx="10" fill="white"/>
</g>
<rect x="20" y="10" width="1240" height="48" rx="10" fill="#1A0F2E"/>
<path d="M68.72 39V32.88H70.484V34.32H70.52V39H68.72ZM72.836 39V35.112C72.836 34.8 72.752 34.572 72.584 34.428C72.424 34.276 72.196 34.2 71.9 34.2C71.644 34.2 71.408 34.26 71.192 34.38C70.984 34.492 70.82 34.656 70.7 34.872C70.58 35.08 70.52 35.328 70.52 35.616L70.364 34.236C70.564 33.788 70.852 33.432 71.228 33.168C71.612 32.896 72.072 32.76 72.608 32.76C73.248 32.76 73.744 32.94 74.096 33.3C74.456 33.66 74.636 34.112 74.636 34.656V39H72.836ZM76.952 39V35.112C76.952 34.8 76.868 34.572 76.7 34.428C76.54 34.276 76.312 34.2 76.016 34.2C75.76 34.2 75.524 34.26 75.308 34.38C75.1 34.492 74.936 34.656 74.816 34.872C74.696 35.08 74.636 35.328 74.636 35.616L74.36 34.236C74.56 33.788 74.856 33.432 75.248 33.168C75.648 32.896 76.128 32.76 76.688 32.76C77.352 32.76 77.86 32.948 78.212 33.324C78.572 33.692 78.752 34.176 78.752 34.776V39H76.952ZM80.1765 41.46L81.8685 37.716L82.1805 37.2L83.7645 32.88H85.6845L81.9765 41.46H80.1765ZM81.4725 38.88L79.1205 32.88H81.0645L82.9965 38.352L81.4725 38.88ZM90.2936 39.12C89.6696 39.12 89.0936 39.012 88.5656 38.796C88.0376 38.572 87.5776 38.26 87.1856 37.86C86.8016 37.46 86.5016 36.988 86.2856 36.444C86.0696 35.892 85.9616 35.292 85.9616 34.644C85.9616 33.996 86.0656 33.404 86.2736 32.868C86.4896 32.332 86.7896 31.868 87.1736 31.476C87.5656 31.076 88.0256 30.772 88.5536 30.564C89.0816 30.348 89.6616 30.24 90.2936 30.24C91.0056 30.24 91.6456 30.38 92.2136 30.66C92.7896 30.932 93.2576 31.32 93.6176 31.824C93.9856 32.32 94.2096 32.904 94.2896 33.576H92.4896C92.3856 32.96 92.1336 32.496 91.7336 32.184C91.3336 31.864 90.8576 31.704 90.3056 31.704C89.8176 31.704 89.3856 31.82 89.0096 32.052C88.6416 32.284 88.3536 32.62 88.1456 33.06C87.9376 33.492 87.8336 34.016 87.8336 34.632C87.8336 35.256 87.9376 35.796 88.1456 36.252C88.3616 36.7 88.6576 37.048 89.0336 37.296C89.4096 37.536 89.8416 37.656 90.3296 37.656C90.8496 37.656 91.3096 37.5 91.7096 37.188C92.1096 36.876 92.3696 36.412 92.4896 35.796H94.3136C94.2096 36.468 93.9736 37.056 93.6056 37.56C93.2376 38.056 92.7696 38.44 92.2016 38.712C91.6336 38.984 90.9976 39.12 90.2936 39.12ZM98.2021 39.12C97.5301 39.12 96.9381 38.988 96.4261 38.724C95.9221 38.452 95.5261 38.076 95.2381 37.596C94.9581 37.108 94.8181 36.548 94.8181 35.916C94.8181 35.284 94.9581 34.732 95.2381 34.26C95.5261 33.788 95.9221 33.42 96.4261 33.156C96.9381 32.892 97.5301 32.76 98.2021 32.76C98.8821 32.76 99.4741 32.892 99.9781 33.156C100.49 33.42 100.886 33.788 101.166 34.26C101.446 34.732 101.586 35.284 101.586 35.916C101.586 36.548 101.442 37.108 101.154 37.596C100.874 38.076 100.478 38.452 99.9661 38.724C99.4621 38.988 98.8741 39.12 98.2021 39.12ZM98.2021 37.704C98.4821 37.704 98.7341 37.632 98.9581 37.488C99.1901 37.344 99.3741 37.14 99.5101 36.876C99.6461 36.604 99.7141 36.28 99.7141 35.904C99.7141 35.352 99.5661 34.928 99.2701 34.632C98.9821 34.328 98.6261 34.176 98.2021 34.176C97.7781 34.176 97.4181 34.328 97.1221 34.632C96.8341 34.936 96.6901 35.36 96.6901 35.904C96.6901 36.28 96.7581 36.604 96.8941 36.876C97.0301 37.14 97.2101 37.344 97.4341 37.488C97.6661 37.632 97.9221 37.704 98.2021 37.704ZM102.891 39V32.472C102.891 31.736 103.091 31.18 103.491 30.804C103.891 30.428 104.483 30.24 105.267 30.24C105.435 30.24 105.579 30.248 105.699 30.264C105.827 30.28 105.951 30.308 106.071 30.348V31.728C106.015 31.704 105.947 31.688 105.867 31.68C105.787 31.664 105.691 31.656 105.579 31.656C105.275 31.656 105.051 31.728 104.907 31.872C104.763 32.016 104.691 32.224 104.691 32.496V39H102.891ZM101.871 34.248V32.88H105.939V34.248H101.871ZM107.461 39V32.472C107.461 31.736 107.661 31.18 108.061 30.804C108.461 30.428 109.053 30.24 109.837 30.24C110.005 30.24 110.149 30.248 110.269 30.264C110.397 30.28 110.521 30.308 110.641 30.348V31.728C110.585 31.704 110.517 31.688 110.437 31.68C110.357 31.664 110.261 31.656 110.149 31.656C109.845 31.656 109.621 31.728 109.477 31.872C109.333 32.016 109.261 32.224 109.261 32.496V39H107.461ZM106.441 34.248V32.88H110.509V34.248H106.441ZM114.127 39.12C113.447 39.12 112.855 38.988 112.351 38.724C111.847 38.452 111.455 38.076 111.175 37.596C110.903 37.116 110.767 36.564 110.767 35.94C110.767 35.308 110.903 34.756 111.175 34.284C111.455 33.804 111.843 33.432 112.339 33.168C112.835 32.896 113.411 32.76 114.067 32.76C114.699 32.76 115.247 32.888 115.711 33.144C116.175 33.4 116.535 33.756 116.791 34.212C117.047 34.668 117.175 35.204 117.175 35.82C117.175 35.948 117.171 36.068 117.163 36.18C117.155 36.284 117.143 36.384 117.127 36.48H111.823V35.292H115.675L115.363 35.508C115.363 35.012 115.243 34.648 115.003 34.416C114.771 34.176 114.451 34.056 114.043 34.056C113.571 34.056 113.203 34.216 112.939 34.536C112.683 34.856 112.555 35.336 112.555 35.976C112.555 36.6 112.683 37.064 112.939 37.368C113.203 37.672 113.595 37.824 114.115 37.824C114.403 37.824 114.651 37.776 114.859 37.68C115.067 37.584 115.223 37.428 115.327 37.212H117.019C116.819 37.804 116.475 38.272 115.987 38.616C115.507 38.952 114.887 39.12 114.127 39.12ZM121.135 39.12C120.455 39.12 119.863 38.988 119.359 38.724C118.855 38.452 118.463 38.076 118.183 37.596C117.911 37.116 117.775 36.564 117.775 35.94C117.775 35.308 117.911 34.756 118.183 34.284C118.463 33.804 118.851 33.432 119.347 33.168C119.843 32.896 120.419 32.76 121.075 32.76C121.707 32.76 122.255 32.888 122.719 33.144C123.183 33.4 123.543 33.756 123.799 34.212C124.055 34.668 124.183 35.204 124.183 35.82C124.183 35.948 124.179 36.068 124.171 36.18C124.163 36.284 124.151 36.384 124.135 36.48H118.831V35.292H122.683L122.371 35.508C122.371 35.012 122.251 34.648 122.011 34.416C121.779 34.176 121.459 34.056 121.051 34.056C120.579 34.056 120.211 34.216 119.947 34.536C119.691 34.856 119.563 35.336 119.563 35.976C119.563 36.6 119.691 37.064 119.947 37.368C120.211 37.672 120.603 37.824 121.123 37.824C121.411 37.824 121.659 37.776 121.867 37.68C122.075 37.584 122.231 37.428 122.335 37.212H124.027C123.827 37.804 123.483 38.272 122.995 38.616C122.515 38.952 121.895 39.12 121.135 39.12ZM127.431 36.456V35.016H131.823V36.456H127.431ZM136.56 39V37.56H138.744C139.368 37.56 139.896 37.436 140.328 37.188C140.768 36.932 141.1 36.584 141.324 36.144C141.556 35.704 141.672 35.2 141.672 34.632C141.672 34.072 141.56 33.58 141.336 33.156C141.112 32.732 140.78 32.4 140.34 32.16C139.908 31.92 139.376 31.8 138.744 31.8H136.596V30.36H138.744C139.712 30.36 140.556 30.536 141.276 30.888C141.996 31.232 142.552 31.728 142.944 32.376C143.344 33.016 143.544 33.776 143.544 34.656C143.544 35.536 143.344 36.304 142.944 36.96C142.544 37.608 141.984 38.112 141.264 38.472C140.552 38.824 139.716 39 138.756 39H136.56ZM135.432 39V30.36H137.28V39H135.432ZM148.287 39C148.239 38.824 148.203 38.636 148.179 38.436C148.163 38.236 148.155 38.004 148.155 37.74H148.107V34.848C148.107 34.6 148.023 34.408 147.855 34.272C147.695 34.128 147.455 34.056 147.135 34.056C146.831 34.056 146.587 34.108 146.403 34.212C146.227 34.316 146.111 34.468 146.055 34.668H144.339C144.419 34.116 144.703 33.66 145.191 33.3C145.679 32.94 146.347 32.76 147.195 32.76C148.075 32.76 148.747 32.956 149.211 33.348C149.675 33.74 149.907 34.304 149.907 35.04V37.74C149.907 37.94 149.919 38.144 149.943 38.352C149.975 38.552 150.023 38.768 150.087 39H148.287ZM146.151 39.12C145.543 39.12 145.059 38.968 144.699 38.664C144.339 38.352 144.159 37.94 144.159 37.428C144.159 36.86 144.371 36.404 144.795 36.06C145.227 35.708 145.827 35.48 146.595 35.376L148.383 35.124V36.168L146.895 36.396C146.575 36.444 146.339 36.532 146.187 36.66C146.035 36.788 145.959 36.964 145.959 37.188C145.959 37.388 146.031 37.54 146.175 37.644C146.319 37.748 146.511 37.8 146.751 37.8C147.127 37.8 147.447 37.7 147.711 37.5C147.975 37.292 148.107 37.052 148.107 36.78L148.275 37.74C148.099 38.196 147.831 38.54 147.471 38.772C147.111 39.004 146.671 39.12 146.151 39.12ZM153.598 39.12C152.702 39.12 151.99 38.94 151.462 38.58C150.934 38.22 150.646 37.724 150.598 37.092H152.206C152.246 37.364 152.382 37.572 152.614 37.716C152.854 37.852 153.182 37.92 153.598 37.92C153.974 37.92 154.246 37.868 154.414 37.764C154.59 37.652 154.678 37.496 154.678 37.296C154.678 37.144 154.626 37.028 154.522 36.948C154.426 36.86 154.246 36.788 153.982 36.732L152.998 36.528C152.27 36.376 151.734 36.148 151.39 35.844C151.046 35.532 150.874 35.132 150.874 34.644C150.874 34.052 151.102 33.592 151.558 33.264C152.014 32.928 152.65 32.76 153.466 32.76C154.274 32.76 154.918 32.924 155.398 33.252C155.878 33.572 156.142 34.02 156.19 34.596H154.582C154.55 34.388 154.438 34.232 154.246 34.128C154.054 34.016 153.782 33.96 153.43 33.96C153.11 33.96 152.87 34.008 152.71 34.104C152.558 34.192 152.482 34.32 152.482 34.488C152.482 34.632 152.546 34.748 152.674 34.836C152.802 34.916 153.014 34.988 153.31 35.052L154.414 35.28C155.03 35.408 155.494 35.648 155.806 36C156.126 36.344 156.286 36.752 156.286 37.224C156.286 37.824 156.05 38.292 155.578 38.628C155.114 38.956 154.454 39.12 153.598 39.12ZM157.173 39V30.36H158.973V39H157.173ZM161.433 39V35.208C161.433 34.872 161.345 34.62 161.169 34.452C161.001 34.284 160.753 34.2 160.425 34.2C160.145 34.2 159.893 34.264 159.669 34.392C159.453 34.52 159.281 34.696 159.153 34.92C159.033 35.144 158.973 35.408 158.973 35.712L158.817 34.236C159.017 33.788 159.309 33.432 159.693 33.168C160.085 32.896 160.565 32.76 161.133 32.76C161.813 32.76 162.333 32.952 162.693 33.336C163.053 33.712 163.233 34.22 163.233 34.86V39H161.433ZM168.335 39.12C167.751 39.12 167.275 38.984 166.907 38.712C166.547 38.44 166.335 38.068 166.271 37.596L166.367 37.584V39H164.603V30.36H166.403V34.236L166.295 34.212C166.383 33.764 166.615 33.412 166.991 33.156C167.375 32.892 167.855 32.76 168.431 32.76C168.983 32.76 169.459 32.892 169.859 33.156C170.267 33.412 170.579 33.776 170.795 34.248C171.019 34.72 171.131 35.276 171.131 35.916C171.131 36.564 171.015 37.128 170.783 37.608C170.551 38.088 170.227 38.46 169.811 38.724C169.395 38.988 168.903 39.12 168.335 39.12ZM167.831 37.68C168.255 37.68 168.599 37.528 168.863 37.224C169.127 36.92 169.259 36.488 169.259 35.928C169.259 35.368 169.123 34.94 168.851 34.644C168.587 34.348 168.239 34.2 167.807 34.2C167.391 34.2 167.047 34.352 166.775 34.656C166.511 34.952 166.379 35.38 166.379 35.94C166.379 36.5 166.511 36.932 166.775 37.236C167.047 37.532 167.399 37.68 167.831 37.68ZM175.159 39.12C174.487 39.12 173.895 38.988 173.383 38.724C172.879 38.452 172.483 38.076 172.195 37.596C171.915 37.108 171.775 36.548 171.775 35.916C171.775 35.284 171.915 34.732 172.195 34.26C172.483 33.788 172.879 33.42 173.383 33.156C173.895 32.892 174.487 32.76 175.159 32.76C175.839 32.76 176.431 32.892 176.935 33.156C177.447 33.42 177.843 33.788 178.123 34.26C178.403 34.732 178.543 35.284 178.543 35.916C178.543 36.548 178.399 37.108 178.111 37.596C177.831 38.076 177.435 38.452 176.923 38.724C176.419 38.988 175.831 39.12 175.159 39.12ZM175.159 37.704C175.439 37.704 175.691 37.632 175.915 37.488C176.147 37.344 176.331 37.14 176.467 36.876C176.603 36.604 176.671 36.28 176.671 35.904C176.671 35.352 176.523 34.928 176.227 34.632C175.939 34.328 175.583 34.176 175.159 34.176C174.735 34.176 174.375 34.328 174.079 34.632C173.791 34.936 173.647 35.36 173.647 35.904C173.647 36.28 173.715 36.604 173.851 36.876C173.987 37.14 174.167 37.344 174.391 37.488C174.623 37.632 174.879 37.704 175.159 37.704ZM183.314 39C183.266 38.824 183.23 38.636 183.206 38.436C183.19 38.236 183.182 38.004 183.182 37.74H183.134V34.848C183.134 34.6 183.05 34.408 182.882 34.272C182.722 34.128 182.482 34.056 182.162 34.056C181.858 34.056 181.614 34.108 181.43 34.212C181.254 34.316 181.138 34.468 181.082 34.668H179.366C179.446 34.116 179.73 33.66 180.218 33.3C180.706 32.94 181.374 32.76 182.222 32.76C183.102 32.76 183.774 32.956 184.238 33.348C184.702 33.74 184.934 34.304 184.934 35.04V37.74C184.934 37.94 184.946 38.144 184.97 38.352C185.002 38.552 185.05 38.768 185.114 39H183.314ZM181.178 39.12C180.57 39.12 180.086 38.968 179.726 38.664C179.366 38.352 179.186 37.94 179.186 37.428C179.186 36.86 179.398 36.404 179.822 36.06C180.254 35.708 180.854 35.48 181.622 35.376L183.41 35.124V36.168L181.922 36.396C181.602 36.444 181.366 36.532 181.214 36.66C181.062 36.788 180.986 36.964 180.986 37.188C180.986 37.388 181.058 37.54 181.202 37.644C181.346 37.748 181.538 37.8 181.778 37.8C182.154 37.8 182.474 37.7 182.738 37.5C183.002 37.292 183.134 37.052 183.134 36.78L183.302 37.74C183.126 38.196 182.858 38.54 182.498 38.772C182.138 39.004 181.698 39.12 181.178 39.12ZM186.318 39V32.88H188.082V34.32H188.118V39H186.318ZM188.118 35.808L187.962 34.356C188.106 33.836 188.342 33.44 188.67 33.168C188.998 32.896 189.406 32.76 189.894 32.76C190.046 32.76 190.158 32.776 190.23 32.808V34.488C190.19 34.472 190.134 34.464 190.062 34.464C189.99 34.456 189.902 34.452 189.798 34.452C189.222 34.452 188.798 34.556 188.526 34.764C188.254 34.964 188.118 35.312 188.118 35.808ZM195.325 39V37.644L195.445 37.668C195.365 38.108 195.125 38.46 194.725 38.724C194.333 38.988 193.861 39.12 193.309 39.12C192.749 39.12 192.261 38.992 191.845 38.736C191.437 38.472 191.121 38.104 190.897 37.632C190.673 37.16 190.561 36.604 190.561 35.964C190.561 35.316 190.677 34.752 190.909 34.272C191.141 33.792 191.465 33.42 191.881 33.156C192.305 32.892 192.797 32.76 193.357 32.76C193.941 32.76 194.413 32.896 194.773 33.168C195.141 33.44 195.357 33.812 195.421 34.284L195.289 34.296V30.36H197.089V39H195.325ZM193.885 37.68C194.309 37.68 194.653 37.532 194.917 37.236C195.181 36.932 195.313 36.5 195.313 35.94C195.313 35.38 195.177 34.952 194.905 34.656C194.641 34.352 194.293 34.2 193.861 34.2C193.445 34.2 193.101 34.352 192.829 34.656C192.565 34.96 192.433 35.392 192.433 35.952C192.433 36.512 192.565 36.94 192.829 37.236C193.101 37.532 193.453 37.68 193.885 37.68ZM205.146 39V37.644L205.266 37.668C205.186 38.108 204.946 38.46 204.546 38.724C204.154 38.988 203.682 39.12 203.13 39.12C202.57 39.12 202.082 38.992 201.666 38.736C201.258 38.472 200.942 38.104 200.718 37.632C200.494 37.16 200.382 36.604 200.382 35.964C200.382 35.316 200.498 34.752 200.73 34.272C200.962 33.792 201.286 33.42 201.702 33.156C202.126 32.892 202.618 32.76 203.178 32.76C203.762 32.76 204.234 32.896 204.594 33.168C204.962 33.44 205.178 33.812 205.242 34.284L205.11 34.296V30.36H206.91V39H205.146ZM203.706 37.68C204.13 37.68 204.474 37.532 204.738 37.236C205.002 36.932 205.134 36.5 205.134 35.94C205.134 35.38 204.998 34.952 204.726 34.656C204.462 34.352 204.114 34.2 203.682 34.2C203.266 34.2 202.922 34.352 202.65 34.656C202.386 34.96 202.254 35.392 202.254 35.952C202.254 36.512 202.386 36.94 202.65 37.236C202.922 37.532 203.274 37.68 203.706 37.68ZM211.229 39.12C210.549 39.12 209.957 38.988 209.453 38.724C208.949 38.452 208.557 38.076 208.277 37.596C208.005 37.116 207.869 36.564 207.869 35.94C207.869 35.308 208.005 34.756 208.277 34.284C208.557 33.804 208.945 33.432 209.441 33.168C209.937 32.896 210.513 32.76 211.169 32.76C211.801 32.76 212.349 32.888 212.813 33.144C213.277 33.4 213.637 33.756 213.893 34.212C214.149 34.668 214.277 35.204 214.277 35.82C214.277 35.948 214.273 36.068 214.265 36.18C214.257 36.284 214.245 36.384 214.229 36.48H208.925V35.292H212.777L212.465 35.508C212.465 35.012 212.345 34.648 212.105 34.416C211.873 34.176 211.553 34.056 211.145 34.056C210.673 34.056 210.305 34.216 210.041 34.536C209.785 34.856 209.657 35.336 209.657 35.976C209.657 36.6 209.785 37.064 210.041 37.368C210.305 37.672 210.697 37.824 211.217 37.824C211.505 37.824 211.753 37.776 211.961 37.68C212.169 37.584 212.325 37.428 212.429 37.212H214.121C213.921 37.804 213.577 38.272 213.089 38.616C212.609 38.952 211.989 39.12 211.229 39.12ZM221.497 39.12C220.873 39.12 220.297 39.012 219.769 38.796C219.241 38.572 218.781 38.26 218.389 37.86C218.005 37.46 217.705 36.988 217.489 36.444C217.273 35.892 217.165 35.292 217.165 34.644C217.165 33.996 217.269 33.404 217.477 32.868C217.693 32.332 217.993 31.868 218.377 31.476C218.769 31.076 219.229 30.772 219.757 30.564C220.285 30.348 220.865 30.24 221.497 30.24C222.209 30.24 222.849 30.38 223.417 30.66C223.993 30.932 224.461 31.32 224.821 31.824C225.189 32.32 225.413 32.904 225.493 33.576H223.693C223.589 32.96 223.337 32.496 222.937 32.184C222.537 31.864 222.061 31.704 221.509 31.704C221.021 31.704 220.589 31.82 220.213 32.052C219.845 32.284 219.557 32.62 219.349 33.06C219.141 33.492 219.037 34.016 219.037 34.632C219.037 35.256 219.141 35.796 219.349 36.252C219.565 36.7 219.861 37.048 220.237 37.296C220.613 37.536 221.045 37.656 221.533 37.656C222.053 37.656 222.513 37.5 222.913 37.188C223.313 36.876 223.573 36.412 223.693 35.796H225.517C225.413 36.468 225.177 37.056 224.809 37.56C224.441 38.056 223.973 38.44 223.405 38.712C222.837 38.984 222.201 39.12 221.497 39.12ZM229.405 39.12C228.733 39.12 228.141 38.988 227.629 38.724C227.125 38.452 226.729 38.076 226.441 37.596C226.161 37.108 226.021 36.548 226.021 35.916C226.021 35.284 226.161 34.732 226.441 34.26C226.729 33.788 227.125 33.42 227.629 33.156C228.141 32.892 228.733 32.76 229.405 32.76C230.085 32.76 230.677 32.892 231.181 33.156C231.693 33.42 232.089 33.788 232.369 34.26C232.649 34.732 232.789 35.284 232.789 35.916C232.789 36.548 232.645 37.108 232.357 37.596C232.077 38.076 231.681 38.452 231.169 38.724C230.665 38.988 230.077 39.12 229.405 39.12ZM229.405 37.704C229.685 37.704 229.937 37.632 230.161 37.488C230.393 37.344 230.577 37.14 230.713 36.876C230.849 36.604 230.917 36.28 230.917 35.904C230.917 35.352 230.769 34.928 230.473 34.632C230.185 34.328 229.829 34.176 229.405 34.176C228.981 34.176 228.621 34.328 228.325 34.632C228.037 34.936 227.893 35.36 227.893 35.904C227.893 36.28 227.961 36.604 228.097 36.876C228.233 37.14 228.413 37.344 228.637 37.488C228.869 37.632 229.125 37.704 229.405 37.704ZM233.743 39V32.88H235.507V34.32H235.543V39H233.743ZM238.003 39V35.208C238.003 34.872 237.915 34.62 237.739 34.452C237.571 34.284 237.323 34.2 236.995 34.2C236.715 34.2 236.463 34.264 236.239 34.392C236.023 34.52 235.851 34.696 235.723 34.92C235.603 35.144 235.543 35.408 235.543 35.712L235.387 34.236C235.587 33.788 235.879 33.432 236.263 33.168C236.655 32.896 237.135 32.76 237.703 32.76C238.383 32.76 238.903 32.952 239.263 33.336C239.623 33.712 239.803 34.22 239.803 34.86V39H238.003ZM243.819 39.132C243.035 39.132 242.451 38.944 242.067 38.568C241.691 38.184 241.503 37.604 241.503 36.828V31.512L243.303 30.84V36.888C243.303 37.16 243.379 37.364 243.531 37.5C243.683 37.636 243.919 37.704 244.239 37.704C244.359 37.704 244.471 37.692 244.575 37.668C244.679 37.644 244.783 37.616 244.887 37.584V38.952C244.783 39.008 244.635 39.052 244.443 39.084C244.259 39.116 244.051 39.132 243.819 39.132ZM240.363 34.248V32.88H244.887V34.248H240.363ZM245.966 39V32.88H247.73V34.32H247.766V39H245.966ZM247.766 35.808L247.61 34.356C247.754 33.836 247.99 33.44 248.318 33.168C248.646 32.896 249.054 32.76 249.542 32.76C249.694 32.76 249.806 32.776 249.878 32.808V34.488C249.838 34.472 249.782 34.464 249.71 34.464C249.638 34.456 249.55 34.452 249.446 34.452C248.87 34.452 248.446 34.556 248.174 34.764C247.902 34.964 247.766 35.312 247.766 35.808ZM253.558 39.12C252.886 39.12 252.294 38.988 251.782 38.724C251.278 38.452 250.882 38.076 250.594 37.596C250.314 37.108 250.174 36.548 250.174 35.916C250.174 35.284 250.314 34.732 250.594 34.26C250.882 33.788 251.278 33.42 251.782 33.156C252.294 32.892 252.886 32.76 253.558 32.76C254.238 32.76 254.83 32.892 255.334 33.156C255.846 33.42 256.242 33.788 256.522 34.26C256.802 34.732 256.942 35.284 256.942 35.916C256.942 36.548 256.798 37.108 256.51 37.596C256.23 38.076 255.834 38.452 255.322 38.724C254.818 38.988 254.23 39.12 253.558 39.12ZM253.558 37.704C253.838 37.704 254.09 37.632 254.314 37.488C254.546 37.344 254.73 37.14 254.866 36.876C255.002 36.604 255.07 36.28 255.07 35.904C255.07 35.352 254.922 34.928 254.626 34.632C254.338 34.328 253.982 34.176 253.558 34.176C253.134 34.176 252.774 34.328 252.478 34.632C252.19 34.936 252.046 35.36 252.046 35.904C252.046 36.28 252.114 36.604 252.25 36.876C252.386 37.14 252.566 37.344 252.79 37.488C253.022 37.632 253.278 37.704 253.558 37.704ZM257.896 39V30.36H259.696V39H257.896ZM264.982 39C264.934 38.824 264.898 38.636 264.874 38.436C264.858 38.236 264.85 38.004 264.85 37.74H264.802V34.848C264.802 34.6 264.718 34.408 264.55 34.272C264.39 34.128 264.15 34.056 263.83 34.056C263.526 34.056 263.282 34.108 263.098 34.212C262.922 34.316 262.806 34.468 262.75 34.668H261.034C261.114 34.116 261.398 33.66 261.886 33.3C262.374 32.94 263.042 32.76 263.89 32.76C264.77 32.76 265.442 32.956 265.906 33.348C266.37 33.74 266.602 34.304 266.602 35.04V37.74C266.602 37.94 266.614 38.144 266.638 38.352C266.67 38.552 266.718 38.768 266.782 39H264.982ZM262.846 39.12C262.238 39.12 261.754 38.968 261.394 38.664C261.034 38.352 260.854 37.94 260.854 37.428C260.854 36.86 261.066 36.404 261.49 36.06C261.922 35.708 262.522 35.48 263.29 35.376L265.078 35.124V36.168L263.59 36.396C263.27 36.444 263.034 36.532 262.882 36.66C262.73 36.788 262.654 36.964 262.654 37.188C262.654 37.388 262.726 37.54 262.87 37.644C263.014 37.748 263.206 37.8 263.446 37.8C263.822 37.8 264.142 37.7 264.406 37.5C264.67 37.292 264.802 37.052 264.802 36.78L264.97 37.74C264.794 38.196 264.526 38.54 264.166 38.772C263.806 39.004 263.366 39.12 262.846 39.12ZM272.177 39V37.644L272.297 37.668C272.217 38.108 271.977 38.46 271.577 38.724C271.185 38.988 270.713 39.12 270.161 39.12C269.601 39.12 269.113 38.992 268.697 38.736C268.289 38.472 267.973 38.104 267.749 37.632C267.525 37.16 267.413 36.604 267.413 35.964C267.413 35.316 267.529 34.752 267.761 34.272C267.993 33.792 268.317 33.42 268.733 33.156C269.157 32.892 269.649 32.76 270.209 32.76C270.793 32.76 271.265 32.896 271.625 33.168C271.993 33.44 272.209 33.812 272.273 34.284L272.141 34.296V30.36H273.941V39H272.177ZM270.737 37.68C271.161 37.68 271.505 37.532 271.769 37.236C272.033 36.932 272.165 36.5 272.165 35.94C272.165 35.38 272.029 34.952 271.757 34.656C271.493 34.352 271.145 34.2 270.713 34.2C270.297 34.2 269.953 34.352 269.681 34.656C269.417 34.96 269.285 35.392 269.285 35.952C269.285 36.512 269.417 36.94 269.681 37.236C269.953 37.532 270.305 37.68 270.737 37.68ZM278.284 39.12C277.612 39.12 277.02 38.988 276.508 38.724C276.004 38.452 275.608 38.076 275.32 37.596C275.04 37.108 274.9 36.548 274.9 35.916C274.9 35.284 275.04 34.732 275.32 34.26C275.608 33.788 276.004 33.42 276.508 33.156C277.02 32.892 277.612 32.76 278.284 32.76C278.964 32.76 279.556 32.892 280.06 33.156C280.572 33.42 280.968 33.788 281.248 34.26C281.528 34.732 281.668 35.284 281.668 35.916C281.668 36.548 281.524 37.108 281.236 37.596C280.956 38.076 280.56 38.452 280.048 38.724C279.544 38.988 278.956 39.12 278.284 39.12ZM278.284 37.704C278.564 37.704 278.816 37.632 279.04 37.488C279.272 37.344 279.456 37.14 279.592 36.876C279.728 36.604 279.796 36.28 279.796 35.904C279.796 35.352 279.648 34.928 279.352 34.632C279.064 34.328 278.708 34.176 278.284 34.176C277.86 34.176 277.5 34.328 277.204 34.632C276.916 34.936 276.772 35.36 276.772 35.904C276.772 36.28 276.84 36.604 276.976 36.876C277.112 37.14 277.292 37.344 277.516 37.488C277.748 37.632 278.004 37.704 278.284 37.704ZM282.622 39V32.88H284.386V34.32H284.422V39H282.622ZM284.422 35.808L284.266 34.356C284.41 33.836 284.646 33.44 284.974 33.168C285.302 32.896 285.71 32.76 286.198 32.76C286.35 32.76 286.462 32.776 286.534 32.808V34.488C286.494 34.472 286.438 34.464 286.366 34.464C286.294 34.456 286.206 34.452 286.102 34.452C285.526 34.452 285.102 34.556 284.83 34.764C284.558 34.964 284.422 35.312 284.422 35.808ZM287.31 39V32.88H289.11V39H287.31ZM287.25 32.064V30.12H289.17V32.064H287.25ZM294.22 39C294.172 38.824 294.136 38.636 294.112 38.436C294.096 38.236 294.088 38.004 294.088 37.74H294.04V34.848C294.04 34.6 293.956 34.408 293.788 34.272C293.628 34.128 293.388 34.056 293.068 34.056C292.764 34.056 292.52 34.108 292.336 34.212C292.16 34.316 292.044 34.468 291.988 34.668H290.272C290.352 34.116 290.636 33.66 291.124 33.3C291.612 32.94 292.28 32.76 293.128 32.76C294.008 32.76 294.68 32.956 295.144 33.348C295.608 33.74 295.84 34.304 295.84 35.04V37.74C295.84 37.94 295.852 38.144 295.876 38.352C295.908 38.552 295.956 38.768 296.02 39H294.22ZM292.084 39.12C291.476 39.12 290.992 38.968 290.632 38.664C290.272 38.352 290.092 37.94 290.092 37.428C290.092 36.86 290.304 36.404 290.728 36.06C291.16 35.708 291.76 35.48 292.528 35.376L294.316 35.124V36.168L292.828 36.396C292.508 36.444 292.272 36.532 292.12 36.66C291.968 36.788 291.892 36.964 291.892 37.188C291.892 37.388 291.964 37.54 292.108 37.644C292.252 37.748 292.444 37.8 292.684 37.8C293.06 37.8 293.38 37.7 293.644 37.5C293.908 37.292 294.04 37.052 294.04 36.78L294.208 37.74C294.032 38.196 293.764 38.54 293.404 38.772C293.044 39.004 292.604 39.12 292.084 39.12Z" fill="white"/>
<path d="M54.2353 33.4706H42V37.2353C42 38.2338 42.3966 39.1913 43.1027 39.8973C43.8087 40.6034 44.7662 41 45.7647 41H50.4706C51.4691 41 52.4266 40.6034 53.1326 39.8973C53.8387 39.1913 54.2353 38.2338 54.2353 37.2353V33.4706ZM54.2353 33.4706H56.1176C56.6169 33.4706 57.0957 33.6689 57.4487 34.0219C57.8017 34.3749 58 34.8537 58 35.3529V36.2941C58 36.7933 57.8017 37.2721 57.4487 37.6251C57.0957 37.9782 56.6169 38.1765 56.1176 38.1765H54.2353M50.4706 30.6471C50.4706 30.6471 51.4118 29.7059 50.9412 28.7647L50 26.8824C49.5294 25.9412 50.4706 25 50.4706 25M46.3671 30.6471C46.3671 30.6471 47.3082 29.7059 46.8376 28.7647L45.8965 26.8824C45.4259 25.9412 46.3671 25 46.3671 25" stroke="white" stroke-width="2" stroke-linecap="round" stroke-linejoin="round"/>
<defs>
<filter id="filter0_d_2_2" x="16" y="248" width="1252" height="450" filterUnits="userSpaceOnUse" color-interpolation-filters="sRGB">
<feFlood flood-opacity="0" result="BackgroundImageFix"/>
<feColorMatrix in="SourceAlpha" type="matrix" values="0 0 0 0 0 0 0 0 0 0 0 0 0 0 0 0 0 0 127 0" result="hardAlpha"/>
<feOffset dx="2" dy="2"/>
<feGaussianBlur stdDeviation="3"/>
<feComposite in2="hardAlpha" operator="out"/>
<feColorMatrix type="matrix" values="0 0 0 0 0 0 0 0 0 0 0 0 0 0 0 0 0 0 0.25 0"/>
<feBlend mode="normal" in2="BackgroundImageFix" result="effect1_dropShadow_2_2"/>
<feBlend mode="normal" in="SourceGraphic" in2="effect1_dropShadow_2_2" result="shape"/>
</filter>
</defs>
</svg>
