<svg width="1280" height="720" viewBox="0 0 1280 720" fill="none" xmlns="http://www.w3.org/2000/svg">
<rect width="1280" height="720" fill="#ECECEC"/>
<path d="M1225.56 699C1225.94 699 1226.31 699.152 1226.58 699.423C1226.85 699.694 1227 700.061 1227 700.444V710.556C1227 710.939 1226.85 711.306 1226.58 711.577C1226.31 711.848 1225.94 712 1225.56 712H1215.44C1215.06 712 1214.69 711.848 1214.42 711.577C1214.15 711.306 1214 710.939 1214 710.556V700.444C1214 700.061 1214.15 699.694 1214.42 699.423C1214.69 699.152 1215.06 699 1215.44 699H1225.56ZM1225.19 710.194V706.367C1225.19 705.742 1224.95 705.143 1224.5 704.702C1224.06 704.26 1223.46 704.012 1222.84 704.012C1222.23 704.012 1221.51 704.388 1221.16 704.951V704.149H1219.15V710.194H1221.16V706.634C1221.16 706.078 1221.61 705.623 1222.17 705.623C1222.44 705.623 1222.69 705.729 1222.88 705.919C1223.07 706.109 1223.18 706.366 1223.18 706.634V710.194H1225.19ZM1216.8 703.016C1217.12 703.016 1217.43 702.888 1217.66 702.66C1217.89 702.433 1218.02 702.124 1218.02 701.802C1218.02 701.131 1217.47 700.582 1216.8 700.582C1216.48 700.582 1216.17 700.71 1215.94 700.939C1215.71 701.168 1215.58 701.479 1215.58 701.802C1215.58 702.474 1216.13 703.016 1216.8 703.016ZM1217.81 710.194V704.149H1215.81V710.194H1217.81Z" fill="#1A0F2E" fill-opacity="0.54"/>
<path d="M1245.6 712C1245.16 712 1244.78 711.841 1244.47 711.523C1244.16 711.205 1244 710.822 1244 710.375V700.625C1244 700.178 1244.16 699.796 1244.47 699.478C1244.78 699.16 1245.16 699.001 1245.6 699H1250.4L1252 700.625H1258.4C1258.84 700.625 1259.22 700.784 1259.53 701.103C1259.84 701.421 1260 701.804 1260 702.25V710.375C1260 710.822 1259.84 711.205 1259.53 711.523C1259.22 711.842 1258.84 712.001 1258.4 712H1245.6Z" fill="#1A0F2E" fill-opacity="0.54"/>
<path d="M1026.66 710V708.944H1028.92C1029.61 708.944 1030.2 708.804 1030.69 708.524C1031.18 708.244 1031.56 707.856 1031.83 707.36C1032.09 706.864 1032.22 706.288 1032.22 705.632C1032.22 704.984 1032.09 704.42 1031.83 703.94C1031.57 703.46 1031.2 703.088 1030.7 702.824C1030.21 702.552 1029.62 702.416 1028.92 702.416H1026.67V701.36H1028.92C1029.85 701.36 1030.66 701.536 1031.35 701.888C1032.04 702.24 1032.57 702.74 1032.94 703.388C1033.33 704.028 1033.52 704.784 1033.52 705.656C1033.52 706.528 1033.33 707.292 1032.94 707.948C1032.56 708.596 1032.02 709.1 1031.34 709.46C1030.66 709.82 1029.86 710 1028.94 710H1026.66ZM1025.89 710V701.36H1027.16V710H1025.89ZM1037.52 710.12C1036.9 710.12 1036.36 709.984 1035.88 709.712C1035.42 709.44 1035.06 709.064 1034.79 708.584C1034.53 708.104 1034.4 707.552 1034.4 706.928C1034.4 706.296 1034.52 705.744 1034.78 705.272C1035.04 704.792 1035.41 704.42 1035.88 704.156C1036.36 703.892 1036.9 703.76 1037.5 703.76C1038.1 703.76 1038.61 703.888 1039.04 704.144C1039.48 704.392 1039.82 704.74 1040.05 705.188C1040.29 705.636 1040.41 706.168 1040.41 706.784C1040.41 706.88 1040.4 706.972 1040.4 707.06C1040.4 707.14 1040.39 707.224 1040.37 707.312H1035.24V706.376H1039.5L1039.18 706.748C1039.18 706.092 1039.04 705.592 1038.74 705.248C1038.44 704.904 1038.03 704.732 1037.5 704.732C1036.94 704.732 1036.48 704.928 1036.15 705.32C1035.82 705.704 1035.66 706.24 1035.66 706.928C1035.66 707.624 1035.82 708.168 1036.15 708.56C1036.48 708.952 1036.95 709.148 1037.54 709.148C1037.9 709.148 1038.21 709.076 1038.48 708.932C1038.74 708.78 1038.94 708.56 1039.06 708.272H1040.24C1040.04 708.848 1039.7 709.3 1039.22 709.628C1038.75 709.956 1038.18 710.12 1037.52 710.12ZM1043.92 710.12C1043.12 710.12 1042.48 709.944 1042.01 709.592C1041.54 709.24 1041.27 708.744 1041.2 708.104H1042.36C1042.41 708.456 1042.57 708.728 1042.84 708.92C1043.11 709.104 1043.48 709.196 1043.94 709.196C1044.35 709.196 1044.66 709.124 1044.88 708.98C1045.09 708.836 1045.2 708.632 1045.2 708.368C1045.2 708.176 1045.14 708.016 1045.01 707.888C1044.89 707.752 1044.65 707.64 1044.29 707.552L1043.3 707.324C1042.69 707.172 1042.23 706.948 1041.92 706.652C1041.63 706.348 1041.48 705.976 1041.48 705.536C1041.48 704.984 1041.68 704.552 1042.09 704.24C1042.51 703.92 1043.08 703.76 1043.8 703.76C1044.51 703.76 1045.08 703.92 1045.51 704.24C1045.95 704.56 1046.2 705.008 1046.26 705.584H1045.1C1045.06 705.296 1044.92 705.076 1044.68 704.924C1044.46 704.764 1044.15 704.684 1043.76 704.684C1043.39 704.684 1043.11 704.752 1042.91 704.888C1042.72 705.016 1042.62 705.196 1042.62 705.428C1042.62 705.62 1042.69 705.78 1042.84 705.908C1042.99 706.036 1043.24 706.144 1043.58 706.232L1044.59 706.484C1045.17 706.628 1045.61 706.864 1045.91 707.192C1046.2 707.512 1046.35 707.9 1046.35 708.356C1046.35 708.908 1046.14 709.34 1045.7 709.652C1045.28 709.964 1044.68 710.12 1043.92 710.12ZM1050.36 710.12C1049.74 710.12 1049.2 709.984 1048.73 709.712C1048.26 709.44 1047.9 709.064 1047.64 708.584C1047.37 708.104 1047.24 707.552 1047.24 706.928C1047.24 706.296 1047.37 705.744 1047.62 705.272C1047.89 704.792 1048.26 704.42 1048.73 704.156C1049.2 703.892 1049.74 703.76 1050.35 703.76C1050.94 703.76 1051.45 703.888 1051.88 704.144C1052.32 704.392 1052.66 704.74 1052.89 705.188C1053.13 705.636 1053.25 706.168 1053.25 706.784C1053.25 706.88 1053.25 706.972 1053.24 707.06C1053.24 707.14 1053.23 707.224 1053.22 707.312H1048.08V706.376H1052.34L1052.03 706.748C1052.03 706.092 1051.88 705.592 1051.58 705.248C1051.29 704.904 1050.88 704.732 1050.35 704.732C1049.78 704.732 1049.33 704.928 1048.99 705.32C1048.66 705.704 1048.5 706.24 1048.5 706.928C1048.5 707.624 1048.66 708.168 1048.99 708.56C1049.33 708.952 1049.79 709.148 1050.38 709.148C1050.74 709.148 1051.06 709.076 1051.32 708.932C1051.58 708.78 1051.78 708.56 1051.91 708.272H1053.08C1052.88 708.848 1052.54 709.3 1052.06 709.628C1051.59 709.956 1051.02 710.12 1050.36 710.12ZM1054.53 710V703.88H1055.72V705.32H1055.78V710H1054.53ZM1058.87 710V706.064C1058.87 705.64 1058.76 705.324 1058.55 705.116C1058.34 704.908 1058.03 704.804 1057.61 704.804C1057.25 704.804 1056.93 704.884 1056.65 705.044C1056.38 705.204 1056.16 705.424 1056 705.704C1055.85 705.984 1055.78 706.316 1055.78 706.7L1055.62 705.236C1055.82 704.78 1056.13 704.42 1056.54 704.156C1056.96 703.892 1057.44 703.76 1058 703.76C1058.65 703.76 1059.17 703.944 1059.54 704.312C1059.92 704.68 1060.11 705.168 1060.11 705.776V710H1058.87ZM1063.31 710L1060.82 703.88H1062.15L1064.19 709.436H1063.6L1065.62 703.88H1066.9L1064.42 710H1063.31ZM1070.42 710.12C1069.8 710.12 1069.25 709.984 1068.78 709.712C1068.31 709.432 1067.94 709.052 1067.67 708.572C1067.41 708.084 1067.28 707.532 1067.28 706.916C1067.28 706.292 1067.41 705.744 1067.67 705.272C1067.95 704.8 1068.31 704.432 1068.78 704.168C1069.25 703.896 1069.8 703.76 1070.42 703.76C1071.05 703.76 1071.61 703.896 1072.08 704.168C1072.55 704.432 1072.91 704.8 1073.17 705.272C1073.43 705.744 1073.57 706.292 1073.57 706.916C1073.57 707.532 1073.43 708.084 1073.17 708.572C1072.91 709.052 1072.55 709.432 1072.08 709.712C1071.61 709.984 1071.05 710.12 1070.42 710.12ZM1070.42 709.1C1070.8 709.1 1071.12 709.008 1071.39 708.824C1071.67 708.64 1071.89 708.384 1072.05 708.056C1072.21 707.728 1072.29 707.344 1072.29 706.904C1072.29 706.248 1072.12 705.732 1071.77 705.356C1071.42 704.972 1070.97 704.78 1070.42 704.78C1069.88 704.78 1069.43 704.972 1069.08 705.356C1068.73 705.74 1068.56 706.256 1068.56 706.904C1068.56 707.344 1068.64 707.728 1068.79 708.056C1068.95 708.384 1069.17 708.64 1069.45 708.824C1069.74 709.008 1070.06 709.1 1070.42 709.1ZM1074.85 710V701.36H1076.1V710H1074.85ZM1079.6 710L1077.1 703.88H1078.44L1080.48 709.436H1079.89L1081.9 703.88H1083.19L1080.7 710H1079.6ZM1084.12 710V703.88H1085.37V710H1084.12ZM1084.06 702.68V701.276H1085.44V702.68H1084.06ZM1091.5 710V708.596L1091.62 708.632C1091.49 709.088 1091.23 709.452 1090.83 709.724C1090.43 709.988 1089.95 710.12 1089.39 710.12C1088.84 710.12 1088.35 709.988 1087.94 709.724C1087.53 709.46 1087.21 709.092 1086.98 708.62C1086.75 708.148 1086.64 707.596 1086.64 706.964C1086.64 706.324 1086.76 705.764 1086.99 705.284C1087.22 704.804 1087.54 704.432 1087.96 704.168C1088.38 703.904 1088.86 703.772 1089.42 703.772C1090.01 703.772 1090.49 703.912 1090.86 704.192C1091.25 704.464 1091.5 704.848 1091.62 705.344L1091.45 705.368V701.36H1092.69V710H1091.5ZM1089.7 709.076C1090.25 709.076 1090.69 708.888 1091.01 708.512C1091.33 708.128 1091.49 707.6 1091.49 706.928C1091.49 706.272 1091.32 705.756 1091 705.38C1090.68 704.996 1090.24 704.804 1089.69 704.804C1089.14 704.804 1088.71 704.996 1088.39 705.38C1088.08 705.756 1087.92 706.284 1087.92 706.964C1087.92 707.628 1088.08 708.148 1088.39 708.524C1088.71 708.892 1089.15 709.076 1089.7 709.076ZM1097.11 710.12C1096.48 710.12 1095.93 709.984 1095.46 709.712C1094.99 709.432 1094.62 709.052 1094.36 708.572C1094.09 708.084 1093.96 707.532 1093.96 706.916C1093.96 706.292 1094.09 705.744 1094.36 705.272C1094.63 704.8 1095 704.432 1095.46 704.168C1095.93 703.896 1096.48 703.76 1097.11 703.76C1097.74 703.76 1098.29 703.896 1098.76 704.168C1099.23 704.432 1099.6 704.8 1099.85 705.272C1100.12 705.744 1100.25 706.292 1100.25 706.916C1100.25 707.532 1100.12 708.084 1099.85 708.572C1099.6 709.052 1099.23 709.432 1098.76 709.712C1098.29 709.984 1097.74 710.12 1097.11 710.12ZM1097.11 709.1C1097.48 709.1 1097.81 709.008 1098.08 708.824C1098.36 708.64 1098.58 708.384 1098.74 708.056C1098.9 707.728 1098.98 707.344 1098.98 706.904C1098.98 706.248 1098.8 705.732 1098.45 705.356C1098.11 704.972 1097.66 704.78 1097.11 704.78C1096.56 704.78 1096.11 704.972 1095.76 705.356C1095.42 705.74 1095.25 706.256 1095.25 706.904C1095.25 707.344 1095.32 707.728 1095.47 708.056C1095.63 708.384 1095.85 708.64 1096.13 708.824C1096.42 709.008 1096.75 709.1 1097.11 709.1ZM1107.16 710.108C1106.59 710.108 1106.11 709.972 1105.72 709.7C1105.35 709.42 1105.1 709.032 1104.98 708.536L1105.15 708.512V712.46H1103.9V703.88H1105.09V705.284L1104.97 705.248C1105.1 704.784 1105.37 704.42 1105.78 704.156C1106.2 703.892 1106.69 703.76 1107.25 703.76C1107.8 703.76 1108.28 703.892 1108.68 704.156C1109.08 704.42 1109.4 704.788 1109.61 705.26C1109.84 705.732 1109.95 706.284 1109.95 706.916C1109.95 707.556 1109.83 708.116 1109.6 708.596C1109.37 709.076 1109.04 709.448 1108.63 709.712C1108.21 709.976 1107.72 710.108 1107.16 710.108ZM1106.9 709.076C1107.44 709.076 1107.88 708.884 1108.2 708.5C1108.52 708.116 1108.68 707.588 1108.68 706.916C1108.68 706.252 1108.52 705.736 1108.2 705.368C1107.88 704.992 1107.44 704.804 1106.89 704.804C1106.34 704.804 1105.91 704.996 1105.58 705.38C1105.26 705.756 1105.1 706.28 1105.1 706.952C1105.1 707.608 1105.26 708.128 1105.58 708.512C1105.91 708.888 1106.35 709.076 1106.9 709.076ZM1113.96 710.12C1113.33 710.12 1112.79 709.984 1112.31 709.712C1111.84 709.432 1111.47 709.052 1111.21 708.572C1110.95 708.084 1110.81 707.532 1110.81 706.916C1110.81 706.292 1110.95 705.744 1111.21 705.272C1111.48 704.8 1111.85 704.432 1112.31 704.168C1112.79 703.896 1113.33 703.76 1113.96 703.76C1114.59 703.76 1115.14 703.896 1115.61 704.168C1116.09 704.432 1116.45 704.8 1116.71 705.272C1116.97 705.744 1117.1 706.292 1117.1 706.916C1117.1 707.532 1116.97 708.084 1116.71 708.572C1116.45 709.052 1116.09 709.432 1115.61 709.712C1115.14 709.984 1114.59 710.12 1113.96 710.12ZM1113.96 709.1C1114.33 709.1 1114.66 709.008 1114.93 708.824C1115.21 708.64 1115.43 708.384 1115.59 708.056C1115.75 707.728 1115.83 707.344 1115.83 706.904C1115.83 706.248 1115.65 705.732 1115.3 705.356C1114.96 704.972 1114.51 704.78 1113.96 704.78C1113.41 704.78 1112.97 704.972 1112.61 705.356C1112.27 705.74 1112.1 706.256 1112.1 706.904C1112.1 707.344 1112.17 707.728 1112.33 708.056C1112.49 708.384 1112.71 708.64 1112.99 708.824C1113.27 709.008 1113.6 709.1 1113.96 709.1ZM1118.38 710V703.88H1119.57V705.404H1119.63V710H1118.38ZM1119.63 706.808L1119.48 705.356C1119.62 704.836 1119.87 704.44 1120.22 704.168C1120.57 703.896 1120.99 703.76 1121.48 703.76C1121.66 703.76 1121.79 703.776 1121.86 703.808V704.984C1121.82 704.968 1121.77 704.96 1121.7 704.96C1121.62 704.952 1121.54 704.948 1121.43 704.948C1120.83 704.948 1120.38 705.104 1120.08 705.416C1119.78 705.728 1119.63 706.192 1119.63 706.808ZM1122.86 710V708.512H1124.34V710H1122.86ZM1122.86 705.656V704.168H1124.34V705.656H1122.86ZM1129.24 710.12C1128.94 710.12 1128.65 710.096 1128.37 710.048C1128.09 710.008 1127.88 709.956 1127.75 709.892V708.812C1127.93 708.884 1128.14 708.944 1128.39 708.992C1128.64 709.04 1128.89 709.064 1129.15 709.064C1129.67 709.064 1130.07 708.956 1130.33 708.74C1130.61 708.516 1130.74 708.164 1130.74 707.684V701.36H1132.01V707.732C1132.01 708.532 1131.78 709.132 1131.31 709.532C1130.83 709.924 1130.15 710.12 1129.24 710.12ZM1137.4 710C1137.36 709.848 1137.33 709.68 1137.31 709.496C1137.31 709.312 1137.3 709.088 1137.3 708.824H1137.24V705.908C1137.24 705.516 1137.14 705.224 1136.94 705.032C1136.75 704.832 1136.44 704.732 1136.02 704.732C1135.61 704.732 1135.28 704.812 1135.03 704.972C1134.79 705.132 1134.65 705.36 1134.61 705.656H1133.43C1133.48 705.08 1133.74 704.62 1134.21 704.276C1134.67 703.932 1135.29 703.76 1136.07 703.76C1136.87 703.76 1137.47 703.948 1137.87 704.324C1138.27 704.692 1138.47 705.236 1138.47 705.956V708.824C1138.47 709.008 1138.48 709.196 1138.5 709.388C1138.53 709.58 1138.56 709.784 1138.61 710H1137.4ZM1135.29 710.12C1134.66 710.12 1134.17 709.968 1133.8 709.664C1133.43 709.352 1133.25 708.932 1133.25 708.404C1133.25 707.86 1133.44 707.432 1133.82 707.12C1134.21 706.8 1134.77 706.584 1135.5 706.472L1137.52 706.148V707.024L1135.69 707.312C1135.29 707.376 1134.98 707.484 1134.77 707.636C1134.57 707.788 1134.47 708.008 1134.47 708.296C1134.47 708.576 1134.56 708.788 1134.75 708.932C1134.94 709.068 1135.21 709.136 1135.57 709.136C1136.05 709.136 1136.45 709.02 1136.76 708.788C1137.08 708.556 1137.24 708.264 1137.24 707.912L1137.4 708.8C1137.25 709.224 1137 709.552 1136.63 709.784C1136.26 710.008 1135.81 710.12 1135.29 710.12ZM1140.08 710V703.88H1141.32V710H1140.08ZM1140.02 702.68V701.276H1141.4V702.68H1140.02ZM1143.08 710V703.88H1144.26V705.404H1144.32V710H1143.08ZM1144.32 706.808L1144.17 705.356C1144.31 704.836 1144.56 704.44 1144.91 704.168C1145.26 703.896 1145.68 703.76 1146.17 703.76C1146.36 703.76 1146.48 703.776 1146.56 703.808V704.984C1146.52 704.968 1146.46 704.96 1146.39 704.96C1146.32 704.952 1146.23 704.948 1146.12 704.948C1145.52 704.948 1145.07 705.104 1144.77 705.416C1144.47 705.728 1144.32 706.192 1144.32 706.808ZM1153.85 710.12C1153.25 710.12 1152.7 710.012 1152.18 709.796C1151.67 709.572 1151.23 709.264 1150.85 708.872C1150.48 708.472 1150.2 708 1149.99 707.456C1149.78 706.912 1149.68 706.316 1149.68 705.668C1149.68 705.02 1149.78 704.428 1149.98 703.892C1150.18 703.348 1150.47 702.88 1150.84 702.488C1151.22 702.088 1151.66 701.78 1152.17 701.564C1152.68 701.348 1153.24 701.24 1153.84 701.24C1154.51 701.24 1155.12 701.376 1155.65 701.648C1156.19 701.912 1156.62 702.288 1156.96 702.776C1157.3 703.264 1157.52 703.832 1157.6 704.48H1156.35C1156.24 703.8 1155.97 703.272 1155.52 702.896C1155.08 702.512 1154.52 702.32 1153.85 702.32C1153.28 702.32 1152.78 702.46 1152.34 702.74C1151.91 703.012 1151.57 703.4 1151.33 703.904C1151.09 704.4 1150.97 704.988 1150.97 705.668C1150.97 706.34 1151.09 706.932 1151.33 707.444C1151.58 707.948 1151.92 708.34 1152.35 708.62C1152.78 708.9 1153.28 709.04 1153.85 709.04C1154.52 709.04 1155.08 708.852 1155.53 708.476C1155.99 708.092 1156.26 707.56 1156.36 706.88H1157.62C1157.53 707.536 1157.32 708.108 1156.97 708.596C1156.63 709.076 1156.19 709.452 1155.65 709.724C1155.12 709.988 1154.52 710.12 1153.85 710.12ZM1162.57 710C1162.53 709.848 1162.5 709.68 1162.49 709.496C1162.48 709.312 1162.47 709.088 1162.47 708.824H1162.41V705.908C1162.41 705.516 1162.31 705.224 1162.11 705.032C1161.92 704.832 1161.61 704.732 1161.19 704.732C1160.78 704.732 1160.45 704.812 1160.21 704.972C1159.97 705.132 1159.83 705.36 1159.79 705.656H1158.6C1158.65 705.08 1158.91 704.62 1159.38 704.276C1159.84 703.932 1160.46 703.76 1161.24 703.76C1162.04 703.76 1162.64 703.948 1163.04 704.324C1163.44 704.692 1163.64 705.236 1163.64 705.956V708.824C1163.64 709.008 1163.65 709.196 1163.67 709.388C1163.7 709.58 1163.73 709.784 1163.78 710H1162.57ZM1160.46 710.12C1159.83 710.12 1159.34 709.968 1158.97 709.664C1158.6 709.352 1158.42 708.932 1158.42 708.404C1158.42 707.86 1158.61 707.432 1158.99 707.12C1159.39 706.8 1159.95 706.584 1160.67 706.472L1162.69 706.148V707.024L1160.87 707.312C1160.46 707.376 1160.15 707.484 1159.94 707.636C1159.74 707.788 1159.64 708.008 1159.64 708.296C1159.64 708.576 1159.73 708.788 1159.92 708.932C1160.11 709.068 1160.39 709.136 1160.75 709.136C1161.23 709.136 1161.62 709.02 1161.93 708.788C1162.25 708.556 1162.41 708.264 1162.41 707.912L1162.57 708.8C1162.43 709.224 1162.17 709.552 1161.8 709.784C1161.43 710.008 1160.99 710.12 1160.46 710.12ZM1165.33 710V703.88H1166.52V705.32H1166.58V710H1165.33ZM1169.46 710V706.004C1169.46 705.588 1169.36 705.284 1169.17 705.092C1168.98 704.9 1168.7 704.804 1168.34 704.804C1168.01 704.804 1167.7 704.884 1167.43 705.044C1167.17 705.196 1166.96 705.412 1166.81 705.692C1166.65 705.964 1166.58 706.288 1166.58 706.664L1166.42 705.236C1166.62 704.78 1166.92 704.42 1167.32 704.156C1167.73 703.892 1168.19 703.76 1168.69 703.76C1169.3 703.76 1169.78 703.936 1170.14 704.288C1170.51 704.64 1170.69 705.104 1170.69 705.68V710H1169.46ZM1173.59 710V706.004C1173.59 705.588 1173.49 705.284 1173.29 705.092C1173.09 704.9 1172.82 704.804 1172.46 704.804C1172.13 704.804 1171.83 704.884 1171.56 705.044C1171.29 705.196 1171.08 705.412 1170.92 705.692C1170.77 705.964 1170.69 706.288 1170.69 706.664L1170.44 705.236C1170.65 704.78 1170.96 704.42 1171.38 704.156C1171.8 703.892 1172.27 703.76 1172.79 703.76C1173.41 703.76 1173.9 703.94 1174.27 704.3C1174.64 704.652 1174.82 705.124 1174.82 705.716V710H1173.59ZM1179.76 710.108C1179.19 710.108 1178.71 709.972 1178.32 709.7C1177.95 709.42 1177.7 709.032 1177.58 708.536L1177.75 708.512V712.46H1176.5V703.88H1177.69V705.284L1177.57 705.248C1177.69 704.784 1177.97 704.42 1178.38 704.156C1178.8 703.892 1179.29 703.76 1179.85 703.76C1180.4 703.76 1180.87 703.892 1181.27 704.156C1181.68 704.42 1181.99 704.788 1182.21 705.26C1182.43 705.732 1182.55 706.284 1182.55 706.916C1182.55 707.556 1182.43 708.116 1182.2 708.596C1181.97 709.076 1181.64 709.448 1181.23 709.712C1180.81 709.976 1180.32 710.108 1179.76 710.108ZM1179.5 709.076C1180.04 709.076 1180.47 708.884 1180.79 708.5C1181.11 708.116 1181.27 707.588 1181.27 706.916C1181.27 706.252 1181.11 705.736 1180.79 705.368C1180.47 704.992 1180.04 704.804 1179.49 704.804C1178.94 704.804 1178.51 704.996 1178.18 705.38C1177.86 705.756 1177.7 706.28 1177.7 706.952C1177.7 707.608 1177.86 708.128 1178.18 708.512C1178.51 708.888 1178.95 709.076 1179.5 709.076ZM1186.53 710.12C1185.92 710.12 1185.37 709.984 1184.9 709.712C1184.44 709.44 1184.07 709.064 1183.81 708.584C1183.54 708.104 1183.41 707.552 1183.41 706.928C1183.41 706.296 1183.54 705.744 1183.8 705.272C1184.06 704.792 1184.43 704.42 1184.9 704.156C1185.37 703.892 1185.91 703.76 1186.52 703.76C1187.11 703.76 1187.62 703.888 1188.06 704.144C1188.5 704.392 1188.83 704.74 1189.06 705.188C1189.3 705.636 1189.42 706.168 1189.42 706.784C1189.42 706.88 1189.42 706.972 1189.41 707.06C1189.41 707.14 1189.4 707.224 1189.39 707.312H1184.25V706.376H1188.51L1188.2 706.748C1188.2 706.092 1188.05 705.592 1187.76 705.248C1187.46 704.904 1187.05 704.732 1186.52 704.732C1185.95 704.732 1185.5 704.928 1185.16 705.32C1184.84 705.704 1184.67 706.24 1184.67 706.928C1184.67 707.624 1184.84 708.168 1185.16 708.56C1185.5 708.952 1185.96 709.148 1186.56 709.148C1186.92 709.148 1187.23 709.076 1187.49 708.932C1187.76 708.78 1187.95 708.56 1188.08 708.272H1189.26C1189.06 708.848 1188.72 709.3 1188.24 709.628C1187.76 709.956 1187.2 710.12 1186.53 710.12ZM1190.7 710V701.36H1191.95V710H1190.7ZM1196.36 710.12C1195.74 710.12 1195.19 709.984 1194.72 709.712C1194.25 709.432 1193.88 709.052 1193.62 708.572C1193.35 708.084 1193.22 707.532 1193.22 706.916C1193.22 706.292 1193.35 705.744 1193.62 705.272C1193.89 704.8 1194.26 704.432 1194.72 704.168C1195.19 703.896 1195.74 703.76 1196.36 703.76C1197 703.76 1197.55 703.896 1198.02 704.168C1198.49 704.432 1198.86 704.8 1199.11 705.272C1199.38 705.744 1199.51 706.292 1199.51 706.916C1199.51 707.532 1199.38 708.084 1199.11 708.572C1198.86 709.052 1198.49 709.432 1198.02 709.712C1197.55 709.984 1197 710.12 1196.36 710.12ZM1196.36 709.1C1196.74 709.1 1197.06 709.008 1197.34 708.824C1197.62 708.64 1197.84 708.384 1198 708.056C1198.16 707.728 1198.24 707.344 1198.24 706.904C1198.24 706.248 1198.06 705.732 1197.71 705.356C1197.36 704.972 1196.92 704.78 1196.36 704.78C1195.82 704.78 1195.37 704.972 1195.02 705.356C1194.68 705.74 1194.5 706.256 1194.5 706.904C1194.5 707.344 1194.58 707.728 1194.73 708.056C1194.89 708.384 1195.11 708.64 1195.39 708.824C1195.68 709.008 1196 709.1 1196.36 709.1Z" fill="#1A0F2E" fill-opacity="0.54"/>
<g filter="url(#filter0_d_2_2)">
<rect x="20" y="252" width="1240" height="438" rx="10" fill="white"/>
</g>
<rect x="202" y="10" width="325" height="48" rx="10" fill="#1A0F2E"/>
<rect x="548" y="10" width="712" height="48" rx="10" fill="#1A0F2E"/>
<path d="M20.72 33V26.88H22.484V28.32H22.52V33H20.72ZM24.836 33V29.112C24.836 28.8 24.752 28.572 24.584 28.428C24.424 28.276 24.196 28.2 23.9 28.2C23.644 28.2 23.408 28.26 23.192 28.38C22.984 28.492 22.82 28.656 22.7 28.872C22.58 29.08 22.52 29.328 22.52 29.616L22.364 28.236C22.564 27.788 22.852 27.432 23.228 27.168C23.612 26.896 24.072 26.76 24.608 26.76C25.248 26.76 25.744 26.94 26.096 27.3C26.456 27.66 26.636 28.112 26.636 28.656V33H24.836ZM28.952 33V29.112C28.952 28.8 28.868 28.572 28.7 28.428C28.54 28.276 28.312 28.2 28.016 28.2C27.76 28.2 27.524 28.26 27.308 28.38C27.1 28.492 26.936 28.656 26.816 28.872C26.696 29.08 26.636 29.328 26.636 29.616L26.36 28.236C26.56 27.788 26.856 27.432 27.248 27.168C27.648 26.896 28.128 26.76 28.688 26.76C29.352 26.76 29.86 26.948 30.212 27.324C30.572 27.692 30.752 28.176 30.752 28.776V33H28.952ZM32.1765 35.46L33.8685 31.716L34.1805 31.2L35.7645 26.88H37.6845L33.9765 35.46H32.1765ZM33.4725 32.88L31.1205 26.88H33.0645L34.9965 32.352L33.4725 32.88ZM42.2936 33.12C41.6696 33.12 41.0936 33.012 40.5656 32.796C40.0376 32.572 39.5776 32.26 39.1856 31.86C38.8016 31.46 38.5016 30.988 38.2856 30.444C38.0696 29.892 37.9616 29.292 37.9616 28.644C37.9616 27.996 38.0656 27.404 38.2736 26.868C38.4896 26.332 38.7896 25.868 39.1736 25.476C39.5656 25.076 40.0256 24.772 40.5536 24.564C41.0816 24.348 41.6616 24.24 42.2936 24.24C43.0056 24.24 43.6456 24.38 44.2136 24.66C44.7896 24.932 45.2576 25.32 45.6176 25.824C45.9856 26.32 46.2096 26.904 46.2896 27.576H44.4896C44.3856 26.96 44.1336 26.496 43.7336 26.184C43.3336 25.864 42.8576 25.704 42.3056 25.704C41.8176 25.704 41.3856 25.82 41.0096 26.052C40.6416 26.284 40.3536 26.62 40.1456 27.06C39.9376 27.492 39.8336 28.016 39.8336 28.632C39.8336 29.256 39.9376 29.796 40.1456 30.252C40.3616 30.7 40.6576 31.048 41.0336 31.296C41.4096 31.536 41.8416 31.656 42.3296 31.656C42.8496 31.656 43.3096 31.5 43.7096 31.188C44.1096 30.876 44.3696 30.412 44.4896 29.796H46.3136C46.2096 30.468 45.9736 31.056 45.6056 31.56C45.2376 32.056 44.7696 32.44 44.2016 32.712C43.6336 32.984 42.9976 33.12 42.2936 33.12ZM50.2021 33.12C49.5301 33.12 48.9381 32.988 48.4261 32.724C47.9221 32.452 47.5261 32.076 47.2381 31.596C46.9581 31.108 46.8181 30.548 46.8181 29.916C46.8181 29.284 46.9581 28.732 47.2381 28.26C47.5261 27.788 47.9221 27.42 48.4261 27.156C48.9381 26.892 49.5301 26.76 50.2021 26.76C50.8821 26.76 51.4741 26.892 51.9781 27.156C52.4901 27.42 52.8861 27.788 53.1661 28.26C53.4461 28.732 53.5861 29.284 53.5861 29.916C53.5861 30.548 53.4421 31.108 53.1541 31.596C52.8741 32.076 52.4781 32.452 51.9661 32.724C51.4621 32.988 50.8741 33.12 50.2021 33.12ZM50.2021 31.704C50.4821 31.704 50.7341 31.632 50.9581 31.488C51.1901 31.344 51.3741 31.14 51.5101 30.876C51.6461 30.604 51.7141 30.28 51.7141 29.904C51.7141 29.352 51.5661 28.928 51.2701 28.632C50.9821 28.328 50.6261 28.176 50.2021 28.176C49.7781 28.176 49.4181 28.328 49.1221 28.632C48.8341 28.936 48.6901 29.36 48.6901 29.904C48.6901 30.28 48.7581 30.604 48.8941 30.876C49.0301 31.14 49.2101 31.344 49.4341 31.488C49.6661 31.632 49.9221 31.704 50.2021 31.704ZM54.8911 33V26.472C54.8911 25.736 55.0911 25.18 55.4911 24.804C55.8911 24.428 56.4831 24.24 57.2671 24.24C57.4351 24.24 57.5791 24.248 57.6991 24.264C57.8271 24.28 57.9511 24.308 58.0711 24.348V25.728C58.0151 25.704 57.9471 25.688 57.8671 25.68C57.7871 25.664 57.6911 25.656 57.5791 25.656C57.2751 25.656 57.0511 25.728 56.9071 25.872C56.7631 26.016 56.6911 26.224 56.6911 26.496V33H54.8911ZM53.8711 28.248V26.88H57.9391V28.248H53.8711ZM59.4614 33V26.472C59.4614 25.736 59.6614 25.18 60.0614 24.804C60.4614 24.428 61.0534 24.24 61.8374 24.24C62.0054 24.24 62.1494 24.248 62.2694 24.264C62.3974 24.28 62.5214 24.308 62.6414 24.348V25.728C62.5854 25.704 62.5174 25.688 62.4374 25.68C62.3574 25.664 62.2614 25.656 62.1494 25.656C61.8454 25.656 61.6214 25.728 61.4774 25.872C61.3334 26.016 61.2614 26.224 61.2614 26.496V33H59.4614ZM58.4414 28.248V26.88H62.5094V28.248H58.4414ZM66.1273 33.12C65.4473 33.12 64.8553 32.988 64.3513 32.724C63.8473 32.452 63.4553 32.076 63.1753 31.596C62.9033 31.116 62.7673 30.564 62.7673 29.94C62.7673 29.308 62.9033 28.756 63.1753 28.284C63.4553 27.804 63.8433 27.432 64.3393 27.168C64.8353 26.896 65.4113 26.76 66.0673 26.76C66.6993 26.76 67.2473 26.888 67.7113 27.144C68.1753 27.4 68.5353 27.756 68.7913 28.212C69.0473 28.668 69.1753 29.204 69.1753 29.82C69.1753 29.948 69.1713 30.068 69.1633 30.18C69.1553 30.284 69.1433 30.384 69.1273 30.48H63.8233V29.292H67.6753L67.3633 29.508C67.3633 29.012 67.2433 28.648 67.0033 28.416C66.7713 28.176 66.4513 28.056 66.0433 28.056C65.5713 28.056 65.2033 28.216 64.9393 28.536C64.6833 28.856 64.5553 29.336 64.5553 29.976C64.5553 30.6 64.6833 31.064 64.9393 31.368C65.2033 31.672 65.5953 31.824 66.1153 31.824C66.4033 31.824 66.6513 31.776 66.8593 31.68C67.0673 31.584 67.2233 31.428 67.3273 31.212H69.0193C68.8193 31.804 68.4753 32.272 67.9873 32.616C67.5073 32.952 66.8873 33.12 66.1273 33.12ZM73.1352 33.12C72.4552 33.12 71.8632 32.988 71.3592 32.724C70.8552 32.452 70.4632 32.076 70.1832 31.596C69.9112 31.116 69.7752 30.564 69.7752 29.94C69.7752 29.308 69.9112 28.756 70.1832 28.284C70.4632 27.804 70.8512 27.432 71.3472 27.168C71.8432 26.896 72.4192 26.76 73.0752 26.76C73.7072 26.76 74.2552 26.888 74.7192 27.144C75.1832 27.4 75.5432 27.756 75.7992 28.212C76.0552 28.668 76.1832 29.204 76.1832 29.82C76.1832 29.948 76.1792 30.068 76.1712 30.18C76.1632 30.284 76.1512 30.384 76.1352 30.48H70.8312V29.292H74.6832L74.3712 29.508C74.3712 29.012 74.2512 28.648 74.0112 28.416C73.7792 28.176 73.4592 28.056 73.0512 28.056C72.5792 28.056 72.2112 28.216 71.9472 28.536C71.6912 28.856 71.5632 29.336 71.5632 29.976C71.5632 30.6 71.6912 31.064 71.9472 31.368C72.2112 31.672 72.6032 31.824 73.1232 31.824C73.4112 31.824 73.6592 31.776 73.8672 31.68C74.0752 31.584 74.2312 31.428 74.3352 31.212H76.0272C75.8272 31.804 75.4832 32.272 74.9952 32.616C74.5152 32.952 73.8952 33.12 73.1352 33.12ZM21.728 48V46.56H23.912C24.536 46.56 25.064 46.436 25.496 46.188C25.936 45.932 26.268 45.584 26.492 45.144C26.724 44.704 26.84 44.2 26.84 43.632C26.84 43.072 26.728 42.58 26.504 42.156C26.28 41.732 25.948 41.4 25.508 41.16C25.076 40.92 24.544 40.8 23.912 40.8H21.764V39.36H23.912C24.88 39.36 25.724 39.536 26.444 39.888C27.164 40.232 27.72 40.728 28.112 41.376C28.512 42.016 28.712 42.776 28.712 43.656C28.712 44.536 28.512 45.304 28.112 45.96C27.712 46.608 27.152 47.112 26.432 47.472C25.72 47.824 24.884 48 23.924 48H21.728ZM20.6 48V39.36H22.448V48H20.6ZM33.4548 48C33.4068 47.824 33.3708 47.636 33.3468 47.436C33.3308 47.236 33.3228 47.004 33.3228 46.74H33.2748V43.848C33.2748 43.6 33.1908 43.408 33.0228 43.272C32.8628 43.128 32.6228 43.056 32.3028 43.056C31.9988 43.056 31.7548 43.108 31.5708 43.212C31.3948 43.316 31.2788 43.468 31.2228 43.668H29.5068C29.5868 43.116 29.8708 42.66 30.3588 42.3C30.8468 41.94 31.5148 41.76 32.3628 41.76C33.2428 41.76 33.9148 41.956 34.3788 42.348C34.8428 42.74 35.0748 43.304 35.0748 44.04V46.74C35.0748 46.94 35.0868 47.144 35.1108 47.352C35.1428 47.552 35.1908 47.768 35.2548 48H33.4548ZM31.3188 48.12C30.7108 48.12 30.2268 47.968 29.8668 47.664C29.5068 47.352 29.3268 46.94 29.3268 46.428C29.3268 45.86 29.5388 45.404 29.9628 45.06C30.3948 44.708 30.9948 44.48 31.7628 44.376L33.5508 44.124V45.168L32.0628 45.396C31.7428 45.444 31.5068 45.532 31.3548 45.66C31.2028 45.788 31.1268 45.964 31.1268 46.188C31.1268 46.388 31.1988 46.54 31.3428 46.644C31.4868 46.748 31.6788 46.8 31.9188 46.8C32.2948 46.8 32.6148 46.7 32.8788 46.5C33.1428 46.292 33.2748 46.052 33.2748 45.78L33.4428 46.74C33.2668 47.196 32.9988 47.54 32.6388 47.772C32.2788 48.004 31.8388 48.12 31.3188 48.12ZM38.7662 48.12C37.8702 48.12 37.1582 47.94 36.6302 47.58C36.1022 47.22 35.8142 46.724 35.7662 46.092H37.3742C37.4142 46.364 37.5502 46.572 37.7822 46.716C38.0222 46.852 38.3502 46.92 38.7662 46.92C39.1422 46.92 39.4142 46.868 39.5822 46.764C39.7582 46.652 39.8462 46.496 39.8462 46.296C39.8462 46.144 39.7942 46.028 39.6902 45.948C39.5942 45.86 39.4142 45.788 39.1502 45.732L38.1662 45.528C37.4382 45.376 36.9022 45.148 36.5582 44.844C36.2142 44.532 36.0422 44.132 36.0422 43.644C36.0422 43.052 36.2702 42.592 36.7262 42.264C37.1822 41.928 37.8182 41.76 38.6342 41.76C39.4422 41.76 40.0862 41.924 40.5662 42.252C41.0462 42.572 41.3102 43.02 41.3582 43.596H39.7502C39.7182 43.388 39.6062 43.232 39.4142 43.128C39.2222 43.016 38.9502 42.96 38.5982 42.96C38.2782 42.96 38.0382 43.008 37.8782 43.104C37.7262 43.192 37.6502 43.32 37.6502 43.488C37.6502 43.632 37.7142 43.748 37.8422 43.836C37.9702 43.916 38.1822 43.988 38.4782 44.052L39.5822 44.28C40.1982 44.408 40.6622 44.648 40.9742 45C41.2942 45.344 41.4542 45.752 41.4542 46.224C41.4542 46.824 41.2182 47.292 40.7462 47.628C40.2822 47.956 39.6222 48.12 38.7662 48.12ZM42.3411 48V39.36H44.1411V48H42.3411ZM46.6011 48V44.208C46.6011 43.872 46.5131 43.62 46.3371 43.452C46.1691 43.284 45.9211 43.2 45.5931 43.2C45.3131 43.2 45.0611 43.264 44.8371 43.392C44.6211 43.52 44.4491 43.696 44.3211 43.92C44.2011 44.144 44.1411 44.408 44.1411 44.712L43.9851 43.236C44.1851 42.788 44.4771 42.432 44.8611 42.168C45.2531 41.896 45.7331 41.76 46.3011 41.76C46.9811 41.76 47.5011 41.952 47.8611 42.336C48.2211 42.712 48.4011 43.22 48.4011 43.86V48H46.6011ZM53.5028 48.12C52.9188 48.12 52.4428 47.984 52.0748 47.712C51.7148 47.44 51.5028 47.068 51.4388 46.596L51.5348 46.584V48H49.7708V39.36H51.5708V43.236L51.4628 43.212C51.5508 42.764 51.7828 42.412 52.1588 42.156C52.5428 41.892 53.0228 41.76 53.5988 41.76C54.1508 41.76 54.6268 41.892 55.0268 42.156C55.4348 42.412 55.7468 42.776 55.9628 43.248C56.1868 43.72 56.2988 44.276 56.2988 44.916C56.2988 45.564 56.1828 46.128 55.9508 46.608C55.7188 47.088 55.3948 47.46 54.9788 47.724C54.5628 47.988 54.0708 48.12 53.5028 48.12ZM52.9988 46.68C53.4228 46.68 53.7668 46.528 54.0308 46.224C54.2948 45.92 54.4268 45.488 54.4268 44.928C54.4268 44.368 54.2908 43.94 54.0188 43.644C53.7548 43.348 53.4068 43.2 52.9748 43.2C52.5588 43.2 52.2148 43.352 51.9428 43.656C51.6788 43.952 51.5468 44.38 51.5468 44.94C51.5468 45.5 51.6788 45.932 51.9428 46.236C52.2148 46.532 52.5668 46.68 52.9988 46.68ZM60.3271 48.12C59.6551 48.12 59.0631 47.988 58.5511 47.724C58.0471 47.452 57.6511 47.076 57.3631 46.596C57.0831 46.108 56.9431 45.548 56.9431 44.916C56.9431 44.284 57.0831 43.732 57.3631 43.26C57.6511 42.788 58.0471 42.42 58.5511 42.156C59.0631 41.892 59.6551 41.76 60.3271 41.76C61.0071 41.76 61.5991 41.892 62.1031 42.156C62.6151 42.42 63.0111 42.788 63.2911 43.26C63.5711 43.732 63.7111 44.284 63.7111 44.916C63.7111 45.548 63.5671 46.108 63.2791 46.596C62.9991 47.076 62.6031 47.452 62.0911 47.724C61.5871 47.988 60.9991 48.12 60.3271 48.12ZM60.3271 46.704C60.6071 46.704 60.8591 46.632 61.0831 46.488C61.3151 46.344 61.4991 46.14 61.6351 45.876C61.7711 45.604 61.8391 45.28 61.8391 44.904C61.8391 44.352 61.6911 43.928 61.3951 43.632C61.1071 43.328 60.7511 43.176 60.3271 43.176C59.9031 43.176 59.5431 43.328 59.2471 43.632C58.9591 43.936 58.8151 44.36 58.8151 44.904C58.8151 45.28 58.8831 45.604 59.0191 45.876C59.1551 46.14 59.3351 46.344 59.5591 46.488C59.7911 46.632 60.0471 46.704 60.3271 46.704ZM68.4822 48C68.4342 47.824 68.3982 47.636 68.3742 47.436C68.3582 47.236 68.3502 47.004 68.3502 46.74H68.3022V43.848C68.3022 43.6 68.2182 43.408 68.0502 43.272C67.8902 43.128 67.6502 43.056 67.3302 43.056C67.0262 43.056 66.7822 43.108 66.5982 43.212C66.4222 43.316 66.3062 43.468 66.2502 43.668H64.5342C64.6142 43.116 64.8982 42.66 65.3862 42.3C65.8742 41.94 66.5422 41.76 67.3902 41.76C68.2702 41.76 68.9422 41.956 69.4062 42.348C69.8702 42.74 70.1022 43.304 70.1022 44.04V46.74C70.1022 46.94 70.1142 47.144 70.1382 47.352C70.1702 47.552 70.2182 47.768 70.2822 48H68.4822ZM66.3462 48.12C65.7382 48.12 65.2542 47.968 64.8942 47.664C64.5342 47.352 64.3542 46.94 64.3542 46.428C64.3542 45.86 64.5662 45.404 64.9902 45.06C65.4222 44.708 66.0222 44.48 66.7902 44.376L68.5782 44.124V45.168L67.0902 45.396C66.7702 45.444 66.5342 45.532 66.3822 45.66C66.2302 45.788 66.1542 45.964 66.1542 46.188C66.1542 46.388 66.2262 46.54 66.3702 46.644C66.5142 46.748 66.7062 46.8 66.9462 46.8C67.3222 46.8 67.6422 46.7 67.9062 46.5C68.1702 46.292 68.3022 46.052 68.3022 45.78L68.4702 46.74C68.2942 47.196 68.0262 47.54 67.6662 47.772C67.3062 48.004 66.8662 48.12 66.3462 48.12ZM71.4856 48V41.88H73.2496V43.32H73.2856V48H71.4856ZM73.2856 44.808L73.1296 43.356C73.2736 42.836 73.5096 42.44 73.8376 42.168C74.1656 41.896 74.5736 41.76 75.0616 41.76C75.2136 41.76 75.3256 41.776 75.3976 41.808V43.488C75.3576 43.472 75.3016 43.464 75.2296 43.464C75.1576 43.456 75.0696 43.452 74.9656 43.452C74.3896 43.452 73.9656 43.556 73.6936 43.764C73.4216 43.964 73.2856 44.312 73.2856 44.808ZM80.4934 48V46.644L80.6134 46.668C80.5334 47.108 80.2934 47.46 79.8934 47.724C79.5014 47.988 79.0294 48.12 78.4774 48.12C77.9174 48.12 77.4294 47.992 77.0134 47.736C76.6054 47.472 76.2894 47.104 76.0654 46.632C75.8414 46.16 75.7294 45.604 75.7294 44.964C75.7294 44.316 75.8454 43.752 76.0774 43.272C76.3094 42.792 76.6334 42.42 77.0494 42.156C77.4734 41.892 77.9654 41.76 78.5254 41.76C79.1094 41.76 79.5814 41.896 79.9414 42.168C80.3094 42.44 80.5254 42.812 80.5894 43.284L80.4574 43.296V39.36H82.2574V48H80.4934ZM79.0534 46.68C79.4774 46.68 79.8214 46.532 80.0854 46.236C80.3494 45.932 80.4814 45.5 80.4814 44.94C80.4814 44.38 80.3454 43.952 80.0734 43.656C79.8094 43.352 79.4614 43.2 79.0294 43.2C78.6134 43.2 78.2694 43.352 77.9974 43.656C77.7334 43.96 77.6014 44.392 77.6014 44.952C77.6014 45.512 77.7334 45.94 77.9974 46.236C78.2694 46.532 78.6214 46.68 79.0534 46.68ZM90.3137 48V46.644L90.4337 46.668C90.3537 47.108 90.1137 47.46 89.7137 47.724C89.3217 47.988 88.8497 48.12 88.2977 48.12C87.7377 48.12 87.2497 47.992 86.8337 47.736C86.4257 47.472 86.1097 47.104 85.8857 46.632C85.6617 46.16 85.5497 45.604 85.5497 44.964C85.5497 44.316 85.6657 43.752 85.8977 43.272C86.1297 42.792 86.4537 42.42 86.8697 42.156C87.2937 41.892 87.7857 41.76 88.3457 41.76C88.9297 41.76 89.4017 41.896 89.7617 42.168C90.1297 42.44 90.3457 42.812 90.4097 43.284L90.2777 43.296V39.36H92.0777V48H90.3137ZM88.8737 46.68C89.2977 46.68 89.6417 46.532 89.9057 46.236C90.1697 45.932 90.3017 45.5 90.3017 44.94C90.3017 44.38 90.1657 43.952 89.8937 43.656C89.6297 43.352 89.2817 43.2 88.8497 43.2C88.4337 43.2 88.0897 43.352 87.8177 43.656C87.5537 43.96 87.4217 44.392 87.4217 44.952C87.4217 45.512 87.5537 45.94 87.8177 46.236C88.0897 46.532 88.4417 46.68 88.8737 46.68ZM96.3969 48.12C95.7169 48.12 95.1249 47.988 94.6209 47.724C94.1169 47.452 93.7249 47.076 93.4449 46.596C93.1729 46.116 93.0369 45.564 93.0369 44.94C93.0369 44.308 93.1729 43.756 93.4449 43.284C93.7249 42.804 94.1129 42.432 94.6089 42.168C95.1049 41.896 95.6809 41.76 96.3369 41.76C96.9689 41.76 97.5169 41.888 97.9809 42.144C98.4449 42.4 98.8049 42.756 99.0609 43.212C99.3169 43.668 99.4449 44.204 99.4449 44.82C99.4449 44.948 99.4409 45.068 99.4329 45.18C99.4249 45.284 99.4129 45.384 99.3969 45.48H94.0929V44.292H97.9449L97.6329 44.508C97.6329 44.012 97.5129 43.648 97.2729 43.416C97.0409 43.176 96.7209 43.056 96.3129 43.056C95.8409 43.056 95.4729 43.216 95.2089 43.536C94.9529 43.856 94.8249 44.336 94.8249 44.976C94.8249 45.6 94.9529 46.064 95.2089 46.368C95.4729 46.672 95.8649 46.824 96.3849 46.824C96.6729 46.824 96.9209 46.776 97.1289 46.68C97.3369 46.584 97.4929 46.428 97.5969 46.212H99.2889C99.0889 46.804 98.7449 47.272 98.2569 47.616C97.7769 47.952 97.1569 48.12 96.3969 48.12ZM106.665 48.12C106.041 48.12 105.465 48.012 104.937 47.796C104.409 47.572 103.949 47.26 103.557 46.86C103.173 46.46 102.873 45.988 102.657 45.444C102.441 44.892 102.333 44.292 102.333 43.644C102.333 42.996 102.437 42.404 102.645 41.868C102.861 41.332 103.161 40.868 103.545 40.476C103.937 40.076 104.397 39.772 104.925 39.564C105.453 39.348 106.033 39.24 106.665 39.24C107.377 39.24 108.017 39.38 108.585 39.66C109.161 39.932 109.629 40.32 109.989 40.824C110.357 41.32 110.581 41.904 110.661 42.576H108.861C108.757 41.96 108.505 41.496 108.105 41.184C107.705 40.864 107.229 40.704 106.677 40.704C106.189 40.704 105.757 40.82 105.381 41.052C105.013 41.284 104.725 41.62 104.517 42.06C104.309 42.492 104.205 43.016 104.205 43.632C104.205 44.256 104.309 44.796 104.517 45.252C104.733 45.7 105.029 46.048 105.405 46.296C105.781 46.536 106.213 46.656 106.701 46.656C107.221 46.656 107.681 46.5 108.081 46.188C108.481 45.876 108.741 45.412 108.861 44.796H110.685C110.581 45.468 110.345 46.056 109.977 46.56C109.609 47.056 109.141 47.44 108.573 47.712C108.005 47.984 107.369 48.12 106.665 48.12ZM114.573 48.12C113.901 48.12 113.309 47.988 112.797 47.724C112.293 47.452 111.897 47.076 111.609 46.596C111.329 46.108 111.189 45.548 111.189 44.916C111.189 44.284 111.329 43.732 111.609 43.26C111.897 42.788 112.293 42.42 112.797 42.156C113.309 41.892 113.901 41.76 114.573 41.76C115.253 41.76 115.845 41.892 116.349 42.156C116.861 42.42 117.257 42.788 117.537 43.26C117.817 43.732 117.957 44.284 117.957 44.916C117.957 45.548 117.813 46.108 117.525 46.596C117.245 47.076 116.849 47.452 116.337 47.724C115.833 47.988 115.245 48.12 114.573 48.12ZM114.573 46.704C114.853 46.704 115.105 46.632 115.329 46.488C115.561 46.344 115.745 46.14 115.881 45.876C116.017 45.604 116.085 45.28 116.085 44.904C116.085 44.352 115.937 43.928 115.641 43.632C115.353 43.328 114.997 43.176 114.573 43.176C114.149 43.176 113.789 43.328 113.493 43.632C113.205 43.936 113.061 44.36 113.061 44.904C113.061 45.28 113.129 45.604 113.265 45.876C113.401 46.14 113.581 46.344 113.805 46.488C114.037 46.632 114.293 46.704 114.573 46.704ZM118.911 48V41.88H120.675V43.32H120.711V48H118.911ZM123.171 48V44.208C123.171 43.872 123.083 43.62 122.907 43.452C122.739 43.284 122.491 43.2 122.163 43.2C121.883 43.2 121.631 43.264 121.407 43.392C121.191 43.52 121.019 43.696 120.891 43.92C120.771 44.144 120.711 44.408 120.711 44.712L120.555 43.236C120.755 42.788 121.047 42.432 121.431 42.168C121.823 41.896 122.303 41.76 122.871 41.76C123.551 41.76 124.071 41.952 124.431 42.336C124.791 42.712 124.971 43.22 124.971 43.86V48H123.171ZM128.987 48.132C128.203 48.132 127.619 47.944 127.235 47.568C126.859 47.184 126.671 46.604 126.671 45.828V40.512L128.471 39.84V45.888C128.471 46.16 128.547 46.364 128.699 46.5C128.851 46.636 129.087 46.704 129.407 46.704C129.527 46.704 129.639 46.692 129.743 46.668C129.847 46.644 129.951 46.616 130.055 46.584V47.952C129.951 48.008 129.803 48.052 129.611 48.084C129.427 48.116 129.219 48.132 128.987 48.132ZM125.531 43.248V41.88H130.055V43.248H125.531ZM131.134 48V41.88H132.898V43.32H132.934V48H131.134ZM132.934 44.808L132.778 43.356C132.922 42.836 133.158 42.44 133.486 42.168C133.814 41.896 134.222 41.76 134.71 41.76C134.862 41.76 134.974 41.776 135.046 41.808V43.488C135.006 43.472 134.95 43.464 134.878 43.464C134.806 43.456 134.718 43.452 134.614 43.452C134.038 43.452 133.614 43.556 133.342 43.764C133.07 43.964 132.934 44.312 132.934 44.808ZM138.726 48.12C138.054 48.12 137.462 47.988 136.95 47.724C136.446 47.452 136.05 47.076 135.762 46.596C135.482 46.108 135.342 45.548 135.342 44.916C135.342 44.284 135.482 43.732 135.762 43.26C136.05 42.788 136.446 42.42 136.95 42.156C137.462 41.892 138.054 41.76 138.726 41.76C139.406 41.76 139.998 41.892 140.502 42.156C141.014 42.42 141.41 42.788 141.69 43.26C141.97 43.732 142.11 44.284 142.11 44.916C142.11 45.548 141.966 46.108 141.678 46.596C141.398 47.076 141.002 47.452 140.49 47.724C139.986 47.988 139.398 48.12 138.726 48.12ZM138.726 46.704C139.006 46.704 139.258 46.632 139.482 46.488C139.714 46.344 139.898 46.14 140.034 45.876C140.17 45.604 140.238 45.28 140.238 44.904C140.238 44.352 140.09 43.928 139.794 43.632C139.506 43.328 139.15 43.176 138.726 43.176C138.302 43.176 137.942 43.328 137.646 43.632C137.358 43.936 137.214 44.36 137.214 44.904C137.214 45.28 137.282 45.604 137.418 45.876C137.554 46.14 137.734 46.344 137.958 46.488C138.19 46.632 138.446 46.704 138.726 46.704ZM143.064 48V39.36H144.864V48H143.064ZM150.15 48C150.102 47.824 150.066 47.636 150.042 47.436C150.026 47.236 150.018 47.004 150.018 46.74H149.97V43.848C149.97 43.6 149.886 43.408 149.718 43.272C149.558 43.128 149.318 43.056 148.998 43.056C148.694 43.056 148.45 43.108 148.266 43.212C148.09 43.316 147.974 43.468 147.918 43.668H146.202C146.282 43.116 146.566 42.66 147.054 42.3C147.542 41.94 148.21 41.76 149.058 41.76C149.938 41.76 150.61 41.956 151.074 42.348C151.538 42.74 151.77 43.304 151.77 44.04V46.74C151.77 46.94 151.782 47.144 151.806 47.352C151.838 47.552 151.886 47.768 151.95 48H150.15ZM148.014 48.12C147.406 48.12 146.922 47.968 146.562 47.664C146.202 47.352 146.022 46.94 146.022 46.428C146.022 45.86 146.234 45.404 146.658 45.06C147.09 44.708 147.69 44.48 148.458 44.376L150.246 44.124V45.168L148.758 45.396C148.438 45.444 148.202 45.532 148.05 45.66C147.898 45.788 147.822 45.964 147.822 46.188C147.822 46.388 147.894 46.54 148.038 46.644C148.182 46.748 148.374 46.8 148.614 46.8C148.99 46.8 149.31 46.7 149.574 46.5C149.838 46.292 149.97 46.052 149.97 45.78L150.138 46.74C149.962 47.196 149.694 47.54 149.334 47.772C148.974 48.004 148.534 48.12 148.014 48.12ZM157.345 48V46.644L157.465 46.668C157.385 47.108 157.145 47.46 156.745 47.724C156.353 47.988 155.881 48.12 155.329 48.12C154.769 48.12 154.281 47.992 153.865 47.736C153.457 47.472 153.141 47.104 152.917 46.632C152.693 46.16 152.581 45.604 152.581 44.964C152.581 44.316 152.697 43.752 152.929 43.272C153.161 42.792 153.485 42.42 153.901 42.156C154.325 41.892 154.817 41.76 155.377 41.76C155.961 41.76 156.433 41.896 156.793 42.168C157.161 42.44 157.377 42.812 157.441 43.284L157.309 43.296V39.36H159.109V48H157.345ZM155.905 46.68C156.329 46.68 156.673 46.532 156.937 46.236C157.201 45.932 157.333 45.5 157.333 44.94C157.333 44.38 157.197 43.952 156.925 43.656C156.661 43.352 156.313 43.2 155.881 43.2C155.465 43.2 155.121 43.352 154.849 43.656C154.585 43.96 154.453 44.392 154.453 44.952C154.453 45.512 154.585 45.94 154.849 46.236C155.121 46.532 155.473 46.68 155.905 46.68ZM163.452 48.12C162.78 48.12 162.188 47.988 161.676 47.724C161.172 47.452 160.776 47.076 160.488 46.596C160.208 46.108 160.068 45.548 160.068 44.916C160.068 44.284 160.208 43.732 160.488 43.26C160.776 42.788 161.172 42.42 161.676 42.156C162.188 41.892 162.78 41.76 163.452 41.76C164.132 41.76 164.724 41.892 165.228 42.156C165.74 42.42 166.136 42.788 166.416 43.26C166.696 43.732 166.836 44.284 166.836 44.916C166.836 45.548 166.692 46.108 166.404 46.596C166.124 47.076 165.728 47.452 165.216 47.724C164.712 47.988 164.124 48.12 163.452 48.12ZM163.452 46.704C163.732 46.704 163.984 46.632 164.208 46.488C164.44 46.344 164.624 46.14 164.76 45.876C164.896 45.604 164.964 45.28 164.964 44.904C164.964 44.352 164.816 43.928 164.52 43.632C164.232 43.328 163.876 43.176 163.452 43.176C163.028 43.176 162.668 43.328 162.372 43.632C162.084 43.936 161.94 44.36 161.94 44.904C161.94 45.28 162.008 45.604 162.144 45.876C162.28 46.14 162.46 46.344 162.684 46.488C162.916 46.632 163.172 46.704 163.452 46.704ZM167.79 48V41.88H169.554V43.32H169.59V48H167.79ZM169.59 44.808L169.434 43.356C169.578 42.836 169.814 42.44 170.142 42.168C170.47 41.896 170.878 41.76 171.366 41.76C171.518 41.76 171.63 41.776 171.702 41.808V43.488C171.662 43.472 171.606 43.464 171.534 43.464C171.462 43.456 171.374 43.452 171.27 43.452C170.694 43.452 170.27 43.556 169.998 43.764C169.726 43.964 169.59 44.312 169.59 44.808ZM172.478 48V41.88H174.278V48H172.478ZM172.418 41.064V39.12H174.338V41.064H172.418ZM179.388 48C179.34 47.824 179.304 47.636 179.28 47.436C179.264 47.236 179.256 47.004 179.256 46.74H179.208V43.848C179.208 43.6 179.124 43.408 178.956 43.272C178.796 43.128 178.556 43.056 178.236 43.056C177.932 43.056 177.688 43.108 177.504 43.212C177.328 43.316 177.212 43.468 177.156 43.668H175.44C175.52 43.116 175.804 42.66 176.292 42.3C176.78 41.94 177.448 41.76 178.296 41.76C179.176 41.76 179.848 41.956 180.312 42.348C180.776 42.74 181.008 43.304 181.008 44.04V46.74C181.008 46.94 181.02 47.144 181.044 47.352C181.076 47.552 181.124 47.768 181.188 48H179.388ZM177.252 48.12C176.644 48.12 176.16 47.968 175.8 47.664C175.44 47.352 175.26 46.94 175.26 46.428C175.26 45.86 175.472 45.404 175.896 45.06C176.328 44.708 176.928 44.48 177.696 44.376L179.484 44.124V45.168L177.996 45.396C177.676 45.444 177.44 45.532 177.288 45.66C177.136 45.788 177.06 45.964 177.06 46.188C177.06 46.388 177.132 46.54 177.276 46.644C177.42 46.748 177.612 46.8 177.852 46.8C178.228 46.8 178.548 46.7 178.812 46.5C179.076 46.292 179.208 46.052 179.208 45.78L179.376 46.74C179.2 47.196 178.932 47.54 178.572 47.772C178.212 48.004 177.772 48.12 177.252 48.12Z" fill="#1A0F2E"/>
<path d="M211.552 39V30.36H215.416C216.04 30.36 216.584 30.468 217.048 30.684C217.512 30.892 217.872 31.188 218.128 31.572C218.384 31.956 218.512 32.404 218.512 32.916C218.512 33.42 218.384 33.864 218.128 34.248C217.872 34.624 217.512 34.92 217.048 35.136C216.584 35.344 216.04 35.448 215.416 35.448H213.016V34.092H215.368C215.808 34.092 216.144 33.992 216.376 33.792C216.616 33.584 216.736 33.296 216.736 32.928C216.736 32.552 216.62 32.268 216.388 32.076C216.156 31.876 215.816 31.776 215.368 31.776H213.4V39H211.552ZM216.424 39L212.956 34.512H214.912L218.92 39H216.424ZM222.252 39.12C221.572 39.12 220.98 38.988 220.476 38.724C219.972 38.452 219.58 38.076 219.3 37.596C219.028 37.116 218.892 36.564 218.892 35.94C218.892 35.308 219.028 34.756 219.3 34.284C219.58 33.804 219.968 33.432 220.464 33.168C220.96 32.896 221.536 32.76 222.192 32.76C222.824 32.76 223.372 32.888 223.836 33.144C224.3 33.4 224.66 33.756 224.916 34.212C225.172 34.668 225.3 35.204 225.3 35.82C225.3 35.948 225.296 36.068 225.288 36.18C225.28 36.284 225.268 36.384 225.252 36.48H219.948V35.292H223.8L223.488 35.508C223.488 35.012 223.368 34.648 223.128 34.416C222.896 34.176 222.576 34.056 222.168 34.056C221.696 34.056 221.328 34.216 221.064 34.536C220.808 34.856 220.68 35.336 220.68 35.976C220.68 36.6 220.808 37.064 221.064 37.368C221.328 37.672 221.72 37.824 222.24 37.824C222.528 37.824 222.776 37.776 222.984 37.68C223.192 37.584 223.348 37.428 223.452 37.212H225.144C224.944 37.804 224.6 38.272 224.112 38.616C223.632 38.952 223.012 39.12 222.252 39.12ZM229.986 39C229.938 38.824 229.902 38.636 229.878 38.436C229.862 38.236 229.854 38.004 229.854 37.74H229.806V34.848C229.806 34.6 229.722 34.408 229.554 34.272C229.394 34.128 229.154 34.056 228.834 34.056C228.53 34.056 228.286 34.108 228.102 34.212C227.926 34.316 227.81 34.468 227.754 34.668H226.038C226.118 34.116 226.402 33.66 226.89 33.3C227.378 32.94 228.046 32.76 228.894 32.76C229.774 32.76 230.446 32.956 230.91 33.348C231.374 33.74 231.606 34.304 231.606 35.04V37.74C231.606 37.94 231.618 38.144 231.642 38.352C231.674 38.552 231.722 38.768 231.786 39H229.986ZM227.85 39.12C227.242 39.12 226.758 38.968 226.398 38.664C226.038 38.352 225.858 37.94 225.858 37.428C225.858 36.86 226.07 36.404 226.494 36.06C226.926 35.708 227.526 35.48 228.294 35.376L230.082 35.124V36.168L228.594 36.396C228.274 36.444 228.038 36.532 227.886 36.66C227.734 36.788 227.658 36.964 227.658 37.188C227.658 37.388 227.73 37.54 227.874 37.644C228.018 37.748 228.21 37.8 228.45 37.8C228.826 37.8 229.146 37.7 229.41 37.5C229.674 37.292 229.806 37.052 229.806 36.78L229.974 37.74C229.798 38.196 229.53 38.54 229.17 38.772C228.81 39.004 228.37 39.12 227.85 39.12ZM232.99 39V30.36H234.79V39H232.99ZM240.177 39L237.765 32.88H239.697L241.581 38.592H240.573L242.445 32.88H244.329L241.917 39H240.177ZM247.321 39.12C246.425 39.12 245.713 38.94 245.185 38.58C244.657 38.22 244.369 37.724 244.321 37.092H245.929C245.969 37.364 246.105 37.572 246.337 37.716C246.577 37.852 246.905 37.92 247.321 37.92C247.697 37.92 247.969 37.868 248.137 37.764C248.313 37.652 248.401 37.496 248.401 37.296C248.401 37.144 248.349 37.028 248.245 36.948C248.149 36.86 247.969 36.788 247.705 36.732L246.721 36.528C245.993 36.376 245.457 36.148 245.113 35.844C244.769 35.532 244.597 35.132 244.597 34.644C244.597 34.052 244.825 33.592 245.281 33.264C245.737 32.928 246.373 32.76 247.189 32.76C247.997 32.76 248.641 32.924 249.121 33.252C249.601 33.572 249.865 34.02 249.913 34.596H248.305C248.273 34.388 248.161 34.232 247.969 34.128C247.777 34.016 247.505 33.96 247.153 33.96C246.833 33.96 246.593 34.008 246.433 34.104C246.281 34.192 246.205 34.32 246.205 34.488C246.205 34.632 246.269 34.748 246.397 34.836C246.525 34.916 246.737 34.988 247.033 35.052L248.137 35.28C248.753 35.408 249.217 35.648 249.529 36C249.849 36.344 250.009 36.752 250.009 37.224C250.009 37.824 249.773 38.292 249.301 38.628C248.837 38.956 248.177 39.12 247.321 39.12ZM253.061 39V30.36H255.941L258.341 38.688H257.297L259.697 30.36H262.589V39H260.765V30.876H261.077L258.737 39H256.829L254.513 30.948H254.813V39H253.061ZM266.784 39.12C266.104 39.12 265.512 38.988 265.008 38.724C264.504 38.452 264.112 38.076 263.832 37.596C263.56 37.116 263.424 36.564 263.424 35.94C263.424 35.308 263.56 34.756 263.832 34.284C264.112 33.804 264.5 33.432 264.996 33.168C265.492 32.896 266.068 32.76 266.724 32.76C267.356 32.76 267.904 32.888 268.368 33.144C268.832 33.4 269.192 33.756 269.448 34.212C269.704 34.668 269.832 35.204 269.832 35.82C269.832 35.948 269.828 36.068 269.82 36.18C269.812 36.284 269.8 36.384 269.784 36.48H264.48V35.292H268.332L268.02 35.508C268.02 35.012 267.9 34.648 267.66 34.416C267.428 34.176 267.108 34.056 266.7 34.056C266.228 34.056 265.86 34.216 265.596 34.536C265.34 34.856 265.212 35.336 265.212 35.976C265.212 36.6 265.34 37.064 265.596 37.368C265.86 37.672 266.252 37.824 266.772 37.824C267.06 37.824 267.308 37.776 267.516 37.68C267.724 37.584 267.88 37.428 267.984 37.212H269.676C269.476 37.804 269.132 38.272 268.644 38.616C268.164 38.952 267.544 39.12 266.784 39.12ZM273.534 39.132C272.75 39.132 272.166 38.944 271.782 38.568C271.406 38.184 271.218 37.604 271.218 36.828V31.512L273.018 30.84V36.888C273.018 37.16 273.094 37.364 273.246 37.5C273.398 37.636 273.634 37.704 273.954 37.704C274.074 37.704 274.186 37.692 274.29 37.668C274.394 37.644 274.498 37.616 274.602 37.584V38.952C274.498 39.008 274.35 39.052 274.158 39.084C273.974 39.116 273.766 39.132 273.534 39.132ZM270.078 34.248V32.88H274.602V34.248H270.078ZM279.416 39C279.368 38.824 279.332 38.636 279.308 38.436C279.292 38.236 279.284 38.004 279.284 37.74H279.236V34.848C279.236 34.6 279.152 34.408 278.984 34.272C278.824 34.128 278.584 34.056 278.264 34.056C277.96 34.056 277.716 34.108 277.532 34.212C277.356 34.316 277.24 34.468 277.184 34.668H275.468C275.548 34.116 275.832 33.66 276.32 33.3C276.808 32.94 277.476 32.76 278.324 32.76C279.204 32.76 279.876 32.956 280.34 33.348C280.804 33.74 281.036 34.304 281.036 35.04V37.74C281.036 37.94 281.048 38.144 281.072 38.352C281.104 38.552 281.152 38.768 281.216 39H279.416ZM277.28 39.12C276.672 39.12 276.188 38.968 275.828 38.664C275.468 38.352 275.288 37.94 275.288 37.428C275.288 36.86 275.5 36.404 275.924 36.06C276.356 35.708 276.956 35.48 277.724 35.376L279.512 35.124V36.168L278.024 36.396C277.704 36.444 277.468 36.532 277.316 36.66C277.164 36.788 277.088 36.964 277.088 37.188C277.088 37.388 277.16 37.54 277.304 37.644C277.448 37.748 277.64 37.8 277.88 37.8C278.256 37.8 278.576 37.7 278.84 37.5C279.104 37.292 279.236 37.052 279.236 36.78L279.404 37.74C279.228 38.196 278.96 38.54 278.6 38.772C278.24 39.004 277.8 39.12 277.28 39.12Z" fill="white"/>
<path d="M303.288 39L306.384 30.36H307.968L305.124 39H303.288ZM309.624 39L306.792 30.36H308.448L311.544 39H309.624ZM304.92 35.652H309.768V37.092H304.92V35.652ZM312.556 39V32.88H314.32V34.32H314.356V39H312.556ZM316.816 39V35.208C316.816 34.872 316.728 34.62 316.552 34.452C316.384 34.284 316.136 34.2 315.808 34.2C315.528 34.2 315.276 34.264 315.052 34.392C314.836 34.52 314.664 34.696 314.536 34.92C314.416 35.144 314.356 35.408 314.356 35.712L314.2 34.236C314.4 33.788 314.692 33.432 315.076 33.168C315.468 32.896 315.948 32.76 316.516 32.76C317.196 32.76 317.716 32.952 318.076 33.336C318.436 33.712 318.616 34.22 318.616 34.86V39H316.816ZM323.685 39C323.637 38.824 323.601 38.636 323.577 38.436C323.561 38.236 323.553 38.004 323.553 37.74H323.505V34.848C323.505 34.6 323.421 34.408 323.253 34.272C323.093 34.128 322.853 34.056 322.533 34.056C322.229 34.056 321.985 34.108 321.801 34.212C321.625 34.316 321.509 34.468 321.453 34.668H319.737C319.817 34.116 320.101 33.66 320.589 33.3C321.077 32.94 321.745 32.76 322.593 32.76C323.473 32.76 324.145 32.956 324.609 33.348C325.073 33.74 325.305 34.304 325.305 35.04V37.74C325.305 37.94 325.317 38.144 325.341 38.352C325.373 38.552 325.421 38.768 325.485 39H323.685ZM321.549 39.12C320.941 39.12 320.457 38.968 320.097 38.664C319.737 38.352 319.557 37.94 319.557 37.428C319.557 36.86 319.769 36.404 320.193 36.06C320.625 35.708 321.225 35.48 321.993 35.376L323.781 35.124V36.168L322.293 36.396C321.973 36.444 321.737 36.532 321.585 36.66C321.433 36.788 321.357 36.964 321.357 37.188C321.357 37.388 321.429 37.54 321.573 37.644C321.717 37.748 321.909 37.8 322.149 37.8C322.525 37.8 322.845 37.7 323.109 37.5C323.373 37.292 323.505 37.052 323.505 36.78L323.673 37.74C323.497 38.196 323.229 38.54 322.869 38.772C322.509 39.004 322.069 39.12 321.549 39.12ZM323.085 32.004H321.501L322.689 30.12H325.065L323.085 32.004ZM326.689 39V30.36H328.489V39H326.689ZM329.923 39V32.88H331.723V39H329.923ZM329.863 32.064V30.12H331.783V32.064H329.863ZM335.594 39.12C334.698 39.12 333.986 38.94 333.458 38.58C332.93 38.22 332.642 37.724 332.594 37.092H334.202C334.242 37.364 334.378 37.572 334.61 37.716C334.85 37.852 335.178 37.92 335.594 37.92C335.97 37.92 336.242 37.868 336.41 37.764C336.586 37.652 336.674 37.496 336.674 37.296C336.674 37.144 336.622 37.028 336.518 36.948C336.422 36.86 336.242 36.788 335.978 36.732L334.994 36.528C334.266 36.376 333.73 36.148 333.386 35.844C333.042 35.532 332.87 35.132 332.87 34.644C332.87 34.052 333.098 33.592 333.554 33.264C334.01 32.928 334.646 32.76 335.462 32.76C336.27 32.76 336.914 32.924 337.394 33.252C337.874 33.572 338.138 34.02 338.186 34.596H336.578C336.546 34.388 336.434 34.232 336.242 34.128C336.05 34.016 335.778 33.96 335.426 33.96C335.106 33.96 334.866 34.008 334.706 34.104C334.554 34.192 334.478 34.32 334.478 34.488C334.478 34.632 334.542 34.748 334.67 34.836C334.798 34.916 335.01 34.988 335.306 35.052L336.41 35.28C337.026 35.408 337.49 35.648 337.802 36C338.122 36.344 338.282 36.752 338.282 37.224C338.282 37.824 338.046 38.292 337.574 38.628C337.11 38.956 336.45 39.12 335.594 39.12ZM342.26 39.12C341.58 39.12 340.988 38.988 340.484 38.724C339.98 38.452 339.588 38.076 339.308 37.596C339.036 37.116 338.9 36.564 338.9 35.94C338.9 35.308 339.036 34.756 339.308 34.284C339.588 33.804 339.976 33.432 340.472 33.168C340.968 32.896 341.544 32.76 342.2 32.76C342.832 32.76 343.38 32.888 343.844 33.144C344.308 33.4 344.668 33.756 344.924 34.212C345.18 34.668 345.308 35.204 345.308 35.82C345.308 35.948 345.304 36.068 345.296 36.18C345.288 36.284 345.276 36.384 345.26 36.48H339.956V35.292H343.808L343.496 35.508C343.496 35.012 343.376 34.648 343.136 34.416C342.904 34.176 342.584 34.056 342.176 34.056C341.704 34.056 341.336 34.216 341.072 34.536C340.816 34.856 340.688 35.336 340.688 35.976C340.688 36.6 340.816 37.064 341.072 37.368C341.336 37.672 341.728 37.824 342.248 37.824C342.536 37.824 342.784 37.776 342.992 37.68C343.2 37.584 343.356 37.428 343.46 37.212H345.152C344.952 37.804 344.608 38.272 344.12 38.616C343.64 38.952 343.02 39.12 342.26 39.12ZM351.22 39L348.124 30.36H350.044L352.408 37.56H352.18L354.556 30.36H356.38L353.284 39H351.22ZM359.381 39.12C358.701 39.12 358.109 38.988 357.605 38.724C357.101 38.452 356.709 38.076 356.429 37.596C356.157 37.116 356.021 36.564 356.021 35.94C356.021 35.308 356.157 34.756 356.429 34.284C356.709 33.804 357.097 33.432 357.593 33.168C358.089 32.896 358.665 32.76 359.321 32.76C359.953 32.76 360.501 32.888 360.965 33.144C361.429 33.4 361.789 33.756 362.045 34.212C362.301 34.668 362.429 35.204 362.429 35.82C362.429 35.948 362.425 36.068 362.417 36.18C362.409 36.284 362.397 36.384 362.381 36.48H357.077V35.292H360.929L360.617 35.508C360.617 35.012 360.497 34.648 360.257 34.416C360.025 34.176 359.705 34.056 359.297 34.056C358.825 34.056 358.457 34.216 358.193 34.536C357.937 34.856 357.809 35.336 357.809 35.976C357.809 36.6 357.937 37.064 358.193 37.368C358.457 37.672 358.849 37.824 359.369 37.824C359.657 37.824 359.905 37.776 360.113 37.68C360.321 37.584 360.477 37.428 360.581 37.212H362.273C362.073 37.804 361.729 38.272 361.241 38.616C360.761 38.952 360.141 39.12 359.381 39.12ZM363.392 39V32.88H365.156V34.32H365.192V39H363.392ZM365.192 35.808L365.036 34.356C365.18 33.836 365.416 33.44 365.744 33.168C366.072 32.896 366.48 32.76 366.968 32.76C367.12 32.76 367.232 32.776 367.304 32.808V34.488C367.264 34.472 367.208 34.464 367.136 34.464C367.064 34.456 366.976 34.452 366.872 34.452C366.296 34.452 365.872 34.556 365.6 34.764C365.328 34.964 365.192 35.312 365.192 35.808ZM371.229 39.132C370.445 39.132 369.861 38.944 369.477 38.568C369.101 38.184 368.913 37.604 368.913 36.828V31.512L370.713 30.84V36.888C370.713 37.16 370.789 37.364 370.941 37.5C371.093 37.636 371.329 37.704 371.649 37.704C371.769 37.704 371.881 37.692 371.985 37.668C372.089 37.644 372.193 37.616 372.297 37.584V38.952C372.193 39.008 372.045 39.052 371.853 39.084C371.669 39.116 371.461 39.132 371.229 39.132ZM367.773 34.248V32.88H372.297V34.248H367.773ZM373.318 39V32.88H375.118V39H373.318ZM373.258 32.064V30.12H375.178V32.064H373.258ZM379.301 39.12C378.661 39.12 378.097 38.984 377.609 38.712C377.121 38.44 376.737 38.064 376.457 37.584C376.185 37.104 376.049 36.556 376.049 35.94C376.049 35.324 376.185 34.776 376.457 34.296C376.737 33.816 377.121 33.44 377.609 33.168C378.097 32.896 378.661 32.76 379.301 32.76C379.837 32.76 380.317 32.86 380.741 33.06C381.173 33.252 381.525 33.52 381.797 33.864C382.077 34.208 382.257 34.612 382.337 35.076H380.597C380.509 34.78 380.349 34.556 380.117 34.404C379.893 34.252 379.629 34.176 379.325 34.176C379.037 34.176 378.785 34.248 378.569 34.392C378.361 34.536 378.201 34.74 378.089 35.004C377.977 35.268 377.921 35.58 377.921 35.94C377.921 36.3 377.977 36.612 378.089 36.876C378.201 37.14 378.361 37.344 378.569 37.488C378.785 37.632 379.037 37.704 379.325 37.704C379.629 37.704 379.893 37.628 380.117 37.476C380.349 37.324 380.509 37.1 380.597 36.804H382.337C382.257 37.268 382.077 37.672 381.797 38.016C381.525 38.36 381.173 38.632 380.741 38.832C380.317 39.024 379.837 39.12 379.301 39.12ZM387.002 39C386.954 38.824 386.918 38.636 386.894 38.436C386.878 38.236 386.87 38.004 386.87 37.74H386.822V34.848C386.822 34.6 386.738 34.408 386.57 34.272C386.41 34.128 386.17 34.056 385.85 34.056C385.546 34.056 385.302 34.108 385.118 34.212C384.942 34.316 384.826 34.468 384.77 34.668H383.054C383.134 34.116 383.418 33.66 383.906 33.3C384.394 32.94 385.062 32.76 385.91 32.76C386.79 32.76 387.462 32.956 387.926 33.348C388.39 33.74 388.622 34.304 388.622 35.04V37.74C388.622 37.94 388.634 38.144 388.658 38.352C388.69 38.552 388.738 38.768 388.802 39H387.002ZM384.866 39.12C384.258 39.12 383.774 38.968 383.414 38.664C383.054 38.352 382.874 37.94 382.874 37.428C382.874 36.86 383.086 36.404 383.51 36.06C383.942 35.708 384.542 35.48 385.31 35.376L387.098 35.124V36.168L385.61 36.396C385.29 36.444 385.054 36.532 384.902 36.66C384.75 36.788 384.674 36.964 384.674 37.188C384.674 37.388 384.746 37.54 384.89 37.644C385.034 37.748 385.226 37.8 385.466 37.8C385.842 37.8 386.162 37.7 386.426 37.5C386.69 37.292 386.822 37.052 386.822 36.78L386.99 37.74C386.814 38.196 386.546 38.54 386.186 38.772C385.826 39.004 385.386 39.12 384.866 39.12ZM390.005 39V30.36H391.805V39H390.005Z" fill="white" fill-opacity="0.44"/>
<path d="M414.288 39L417.384 30.36H418.968L416.124 39H414.288ZM420.624 39L417.792 30.36H419.448L422.544 39H420.624ZM415.92 35.652H420.768V37.092H415.92V35.652ZM423.556 39V32.88H425.32V34.32H425.356V39H423.556ZM427.816 39V35.208C427.816 34.872 427.728 34.62 427.552 34.452C427.384 34.284 427.136 34.2 426.808 34.2C426.528 34.2 426.276 34.264 426.052 34.392C425.836 34.52 425.664 34.696 425.536 34.92C425.416 35.144 425.356 35.408 425.356 35.712L425.2 34.236C425.4 33.788 425.692 33.432 426.076 33.168C426.468 32.896 426.948 32.76 427.516 32.76C428.196 32.76 428.716 32.952 429.076 33.336C429.436 33.712 429.616 34.22 429.616 34.86V39H427.816ZM434.685 39C434.637 38.824 434.601 38.636 434.577 38.436C434.561 38.236 434.553 38.004 434.553 37.74H434.505V34.848C434.505 34.6 434.421 34.408 434.253 34.272C434.093 34.128 433.853 34.056 433.533 34.056C433.229 34.056 432.985 34.108 432.801 34.212C432.625 34.316 432.509 34.468 432.453 34.668H430.737C430.817 34.116 431.101 33.66 431.589 33.3C432.077 32.94 432.745 32.76 433.593 32.76C434.473 32.76 435.145 32.956 435.609 33.348C436.073 33.74 436.305 34.304 436.305 35.04V37.74C436.305 37.94 436.317 38.144 436.341 38.352C436.373 38.552 436.421 38.768 436.485 39H434.685ZM432.549 39.12C431.941 39.12 431.457 38.968 431.097 38.664C430.737 38.352 430.557 37.94 430.557 37.428C430.557 36.86 430.769 36.404 431.193 36.06C431.625 35.708 432.225 35.48 432.993 35.376L434.781 35.124V36.168L433.293 36.396C432.973 36.444 432.737 36.532 432.585 36.66C432.433 36.788 432.357 36.964 432.357 37.188C432.357 37.388 432.429 37.54 432.573 37.644C432.717 37.748 432.909 37.8 433.149 37.8C433.525 37.8 433.845 37.7 434.109 37.5C434.373 37.292 434.505 37.052 434.505 36.78L434.673 37.74C434.497 38.196 434.229 38.54 433.869 38.772C433.509 39.004 433.069 39.12 432.549 39.12ZM434.085 32.004H432.501L433.689 30.12H436.065L434.085 32.004ZM437.689 39V30.36H439.489V39H437.689ZM440.923 39V32.88H442.723V39H440.923ZM440.863 32.064V30.12H442.783V32.064H440.863ZM446.594 39.12C445.698 39.12 444.986 38.94 444.458 38.58C443.93 38.22 443.642 37.724 443.594 37.092H445.202C445.242 37.364 445.378 37.572 445.61 37.716C445.85 37.852 446.178 37.92 446.594 37.92C446.97 37.92 447.242 37.868 447.41 37.764C447.586 37.652 447.674 37.496 447.674 37.296C447.674 37.144 447.622 37.028 447.518 36.948C447.422 36.86 447.242 36.788 446.978 36.732L445.994 36.528C445.266 36.376 444.73 36.148 444.386 35.844C444.042 35.532 443.87 35.132 443.87 34.644C443.87 34.052 444.098 33.592 444.554 33.264C445.01 32.928 445.646 32.76 446.462 32.76C447.27 32.76 447.914 32.924 448.394 33.252C448.874 33.572 449.138 34.02 449.186 34.596H447.578C447.546 34.388 447.434 34.232 447.242 34.128C447.05 34.016 446.778 33.96 446.426 33.96C446.106 33.96 445.866 34.008 445.706 34.104C445.554 34.192 445.478 34.32 445.478 34.488C445.478 34.632 445.542 34.748 445.67 34.836C445.798 34.916 446.01 34.988 446.306 35.052L447.41 35.28C448.026 35.408 448.49 35.648 448.802 36C449.122 36.344 449.282 36.752 449.282 37.224C449.282 37.824 449.046 38.292 448.574 38.628C448.11 38.956 447.45 39.12 446.594 39.12ZM453.26 39.12C452.58 39.12 451.988 38.988 451.484 38.724C450.98 38.452 450.588 38.076 450.308 37.596C450.036 37.116 449.9 36.564 449.9 35.94C449.9 35.308 450.036 34.756 450.308 34.284C450.588 33.804 450.976 33.432 451.472 33.168C451.968 32.896 452.544 32.76 453.2 32.76C453.832 32.76 454.38 32.888 454.844 33.144C455.308 33.4 455.668 33.756 455.924 34.212C456.18 34.668 456.308 35.204 456.308 35.82C456.308 35.948 456.304 36.068 456.296 36.18C456.288 36.284 456.276 36.384 456.26 36.48H450.956V35.292H454.808L454.496 35.508C454.496 35.012 454.376 34.648 454.136 34.416C453.904 34.176 453.584 34.056 453.176 34.056C452.704 34.056 452.336 34.216 452.072 34.536C451.816 34.856 451.688 35.336 451.688 35.976C451.688 36.6 451.816 37.064 452.072 37.368C452.336 37.672 452.728 37.824 453.248 37.824C453.536 37.824 453.784 37.776 453.992 37.68C454.2 37.584 454.356 37.428 454.46 37.212H456.152C455.952 37.804 455.608 38.272 455.12 38.616C454.64 38.952 454.02 39.12 453.26 39.12ZM459.436 39V30.36H461.284V39H459.436ZM465.028 39V30.36H466.876V39H465.028ZM460.3 33.792H465.868V35.208H460.3V33.792ZM471.097 39.12C470.425 39.12 469.833 38.988 469.321 38.724C468.817 38.452 468.421 38.076 468.133 37.596C467.853 37.108 467.713 36.548 467.713 35.916C467.713 35.284 467.853 34.732 468.133 34.26C468.421 33.788 468.817 33.42 469.321 33.156C469.833 32.892 470.425 32.76 471.097 32.76C471.777 32.76 472.369 32.892 472.873 33.156C473.385 33.42 473.781 33.788 474.061 34.26C474.341 34.732 474.481 35.284 474.481 35.916C474.481 36.548 474.337 37.108 474.049 37.596C473.769 38.076 473.373 38.452 472.861 38.724C472.357 38.988 471.769 39.12 471.097 39.12ZM471.097 37.704C471.377 37.704 471.629 37.632 471.853 37.488C472.085 37.344 472.269 37.14 472.405 36.876C472.541 36.604 472.609 36.28 472.609 35.904C472.609 35.352 472.461 34.928 472.165 34.632C471.877 34.328 471.521 34.176 471.097 34.176C470.673 34.176 470.313 34.328 470.017 34.632C469.729 34.936 469.585 35.36 469.585 35.904C469.585 36.28 469.653 36.604 469.789 36.876C469.925 37.14 470.105 37.344 470.329 37.488C470.561 37.632 470.817 37.704 471.097 37.704ZM475.435 39V32.88H477.199V34.32H477.235V39H475.435ZM477.235 35.808L477.079 34.356C477.223 33.836 477.459 33.44 477.787 33.168C478.115 32.896 478.523 32.76 479.011 32.76C479.163 32.76 479.275 32.776 479.347 32.808V34.488C479.307 34.472 479.251 34.464 479.179 34.464C479.107 34.456 479.019 34.452 478.915 34.452C478.339 34.452 477.915 34.556 477.643 34.764C477.371 34.964 477.235 35.312 477.235 35.808ZM480.122 39V32.88H481.922V39H480.122ZM480.062 32.064V30.12H481.982V32.064H480.062ZM482.977 39V37.752L486.385 33.612L486.745 34.248H483.073V32.88H488.185V34.128L484.849 38.184L484.513 37.632H488.233V39H482.977ZM492.097 39.12C491.425 39.12 490.833 38.988 490.321 38.724C489.817 38.452 489.421 38.076 489.133 37.596C488.853 37.108 488.713 36.548 488.713 35.916C488.713 35.284 488.853 34.732 489.133 34.26C489.421 33.788 489.817 33.42 490.321 33.156C490.833 32.892 491.425 32.76 492.097 32.76C492.777 32.76 493.369 32.892 493.873 33.156C494.385 33.42 494.781 33.788 495.061 34.26C495.341 34.732 495.481 35.284 495.481 35.916C495.481 36.548 495.337 37.108 495.049 37.596C494.769 38.076 494.373 38.452 493.861 38.724C493.357 38.988 492.769 39.12 492.097 39.12ZM492.097 37.704C492.377 37.704 492.629 37.632 492.853 37.488C493.085 37.344 493.269 37.14 493.405 36.876C493.541 36.604 493.609 36.28 493.609 35.904C493.609 35.352 493.461 34.928 493.165 34.632C492.877 34.328 492.521 34.176 492.097 34.176C491.673 34.176 491.313 34.328 491.017 34.632C490.729 34.936 490.585 35.36 490.585 35.904C490.585 36.28 490.653 36.604 490.789 36.876C490.925 37.14 491.105 37.344 491.329 37.488C491.561 37.632 491.817 37.704 492.097 37.704ZM496.435 39V32.88H498.199V34.32H498.235V39H496.435ZM500.695 39V35.208C500.695 34.872 500.607 34.62 500.431 34.452C500.263 34.284 500.015 34.2 499.687 34.2C499.407 34.2 499.155 34.264 498.931 34.392C498.715 34.52 498.543 34.696 498.415 34.92C498.295 35.144 498.235 35.408 498.235 35.712L498.079 34.236C498.279 33.788 498.571 33.432 498.955 33.168C499.347 32.896 499.827 32.76 500.395 32.76C501.075 32.76 501.595 32.952 501.955 33.336C502.315 33.712 502.495 34.22 502.495 34.86V39H500.695ZM506.511 39.132C505.727 39.132 505.143 38.944 504.759 38.568C504.383 38.184 504.195 37.604 504.195 36.828V31.512L505.995 30.84V36.888C505.995 37.16 506.071 37.364 506.223 37.5C506.375 37.636 506.611 37.704 506.931 37.704C507.051 37.704 507.163 37.692 507.267 37.668C507.371 37.644 507.475 37.616 507.579 37.584V38.952C507.475 39.008 507.327 39.052 507.135 39.084C506.951 39.116 506.743 39.132 506.511 39.132ZM503.055 34.248V32.88H507.579V34.248H503.055ZM512.392 39C512.344 38.824 512.308 38.636 512.284 38.436C512.268 38.236 512.26 38.004 512.26 37.74H512.212V34.848C512.212 34.6 512.128 34.408 511.96 34.272C511.8 34.128 511.56 34.056 511.24 34.056C510.936 34.056 510.692 34.108 510.508 34.212C510.332 34.316 510.216 34.468 510.16 34.668H508.444C508.524 34.116 508.808 33.66 509.296 33.3C509.784 32.94 510.452 32.76 511.3 32.76C512.18 32.76 512.852 32.956 513.316 33.348C513.78 33.74 514.012 34.304 514.012 35.04V37.74C514.012 37.94 514.024 38.144 514.048 38.352C514.08 38.552 514.128 38.768 514.192 39H512.392ZM510.256 39.12C509.648 39.12 509.164 38.968 508.804 38.664C508.444 38.352 508.264 37.94 508.264 37.428C508.264 36.86 508.476 36.404 508.9 36.06C509.332 35.708 509.932 35.48 510.7 35.376L512.488 35.124V36.168L511 36.396C510.68 36.444 510.444 36.532 510.292 36.66C510.14 36.788 510.064 36.964 510.064 37.188C510.064 37.388 510.136 37.54 510.28 37.644C510.424 37.748 510.616 37.8 510.856 37.8C511.232 37.8 511.552 37.7 511.816 37.5C512.08 37.292 512.212 37.052 512.212 36.78L512.38 37.74C512.204 38.196 511.936 38.54 511.576 38.772C511.216 39.004 510.776 39.12 510.256 39.12ZM515.396 39V30.36H517.196V39H515.396Z" fill="white" fill-opacity="0.44"/>
<line x1="405.5" y1="25" x2="405.5" y2="43" stroke="#8436E4" stroke-width="3"/>
<line x1="293.5" y1="25" x2="293.5" y2="43" stroke="#8436E4" stroke-width="3"/>
<defs>
<filter id="filter0_d_2_2" x="16" y="248" width="1252" height="450" filterUnits="userSpaceOnUse" color-interpolation-filters="sRGB">
<feFlood flood-opacity="0" result="BackgroundImageFix"/>
<feColorMatrix in="SourceAlpha" type="matrix" values="0 0 0 0 0 0 0 0 0 0 0 0 0 0 0 0 0 0 127 0" result="hardAlpha"/>
<feOffset dx="2" dy="2"/>
<feGaussianBlur stdDeviation="3"/>
<feComposite in2="hardAlpha" operator="out"/>
<feColorMatrix type="matrix" values="0 0 0 0 0 0 0 0 0 0 0 0 0 0 0 0 0 0 0.25 0"/>
<feBlend mode="normal" in2="BackgroundImageFix" result="effect1_dropShadow_2_2"/>
<feBlend mode="normal" in="SourceGraphic" in2="effect1_dropShadow_2_2" result="shape"/>
</filter>
</defs>
</svg>
