<svg width="1280" height="720" viewBox="0 0 1280 720" fill="none" xmlns="http://www.w3.org/2000/svg">
<rect width="1280" height="720" fill="#F5EDFF"/>
<rect x="20" y="20" width="1240" height="64" rx="10" fill="#1A0F2E"/>
<path d="M1225.56 694C1225.94 694 1226.31 694.152 1226.58 694.423C1226.85 694.694 1227 695.061 1227 695.444V705.556C1227 705.939 1226.85 706.306 1226.58 706.577C1226.31 706.848 1225.94 707 1225.56 707H1215.44C1215.06 707 1214.69 706.848 1214.42 706.577C1214.15 706.306 1214 705.939 1214 705.556V695.444C1214 695.061 1214.15 694.694 1214.42 694.423C1214.69 694.152 1215.06 694 1215.44 694H1225.56ZM1225.19 705.194V701.367C1225.19 700.742 1224.95 700.143 1224.5 699.702C1224.06 699.26 1223.46 699.012 1222.84 699.012C1222.23 699.012 1221.51 699.388 1221.16 699.951V699.149H1219.15V705.194H1221.16V701.634C1221.16 701.078 1221.61 700.623 1222.17 700.623C1222.44 700.623 1222.69 700.729 1222.88 700.919C1223.07 701.109 1223.18 701.366 1223.18 701.634V705.194H1225.19ZM1216.8 698.016C1217.12 698.016 1217.43 697.888 1217.66 697.66C1217.89 697.433 1218.02 697.124 1218.02 696.802C1218.02 696.131 1217.47 695.582 1216.8 695.582C1216.48 695.582 1216.17 695.71 1215.94 695.939C1215.71 696.168 1215.58 696.479 1215.58 696.802C1215.58 697.474 1216.13 698.016 1216.8 698.016ZM1217.81 705.194V699.149H1215.81V705.194H1217.81Z" fill="#1A0F2E" fill-opacity="0.54"/>
<path d="M1245.6 707C1245.16 707 1244.78 706.841 1244.47 706.523C1244.16 706.205 1244 705.822 1244 705.375V695.625C1244 695.178 1244.16 694.796 1244.47 694.478C1244.78 694.16 1245.16 694.001 1245.6 694H1250.4L1252 695.625H1258.4C1258.84 695.625 1259.22 695.784 1259.53 696.103C1259.84 696.421 1260 696.804 1260 697.25V705.375C1260 705.822 1259.84 706.205 1259.53 706.523C1259.22 706.842 1258.84 707.001 1258.4 707H1245.6Z" fill="#1A0F2E" fill-opacity="0.54"/>
<path d="M1026.66 705V703.944H1028.92C1029.61 703.944 1030.2 703.804 1030.69 703.524C1031.18 703.244 1031.56 702.856 1031.83 702.36C1032.09 701.864 1032.22 701.288 1032.22 700.632C1032.22 699.984 1032.09 699.42 1031.83 698.94C1031.57 698.46 1031.2 698.088 1030.7 697.824C1030.21 697.552 1029.62 697.416 1028.92 697.416H1026.67V696.36H1028.92C1029.85 696.36 1030.66 696.536 1031.35 696.888C1032.04 697.24 1032.57 697.74 1032.94 698.388C1033.33 699.028 1033.52 699.784 1033.52 700.656C1033.52 701.528 1033.33 702.292 1032.94 702.948C1032.56 703.596 1032.02 704.1 1031.34 704.46C1030.66 704.82 1029.86 705 1028.94 705H1026.66ZM1025.89 705V696.36H1027.16V705H1025.89ZM1037.52 705.12C1036.9 705.12 1036.36 704.984 1035.88 704.712C1035.42 704.44 1035.06 704.064 1034.79 703.584C1034.53 703.104 1034.4 702.552 1034.4 701.928C1034.4 701.296 1034.52 700.744 1034.78 700.272C1035.04 699.792 1035.41 699.42 1035.88 699.156C1036.36 698.892 1036.9 698.76 1037.5 698.76C1038.1 698.76 1038.61 698.888 1039.04 699.144C1039.48 699.392 1039.82 699.74 1040.05 700.188C1040.29 700.636 1040.41 701.168 1040.41 701.784C1040.41 701.88 1040.4 701.972 1040.4 702.06C1040.4 702.14 1040.39 702.224 1040.37 702.312H1035.24V701.376H1039.5L1039.18 701.748C1039.18 701.092 1039.04 700.592 1038.74 700.248C1038.44 699.904 1038.03 699.732 1037.5 699.732C1036.94 699.732 1036.48 699.928 1036.15 700.32C1035.82 700.704 1035.66 701.24 1035.66 701.928C1035.66 702.624 1035.82 703.168 1036.15 703.56C1036.48 703.952 1036.95 704.148 1037.54 704.148C1037.9 704.148 1038.21 704.076 1038.48 703.932C1038.74 703.78 1038.94 703.56 1039.06 703.272H1040.24C1040.04 703.848 1039.7 704.3 1039.22 704.628C1038.75 704.956 1038.18 705.12 1037.52 705.12ZM1043.92 705.12C1043.12 705.12 1042.48 704.944 1042.01 704.592C1041.54 704.24 1041.27 703.744 1041.2 703.104H1042.36C1042.41 703.456 1042.57 703.728 1042.84 703.92C1043.11 704.104 1043.48 704.196 1043.94 704.196C1044.35 704.196 1044.66 704.124 1044.88 703.98C1045.09 703.836 1045.2 703.632 1045.2 703.368C1045.2 703.176 1045.14 703.016 1045.01 702.888C1044.89 702.752 1044.65 702.64 1044.29 702.552L1043.3 702.324C1042.69 702.172 1042.23 701.948 1041.92 701.652C1041.63 701.348 1041.48 700.976 1041.48 700.536C1041.48 699.984 1041.68 699.552 1042.09 699.24C1042.51 698.92 1043.08 698.76 1043.8 698.76C1044.51 698.76 1045.08 698.92 1045.51 699.24C1045.95 699.56 1046.2 700.008 1046.26 700.584H1045.1C1045.06 700.296 1044.92 700.076 1044.68 699.924C1044.46 699.764 1044.15 699.684 1043.76 699.684C1043.39 699.684 1043.11 699.752 1042.91 699.888C1042.72 700.016 1042.62 700.196 1042.62 700.428C1042.62 700.62 1042.69 700.78 1042.84 700.908C1042.99 701.036 1043.24 701.144 1043.58 701.232L1044.59 701.484C1045.17 701.628 1045.61 701.864 1045.91 702.192C1046.2 702.512 1046.35 702.9 1046.35 703.356C1046.35 703.908 1046.14 704.34 1045.7 704.652C1045.28 704.964 1044.68 705.12 1043.92 705.12ZM1050.36 705.12C1049.74 705.12 1049.2 704.984 1048.73 704.712C1048.26 704.44 1047.9 704.064 1047.64 703.584C1047.37 703.104 1047.24 702.552 1047.24 701.928C1047.24 701.296 1047.37 700.744 1047.62 700.272C1047.89 699.792 1048.26 699.42 1048.73 699.156C1049.2 698.892 1049.74 698.76 1050.35 698.76C1050.94 698.76 1051.45 698.888 1051.88 699.144C1052.32 699.392 1052.66 699.74 1052.89 700.188C1053.13 700.636 1053.25 701.168 1053.25 701.784C1053.25 701.88 1053.25 701.972 1053.24 702.06C1053.24 702.14 1053.23 702.224 1053.22 702.312H1048.08V701.376H1052.34L1052.03 701.748C1052.03 701.092 1051.88 700.592 1051.58 700.248C1051.29 699.904 1050.88 699.732 1050.35 699.732C1049.78 699.732 1049.33 699.928 1048.99 700.32C1048.66 700.704 1048.5 701.24 1048.5 701.928C1048.5 702.624 1048.66 703.168 1048.99 703.56C1049.33 703.952 1049.79 704.148 1050.38 704.148C1050.74 704.148 1051.06 704.076 1051.32 703.932C1051.58 703.78 1051.78 703.56 1051.91 703.272H1053.08C1052.88 703.848 1052.54 704.3 1052.06 704.628C1051.59 704.956 1051.02 705.12 1050.36 705.12ZM1054.53 705V698.88H1055.72V700.32H1055.78V705H1054.53ZM1058.87 705V701.064C1058.87 700.64 1058.76 700.324 1058.55 700.116C1058.34 699.908 1058.03 699.804 1057.61 699.804C1057.25 699.804 1056.93 699.884 1056.65 700.044C1056.38 700.204 1056.16 700.424 1056 700.704C1055.85 700.984 1055.78 701.316 1055.78 701.7L1055.62 700.236C1055.82 699.78 1056.13 699.42 1056.54 699.156C1056.96 698.892 1057.44 698.76 1058 698.76C1058.65 698.76 1059.17 698.944 1059.54 699.312C1059.92 699.68 1060.11 700.168 1060.11 700.776V705H1058.87ZM1063.31 705L1060.82 698.88H1062.15L1064.19 704.436H1063.6L1065.62 698.88H1066.9L1064.42 705H1063.31ZM1070.42 705.12C1069.8 705.12 1069.25 704.984 1068.78 704.712C1068.31 704.432 1067.94 704.052 1067.67 703.572C1067.41 703.084 1067.28 702.532 1067.28 701.916C1067.28 701.292 1067.41 700.744 1067.67 700.272C1067.95 699.8 1068.31 699.432 1068.78 699.168C1069.25 698.896 1069.8 698.76 1070.42 698.76C1071.05 698.76 1071.61 698.896 1072.08 699.168C1072.55 699.432 1072.91 699.8 1073.17 700.272C1073.43 700.744 1073.57 701.292 1073.57 701.916C1073.57 702.532 1073.43 703.084 1073.17 703.572C1072.91 704.052 1072.55 704.432 1072.08 704.712C1071.61 704.984 1071.05 705.12 1070.42 705.12ZM1070.42 704.1C1070.8 704.1 1071.12 704.008 1071.39 703.824C1071.67 703.64 1071.89 703.384 1072.05 703.056C1072.21 702.728 1072.29 702.344 1072.29 701.904C1072.29 701.248 1072.12 700.732 1071.77 700.356C1071.42 699.972 1070.97 699.78 1070.42 699.78C1069.88 699.78 1069.43 699.972 1069.08 700.356C1068.73 700.74 1068.56 701.256 1068.56 701.904C1068.56 702.344 1068.64 702.728 1068.79 703.056C1068.95 703.384 1069.17 703.64 1069.45 703.824C1069.74 704.008 1070.06 704.1 1070.42 704.1ZM1074.85 705V696.36H1076.1V705H1074.85ZM1079.6 705L1077.1 698.88H1078.44L1080.48 704.436H1079.89L1081.9 698.88H1083.19L1080.7 705H1079.6ZM1084.12 705V698.88H1085.37V705H1084.12ZM1084.06 697.68V696.276H1085.44V697.68H1084.06ZM1091.5 705V703.596L1091.62 703.632C1091.49 704.088 1091.23 704.452 1090.83 704.724C1090.43 704.988 1089.95 705.12 1089.39 705.12C1088.84 705.12 1088.35 704.988 1087.94 704.724C1087.53 704.46 1087.21 704.092 1086.98 703.62C1086.75 703.148 1086.64 702.596 1086.64 701.964C1086.64 701.324 1086.76 700.764 1086.99 700.284C1087.22 699.804 1087.54 699.432 1087.96 699.168C1088.38 698.904 1088.86 698.772 1089.42 698.772C1090.01 698.772 1090.49 698.912 1090.86 699.192C1091.25 699.464 1091.5 699.848 1091.62 700.344L1091.45 700.368V696.36H1092.69V705H1091.5ZM1089.7 704.076C1090.25 704.076 1090.69 703.888 1091.01 703.512C1091.33 703.128 1091.49 702.6 1091.49 701.928C1091.49 701.272 1091.32 700.756 1091 700.38C1090.68 699.996 1090.24 699.804 1089.69 699.804C1089.14 699.804 1088.71 699.996 1088.39 700.38C1088.08 700.756 1087.92 701.284 1087.92 701.964C1087.92 702.628 1088.08 703.148 1088.39 703.524C1088.71 703.892 1089.15 704.076 1089.7 704.076ZM1097.11 705.12C1096.48 705.12 1095.93 704.984 1095.46 704.712C1094.99 704.432 1094.62 704.052 1094.36 703.572C1094.09 703.084 1093.96 702.532 1093.96 701.916C1093.96 701.292 1094.09 700.744 1094.36 700.272C1094.63 699.8 1095 699.432 1095.46 699.168C1095.93 698.896 1096.48 698.76 1097.11 698.76C1097.74 698.76 1098.29 698.896 1098.76 699.168C1099.23 699.432 1099.6 699.8 1099.85 700.272C1100.12 700.744 1100.25 701.292 1100.25 701.916C1100.25 702.532 1100.12 703.084 1099.85 703.572C1099.6 704.052 1099.23 704.432 1098.76 704.712C1098.29 704.984 1097.74 705.12 1097.11 705.12ZM1097.11 704.1C1097.48 704.1 1097.81 704.008 1098.08 703.824C1098.36 703.64 1098.58 703.384 1098.74 703.056C1098.9 702.728 1098.98 702.344 1098.98 701.904C1098.98 701.248 1098.8 700.732 1098.45 700.356C1098.11 699.972 1097.66 699.78 1097.11 699.78C1096.56 699.78 1096.11 699.972 1095.76 700.356C1095.42 700.74 1095.25 701.256 1095.25 701.904C1095.25 702.344 1095.32 702.728 1095.47 703.056C1095.63 703.384 1095.85 703.64 1096.13 703.824C1096.42 704.008 1096.75 704.1 1097.11 704.1ZM1107.16 705.108C1106.59 705.108 1106.11 704.972 1105.72 704.7C1105.35 704.42 1105.1 704.032 1104.98 703.536L1105.15 703.512V707.46H1103.9V698.88H1105.09V700.284L1104.97 700.248C1105.1 699.784 1105.37 699.42 1105.78 699.156C1106.2 698.892 1106.69 698.76 1107.25 698.76C1107.8 698.76 1108.28 698.892 1108.68 699.156C1109.08 699.42 1109.4 699.788 1109.61 700.26C1109.84 700.732 1109.95 701.284 1109.95 701.916C1109.95 702.556 1109.83 703.116 1109.6 703.596C1109.37 704.076 1109.04 704.448 1108.63 704.712C1108.21 704.976 1107.72 705.108 1107.16 705.108ZM1106.9 704.076C1107.44 704.076 1107.88 703.884 1108.2 703.5C1108.52 703.116 1108.68 702.588 1108.68 701.916C1108.68 701.252 1108.52 700.736 1108.2 700.368C1107.88 699.992 1107.44 699.804 1106.89 699.804C1106.34 699.804 1105.91 699.996 1105.58 700.38C1105.26 700.756 1105.1 701.28 1105.1 701.952C1105.1 702.608 1105.26 703.128 1105.58 703.512C1105.91 703.888 1106.35 704.076 1106.9 704.076ZM1113.96 705.12C1113.33 705.12 1112.79 704.984 1112.31 704.712C1111.84 704.432 1111.47 704.052 1111.21 703.572C1110.95 703.084 1110.81 702.532 1110.81 701.916C1110.81 701.292 1110.95 700.744 1111.21 700.272C1111.48 699.8 1111.85 699.432 1112.31 699.168C1112.79 698.896 1113.33 698.76 1113.96 698.76C1114.59 698.76 1115.14 698.896 1115.61 699.168C1116.09 699.432 1116.45 699.8 1116.71 700.272C1116.97 700.744 1117.1 701.292 1117.1 701.916C1117.1 702.532 1116.97 703.084 1116.71 703.572C1116.45 704.052 1116.09 704.432 1115.61 704.712C1115.14 704.984 1114.59 705.12 1113.96 705.12ZM1113.96 704.1C1114.33 704.1 1114.66 704.008 1114.93 703.824C1115.21 703.64 1115.43 703.384 1115.59 703.056C1115.75 702.728 1115.83 702.344 1115.83 701.904C1115.83 701.248 1115.65 700.732 1115.3 700.356C1114.96 699.972 1114.51 699.78 1113.96 699.78C1113.41 699.78 1112.97 699.972 1112.61 700.356C1112.27 700.74 1112.1 701.256 1112.1 701.904C1112.1 702.344 1112.17 702.728 1112.33 703.056C1112.49 703.384 1112.71 703.64 1112.99 703.824C1113.27 704.008 1113.6 704.1 1113.96 704.1ZM1118.38 705V698.88H1119.57V700.404H1119.63V705H1118.38ZM1119.63 701.808L1119.48 700.356C1119.62 699.836 1119.87 699.44 1120.22 699.168C1120.57 698.896 1120.99 698.76 1121.48 698.76C1121.66 698.76 1121.79 698.776 1121.86 698.808V699.984C1121.82 699.968 1121.77 699.96 1121.7 699.96C1121.62 699.952 1121.54 699.948 1121.43 699.948C1120.83 699.948 1120.38 700.104 1120.08 700.416C1119.78 700.728 1119.63 701.192 1119.63 701.808ZM1122.86 705V703.512H1124.34V705H1122.86ZM1122.86 700.656V699.168H1124.34V700.656H1122.86ZM1129.24 705.12C1128.94 705.12 1128.65 705.096 1128.37 705.048C1128.09 705.008 1127.88 704.956 1127.75 704.892V703.812C1127.93 703.884 1128.14 703.944 1128.39 703.992C1128.64 704.04 1128.89 704.064 1129.15 704.064C1129.67 704.064 1130.07 703.956 1130.33 703.74C1130.61 703.516 1130.74 703.164 1130.74 702.684V696.36H1132.01V702.732C1132.01 703.532 1131.78 704.132 1131.31 704.532C1130.83 704.924 1130.15 705.12 1129.24 705.12ZM1137.4 705C1137.36 704.848 1137.33 704.68 1137.31 704.496C1137.31 704.312 1137.3 704.088 1137.3 703.824H1137.24V700.908C1137.24 700.516 1137.14 700.224 1136.94 700.032C1136.75 699.832 1136.44 699.732 1136.02 699.732C1135.61 699.732 1135.28 699.812 1135.03 699.972C1134.79 700.132 1134.65 700.36 1134.61 700.656H1133.43C1133.48 700.08 1133.74 699.62 1134.21 699.276C1134.67 698.932 1135.29 698.76 1136.07 698.76C1136.87 698.76 1137.47 698.948 1137.87 699.324C1138.27 699.692 1138.47 700.236 1138.47 700.956V703.824C1138.47 704.008 1138.48 704.196 1138.5 704.388C1138.53 704.58 1138.56 704.784 1138.61 705H1137.4ZM1135.29 705.12C1134.66 705.12 1134.17 704.968 1133.8 704.664C1133.43 704.352 1133.25 703.932 1133.25 703.404C1133.25 702.86 1133.44 702.432 1133.82 702.12C1134.21 701.8 1134.77 701.584 1135.5 701.472L1137.52 701.148V702.024L1135.69 702.312C1135.29 702.376 1134.98 702.484 1134.77 702.636C1134.57 702.788 1134.47 703.008 1134.47 703.296C1134.47 703.576 1134.56 703.788 1134.75 703.932C1134.94 704.068 1135.21 704.136 1135.57 704.136C1136.05 704.136 1136.45 704.02 1136.76 703.788C1137.08 703.556 1137.24 703.264 1137.24 702.912L1137.4 703.8C1137.25 704.224 1137 704.552 1136.63 704.784C1136.26 705.008 1135.81 705.12 1135.29 705.12ZM1140.08 705V698.88H1141.32V705H1140.08ZM1140.02 697.68V696.276H1141.4V697.68H1140.02ZM1143.08 705V698.88H1144.26V700.404H1144.32V705H1143.08ZM1144.32 701.808L1144.17 700.356C1144.31 699.836 1144.56 699.44 1144.91 699.168C1145.26 698.896 1145.68 698.76 1146.17 698.76C1146.36 698.76 1146.48 698.776 1146.56 698.808V699.984C1146.52 699.968 1146.46 699.96 1146.39 699.96C1146.32 699.952 1146.23 699.948 1146.12 699.948C1145.52 699.948 1145.07 700.104 1144.77 700.416C1144.47 700.728 1144.32 701.192 1144.32 701.808ZM1153.85 705.12C1153.25 705.12 1152.7 705.012 1152.18 704.796C1151.67 704.572 1151.23 704.264 1150.85 703.872C1150.48 703.472 1150.2 703 1149.99 702.456C1149.78 701.912 1149.68 701.316 1149.68 700.668C1149.68 700.02 1149.78 699.428 1149.98 698.892C1150.18 698.348 1150.47 697.88 1150.84 697.488C1151.22 697.088 1151.66 696.78 1152.17 696.564C1152.68 696.348 1153.24 696.24 1153.84 696.24C1154.51 696.24 1155.12 696.376 1155.65 696.648C1156.19 696.912 1156.62 697.288 1156.96 697.776C1157.3 698.264 1157.52 698.832 1157.6 699.48H1156.35C1156.24 698.8 1155.97 698.272 1155.52 697.896C1155.08 697.512 1154.52 697.32 1153.85 697.32C1153.28 697.32 1152.78 697.46 1152.34 697.74C1151.91 698.012 1151.57 698.4 1151.33 698.904C1151.09 699.4 1150.97 699.988 1150.97 700.668C1150.97 701.34 1151.09 701.932 1151.33 702.444C1151.58 702.948 1151.92 703.34 1152.35 703.62C1152.78 703.9 1153.28 704.04 1153.85 704.04C1154.52 704.04 1155.08 703.852 1155.53 703.476C1155.99 703.092 1156.26 702.56 1156.36 701.88H1157.62C1157.53 702.536 1157.32 703.108 1156.97 703.596C1156.63 704.076 1156.19 704.452 1155.65 704.724C1155.12 704.988 1154.52 705.12 1153.85 705.12ZM1162.57 705C1162.53 704.848 1162.5 704.68 1162.49 704.496C1162.48 704.312 1162.47 704.088 1162.47 703.824H1162.41V700.908C1162.41 700.516 1162.31 700.224 1162.11 700.032C1161.92 699.832 1161.61 699.732 1161.19 699.732C1160.78 699.732 1160.45 699.812 1160.21 699.972C1159.97 700.132 1159.83 700.36 1159.79 700.656H1158.6C1158.65 700.08 1158.91 699.62 1159.38 699.276C1159.84 698.932 1160.46 698.76 1161.24 698.76C1162.04 698.76 1162.64 698.948 1163.04 699.324C1163.44 699.692 1163.64 700.236 1163.64 700.956V703.824C1163.64 704.008 1163.65 704.196 1163.67 704.388C1163.7 704.58 1163.73 704.784 1163.78 705H1162.57ZM1160.46 705.12C1159.83 705.12 1159.34 704.968 1158.97 704.664C1158.6 704.352 1158.42 703.932 1158.42 703.404C1158.42 702.86 1158.61 702.432 1158.99 702.12C1159.39 701.8 1159.95 701.584 1160.67 701.472L1162.69 701.148V702.024L1160.87 702.312C1160.46 702.376 1160.15 702.484 1159.94 702.636C1159.74 702.788 1159.64 703.008 1159.64 703.296C1159.64 703.576 1159.73 703.788 1159.92 703.932C1160.11 704.068 1160.39 704.136 1160.75 704.136C1161.23 704.136 1161.62 704.02 1161.93 703.788C1162.25 703.556 1162.41 703.264 1162.41 702.912L1162.57 703.8C1162.43 704.224 1162.17 704.552 1161.8 704.784C1161.43 705.008 1160.99 705.12 1160.46 705.12ZM1165.33 705V698.88H1166.52V700.32H1166.58V705H1165.33ZM1169.46 705V701.004C1169.46 700.588 1169.36 700.284 1169.17 700.092C1168.98 699.9 1168.7 699.804 1168.34 699.804C1168.01 699.804 1167.7 699.884 1167.43 700.044C1167.17 700.196 1166.96 700.412 1166.81 700.692C1166.65 700.964 1166.58 701.288 1166.58 701.664L1166.42 700.236C1166.62 699.78 1166.92 699.42 1167.32 699.156C1167.73 698.892 1168.19 698.76 1168.69 698.76C1169.3 698.76 1169.78 698.936 1170.14 699.288C1170.51 699.64 1170.69 700.104 1170.69 700.68V705H1169.46ZM1173.59 705V701.004C1173.59 700.588 1173.49 700.284 1173.29 700.092C1173.09 699.9 1172.82 699.804 1172.46 699.804C1172.13 699.804 1171.83 699.884 1171.56 700.044C1171.29 700.196 1171.08 700.412 1170.92 700.692C1170.77 700.964 1170.69 701.288 1170.69 701.664L1170.44 700.236C1170.65 699.78 1170.96 699.42 1171.38 699.156C1171.8 698.892 1172.27 698.76 1172.79 698.76C1173.41 698.76 1173.9 698.94 1174.27 699.3C1174.64 699.652 1174.82 700.124 1174.82 700.716V705H1173.59ZM1179.76 705.108C1179.19 705.108 1178.71 704.972 1178.32 704.7C1177.95 704.42 1177.7 704.032 1177.58 703.536L1177.75 703.512V707.46H1176.5V698.88H1177.69V700.284L1177.57 700.248C1177.69 699.784 1177.97 699.42 1178.38 699.156C1178.8 698.892 1179.29 698.76 1179.85 698.76C1180.4 698.76 1180.87 698.892 1181.27 699.156C1181.68 699.42 1181.99 699.788 1182.21 700.26C1182.43 700.732 1182.55 701.284 1182.55 701.916C1182.55 702.556 1182.43 703.116 1182.2 703.596C1181.97 704.076 1181.64 704.448 1181.23 704.712C1180.81 704.976 1180.32 705.108 1179.76 705.108ZM1179.5 704.076C1180.04 704.076 1180.47 703.884 1180.79 703.5C1181.11 703.116 1181.27 702.588 1181.27 701.916C1181.27 701.252 1181.11 700.736 1180.79 700.368C1180.47 699.992 1180.04 699.804 1179.49 699.804C1178.94 699.804 1178.51 699.996 1178.18 700.38C1177.86 700.756 1177.7 701.28 1177.7 701.952C1177.7 702.608 1177.86 703.128 1178.18 703.512C1178.51 703.888 1178.95 704.076 1179.5 704.076ZM1186.53 705.12C1185.92 705.12 1185.37 704.984 1184.9 704.712C1184.44 704.44 1184.07 704.064 1183.81 703.584C1183.54 703.104 1183.41 702.552 1183.41 701.928C1183.41 701.296 1183.54 700.744 1183.8 700.272C1184.06 699.792 1184.43 699.42 1184.9 699.156C1185.37 698.892 1185.91 698.76 1186.52 698.76C1187.11 698.76 1187.62 698.888 1188.06 699.144C1188.5 699.392 1188.83 699.74 1189.06 700.188C1189.3 700.636 1189.42 701.168 1189.42 701.784C1189.42 701.88 1189.42 701.972 1189.41 702.06C1189.41 702.14 1189.4 702.224 1189.39 702.312H1184.25V701.376H1188.51L1188.2 701.748C1188.2 701.092 1188.05 700.592 1187.76 700.248C1187.46 699.904 1187.05 699.732 1186.52 699.732C1185.95 699.732 1185.5 699.928 1185.16 700.32C1184.84 700.704 1184.67 701.24 1184.67 701.928C1184.67 702.624 1184.84 703.168 1185.16 703.56C1185.5 703.952 1185.96 704.148 1186.56 704.148C1186.92 704.148 1187.23 704.076 1187.49 703.932C1187.76 703.78 1187.95 703.56 1188.08 703.272H1189.26C1189.06 703.848 1188.72 704.3 1188.24 704.628C1187.76 704.956 1187.2 705.12 1186.53 705.12ZM1190.7 705V696.36H1191.95V705H1190.7ZM1196.36 705.12C1195.74 705.12 1195.19 704.984 1194.72 704.712C1194.25 704.432 1193.88 704.052 1193.62 703.572C1193.35 703.084 1193.22 702.532 1193.22 701.916C1193.22 701.292 1193.35 700.744 1193.62 700.272C1193.89 699.8 1194.26 699.432 1194.72 699.168C1195.19 698.896 1195.74 698.76 1196.36 698.76C1197 698.76 1197.55 698.896 1198.02 699.168C1198.49 699.432 1198.86 699.8 1199.11 700.272C1199.38 700.744 1199.51 701.292 1199.51 701.916C1199.51 702.532 1199.38 703.084 1199.11 703.572C1198.86 704.052 1198.49 704.432 1198.02 704.712C1197.55 704.984 1197 705.12 1196.36 705.12ZM1196.36 704.1C1196.74 704.1 1197.06 704.008 1197.34 703.824C1197.62 703.64 1197.84 703.384 1198 703.056C1198.16 702.728 1198.24 702.344 1198.24 701.904C1198.24 701.248 1198.06 700.732 1197.71 700.356C1197.36 699.972 1196.92 699.78 1196.36 699.78C1195.82 699.78 1195.37 699.972 1195.02 700.356C1194.68 700.74 1194.5 701.256 1194.5 701.904C1194.5 702.344 1194.58 702.728 1194.73 703.056C1194.89 703.384 1195.11 703.64 1195.39 703.824C1195.68 704.008 1196 704.1 1196.36 704.1Z" fill="#1A0F2E" fill-opacity="0.54"/>
<g filter="url(#filter0_d_2_2)">
<rect x="20" y="292" width="1240" height="388" rx="10" fill="white"/>
</g>
<g filter="url(#filter1_d_2_2)">
<rect x="965" y="104" width="295" height="148" rx="10" fill="white"/>
</g>
<g filter="url(#filter2_d_2_2)">
<rect x="650" y="104" width="295" height="148" rx="10" fill="white"/>
</g>
<g filter="url(#filter3_d_2_2)">
<rect x="335" y="104" width="295" height="148" rx="10" fill="white"/>
</g>
<g filter="url(#filter4_d_2_2)">
<rect x="20" y="104" width="295" height="148" rx="10" fill="white"/>
</g>
<defs>
<filter id="filter0_d_2_2" x="16" y="288" width="1252" height="400" filterUnits="userSpaceOnUse" color-interpolation-filters="sRGB">
<feFlood flood-opacity="0" result="BackgroundImageFix"/>
<feColorMatrix in="SourceAlpha" type="matrix" values="0 0 0 0 0 0 0 0 0 0 0 0 0 0 0 0 0 0 127 0" result="hardAlpha"/>
<feOffset dx="2" dy="2"/>
<feGaussianBlur stdDeviation="3"/>
<feComposite in2="hardAlpha" operator="out"/>
<feColorMatrix type="matrix" values="0 0 0 0 0 0 0 0 0 0 0 0 0 0 0 0 0 0 0.25 0"/>
<feBlend mode="normal" in2="BackgroundImageFix" result="effect1_dropShadow_2_2"/>
<feBlend mode="normal" in="SourceGraphic" in2="effect1_dropShadow_2_2" result="shape"/>
</filter>
<filter id="filter1_d_2_2" x="961" y="100" width="307" height="160" filterUnits="userSpaceOnUse" color-interpolation-filters="sRGB">
<feFlood flood-opacity="0" result="BackgroundImageFix"/>
<feColorMatrix in="SourceAlpha" type="matrix" values="0 0 0 0 0 0 0 0 0 0 0 0 0 0 0 0 0 0 127 0" result="hardAlpha"/>
<feOffset dx="2" dy="2"/>
<feGaussianBlur stdDeviation="3"/>
<feComposite in2="hardAlpha" operator="out"/>
<feColorMatrix type="matrix" values="0 0 0 0 0 0 0 0 0 0 0 0 0 0 0 0 0 0 0.25 0"/>
<feBlend mode="normal" in2="BackgroundImageFix" result="effect1_dropShadow_2_2"/>
<feBlend mode="normal" in="SourceGraphic" in2="effect1_dropShadow_2_2" result="shape"/>
</filter>
<filter id="filter2_d_2_2" x="646" y="100" width="307" height="160" filterUnits="userSpaceOnUse" color-interpolation-filters="sRGB">
<feFlood flood-opacity="0" result="BackgroundImageFix"/>
<feColorMatrix in="SourceAlpha" type="matrix" values="0 0 0 0 0 0 0 0 0 0 0 0 0 0 0 0 0 0 127 0" result="hardAlpha"/>
<feOffset dx="2" dy="2"/>
<feGaussianBlur stdDeviation="3"/>
<feComposite in2="hardAlpha" operator="out"/>
<feColorMatrix type="matrix" values="0 0 0 0 0 0 0 0 0 0 0 0 0 0 0 0 0 0 0.25 0"/>
<feBlend mode="normal" in2="BackgroundImageFix" result="effect1_dropShadow_2_2"/>
<feBlend mode="normal" in="SourceGraphic" in2="effect1_dropShadow_2_2" result="shape"/>
</filter>
<filter id="filter3_d_2_2" x="331" y="100" width="307" height="160" filterUnits="userSpaceOnUse" color-interpolation-filters="sRGB">
<feFlood flood-opacity="0" result="BackgroundImageFix"/>
<feColorMatrix in="SourceAlpha" type="matrix" values="0 0 0 0 0 0 0 0 0 0 0 0 0 0 0 0 0 0 127 0" result="hardAlpha"/>
<feOffset dx="2" dy="2"/>
<feGaussianBlur stdDeviation="3"/>
<feComposite in2="hardAlpha" operator="out"/>
<feColorMatrix type="matrix" values="0 0 0 0 0 0 0 0 0 0 0 0 0 0 0 0 0 0 0.25 0"/>
<feBlend mode="normal" in2="BackgroundImageFix" result="effect1_dropShadow_2_2"/>
<feBlend mode="normal" in="SourceGraphic" in2="effect1_dropShadow_2_2" result="shape"/>
</filter>
<filter id="filter4_d_2_2" x="16" y="100" width="307" height="160" filterUnits="userSpaceOnUse" color-interpolation-filters="sRGB">
<feFlood flood-opacity="0" result="BackgroundImageFix"/>
<feColorMatrix in="SourceAlpha" type="matrix" values="0 0 0 0 0 0 0 0 0 0 0 0 0 0 0 0 0 0 127 0" result="hardAlpha"/>
<feOffset dx="2" dy="2"/>
<feGaussianBlur stdDeviation="3"/>
<feComposite in2="hardAlpha" operator="out"/>
<feColorMatrix type="matrix" values="0 0 0 0 0 0 0 0 0 0 0 0 0 0 0 0 0 0 0.25 0"/>
<feBlend mode="normal" in2="BackgroundImageFix" result="effect1_dropShadow_2_2"/>
<feBlend mode="normal" in="SourceGraphic" in2="effect1_dropShadow_2_2" result="shape"/>
</filter>
</defs>
</svg>
