<svg width="1280" height="720" viewBox="0 0 1280 720" fill="none" xmlns="http://www.w3.org/2000/svg">
<rect width="1280" height="720" fill="#ECECEC"/>
<path d="M1225.56 699C1225.94 699 1226.31 699.152 1226.58 699.423C1226.85 699.694 1227 700.061 1227 700.444V710.556C1227 710.939 1226.85 711.306 1226.58 711.577C1226.31 711.848 1225.94 712 1225.56 712H1215.44C1215.06 712 1214.69 711.848 1214.42 711.577C1214.15 711.306 1214 710.939 1214 710.556V700.444C1214 700.061 1214.15 699.694 1214.42 699.423C1214.69 699.152 1215.06 699 1215.44 699H1225.56ZM1225.19 710.194V706.367C1225.19 705.742 1224.95 705.143 1224.5 704.702C1224.06 704.26 1223.46 704.012 1222.84 704.012C1222.23 704.012 1221.51 704.388 1221.16 704.951V704.149H1219.15V710.194H1221.16V706.634C1221.16 706.078 1221.61 705.623 1222.17 705.623C1222.44 705.623 1222.69 705.729 1222.88 705.919C1223.07 706.109 1223.18 706.366 1223.18 706.634V710.194H1225.19ZM1216.8 703.016C1217.12 703.016 1217.43 702.888 1217.66 702.66C1217.89 702.433 1218.02 702.124 1218.02 701.802C1218.02 701.131 1217.47 700.582 1216.8 700.582C1216.48 700.582 1216.17 700.71 1215.94 700.939C1215.71 701.168 1215.58 701.479 1215.58 701.802C1215.58 702.474 1216.13 703.016 1216.8 703.016ZM1217.81 710.194V704.149H1215.81V710.194H1217.81Z" fill="#1A0F2E" fill-opacity="0.54"/>
<path d="M1245.6 712C1245.16 712 1244.78 711.841 1244.47 711.523C1244.16 711.205 1244 710.822 1244 710.375V700.625C1244 700.178 1244.16 699.796 1244.47 699.478C1244.78 699.16 1245.16 699.001 1245.6 699H1250.4L1252 700.625H1258.4C1258.84 700.625 1259.22 700.784 1259.53 701.103C1259.84 701.421 1260 701.804 1260 702.25V710.375C1260 710.822 1259.84 711.205 1259.53 711.523C1259.22 711.842 1258.84 712.001 1258.4 712H1245.6Z" fill="#1A0F2E" fill-opacity="0.54"/>
<path d="M1026.66 710V708.944H1028.92C1029.61 708.944 1030.2 708.804 1030.69 708.524C1031.18 708.244 1031.56 707.856 1031.83 707.36C1032.09 706.864 1032.22 706.288 1032.22 705.632C1032.22 704.984 1032.09 704.42 1031.83 703.94C1031.57 703.46 1031.2 703.088 1030.7 702.824C1030.21 702.552 1029.62 702.416 1028.92 702.416H1026.67V701.36H1028.92C1029.85 701.36 1030.66 701.536 1031.35 701.888C1032.04 702.24 1032.57 702.74 1032.94 703.388C1033.33 704.028 1033.52 704.784 1033.52 705.656C1033.52 706.528 1033.33 707.292 1032.94 707.948C1032.56 708.596 1032.02 709.1 1031.34 709.46C1030.66 709.82 1029.86 710 1028.94 710H1026.66ZM1025.89 710V701.36H1027.16V710H1025.89ZM1037.52 710.12C1036.9 710.12 1036.36 709.984 1035.88 709.712C1035.42 709.44 1035.06 709.064 1034.79 708.584C1034.53 708.104 1034.4 707.552 1034.4 706.928C1034.4 706.296 1034.52 705.744 1034.78 705.272C1035.04 704.792 1035.41 704.42 1035.88 704.156C1036.36 703.892 1036.9 703.76 1037.5 703.76C1038.1 703.76 1038.61 703.888 1039.04 704.144C1039.48 704.392 1039.82 704.74 1040.05 705.188C1040.29 705.636 1040.41 706.168 1040.41 706.784C1040.41 706.88 1040.4 706.972 1040.4 707.06C1040.4 707.14 1040.39 707.224 1040.37 707.312H1035.24V706.376H1039.5L1039.18 706.748C1039.18 706.092 1039.04 705.592 1038.74 705.248C1038.44 704.904 1038.03 704.732 1037.5 704.732C1036.94 704.732 1036.48 704.928 1036.15 705.32C1035.82 705.704 1035.66 706.24 1035.66 706.928C1035.66 707.624 1035.82 708.168 1036.15 708.56C1036.48 708.952 1036.95 709.148 1037.54 709.148C1037.9 709.148 1038.21 709.076 1038.48 708.932C1038.74 708.78 1038.94 708.56 1039.06 708.272H1040.24C1040.04 708.848 1039.7 709.3 1039.22 709.628C1038.75 709.956 1038.18 710.12 1037.52 710.12ZM1043.92 710.12C1043.12 710.12 1042.48 709.944 1042.01 709.592C1041.54 709.24 1041.27 708.744 1041.2 708.104H1042.36C1042.41 708.456 1042.57 708.728 1042.84 708.92C1043.11 709.104 1043.48 709.196 1043.94 709.196C1044.35 709.196 1044.66 709.124 1044.88 708.98C1045.09 708.836 1045.2 708.632 1045.2 708.368C1045.2 708.176 1045.14 708.016 1045.01 707.888C1044.89 707.752 1044.65 707.64 1044.29 707.552L1043.3 707.324C1042.69 707.172 1042.23 706.948 1041.92 706.652C1041.63 706.348 1041.48 705.976 1041.48 705.536C1041.48 704.984 1041.68 704.552 1042.09 704.24C1042.51 703.92 1043.08 703.76 1043.8 703.76C1044.51 703.76 1045.08 703.92 1045.51 704.24C1045.95 704.56 1046.2 705.008 1046.26 705.584H1045.1C1045.06 705.296 1044.92 705.076 1044.68 704.924C1044.46 704.764 1044.15 704.684 1043.76 704.684C1043.39 704.684 1043.11 704.752 1042.91 704.888C1042.72 705.016 1042.62 705.196 1042.62 705.428C1042.62 705.62 1042.69 705.78 1042.84 705.908C1042.99 706.036 1043.24 706.144 1043.58 706.232L1044.59 706.484C1045.17 706.628 1045.61 706.864 1045.91 707.192C1046.2 707.512 1046.35 707.9 1046.35 708.356C1046.35 708.908 1046.14 709.34 1045.7 709.652C1045.28 709.964 1044.68 710.12 1043.92 710.12ZM1050.36 710.12C1049.74 710.12 1049.2 709.984 1048.73 709.712C1048.26 709.44 1047.9 709.064 1047.64 708.584C1047.37 708.104 1047.24 707.552 1047.24 706.928C1047.24 706.296 1047.37 705.744 1047.62 705.272C1047.89 704.792 1048.26 704.42 1048.73 704.156C1049.2 703.892 1049.74 703.76 1050.35 703.76C1050.94 703.76 1051.45 703.888 1051.88 704.144C1052.32 704.392 1052.66 704.74 1052.89 705.188C1053.13 705.636 1053.25 706.168 1053.25 706.784C1053.25 706.88 1053.25 706.972 1053.24 707.06C1053.24 707.14 1053.23 707.224 1053.22 707.312H1048.08V706.376H1052.34L1052.03 706.748C1052.03 706.092 1051.88 705.592 1051.58 705.248C1051.29 704.904 1050.88 704.732 1050.35 704.732C1049.78 704.732 1049.33 704.928 1048.99 705.32C1048.66 705.704 1048.5 706.24 1048.5 706.928C1048.5 707.624 1048.66 708.168 1048.99 708.56C1049.33 708.952 1049.79 709.148 1050.38 709.148C1050.74 709.148 1051.06 709.076 1051.32 708.932C1051.58 708.78 1051.78 708.56 1051.91 708.272H1053.08C1052.88 708.848 1052.54 709.3 1052.06 709.628C1051.59 709.956 1051.02 710.12 1050.36 710.12ZM1054.53 710V703.88H1055.72V705.32H1055.78V710H1054.53ZM1058.87 710V706.064C1058.87 705.64 1058.76 705.324 1058.55 705.116C1058.34 704.908 1058.03 704.804 1057.61 704.804C1057.25 704.804 1056.93 704.884 1056.65 705.044C1056.38 705.204 1056.16 705.424 1056 705.704C1055.85 705.984 1055.78 706.316 1055.78 706.7L1055.62 705.236C1055.82 704.78 1056.13 704.42 1056.54 704.156C1056.96 703.892 1057.44 703.76 1058 703.76C1058.65 703.76 1059.17 703.944 1059.54 704.312C1059.92 704.68 1060.11 705.168 1060.11 705.776V710H1058.87ZM1063.31 710L1060.82 703.88H1062.15L1064.19 709.436H1063.6L1065.62 703.88H1066.9L1064.42 710H1063.31ZM1070.42 710.12C1069.8 710.12 1069.25 709.984 1068.78 709.712C1068.31 709.432 1067.94 709.052 1067.67 708.572C1067.41 708.084 1067.28 707.532 1067.28 706.916C1067.28 706.292 1067.41 705.744 1067.67 705.272C1067.95 704.8 1068.31 704.432 1068.78 704.168C1069.25 703.896 1069.8 703.76 1070.42 703.76C1071.05 703.76 1071.61 703.896 1072.08 704.168C1072.55 704.432 1072.91 704.8 1073.17 705.272C1073.43 705.744 1073.57 706.292 1073.57 706.916C1073.57 707.532 1073.43 708.084 1073.17 708.572C1072.91 709.052 1072.55 709.432 1072.08 709.712C1071.61 709.984 1071.05 710.12 1070.42 710.12ZM1070.42 709.1C1070.8 709.1 1071.12 709.008 1071.39 708.824C1071.67 708.64 1071.89 708.384 1072.05 708.056C1072.21 707.728 1072.29 707.344 1072.29 706.904C1072.29 706.248 1072.12 705.732 1071.77 705.356C1071.42 704.972 1070.97 704.78 1070.42 704.78C1069.88 704.78 1069.43 704.972 1069.08 705.356C1068.73 705.74 1068.56 706.256 1068.56 706.904C1068.56 707.344 1068.64 707.728 1068.79 708.056C1068.95 708.384 1069.17 708.64 1069.45 708.824C1069.74 709.008 1070.06 709.1 1070.42 709.1ZM1074.85 710V701.36H1076.1V710H1074.85ZM1079.6 710L1077.1 703.88H1078.44L1080.48 709.436H1079.89L1081.9 703.88H1083.19L1080.7 710H1079.6ZM1084.12 710V703.88H1085.37V710H1084.12ZM1084.06 702.68V701.276H1085.44V702.68H1084.06ZM1091.5 710V708.596L1091.62 708.632C1091.49 709.088 1091.23 709.452 1090.83 709.724C1090.43 709.988 1089.95 710.12 1089.39 710.12C1088.84 710.12 1088.35 709.988 1087.94 709.724C1087.53 709.46 1087.21 709.092 1086.98 708.62C1086.75 708.148 1086.64 707.596 1086.64 706.964C1086.64 706.324 1086.76 705.764 1086.99 705.284C1087.22 704.804 1087.54 704.432 1087.96 704.168C1088.38 703.904 1088.86 703.772 1089.42 703.772C1090.01 703.772 1090.49 703.912 1090.86 704.192C1091.25 704.464 1091.5 704.848 1091.62 705.344L1091.45 705.368V701.36H1092.69V710H1091.5ZM1089.7 709.076C1090.25 709.076 1090.69 708.888 1091.01 708.512C1091.33 708.128 1091.49 707.6 1091.49 706.928C1091.49 706.272 1091.32 705.756 1091 705.38C1090.68 704.996 1090.24 704.804 1089.69 704.804C1089.14 704.804 1088.71 704.996 1088.39 705.38C1088.08 705.756 1087.92 706.284 1087.92 706.964C1087.92 707.628 1088.08 708.148 1088.39 708.524C1088.71 708.892 1089.15 709.076 1089.7 709.076ZM1097.11 710.12C1096.48 710.12 1095.93 709.984 1095.46 709.712C1094.99 709.432 1094.62 709.052 1094.36 708.572C1094.09 708.084 1093.96 707.532 1093.96 706.916C1093.96 706.292 1094.09 705.744 1094.36 705.272C1094.63 704.8 1095 704.432 1095.46 704.168C1095.93 703.896 1096.48 703.76 1097.11 703.76C1097.74 703.76 1098.29 703.896 1098.76 704.168C1099.23 704.432 1099.6 704.8 1099.85 705.272C1100.12 705.744 1100.25 706.292 1100.25 706.916C1100.25 707.532 1100.12 708.084 1099.85 708.572C1099.6 709.052 1099.23 709.432 1098.76 709.712C1098.29 709.984 1097.74 710.12 1097.11 710.12ZM1097.11 709.1C1097.48 709.1 1097.81 709.008 1098.08 708.824C1098.36 708.64 1098.58 708.384 1098.74 708.056C1098.9 707.728 1098.98 707.344 1098.98 706.904C1098.98 706.248 1098.8 705.732 1098.45 705.356C1098.11 704.972 1097.66 704.78 1097.11 704.78C1096.56 704.78 1096.11 704.972 1095.76 705.356C1095.42 705.74 1095.25 706.256 1095.25 706.904C1095.25 707.344 1095.32 707.728 1095.47 708.056C1095.63 708.384 1095.85 708.64 1096.13 708.824C1096.42 709.008 1096.75 709.1 1097.11 709.1ZM1107.16 710.108C1106.59 710.108 1106.11 709.972 1105.72 709.7C1105.35 709.42 1105.1 709.032 1104.98 708.536L1105.15 708.512V712.46H1103.9V703.88H1105.09V705.284L1104.97 705.248C1105.1 704.784 1105.37 704.42 1105.78 704.156C1106.2 703.892 1106.69 703.76 1107.25 703.76C1107.8 703.76 1108.28 703.892 1108.68 704.156C1109.08 704.42 1109.4 704.788 1109.61 705.26C1109.84 705.732 1109.95 706.284 1109.95 706.916C1109.95 707.556 1109.83 708.116 1109.6 708.596C1109.37 709.076 1109.04 709.448 1108.63 709.712C1108.21 709.976 1107.72 710.108 1107.16 710.108ZM1106.9 709.076C1107.44 709.076 1107.88 708.884 1108.2 708.5C1108.52 708.116 1108.68 707.588 1108.68 706.916C1108.68 706.252 1108.52 705.736 1108.2 705.368C1107.88 704.992 1107.44 704.804 1106.89 704.804C1106.34 704.804 1105.91 704.996 1105.58 705.38C1105.26 705.756 1105.1 706.28 1105.1 706.952C1105.1 707.608 1105.26 708.128 1105.58 708.512C1105.91 708.888 1106.35 709.076 1106.9 709.076ZM1113.96 710.12C1113.33 710.12 1112.79 709.984 1112.31 709.712C1111.84 709.432 1111.47 709.052 1111.21 708.572C1110.95 708.084 1110.81 707.532 1110.81 706.916C1110.81 706.292 1110.95 705.744 1111.21 705.272C1111.48 704.8 1111.85 704.432 1112.31 704.168C1112.79 703.896 1113.33 703.76 1113.96 703.76C1114.59 703.76 1115.14 703.896 1115.61 704.168C1116.09 704.432 1116.45 704.8 1116.71 705.272C1116.97 705.744 1117.1 706.292 1117.1 706.916C1117.1 707.532 1116.97 708.084 1116.71 708.572C1116.45 709.052 1116.09 709.432 1115.61 709.712C1115.14 709.984 1114.59 710.12 1113.96 710.12ZM1113.96 709.1C1114.33 709.1 1114.66 709.008 1114.93 708.824C1115.21 708.64 1115.43 708.384 1115.59 708.056C1115.75 707.728 1115.83 707.344 1115.83 706.904C1115.83 706.248 1115.65 705.732 1115.3 705.356C1114.96 704.972 1114.51 704.78 1113.96 704.78C1113.41 704.78 1112.97 704.972 1112.61 705.356C1112.27 705.74 1112.1 706.256 1112.1 706.904C1112.1 707.344 1112.17 707.728 1112.33 708.056C1112.49 708.384 1112.71 708.64 1112.99 708.824C1113.27 709.008 1113.6 709.1 1113.96 709.1ZM1118.38 710V703.88H1119.57V705.404H1119.63V710H1118.38ZM1119.63 706.808L1119.48 705.356C1119.62 704.836 1119.87 704.44 1120.22 704.168C1120.57 703.896 1120.99 703.76 1121.48 703.76C1121.66 703.76 1121.79 703.776 1121.86 703.808V704.984C1121.82 704.968 1121.77 704.96 1121.7 704.96C1121.62 704.952 1121.54 704.948 1121.43 704.948C1120.83 704.948 1120.38 705.104 1120.08 705.416C1119.78 705.728 1119.63 706.192 1119.63 706.808ZM1122.86 710V708.512H1124.34V710H1122.86ZM1122.86 705.656V704.168H1124.34V705.656H1122.86ZM1129.24 710.12C1128.94 710.12 1128.65 710.096 1128.37 710.048C1128.09 710.008 1127.88 709.956 1127.75 709.892V708.812C1127.93 708.884 1128.14 708.944 1128.39 708.992C1128.64 709.04 1128.89 709.064 1129.15 709.064C1129.67 709.064 1130.07 708.956 1130.33 708.74C1130.61 708.516 1130.74 708.164 1130.74 707.684V701.36H1132.01V707.732C1132.01 708.532 1131.78 709.132 1131.31 709.532C1130.83 709.924 1130.15 710.12 1129.24 710.12ZM1137.4 710C1137.36 709.848 1137.33 709.68 1137.31 709.496C1137.31 709.312 1137.3 709.088 1137.3 708.824H1137.24V705.908C1137.24 705.516 1137.14 705.224 1136.94 705.032C1136.75 704.832 1136.44 704.732 1136.02 704.732C1135.61 704.732 1135.28 704.812 1135.03 704.972C1134.79 705.132 1134.65 705.36 1134.61 705.656H1133.43C1133.48 705.08 1133.74 704.62 1134.21 704.276C1134.67 703.932 1135.29 703.76 1136.07 703.76C1136.87 703.76 1137.47 703.948 1137.87 704.324C1138.27 704.692 1138.47 705.236 1138.47 705.956V708.824C1138.47 709.008 1138.48 709.196 1138.5 709.388C1138.53 709.58 1138.56 709.784 1138.61 710H1137.4ZM1135.29 710.12C1134.66 710.12 1134.17 709.968 1133.8 709.664C1133.43 709.352 1133.25 708.932 1133.25 708.404C1133.25 707.86 1133.44 707.432 1133.82 707.12C1134.21 706.8 1134.77 706.584 1135.5 706.472L1137.52 706.148V707.024L1135.69 707.312C1135.29 707.376 1134.98 707.484 1134.77 707.636C1134.57 707.788 1134.47 708.008 1134.47 708.296C1134.47 708.576 1134.56 708.788 1134.75 708.932C1134.94 709.068 1135.21 709.136 1135.57 709.136C1136.05 709.136 1136.45 709.02 1136.76 708.788C1137.08 708.556 1137.24 708.264 1137.24 707.912L1137.4 708.8C1137.25 709.224 1137 709.552 1136.63 709.784C1136.26 710.008 1135.81 710.12 1135.29 710.12ZM1140.08 710V703.88H1141.32V710H1140.08ZM1140.02 702.68V701.276H1141.4V702.68H1140.02ZM1143.08 710V703.88H1144.26V705.404H1144.32V710H1143.08ZM1144.32 706.808L1144.17 705.356C1144.31 704.836 1144.56 704.44 1144.91 704.168C1145.26 703.896 1145.68 703.76 1146.17 703.76C1146.36 703.76 1146.48 703.776 1146.56 703.808V704.984C1146.52 704.968 1146.46 704.96 1146.39 704.96C1146.32 704.952 1146.23 704.948 1146.12 704.948C1145.52 704.948 1145.07 705.104 1144.77 705.416C1144.47 705.728 1144.32 706.192 1144.32 706.808ZM1153.85 710.12C1153.25 710.12 1152.7 710.012 1152.18 709.796C1151.67 709.572 1151.23 709.264 1150.85 708.872C1150.48 708.472 1150.2 708 1149.99 707.456C1149.78 706.912 1149.68 706.316 1149.68 705.668C1149.68 705.02 1149.78 704.428 1149.98 703.892C1150.18 703.348 1150.47 702.88 1150.84 702.488C1151.22 702.088 1151.66 701.78 1152.17 701.564C1152.68 701.348 1153.24 701.24 1153.84 701.24C1154.51 701.24 1155.12 701.376 1155.65 701.648C1156.19 701.912 1156.62 702.288 1156.96 702.776C1157.3 703.264 1157.52 703.832 1157.6 704.48H1156.35C1156.24 703.8 1155.97 703.272 1155.52 702.896C1155.08 702.512 1154.52 702.32 1153.85 702.32C1153.28 702.32 1152.78 702.46 1152.34 702.74C1151.91 703.012 1151.57 703.4 1151.33 703.904C1151.09 704.4 1150.97 704.988 1150.97 705.668C1150.97 706.34 1151.09 706.932 1151.33 707.444C1151.58 707.948 1151.92 708.34 1152.35 708.62C1152.78 708.9 1153.28 709.04 1153.85 709.04C1154.52 709.04 1155.08 708.852 1155.53 708.476C1155.99 708.092 1156.26 707.56 1156.36 706.88H1157.62C1157.53 707.536 1157.32 708.108 1156.97 708.596C1156.63 709.076 1156.19 709.452 1155.65 709.724C1155.12 709.988 1154.52 710.12 1153.85 710.12ZM1162.57 710C1162.53 709.848 1162.5 709.68 1162.49 709.496C1162.48 709.312 1162.47 709.088 1162.47 708.824H1162.41V705.908C1162.41 705.516 1162.31 705.224 1162.11 705.032C1161.92 704.832 1161.61 704.732 1161.19 704.732C1160.78 704.732 1160.45 704.812 1160.21 704.972C1159.97 705.132 1159.83 705.36 1159.79 705.656H1158.6C1158.65 705.08 1158.91 704.62 1159.38 704.276C1159.84 703.932 1160.46 703.76 1161.24 703.76C1162.04 703.76 1162.64 703.948 1163.04 704.324C1163.44 704.692 1163.64 705.236 1163.64 705.956V708.824C1163.64 709.008 1163.65 709.196 1163.67 709.388C1163.7 709.58 1163.73 709.784 1163.78 710H1162.57ZM1160.46 710.12C1159.83 710.12 1159.34 709.968 1158.97 709.664C1158.6 709.352 1158.42 708.932 1158.42 708.404C1158.42 707.86 1158.61 707.432 1158.99 707.12C1159.39 706.8 1159.95 706.584 1160.67 706.472L1162.69 706.148V707.024L1160.87 707.312C1160.46 707.376 1160.15 707.484 1159.94 707.636C1159.74 707.788 1159.64 708.008 1159.64 708.296C1159.64 708.576 1159.73 708.788 1159.92 708.932C1160.11 709.068 1160.39 709.136 1160.75 709.136C1161.23 709.136 1161.62 709.02 1161.93 708.788C1162.25 708.556 1162.41 708.264 1162.41 707.912L1162.57 708.8C1162.43 709.224 1162.17 709.552 1161.8 709.784C1161.43 710.008 1160.99 710.12 1160.46 710.12ZM1165.33 710V703.88H1166.52V705.32H1166.58V710H1165.33ZM1169.46 710V706.004C1169.46 705.588 1169.36 705.284 1169.17 705.092C1168.98 704.9 1168.7 704.804 1168.34 704.804C1168.01 704.804 1167.7 704.884 1167.43 705.044C1167.17 705.196 1166.96 705.412 1166.81 705.692C1166.65 705.964 1166.58 706.288 1166.58 706.664L1166.42 705.236C1166.62 704.78 1166.92 704.42 1167.32 704.156C1167.73 703.892 1168.19 703.76 1168.69 703.76C1169.3 703.76 1169.78 703.936 1170.14 704.288C1170.51 704.64 1170.69 705.104 1170.69 705.68V710H1169.46ZM1173.59 710V706.004C1173.59 705.588 1173.49 705.284 1173.29 705.092C1173.09 704.9 1172.82 704.804 1172.46 704.804C1172.13 704.804 1171.83 704.884 1171.56 705.044C1171.29 705.196 1171.08 705.412 1170.92 705.692C1170.77 705.964 1170.69 706.288 1170.69 706.664L1170.44 705.236C1170.65 704.78 1170.96 704.42 1171.38 704.156C1171.8 703.892 1172.27 703.76 1172.79 703.76C1173.41 703.76 1173.9 703.94 1174.27 704.3C1174.64 704.652 1174.82 705.124 1174.82 705.716V710H1173.59ZM1179.76 710.108C1179.19 710.108 1178.71 709.972 1178.32 709.7C1177.95 709.42 1177.7 709.032 1177.58 708.536L1177.75 708.512V712.46H1176.5V703.88H1177.69V705.284L1177.57 705.248C1177.69 704.784 1177.97 704.42 1178.38 704.156C1178.8 703.892 1179.29 703.76 1179.85 703.76C1180.4 703.76 1180.87 703.892 1181.27 704.156C1181.68 704.42 1181.99 704.788 1182.21 705.26C1182.43 705.732 1182.55 706.284 1182.55 706.916C1182.55 707.556 1182.43 708.116 1182.2 708.596C1181.97 709.076 1181.64 709.448 1181.23 709.712C1180.81 709.976 1180.32 710.108 1179.76 710.108ZM1179.5 709.076C1180.04 709.076 1180.47 708.884 1180.79 708.5C1181.11 708.116 1181.27 707.588 1181.27 706.916C1181.27 706.252 1181.11 705.736 1180.79 705.368C1180.47 704.992 1180.04 704.804 1179.49 704.804C1178.94 704.804 1178.51 704.996 1178.18 705.38C1177.86 705.756 1177.7 706.28 1177.7 706.952C1177.7 707.608 1177.86 708.128 1178.18 708.512C1178.51 708.888 1178.95 709.076 1179.5 709.076ZM1186.53 710.12C1185.92 710.12 1185.37 709.984 1184.9 709.712C1184.44 709.44 1184.07 709.064 1183.81 708.584C1183.54 708.104 1183.41 707.552 1183.41 706.928C1183.41 706.296 1183.54 705.744 1183.8 705.272C1184.06 704.792 1184.43 704.42 1184.9 704.156C1185.37 703.892 1185.91 703.76 1186.52 703.76C1187.11 703.76 1187.62 703.888 1188.06 704.144C1188.5 704.392 1188.83 704.74 1189.06 705.188C1189.3 705.636 1189.42 706.168 1189.42 706.784C1189.42 706.88 1189.42 706.972 1189.41 707.06C1189.41 707.14 1189.4 707.224 1189.39 707.312H1184.25V706.376H1188.51L1188.2 706.748C1188.2 706.092 1188.05 705.592 1187.76 705.248C1187.46 704.904 1187.05 704.732 1186.52 704.732C1185.95 704.732 1185.5 704.928 1185.16 705.32C1184.84 705.704 1184.67 706.24 1184.67 706.928C1184.67 707.624 1184.84 708.168 1185.16 708.56C1185.5 708.952 1185.96 709.148 1186.56 709.148C1186.92 709.148 1187.23 709.076 1187.49 708.932C1187.76 708.78 1187.95 708.56 1188.08 708.272H1189.26C1189.06 708.848 1188.72 709.3 1188.24 709.628C1187.76 709.956 1187.2 710.12 1186.53 710.12ZM1190.7 710V701.36H1191.95V710H1190.7ZM1196.36 710.12C1195.74 710.12 1195.19 709.984 1194.72 709.712C1194.25 709.432 1193.88 709.052 1193.62 708.572C1193.35 708.084 1193.22 707.532 1193.22 706.916C1193.22 706.292 1193.35 705.744 1193.62 705.272C1193.89 704.8 1194.26 704.432 1194.72 704.168C1195.19 703.896 1195.74 703.76 1196.36 703.76C1197 703.76 1197.55 703.896 1198.02 704.168C1198.49 704.432 1198.86 704.8 1199.11 705.272C1199.38 705.744 1199.51 706.292 1199.51 706.916C1199.51 707.532 1199.38 708.084 1199.11 708.572C1198.86 709.052 1198.49 709.432 1198.02 709.712C1197.55 709.984 1197 710.12 1196.36 710.12ZM1196.36 709.1C1196.74 709.1 1197.06 709.008 1197.34 708.824C1197.62 708.64 1197.84 708.384 1198 708.056C1198.16 707.728 1198.24 707.344 1198.24 706.904C1198.24 706.248 1198.06 705.732 1197.71 705.356C1197.36 704.972 1196.92 704.78 1196.36 704.78C1195.82 704.78 1195.37 704.972 1195.02 705.356C1194.68 705.74 1194.5 706.256 1194.5 706.904C1194.5 707.344 1194.58 707.728 1194.73 708.056C1194.89 708.384 1195.11 708.64 1195.39 708.824C1195.68 709.008 1196 709.1 1196.36 709.1Z" fill="#1A0F2E" fill-opacity="0.54"/>
<g filter="url(#filter0_d_2_2)">
<rect x="20" y="252" width="1240" height="438" rx="10" fill="white"/>
</g>
<rect x="206" y="10" width="325" height="48" rx="10" fill="#1A0F2E"/>
<rect x="548" y="10" width="712" height="48" rx="10" fill="#1A0F2E"/>
<path d="M28.72 33V26.88H30.484V28.32H30.52V33H28.72ZM32.836 33V29.112C32.836 28.8 32.752 28.572 32.584 28.428C32.424 28.276 32.196 28.2 31.9 28.2C31.644 28.2 31.408 28.26 31.192 28.38C30.984 28.492 30.82 28.656 30.7 28.872C30.58 29.08 30.52 29.328 30.52 29.616L30.364 28.236C30.564 27.788 30.852 27.432 31.228 27.168C31.612 26.896 32.072 26.76 32.608 26.76C33.248 26.76 33.744 26.94 34.096 27.3C34.456 27.66 34.636 28.112 34.636 28.656V33H32.836ZM36.952 33V29.112C36.952 28.8 36.868 28.572 36.7 28.428C36.54 28.276 36.312 28.2 36.016 28.2C35.76 28.2 35.524 28.26 35.308 28.38C35.1 28.492 34.936 28.656 34.816 28.872C34.696 29.08 34.636 29.328 34.636 29.616L34.36 28.236C34.56 27.788 34.856 27.432 35.248 27.168C35.648 26.896 36.128 26.76 36.688 26.76C37.352 26.76 37.86 26.948 38.212 27.324C38.572 27.692 38.752 28.176 38.752 28.776V33H36.952ZM40.1765 35.46L41.8685 31.716L42.1805 31.2L43.7645 26.88H45.6845L41.9765 35.46H40.1765ZM41.4725 32.88L39.1205 26.88H41.0645L42.9965 32.352L41.4725 32.88ZM50.2936 33.12C49.6696 33.12 49.0936 33.012 48.5656 32.796C48.0376 32.572 47.5776 32.26 47.1856 31.86C46.8016 31.46 46.5016 30.988 46.2856 30.444C46.0696 29.892 45.9616 29.292 45.9616 28.644C45.9616 27.996 46.0656 27.404 46.2736 26.868C46.4896 26.332 46.7896 25.868 47.1736 25.476C47.5656 25.076 48.0256 24.772 48.5536 24.564C49.0816 24.348 49.6616 24.24 50.2936 24.24C51.0056 24.24 51.6456 24.38 52.2136 24.66C52.7896 24.932 53.2576 25.32 53.6176 25.824C53.9856 26.32 54.2096 26.904 54.2896 27.576H52.4896C52.3856 26.96 52.1336 26.496 51.7336 26.184C51.3336 25.864 50.8576 25.704 50.3056 25.704C49.8176 25.704 49.3856 25.82 49.0096 26.052C48.6416 26.284 48.3536 26.62 48.1456 27.06C47.9376 27.492 47.8336 28.016 47.8336 28.632C47.8336 29.256 47.9376 29.796 48.1456 30.252C48.3616 30.7 48.6576 31.048 49.0336 31.296C49.4096 31.536 49.8416 31.656 50.3296 31.656C50.8496 31.656 51.3096 31.5 51.7096 31.188C52.1096 30.876 52.3696 30.412 52.4896 29.796H54.3136C54.2096 30.468 53.9736 31.056 53.6056 31.56C53.2376 32.056 52.7696 32.44 52.2016 32.712C51.6336 32.984 50.9976 33.12 50.2936 33.12ZM58.2021 33.12C57.5301 33.12 56.9381 32.988 56.4261 32.724C55.9221 32.452 55.5261 32.076 55.2381 31.596C54.9581 31.108 54.8181 30.548 54.8181 29.916C54.8181 29.284 54.9581 28.732 55.2381 28.26C55.5261 27.788 55.9221 27.42 56.4261 27.156C56.9381 26.892 57.5301 26.76 58.2021 26.76C58.8821 26.76 59.4741 26.892 59.9781 27.156C60.4901 27.42 60.8861 27.788 61.1661 28.26C61.4461 28.732 61.5861 29.284 61.5861 29.916C61.5861 30.548 61.4421 31.108 61.1541 31.596C60.8741 32.076 60.4781 32.452 59.9661 32.724C59.4621 32.988 58.8741 33.12 58.2021 33.12ZM58.2021 31.704C58.4821 31.704 58.7341 31.632 58.9581 31.488C59.1901 31.344 59.3741 31.14 59.5101 30.876C59.6461 30.604 59.7141 30.28 59.7141 29.904C59.7141 29.352 59.5661 28.928 59.2701 28.632C58.9821 28.328 58.6261 28.176 58.2021 28.176C57.7781 28.176 57.4181 28.328 57.1221 28.632C56.8341 28.936 56.6901 29.36 56.6901 29.904C56.6901 30.28 56.7581 30.604 56.8941 30.876C57.0301 31.14 57.2101 31.344 57.4341 31.488C57.6661 31.632 57.9221 31.704 58.2021 31.704ZM62.8911 33V26.472C62.8911 25.736 63.0911 25.18 63.4911 24.804C63.8911 24.428 64.4831 24.24 65.2671 24.24C65.4351 24.24 65.5791 24.248 65.6991 24.264C65.8271 24.28 65.9511 24.308 66.0711 24.348V25.728C66.0151 25.704 65.9471 25.688 65.8671 25.68C65.7871 25.664 65.6911 25.656 65.5791 25.656C65.2751 25.656 65.0511 25.728 64.9071 25.872C64.7631 26.016 64.6911 26.224 64.6911 26.496V33H62.8911ZM61.8711 28.248V26.88H65.9391V28.248H61.8711ZM67.4614 33V26.472C67.4614 25.736 67.6614 25.18 68.0614 24.804C68.4614 24.428 69.0534 24.24 69.8374 24.24C70.0054 24.24 70.1494 24.248 70.2694 24.264C70.3974 24.28 70.5214 24.308 70.6414 24.348V25.728C70.5854 25.704 70.5174 25.688 70.4374 25.68C70.3574 25.664 70.2614 25.656 70.1494 25.656C69.8454 25.656 69.6214 25.728 69.4774 25.872C69.3334 26.016 69.2614 26.224 69.2614 26.496V33H67.4614ZM66.4414 28.248V26.88H70.5094V28.248H66.4414ZM74.1273 33.12C73.4473 33.12 72.8553 32.988 72.3513 32.724C71.8473 32.452 71.4553 32.076 71.1753 31.596C70.9033 31.116 70.7673 30.564 70.7673 29.94C70.7673 29.308 70.9033 28.756 71.1753 28.284C71.4553 27.804 71.8433 27.432 72.3393 27.168C72.8353 26.896 73.4113 26.76 74.0673 26.76C74.6993 26.76 75.2473 26.888 75.7113 27.144C76.1753 27.4 76.5353 27.756 76.7913 28.212C77.0473 28.668 77.1753 29.204 77.1753 29.82C77.1753 29.948 77.1713 30.068 77.1633 30.18C77.1553 30.284 77.1433 30.384 77.1273 30.48H71.8233V29.292H75.6753L75.3633 29.508C75.3633 29.012 75.2433 28.648 75.0033 28.416C74.7713 28.176 74.4513 28.056 74.0433 28.056C73.5713 28.056 73.2033 28.216 72.9393 28.536C72.6833 28.856 72.5553 29.336 72.5553 29.976C72.5553 30.6 72.6833 31.064 72.9393 31.368C73.2033 31.672 73.5953 31.824 74.1153 31.824C74.4033 31.824 74.6513 31.776 74.8593 31.68C75.0673 31.584 75.2233 31.428 75.3273 31.212H77.0193C76.8193 31.804 76.4753 32.272 75.9873 32.616C75.5073 32.952 74.8873 33.12 74.1273 33.12ZM81.1352 33.12C80.4552 33.12 79.8632 32.988 79.3592 32.724C78.8552 32.452 78.4632 32.076 78.1832 31.596C77.9112 31.116 77.7752 30.564 77.7752 29.94C77.7752 29.308 77.9112 28.756 78.1832 28.284C78.4632 27.804 78.8512 27.432 79.3472 27.168C79.8432 26.896 80.4192 26.76 81.0752 26.76C81.7072 26.76 82.2552 26.888 82.7192 27.144C83.1832 27.4 83.5432 27.756 83.7992 28.212C84.0552 28.668 84.1832 29.204 84.1832 29.82C84.1832 29.948 84.1792 30.068 84.1712 30.18C84.1632 30.284 84.1512 30.384 84.1352 30.48H78.8312V29.292H82.6832L82.3712 29.508C82.3712 29.012 82.2512 28.648 82.0112 28.416C81.7792 28.176 81.4592 28.056 81.0512 28.056C80.5792 28.056 80.2112 28.216 79.9472 28.536C79.6912 28.856 79.5632 29.336 79.5632 29.976C79.5632 30.6 79.6912 31.064 79.9472 31.368C80.2112 31.672 80.6032 31.824 81.1232 31.824C81.4112 31.824 81.6592 31.776 81.8672 31.68C82.0752 31.584 82.2312 31.428 82.3352 31.212H84.0272C83.8272 31.804 83.4832 32.272 82.9952 32.616C82.5152 32.952 81.8952 33.12 81.1352 33.12ZM29.728 48V46.56H31.912C32.536 46.56 33.064 46.436 33.496 46.188C33.936 45.932 34.268 45.584 34.492 45.144C34.724 44.704 34.84 44.2 34.84 43.632C34.84 43.072 34.728 42.58 34.504 42.156C34.28 41.732 33.948 41.4 33.508 41.16C33.076 40.92 32.544 40.8 31.912 40.8H29.764V39.36H31.912C32.88 39.36 33.724 39.536 34.444 39.888C35.164 40.232 35.72 40.728 36.112 41.376C36.512 42.016 36.712 42.776 36.712 43.656C36.712 44.536 36.512 45.304 36.112 45.96C35.712 46.608 35.152 47.112 34.432 47.472C33.72 47.824 32.884 48 31.924 48H29.728ZM28.6 48V39.36H30.448V48H28.6ZM41.4548 48C41.4068 47.824 41.3708 47.636 41.3468 47.436C41.3308 47.236 41.3228 47.004 41.3228 46.74H41.2748V43.848C41.2748 43.6 41.1908 43.408 41.0228 43.272C40.8628 43.128 40.6228 43.056 40.3028 43.056C39.9988 43.056 39.7548 43.108 39.5708 43.212C39.3948 43.316 39.2788 43.468 39.2228 43.668H37.5068C37.5868 43.116 37.8708 42.66 38.3588 42.3C38.8468 41.94 39.5148 41.76 40.3628 41.76C41.2428 41.76 41.9148 41.956 42.3788 42.348C42.8428 42.74 43.0748 43.304 43.0748 44.04V46.74C43.0748 46.94 43.0868 47.144 43.1108 47.352C43.1428 47.552 43.1908 47.768 43.2548 48H41.4548ZM39.3188 48.12C38.7108 48.12 38.2268 47.968 37.8668 47.664C37.5068 47.352 37.3268 46.94 37.3268 46.428C37.3268 45.86 37.5388 45.404 37.9628 45.06C38.3948 44.708 38.9948 44.48 39.7628 44.376L41.5508 44.124V45.168L40.0628 45.396C39.7428 45.444 39.5068 45.532 39.3548 45.66C39.2028 45.788 39.1268 45.964 39.1268 46.188C39.1268 46.388 39.1988 46.54 39.3428 46.644C39.4868 46.748 39.6788 46.8 39.9188 46.8C40.2948 46.8 40.6148 46.7 40.8788 46.5C41.1428 46.292 41.2748 46.052 41.2748 45.78L41.4428 46.74C41.2668 47.196 40.9988 47.54 40.6388 47.772C40.2788 48.004 39.8388 48.12 39.3188 48.12ZM46.7662 48.12C45.8702 48.12 45.1582 47.94 44.6302 47.58C44.1022 47.22 43.8142 46.724 43.7662 46.092H45.3742C45.4142 46.364 45.5502 46.572 45.7822 46.716C46.0222 46.852 46.3502 46.92 46.7662 46.92C47.1422 46.92 47.4142 46.868 47.5822 46.764C47.7582 46.652 47.8462 46.496 47.8462 46.296C47.8462 46.144 47.7942 46.028 47.6902 45.948C47.5942 45.86 47.4142 45.788 47.1502 45.732L46.1662 45.528C45.4382 45.376 44.9022 45.148 44.5582 44.844C44.2142 44.532 44.0422 44.132 44.0422 43.644C44.0422 43.052 44.2702 42.592 44.7262 42.264C45.1822 41.928 45.8182 41.76 46.6342 41.76C47.4422 41.76 48.0862 41.924 48.5662 42.252C49.0462 42.572 49.3102 43.02 49.3582 43.596H47.7502C47.7182 43.388 47.6062 43.232 47.4142 43.128C47.2222 43.016 46.9502 42.96 46.5982 42.96C46.2782 42.96 46.0382 43.008 45.8782 43.104C45.7262 43.192 45.6502 43.32 45.6502 43.488C45.6502 43.632 45.7142 43.748 45.8422 43.836C45.9702 43.916 46.1822 43.988 46.4782 44.052L47.5822 44.28C48.1982 44.408 48.6622 44.648 48.9742 45C49.2942 45.344 49.4542 45.752 49.4542 46.224C49.4542 46.824 49.2182 47.292 48.7462 47.628C48.2822 47.956 47.6222 48.12 46.7662 48.12ZM50.3411 48V39.36H52.1411V48H50.3411ZM54.6011 48V44.208C54.6011 43.872 54.5131 43.62 54.3371 43.452C54.1691 43.284 53.9211 43.2 53.5931 43.2C53.3131 43.2 53.0611 43.264 52.8371 43.392C52.6211 43.52 52.4491 43.696 52.3211 43.92C52.2011 44.144 52.1411 44.408 52.1411 44.712L51.9851 43.236C52.1851 42.788 52.4771 42.432 52.8611 42.168C53.2531 41.896 53.7331 41.76 54.3011 41.76C54.9811 41.76 55.5011 41.952 55.8611 42.336C56.2211 42.712 56.4011 43.22 56.4011 43.86V48H54.6011ZM61.5028 48.12C60.9188 48.12 60.4428 47.984 60.0748 47.712C59.7148 47.44 59.5028 47.068 59.4388 46.596L59.5348 46.584V48H57.7708V39.36H59.5708V43.236L59.4628 43.212C59.5508 42.764 59.7828 42.412 60.1588 42.156C60.5428 41.892 61.0228 41.76 61.5988 41.76C62.1508 41.76 62.6268 41.892 63.0268 42.156C63.4348 42.412 63.7468 42.776 63.9628 43.248C64.1868 43.72 64.2988 44.276 64.2988 44.916C64.2988 45.564 64.1828 46.128 63.9508 46.608C63.7188 47.088 63.3948 47.46 62.9788 47.724C62.5628 47.988 62.0708 48.12 61.5028 48.12ZM60.9988 46.68C61.4228 46.68 61.7668 46.528 62.0308 46.224C62.2948 45.92 62.4268 45.488 62.4268 44.928C62.4268 44.368 62.2908 43.94 62.0188 43.644C61.7548 43.348 61.4068 43.2 60.9748 43.2C60.5588 43.2 60.2148 43.352 59.9428 43.656C59.6788 43.952 59.5468 44.38 59.5468 44.94C59.5468 45.5 59.6788 45.932 59.9428 46.236C60.2148 46.532 60.5668 46.68 60.9988 46.68ZM68.3271 48.12C67.6551 48.12 67.0631 47.988 66.5511 47.724C66.0471 47.452 65.6511 47.076 65.3631 46.596C65.0831 46.108 64.9431 45.548 64.9431 44.916C64.9431 44.284 65.0831 43.732 65.3631 43.26C65.6511 42.788 66.0471 42.42 66.5511 42.156C67.0631 41.892 67.6551 41.76 68.3271 41.76C69.0071 41.76 69.5991 41.892 70.1031 42.156C70.6151 42.42 71.0111 42.788 71.2911 43.26C71.5711 43.732 71.7111 44.284 71.7111 44.916C71.7111 45.548 71.5671 46.108 71.2791 46.596C70.9991 47.076 70.6031 47.452 70.0911 47.724C69.5871 47.988 68.9991 48.12 68.3271 48.12ZM68.3271 46.704C68.6071 46.704 68.8591 46.632 69.0831 46.488C69.3151 46.344 69.4991 46.14 69.6351 45.876C69.7711 45.604 69.8391 45.28 69.8391 44.904C69.8391 44.352 69.6911 43.928 69.3951 43.632C69.1071 43.328 68.7511 43.176 68.3271 43.176C67.9031 43.176 67.5431 43.328 67.2471 43.632C66.9591 43.936 66.8151 44.36 66.8151 44.904C66.8151 45.28 66.8831 45.604 67.0191 45.876C67.1551 46.14 67.3351 46.344 67.5591 46.488C67.7911 46.632 68.0471 46.704 68.3271 46.704ZM76.4822 48C76.4342 47.824 76.3982 47.636 76.3742 47.436C76.3582 47.236 76.3502 47.004 76.3502 46.74H76.3022V43.848C76.3022 43.6 76.2182 43.408 76.0502 43.272C75.8902 43.128 75.6502 43.056 75.3302 43.056C75.0262 43.056 74.7822 43.108 74.5982 43.212C74.4222 43.316 74.3062 43.468 74.2502 43.668H72.5342C72.6142 43.116 72.8982 42.66 73.3862 42.3C73.8742 41.94 74.5422 41.76 75.3902 41.76C76.2702 41.76 76.9422 41.956 77.4062 42.348C77.8702 42.74 78.1022 43.304 78.1022 44.04V46.74C78.1022 46.94 78.1142 47.144 78.1382 47.352C78.1702 47.552 78.2182 47.768 78.2822 48H76.4822ZM74.3462 48.12C73.7382 48.12 73.2542 47.968 72.8942 47.664C72.5342 47.352 72.3542 46.94 72.3542 46.428C72.3542 45.86 72.5662 45.404 72.9902 45.06C73.4222 44.708 74.0222 44.48 74.7902 44.376L76.5782 44.124V45.168L75.0902 45.396C74.7702 45.444 74.5342 45.532 74.3822 45.66C74.2302 45.788 74.1542 45.964 74.1542 46.188C74.1542 46.388 74.2262 46.54 74.3702 46.644C74.5142 46.748 74.7062 46.8 74.9462 46.8C75.3222 46.8 75.6422 46.7 75.9062 46.5C76.1702 46.292 76.3022 46.052 76.3022 45.78L76.4702 46.74C76.2942 47.196 76.0262 47.54 75.6662 47.772C75.3062 48.004 74.8662 48.12 74.3462 48.12ZM79.4856 48V41.88H81.2496V43.32H81.2856V48H79.4856ZM81.2856 44.808L81.1296 43.356C81.2736 42.836 81.5096 42.44 81.8376 42.168C82.1656 41.896 82.5736 41.76 83.0616 41.76C83.2136 41.76 83.3256 41.776 83.3976 41.808V43.488C83.3576 43.472 83.3016 43.464 83.2296 43.464C83.1576 43.456 83.0696 43.452 82.9656 43.452C82.3896 43.452 81.9656 43.556 81.6936 43.764C81.4216 43.964 81.2856 44.312 81.2856 44.808ZM88.4934 48V46.644L88.6134 46.668C88.5334 47.108 88.2934 47.46 87.8934 47.724C87.5014 47.988 87.0294 48.12 86.4774 48.12C85.9174 48.12 85.4294 47.992 85.0134 47.736C84.6054 47.472 84.2894 47.104 84.0654 46.632C83.8414 46.16 83.7294 45.604 83.7294 44.964C83.7294 44.316 83.8454 43.752 84.0774 43.272C84.3094 42.792 84.6334 42.42 85.0494 42.156C85.4734 41.892 85.9654 41.76 86.5254 41.76C87.1094 41.76 87.5814 41.896 87.9414 42.168C88.3094 42.44 88.5254 42.812 88.5894 43.284L88.4574 43.296V39.36H90.2574V48H88.4934ZM87.0534 46.68C87.4774 46.68 87.8214 46.532 88.0854 46.236C88.3494 45.932 88.4814 45.5 88.4814 44.94C88.4814 44.38 88.3454 43.952 88.0734 43.656C87.8094 43.352 87.4614 43.2 87.0294 43.2C86.6134 43.2 86.2694 43.352 85.9974 43.656C85.7334 43.96 85.6014 44.392 85.6014 44.952C85.6014 45.512 85.7334 45.94 85.9974 46.236C86.2694 46.532 86.6214 46.68 87.0534 46.68ZM98.3137 48V46.644L98.4337 46.668C98.3537 47.108 98.1137 47.46 97.7137 47.724C97.3217 47.988 96.8497 48.12 96.2977 48.12C95.7377 48.12 95.2497 47.992 94.8337 47.736C94.4257 47.472 94.1097 47.104 93.8857 46.632C93.6617 46.16 93.5497 45.604 93.5497 44.964C93.5497 44.316 93.6657 43.752 93.8977 43.272C94.1297 42.792 94.4537 42.42 94.8697 42.156C95.2937 41.892 95.7857 41.76 96.3457 41.76C96.9297 41.76 97.4017 41.896 97.7617 42.168C98.1297 42.44 98.3457 42.812 98.4097 43.284L98.2777 43.296V39.36H100.078V48H98.3137ZM96.8737 46.68C97.2977 46.68 97.6417 46.532 97.9057 46.236C98.1697 45.932 98.3017 45.5 98.3017 44.94C98.3017 44.38 98.1657 43.952 97.8937 43.656C97.6297 43.352 97.2817 43.2 96.8497 43.2C96.4337 43.2 96.0897 43.352 95.8177 43.656C95.5537 43.96 95.4217 44.392 95.4217 44.952C95.4217 45.512 95.5537 45.94 95.8177 46.236C96.0897 46.532 96.4417 46.68 96.8737 46.68ZM104.397 48.12C103.717 48.12 103.125 47.988 102.621 47.724C102.117 47.452 101.725 47.076 101.445 46.596C101.173 46.116 101.037 45.564 101.037 44.94C101.037 44.308 101.173 43.756 101.445 43.284C101.725 42.804 102.113 42.432 102.609 42.168C103.105 41.896 103.681 41.76 104.337 41.76C104.969 41.76 105.517 41.888 105.981 42.144C106.445 42.4 106.805 42.756 107.061 43.212C107.317 43.668 107.445 44.204 107.445 44.82C107.445 44.948 107.441 45.068 107.433 45.18C107.425 45.284 107.413 45.384 107.397 45.48H102.093V44.292H105.945L105.633 44.508C105.633 44.012 105.513 43.648 105.273 43.416C105.041 43.176 104.721 43.056 104.313 43.056C103.841 43.056 103.473 43.216 103.209 43.536C102.953 43.856 102.825 44.336 102.825 44.976C102.825 45.6 102.953 46.064 103.209 46.368C103.473 46.672 103.865 46.824 104.385 46.824C104.673 46.824 104.921 46.776 105.129 46.68C105.337 46.584 105.493 46.428 105.597 46.212H107.289C107.089 46.804 106.745 47.272 106.257 47.616C105.777 47.952 105.157 48.12 104.397 48.12ZM114.665 48.12C114.041 48.12 113.465 48.012 112.937 47.796C112.409 47.572 111.949 47.26 111.557 46.86C111.173 46.46 110.873 45.988 110.657 45.444C110.441 44.892 110.333 44.292 110.333 43.644C110.333 42.996 110.437 42.404 110.645 41.868C110.861 41.332 111.161 40.868 111.545 40.476C111.937 40.076 112.397 39.772 112.925 39.564C113.453 39.348 114.033 39.24 114.665 39.24C115.377 39.24 116.017 39.38 116.585 39.66C117.161 39.932 117.629 40.32 117.989 40.824C118.357 41.32 118.581 41.904 118.661 42.576H116.861C116.757 41.96 116.505 41.496 116.105 41.184C115.705 40.864 115.229 40.704 114.677 40.704C114.189 40.704 113.757 40.82 113.381 41.052C113.013 41.284 112.725 41.62 112.517 42.06C112.309 42.492 112.205 43.016 112.205 43.632C112.205 44.256 112.309 44.796 112.517 45.252C112.733 45.7 113.029 46.048 113.405 46.296C113.781 46.536 114.213 46.656 114.701 46.656C115.221 46.656 115.681 46.5 116.081 46.188C116.481 45.876 116.741 45.412 116.861 44.796H118.685C118.581 45.468 118.345 46.056 117.977 46.56C117.609 47.056 117.141 47.44 116.573 47.712C116.005 47.984 115.369 48.12 114.665 48.12ZM122.573 48.12C121.901 48.12 121.309 47.988 120.797 47.724C120.293 47.452 119.897 47.076 119.609 46.596C119.329 46.108 119.189 45.548 119.189 44.916C119.189 44.284 119.329 43.732 119.609 43.26C119.897 42.788 120.293 42.42 120.797 42.156C121.309 41.892 121.901 41.76 122.573 41.76C123.253 41.76 123.845 41.892 124.349 42.156C124.861 42.42 125.257 42.788 125.537 43.26C125.817 43.732 125.957 44.284 125.957 44.916C125.957 45.548 125.813 46.108 125.525 46.596C125.245 47.076 124.849 47.452 124.337 47.724C123.833 47.988 123.245 48.12 122.573 48.12ZM122.573 46.704C122.853 46.704 123.105 46.632 123.329 46.488C123.561 46.344 123.745 46.14 123.881 45.876C124.017 45.604 124.085 45.28 124.085 44.904C124.085 44.352 123.937 43.928 123.641 43.632C123.353 43.328 122.997 43.176 122.573 43.176C122.149 43.176 121.789 43.328 121.493 43.632C121.205 43.936 121.061 44.36 121.061 44.904C121.061 45.28 121.129 45.604 121.265 45.876C121.401 46.14 121.581 46.344 121.805 46.488C122.037 46.632 122.293 46.704 122.573 46.704ZM126.911 48V41.88H128.675V43.32H128.711V48H126.911ZM131.171 48V44.208C131.171 43.872 131.083 43.62 130.907 43.452C130.739 43.284 130.491 43.2 130.163 43.2C129.883 43.2 129.631 43.264 129.407 43.392C129.191 43.52 129.019 43.696 128.891 43.92C128.771 44.144 128.711 44.408 128.711 44.712L128.555 43.236C128.755 42.788 129.047 42.432 129.431 42.168C129.823 41.896 130.303 41.76 130.871 41.76C131.551 41.76 132.071 41.952 132.431 42.336C132.791 42.712 132.971 43.22 132.971 43.86V48H131.171ZM136.987 48.132C136.203 48.132 135.619 47.944 135.235 47.568C134.859 47.184 134.671 46.604 134.671 45.828V40.512L136.471 39.84V45.888C136.471 46.16 136.547 46.364 136.699 46.5C136.851 46.636 137.087 46.704 137.407 46.704C137.527 46.704 137.639 46.692 137.743 46.668C137.847 46.644 137.951 46.616 138.055 46.584V47.952C137.951 48.008 137.803 48.052 137.611 48.084C137.427 48.116 137.219 48.132 136.987 48.132ZM133.531 43.248V41.88H138.055V43.248H133.531ZM139.134 48V41.88H140.898V43.32H140.934V48H139.134ZM140.934 44.808L140.778 43.356C140.922 42.836 141.158 42.44 141.486 42.168C141.814 41.896 142.222 41.76 142.71 41.76C142.862 41.76 142.974 41.776 143.046 41.808V43.488C143.006 43.472 142.95 43.464 142.878 43.464C142.806 43.456 142.718 43.452 142.614 43.452C142.038 43.452 141.614 43.556 141.342 43.764C141.07 43.964 140.934 44.312 140.934 44.808ZM146.726 48.12C146.054 48.12 145.462 47.988 144.95 47.724C144.446 47.452 144.05 47.076 143.762 46.596C143.482 46.108 143.342 45.548 143.342 44.916C143.342 44.284 143.482 43.732 143.762 43.26C144.05 42.788 144.446 42.42 144.95 42.156C145.462 41.892 146.054 41.76 146.726 41.76C147.406 41.76 147.998 41.892 148.502 42.156C149.014 42.42 149.41 42.788 149.69 43.26C149.97 43.732 150.11 44.284 150.11 44.916C150.11 45.548 149.966 46.108 149.678 46.596C149.398 47.076 149.002 47.452 148.49 47.724C147.986 47.988 147.398 48.12 146.726 48.12ZM146.726 46.704C147.006 46.704 147.258 46.632 147.482 46.488C147.714 46.344 147.898 46.14 148.034 45.876C148.17 45.604 148.238 45.28 148.238 44.904C148.238 44.352 148.09 43.928 147.794 43.632C147.506 43.328 147.15 43.176 146.726 43.176C146.302 43.176 145.942 43.328 145.646 43.632C145.358 43.936 145.214 44.36 145.214 44.904C145.214 45.28 145.282 45.604 145.418 45.876C145.554 46.14 145.734 46.344 145.958 46.488C146.19 46.632 146.446 46.704 146.726 46.704ZM151.064 48V39.36H152.864V48H151.064ZM158.15 48C158.102 47.824 158.066 47.636 158.042 47.436C158.026 47.236 158.018 47.004 158.018 46.74H157.97V43.848C157.97 43.6 157.886 43.408 157.718 43.272C157.558 43.128 157.318 43.056 156.998 43.056C156.694 43.056 156.45 43.108 156.266 43.212C156.09 43.316 155.974 43.468 155.918 43.668H154.202C154.282 43.116 154.566 42.66 155.054 42.3C155.542 41.94 156.21 41.76 157.058 41.76C157.938 41.76 158.61 41.956 159.074 42.348C159.538 42.74 159.77 43.304 159.77 44.04V46.74C159.77 46.94 159.782 47.144 159.806 47.352C159.838 47.552 159.886 47.768 159.95 48H158.15ZM156.014 48.12C155.406 48.12 154.922 47.968 154.562 47.664C154.202 47.352 154.022 46.94 154.022 46.428C154.022 45.86 154.234 45.404 154.658 45.06C155.09 44.708 155.69 44.48 156.458 44.376L158.246 44.124V45.168L156.758 45.396C156.438 45.444 156.202 45.532 156.05 45.66C155.898 45.788 155.822 45.964 155.822 46.188C155.822 46.388 155.894 46.54 156.038 46.644C156.182 46.748 156.374 46.8 156.614 46.8C156.99 46.8 157.31 46.7 157.574 46.5C157.838 46.292 157.97 46.052 157.97 45.78L158.138 46.74C157.962 47.196 157.694 47.54 157.334 47.772C156.974 48.004 156.534 48.12 156.014 48.12ZM165.345 48V46.644L165.465 46.668C165.385 47.108 165.145 47.46 164.745 47.724C164.353 47.988 163.881 48.12 163.329 48.12C162.769 48.12 162.281 47.992 161.865 47.736C161.457 47.472 161.141 47.104 160.917 46.632C160.693 46.16 160.581 45.604 160.581 44.964C160.581 44.316 160.697 43.752 160.929 43.272C161.161 42.792 161.485 42.42 161.901 42.156C162.325 41.892 162.817 41.76 163.377 41.76C163.961 41.76 164.433 41.896 164.793 42.168C165.161 42.44 165.377 42.812 165.441 43.284L165.309 43.296V39.36H167.109V48H165.345ZM163.905 46.68C164.329 46.68 164.673 46.532 164.937 46.236C165.201 45.932 165.333 45.5 165.333 44.94C165.333 44.38 165.197 43.952 164.925 43.656C164.661 43.352 164.313 43.2 163.881 43.2C163.465 43.2 163.121 43.352 162.849 43.656C162.585 43.96 162.453 44.392 162.453 44.952C162.453 45.512 162.585 45.94 162.849 46.236C163.121 46.532 163.473 46.68 163.905 46.68ZM171.452 48.12C170.78 48.12 170.188 47.988 169.676 47.724C169.172 47.452 168.776 47.076 168.488 46.596C168.208 46.108 168.068 45.548 168.068 44.916C168.068 44.284 168.208 43.732 168.488 43.26C168.776 42.788 169.172 42.42 169.676 42.156C170.188 41.892 170.78 41.76 171.452 41.76C172.132 41.76 172.724 41.892 173.228 42.156C173.74 42.42 174.136 42.788 174.416 43.26C174.696 43.732 174.836 44.284 174.836 44.916C174.836 45.548 174.692 46.108 174.404 46.596C174.124 47.076 173.728 47.452 173.216 47.724C172.712 47.988 172.124 48.12 171.452 48.12ZM171.452 46.704C171.732 46.704 171.984 46.632 172.208 46.488C172.44 46.344 172.624 46.14 172.76 45.876C172.896 45.604 172.964 45.28 172.964 44.904C172.964 44.352 172.816 43.928 172.52 43.632C172.232 43.328 171.876 43.176 171.452 43.176C171.028 43.176 170.668 43.328 170.372 43.632C170.084 43.936 169.94 44.36 169.94 44.904C169.94 45.28 170.008 45.604 170.144 45.876C170.28 46.14 170.46 46.344 170.684 46.488C170.916 46.632 171.172 46.704 171.452 46.704ZM175.79 48V41.88H177.554V43.32H177.59V48H175.79ZM177.59 44.808L177.434 43.356C177.578 42.836 177.814 42.44 178.142 42.168C178.47 41.896 178.878 41.76 179.366 41.76C179.518 41.76 179.63 41.776 179.702 41.808V43.488C179.662 43.472 179.606 43.464 179.534 43.464C179.462 43.456 179.374 43.452 179.27 43.452C178.694 43.452 178.27 43.556 177.998 43.764C177.726 43.964 177.59 44.312 177.59 44.808ZM180.478 48V41.88H182.278V48H180.478ZM180.418 41.064V39.12H182.338V41.064H180.418ZM187.388 48C187.34 47.824 187.304 47.636 187.28 47.436C187.264 47.236 187.256 47.004 187.256 46.74H187.208V43.848C187.208 43.6 187.124 43.408 186.956 43.272C186.796 43.128 186.556 43.056 186.236 43.056C185.932 43.056 185.688 43.108 185.504 43.212C185.328 43.316 185.212 43.468 185.156 43.668H183.44C183.52 43.116 183.804 42.66 184.292 42.3C184.78 41.94 185.448 41.76 186.296 41.76C187.176 41.76 187.848 41.956 188.312 42.348C188.776 42.74 189.008 43.304 189.008 44.04V46.74C189.008 46.94 189.02 47.144 189.044 47.352C189.076 47.552 189.124 47.768 189.188 48H187.388ZM185.252 48.12C184.644 48.12 184.16 47.968 183.8 47.664C183.44 47.352 183.26 46.94 183.26 46.428C183.26 45.86 183.472 45.404 183.896 45.06C184.328 44.708 184.928 44.48 185.696 44.376L187.484 44.124V45.168L185.996 45.396C185.676 45.444 185.44 45.532 185.288 45.66C185.136 45.788 185.06 45.964 185.06 46.188C185.06 46.388 185.132 46.54 185.276 46.644C185.42 46.748 185.612 46.8 185.852 46.8C186.228 46.8 186.548 46.7 186.812 46.5C187.076 46.292 187.208 46.052 187.208 45.78L187.376 46.74C187.2 47.196 186.932 47.54 186.572 47.772C186.212 48.004 185.772 48.12 185.252 48.12Z" fill="#1A0F2E"/>
<path d="M215.552 39V30.36H219.416C220.04 30.36 220.584 30.468 221.048 30.684C221.512 30.892 221.872 31.188 222.128 31.572C222.384 31.956 222.512 32.404 222.512 32.916C222.512 33.42 222.384 33.864 222.128 34.248C221.872 34.624 221.512 34.92 221.048 35.136C220.584 35.344 220.04 35.448 219.416 35.448H217.016V34.092H219.368C219.808 34.092 220.144 33.992 220.376 33.792C220.616 33.584 220.736 33.296 220.736 32.928C220.736 32.552 220.62 32.268 220.388 32.076C220.156 31.876 219.816 31.776 219.368 31.776H217.4V39H215.552ZM220.424 39L216.956 34.512H218.912L222.92 39H220.424ZM226.252 39.12C225.572 39.12 224.98 38.988 224.476 38.724C223.972 38.452 223.58 38.076 223.3 37.596C223.028 37.116 222.892 36.564 222.892 35.94C222.892 35.308 223.028 34.756 223.3 34.284C223.58 33.804 223.968 33.432 224.464 33.168C224.96 32.896 225.536 32.76 226.192 32.76C226.824 32.76 227.372 32.888 227.836 33.144C228.3 33.4 228.66 33.756 228.916 34.212C229.172 34.668 229.3 35.204 229.3 35.82C229.3 35.948 229.296 36.068 229.288 36.18C229.28 36.284 229.268 36.384 229.252 36.48H223.948V35.292H227.8L227.488 35.508C227.488 35.012 227.368 34.648 227.128 34.416C226.896 34.176 226.576 34.056 226.168 34.056C225.696 34.056 225.328 34.216 225.064 34.536C224.808 34.856 224.68 35.336 224.68 35.976C224.68 36.6 224.808 37.064 225.064 37.368C225.328 37.672 225.72 37.824 226.24 37.824C226.528 37.824 226.776 37.776 226.984 37.68C227.192 37.584 227.348 37.428 227.452 37.212H229.144C228.944 37.804 228.6 38.272 228.112 38.616C227.632 38.952 227.012 39.12 226.252 39.12ZM233.986 39C233.938 38.824 233.902 38.636 233.878 38.436C233.862 38.236 233.854 38.004 233.854 37.74H233.806V34.848C233.806 34.6 233.722 34.408 233.554 34.272C233.394 34.128 233.154 34.056 232.834 34.056C232.53 34.056 232.286 34.108 232.102 34.212C231.926 34.316 231.81 34.468 231.754 34.668H230.038C230.118 34.116 230.402 33.66 230.89 33.3C231.378 32.94 232.046 32.76 232.894 32.76C233.774 32.76 234.446 32.956 234.91 33.348C235.374 33.74 235.606 34.304 235.606 35.04V37.74C235.606 37.94 235.618 38.144 235.642 38.352C235.674 38.552 235.722 38.768 235.786 39H233.986ZM231.85 39.12C231.242 39.12 230.758 38.968 230.398 38.664C230.038 38.352 229.858 37.94 229.858 37.428C229.858 36.86 230.07 36.404 230.494 36.06C230.926 35.708 231.526 35.48 232.294 35.376L234.082 35.124V36.168L232.594 36.396C232.274 36.444 232.038 36.532 231.886 36.66C231.734 36.788 231.658 36.964 231.658 37.188C231.658 37.388 231.73 37.54 231.874 37.644C232.018 37.748 232.21 37.8 232.45 37.8C232.826 37.8 233.146 37.7 233.41 37.5C233.674 37.292 233.806 37.052 233.806 36.78L233.974 37.74C233.798 38.196 233.53 38.54 233.17 38.772C232.81 39.004 232.37 39.12 231.85 39.12ZM236.99 39V30.36H238.79V39H236.99ZM244.177 39L241.765 32.88H243.697L245.581 38.592H244.573L246.445 32.88H248.329L245.917 39H244.177ZM251.321 39.12C250.425 39.12 249.713 38.94 249.185 38.58C248.657 38.22 248.369 37.724 248.321 37.092H249.929C249.969 37.364 250.105 37.572 250.337 37.716C250.577 37.852 250.905 37.92 251.321 37.92C251.697 37.92 251.969 37.868 252.137 37.764C252.313 37.652 252.401 37.496 252.401 37.296C252.401 37.144 252.349 37.028 252.245 36.948C252.149 36.86 251.969 36.788 251.705 36.732L250.721 36.528C249.993 36.376 249.457 36.148 249.113 35.844C248.769 35.532 248.597 35.132 248.597 34.644C248.597 34.052 248.825 33.592 249.281 33.264C249.737 32.928 250.373 32.76 251.189 32.76C251.997 32.76 252.641 32.924 253.121 33.252C253.601 33.572 253.865 34.02 253.913 34.596H252.305C252.273 34.388 252.161 34.232 251.969 34.128C251.777 34.016 251.505 33.96 251.153 33.96C250.833 33.96 250.593 34.008 250.433 34.104C250.281 34.192 250.205 34.32 250.205 34.488C250.205 34.632 250.269 34.748 250.397 34.836C250.525 34.916 250.737 34.988 251.033 35.052L252.137 35.28C252.753 35.408 253.217 35.648 253.529 36C253.849 36.344 254.009 36.752 254.009 37.224C254.009 37.824 253.773 38.292 253.301 38.628C252.837 38.956 252.177 39.12 251.321 39.12ZM257.061 39V30.36H259.941L262.341 38.688H261.297L263.697 30.36H266.589V39H264.765V30.876H265.077L262.737 39H260.829L258.513 30.948H258.813V39H257.061ZM270.784 39.12C270.104 39.12 269.512 38.988 269.008 38.724C268.504 38.452 268.112 38.076 267.832 37.596C267.56 37.116 267.424 36.564 267.424 35.94C267.424 35.308 267.56 34.756 267.832 34.284C268.112 33.804 268.5 33.432 268.996 33.168C269.492 32.896 270.068 32.76 270.724 32.76C271.356 32.76 271.904 32.888 272.368 33.144C272.832 33.4 273.192 33.756 273.448 34.212C273.704 34.668 273.832 35.204 273.832 35.82C273.832 35.948 273.828 36.068 273.82 36.18C273.812 36.284 273.8 36.384 273.784 36.48H268.48V35.292H272.332L272.02 35.508C272.02 35.012 271.9 34.648 271.66 34.416C271.428 34.176 271.108 34.056 270.7 34.056C270.228 34.056 269.86 34.216 269.596 34.536C269.34 34.856 269.212 35.336 269.212 35.976C269.212 36.6 269.34 37.064 269.596 37.368C269.86 37.672 270.252 37.824 270.772 37.824C271.06 37.824 271.308 37.776 271.516 37.68C271.724 37.584 271.88 37.428 271.984 37.212H273.676C273.476 37.804 273.132 38.272 272.644 38.616C272.164 38.952 271.544 39.12 270.784 39.12ZM277.534 39.132C276.75 39.132 276.166 38.944 275.782 38.568C275.406 38.184 275.218 37.604 275.218 36.828V31.512L277.018 30.84V36.888C277.018 37.16 277.094 37.364 277.246 37.5C277.398 37.636 277.634 37.704 277.954 37.704C278.074 37.704 278.186 37.692 278.29 37.668C278.394 37.644 278.498 37.616 278.602 37.584V38.952C278.498 39.008 278.35 39.052 278.158 39.084C277.974 39.116 277.766 39.132 277.534 39.132ZM274.078 34.248V32.88H278.602V34.248H274.078ZM283.416 39C283.368 38.824 283.332 38.636 283.308 38.436C283.292 38.236 283.284 38.004 283.284 37.74H283.236V34.848C283.236 34.6 283.152 34.408 282.984 34.272C282.824 34.128 282.584 34.056 282.264 34.056C281.96 34.056 281.716 34.108 281.532 34.212C281.356 34.316 281.24 34.468 281.184 34.668H279.468C279.548 34.116 279.832 33.66 280.32 33.3C280.808 32.94 281.476 32.76 282.324 32.76C283.204 32.76 283.876 32.956 284.34 33.348C284.804 33.74 285.036 34.304 285.036 35.04V37.74C285.036 37.94 285.048 38.144 285.072 38.352C285.104 38.552 285.152 38.768 285.216 39H283.416ZM281.28 39.12C280.672 39.12 280.188 38.968 279.828 38.664C279.468 38.352 279.288 37.94 279.288 37.428C279.288 36.86 279.5 36.404 279.924 36.06C280.356 35.708 280.956 35.48 281.724 35.376L283.512 35.124V36.168L282.024 36.396C281.704 36.444 281.468 36.532 281.316 36.66C281.164 36.788 281.088 36.964 281.088 37.188C281.088 37.388 281.16 37.54 281.304 37.644C281.448 37.748 281.64 37.8 281.88 37.8C282.256 37.8 282.576 37.7 282.84 37.5C283.104 37.292 283.236 37.052 283.236 36.78L283.404 37.74C283.228 38.196 282.96 38.54 282.6 38.772C282.24 39.004 281.8 39.12 281.28 39.12Z" fill="white"/>
<path d="M307.288 39L310.384 30.36H311.968L309.124 39H307.288ZM313.624 39L310.792 30.36H312.448L315.544 39H313.624ZM308.92 35.652H313.768V37.092H308.92V35.652ZM316.556 39V32.88H318.32V34.32H318.356V39H316.556ZM320.816 39V35.208C320.816 34.872 320.728 34.62 320.552 34.452C320.384 34.284 320.136 34.2 319.808 34.2C319.528 34.2 319.276 34.264 319.052 34.392C318.836 34.52 318.664 34.696 318.536 34.92C318.416 35.144 318.356 35.408 318.356 35.712L318.2 34.236C318.4 33.788 318.692 33.432 319.076 33.168C319.468 32.896 319.948 32.76 320.516 32.76C321.196 32.76 321.716 32.952 322.076 33.336C322.436 33.712 322.616 34.22 322.616 34.86V39H320.816ZM327.685 39C327.637 38.824 327.601 38.636 327.577 38.436C327.561 38.236 327.553 38.004 327.553 37.74H327.505V34.848C327.505 34.6 327.421 34.408 327.253 34.272C327.093 34.128 326.853 34.056 326.533 34.056C326.229 34.056 325.985 34.108 325.801 34.212C325.625 34.316 325.509 34.468 325.453 34.668H323.737C323.817 34.116 324.101 33.66 324.589 33.3C325.077 32.94 325.745 32.76 326.593 32.76C327.473 32.76 328.145 32.956 328.609 33.348C329.073 33.74 329.305 34.304 329.305 35.04V37.74C329.305 37.94 329.317 38.144 329.341 38.352C329.373 38.552 329.421 38.768 329.485 39H327.685ZM325.549 39.12C324.941 39.12 324.457 38.968 324.097 38.664C323.737 38.352 323.557 37.94 323.557 37.428C323.557 36.86 323.769 36.404 324.193 36.06C324.625 35.708 325.225 35.48 325.993 35.376L327.781 35.124V36.168L326.293 36.396C325.973 36.444 325.737 36.532 325.585 36.66C325.433 36.788 325.357 36.964 325.357 37.188C325.357 37.388 325.429 37.54 325.573 37.644C325.717 37.748 325.909 37.8 326.149 37.8C326.525 37.8 326.845 37.7 327.109 37.5C327.373 37.292 327.505 37.052 327.505 36.78L327.673 37.74C327.497 38.196 327.229 38.54 326.869 38.772C326.509 39.004 326.069 39.12 325.549 39.12ZM327.085 32.004H325.501L326.689 30.12H329.065L327.085 32.004ZM330.689 39V30.36H332.489V39H330.689ZM333.923 39V32.88H335.723V39H333.923ZM333.863 32.064V30.12H335.783V32.064H333.863ZM339.594 39.12C338.698 39.12 337.986 38.94 337.458 38.58C336.93 38.22 336.642 37.724 336.594 37.092H338.202C338.242 37.364 338.378 37.572 338.61 37.716C338.85 37.852 339.178 37.92 339.594 37.92C339.97 37.92 340.242 37.868 340.41 37.764C340.586 37.652 340.674 37.496 340.674 37.296C340.674 37.144 340.622 37.028 340.518 36.948C340.422 36.86 340.242 36.788 339.978 36.732L338.994 36.528C338.266 36.376 337.73 36.148 337.386 35.844C337.042 35.532 336.87 35.132 336.87 34.644C336.87 34.052 337.098 33.592 337.554 33.264C338.01 32.928 338.646 32.76 339.462 32.76C340.27 32.76 340.914 32.924 341.394 33.252C341.874 33.572 342.138 34.02 342.186 34.596H340.578C340.546 34.388 340.434 34.232 340.242 34.128C340.05 34.016 339.778 33.96 339.426 33.96C339.106 33.96 338.866 34.008 338.706 34.104C338.554 34.192 338.478 34.32 338.478 34.488C338.478 34.632 338.542 34.748 338.67 34.836C338.798 34.916 339.01 34.988 339.306 35.052L340.41 35.28C341.026 35.408 341.49 35.648 341.802 36C342.122 36.344 342.282 36.752 342.282 37.224C342.282 37.824 342.046 38.292 341.574 38.628C341.11 38.956 340.45 39.12 339.594 39.12ZM346.26 39.12C345.58 39.12 344.988 38.988 344.484 38.724C343.98 38.452 343.588 38.076 343.308 37.596C343.036 37.116 342.9 36.564 342.9 35.94C342.9 35.308 343.036 34.756 343.308 34.284C343.588 33.804 343.976 33.432 344.472 33.168C344.968 32.896 345.544 32.76 346.2 32.76C346.832 32.76 347.38 32.888 347.844 33.144C348.308 33.4 348.668 33.756 348.924 34.212C349.18 34.668 349.308 35.204 349.308 35.82C349.308 35.948 349.304 36.068 349.296 36.18C349.288 36.284 349.276 36.384 349.26 36.48H343.956V35.292H347.808L347.496 35.508C347.496 35.012 347.376 34.648 347.136 34.416C346.904 34.176 346.584 34.056 346.176 34.056C345.704 34.056 345.336 34.216 345.072 34.536C344.816 34.856 344.688 35.336 344.688 35.976C344.688 36.6 344.816 37.064 345.072 37.368C345.336 37.672 345.728 37.824 346.248 37.824C346.536 37.824 346.784 37.776 346.992 37.68C347.2 37.584 347.356 37.428 347.46 37.212H349.152C348.952 37.804 348.608 38.272 348.12 38.616C347.64 38.952 347.02 39.12 346.26 39.12ZM355.22 39L352.124 30.36H354.044L356.408 37.56H356.18L358.556 30.36H360.38L357.284 39H355.22ZM363.381 39.12C362.701 39.12 362.109 38.988 361.605 38.724C361.101 38.452 360.709 38.076 360.429 37.596C360.157 37.116 360.021 36.564 360.021 35.94C360.021 35.308 360.157 34.756 360.429 34.284C360.709 33.804 361.097 33.432 361.593 33.168C362.089 32.896 362.665 32.76 363.321 32.76C363.953 32.76 364.501 32.888 364.965 33.144C365.429 33.4 365.789 33.756 366.045 34.212C366.301 34.668 366.429 35.204 366.429 35.82C366.429 35.948 366.425 36.068 366.417 36.18C366.409 36.284 366.397 36.384 366.381 36.48H361.077V35.292H364.929L364.617 35.508C364.617 35.012 364.497 34.648 364.257 34.416C364.025 34.176 363.705 34.056 363.297 34.056C362.825 34.056 362.457 34.216 362.193 34.536C361.937 34.856 361.809 35.336 361.809 35.976C361.809 36.6 361.937 37.064 362.193 37.368C362.457 37.672 362.849 37.824 363.369 37.824C363.657 37.824 363.905 37.776 364.113 37.68C364.321 37.584 364.477 37.428 364.581 37.212H366.273C366.073 37.804 365.729 38.272 365.241 38.616C364.761 38.952 364.141 39.12 363.381 39.12ZM367.392 39V32.88H369.156V34.32H369.192V39H367.392ZM369.192 35.808L369.036 34.356C369.18 33.836 369.416 33.44 369.744 33.168C370.072 32.896 370.48 32.76 370.968 32.76C371.12 32.76 371.232 32.776 371.304 32.808V34.488C371.264 34.472 371.208 34.464 371.136 34.464C371.064 34.456 370.976 34.452 370.872 34.452C370.296 34.452 369.872 34.556 369.6 34.764C369.328 34.964 369.192 35.312 369.192 35.808ZM375.229 39.132C374.445 39.132 373.861 38.944 373.477 38.568C373.101 38.184 372.913 37.604 372.913 36.828V31.512L374.713 30.84V36.888C374.713 37.16 374.789 37.364 374.941 37.5C375.093 37.636 375.329 37.704 375.649 37.704C375.769 37.704 375.881 37.692 375.985 37.668C376.089 37.644 376.193 37.616 376.297 37.584V38.952C376.193 39.008 376.045 39.052 375.853 39.084C375.669 39.116 375.461 39.132 375.229 39.132ZM371.773 34.248V32.88H376.297V34.248H371.773ZM377.318 39V32.88H379.118V39H377.318ZM377.258 32.064V30.12H379.178V32.064H377.258ZM383.301 39.12C382.661 39.12 382.097 38.984 381.609 38.712C381.121 38.44 380.737 38.064 380.457 37.584C380.185 37.104 380.049 36.556 380.049 35.94C380.049 35.324 380.185 34.776 380.457 34.296C380.737 33.816 381.121 33.44 381.609 33.168C382.097 32.896 382.661 32.76 383.301 32.76C383.837 32.76 384.317 32.86 384.741 33.06C385.173 33.252 385.525 33.52 385.797 33.864C386.077 34.208 386.257 34.612 386.337 35.076H384.597C384.509 34.78 384.349 34.556 384.117 34.404C383.893 34.252 383.629 34.176 383.325 34.176C383.037 34.176 382.785 34.248 382.569 34.392C382.361 34.536 382.201 34.74 382.089 35.004C381.977 35.268 381.921 35.58 381.921 35.94C381.921 36.3 381.977 36.612 382.089 36.876C382.201 37.14 382.361 37.344 382.569 37.488C382.785 37.632 383.037 37.704 383.325 37.704C383.629 37.704 383.893 37.628 384.117 37.476C384.349 37.324 384.509 37.1 384.597 36.804H386.337C386.257 37.268 386.077 37.672 385.797 38.016C385.525 38.36 385.173 38.632 384.741 38.832C384.317 39.024 383.837 39.12 383.301 39.12ZM391.002 39C390.954 38.824 390.918 38.636 390.894 38.436C390.878 38.236 390.87 38.004 390.87 37.74H390.822V34.848C390.822 34.6 390.738 34.408 390.57 34.272C390.41 34.128 390.17 34.056 389.85 34.056C389.546 34.056 389.302 34.108 389.118 34.212C388.942 34.316 388.826 34.468 388.77 34.668H387.054C387.134 34.116 387.418 33.66 387.906 33.3C388.394 32.94 389.062 32.76 389.91 32.76C390.79 32.76 391.462 32.956 391.926 33.348C392.39 33.74 392.622 34.304 392.622 35.04V37.74C392.622 37.94 392.634 38.144 392.658 38.352C392.69 38.552 392.738 38.768 392.802 39H391.002ZM388.866 39.12C388.258 39.12 387.774 38.968 387.414 38.664C387.054 38.352 386.874 37.94 386.874 37.428C386.874 36.86 387.086 36.404 387.51 36.06C387.942 35.708 388.542 35.48 389.31 35.376L391.098 35.124V36.168L389.61 36.396C389.29 36.444 389.054 36.532 388.902 36.66C388.75 36.788 388.674 36.964 388.674 37.188C388.674 37.388 388.746 37.54 388.89 37.644C389.034 37.748 389.226 37.8 389.466 37.8C389.842 37.8 390.162 37.7 390.426 37.5C390.69 37.292 390.822 37.052 390.822 36.78L390.99 37.74C390.814 38.196 390.546 38.54 390.186 38.772C389.826 39.004 389.386 39.12 388.866 39.12ZM394.005 39V30.36H395.805V39H394.005Z" fill="white" fill-opacity="0.44"/>
<path d="M418.288 39L421.384 30.36H422.968L420.124 39H418.288ZM424.624 39L421.792 30.36H423.448L426.544 39H424.624ZM419.92 35.652H424.768V37.092H419.92V35.652ZM427.556 39V32.88H429.32V34.32H429.356V39H427.556ZM431.816 39V35.208C431.816 34.872 431.728 34.62 431.552 34.452C431.384 34.284 431.136 34.2 430.808 34.2C430.528 34.2 430.276 34.264 430.052 34.392C429.836 34.52 429.664 34.696 429.536 34.92C429.416 35.144 429.356 35.408 429.356 35.712L429.2 34.236C429.4 33.788 429.692 33.432 430.076 33.168C430.468 32.896 430.948 32.76 431.516 32.76C432.196 32.76 432.716 32.952 433.076 33.336C433.436 33.712 433.616 34.22 433.616 34.86V39H431.816ZM438.685 39C438.637 38.824 438.601 38.636 438.577 38.436C438.561 38.236 438.553 38.004 438.553 37.74H438.505V34.848C438.505 34.6 438.421 34.408 438.253 34.272C438.093 34.128 437.853 34.056 437.533 34.056C437.229 34.056 436.985 34.108 436.801 34.212C436.625 34.316 436.509 34.468 436.453 34.668H434.737C434.817 34.116 435.101 33.66 435.589 33.3C436.077 32.94 436.745 32.76 437.593 32.76C438.473 32.76 439.145 32.956 439.609 33.348C440.073 33.74 440.305 34.304 440.305 35.04V37.74C440.305 37.94 440.317 38.144 440.341 38.352C440.373 38.552 440.421 38.768 440.485 39H438.685ZM436.549 39.12C435.941 39.12 435.457 38.968 435.097 38.664C434.737 38.352 434.557 37.94 434.557 37.428C434.557 36.86 434.769 36.404 435.193 36.06C435.625 35.708 436.225 35.48 436.993 35.376L438.781 35.124V36.168L437.293 36.396C436.973 36.444 436.737 36.532 436.585 36.66C436.433 36.788 436.357 36.964 436.357 37.188C436.357 37.388 436.429 37.54 436.573 37.644C436.717 37.748 436.909 37.8 437.149 37.8C437.525 37.8 437.845 37.7 438.109 37.5C438.373 37.292 438.505 37.052 438.505 36.78L438.673 37.74C438.497 38.196 438.229 38.54 437.869 38.772C437.509 39.004 437.069 39.12 436.549 39.12ZM438.085 32.004H436.501L437.689 30.12H440.065L438.085 32.004ZM441.689 39V30.36H443.489V39H441.689ZM444.923 39V32.88H446.723V39H444.923ZM444.863 32.064V30.12H446.783V32.064H444.863ZM450.594 39.12C449.698 39.12 448.986 38.94 448.458 38.58C447.93 38.22 447.642 37.724 447.594 37.092H449.202C449.242 37.364 449.378 37.572 449.61 37.716C449.85 37.852 450.178 37.92 450.594 37.92C450.97 37.92 451.242 37.868 451.41 37.764C451.586 37.652 451.674 37.496 451.674 37.296C451.674 37.144 451.622 37.028 451.518 36.948C451.422 36.86 451.242 36.788 450.978 36.732L449.994 36.528C449.266 36.376 448.73 36.148 448.386 35.844C448.042 35.532 447.87 35.132 447.87 34.644C447.87 34.052 448.098 33.592 448.554 33.264C449.01 32.928 449.646 32.76 450.462 32.76C451.27 32.76 451.914 32.924 452.394 33.252C452.874 33.572 453.138 34.02 453.186 34.596H451.578C451.546 34.388 451.434 34.232 451.242 34.128C451.05 34.016 450.778 33.96 450.426 33.96C450.106 33.96 449.866 34.008 449.706 34.104C449.554 34.192 449.478 34.32 449.478 34.488C449.478 34.632 449.542 34.748 449.67 34.836C449.798 34.916 450.01 34.988 450.306 35.052L451.41 35.28C452.026 35.408 452.49 35.648 452.802 36C453.122 36.344 453.282 36.752 453.282 37.224C453.282 37.824 453.046 38.292 452.574 38.628C452.11 38.956 451.45 39.12 450.594 39.12ZM457.26 39.12C456.58 39.12 455.988 38.988 455.484 38.724C454.98 38.452 454.588 38.076 454.308 37.596C454.036 37.116 453.9 36.564 453.9 35.94C453.9 35.308 454.036 34.756 454.308 34.284C454.588 33.804 454.976 33.432 455.472 33.168C455.968 32.896 456.544 32.76 457.2 32.76C457.832 32.76 458.38 32.888 458.844 33.144C459.308 33.4 459.668 33.756 459.924 34.212C460.18 34.668 460.308 35.204 460.308 35.82C460.308 35.948 460.304 36.068 460.296 36.18C460.288 36.284 460.276 36.384 460.26 36.48H454.956V35.292H458.808L458.496 35.508C458.496 35.012 458.376 34.648 458.136 34.416C457.904 34.176 457.584 34.056 457.176 34.056C456.704 34.056 456.336 34.216 456.072 34.536C455.816 34.856 455.688 35.336 455.688 35.976C455.688 36.6 455.816 37.064 456.072 37.368C456.336 37.672 456.728 37.824 457.248 37.824C457.536 37.824 457.784 37.776 457.992 37.68C458.2 37.584 458.356 37.428 458.46 37.212H460.152C459.952 37.804 459.608 38.272 459.12 38.616C458.64 38.952 458.02 39.12 457.26 39.12ZM463.436 39V30.36H465.284V39H463.436ZM469.028 39V30.36H470.876V39H469.028ZM464.3 33.792H469.868V35.208H464.3V33.792ZM475.097 39.12C474.425 39.12 473.833 38.988 473.321 38.724C472.817 38.452 472.421 38.076 472.133 37.596C471.853 37.108 471.713 36.548 471.713 35.916C471.713 35.284 471.853 34.732 472.133 34.26C472.421 33.788 472.817 33.42 473.321 33.156C473.833 32.892 474.425 32.76 475.097 32.76C475.777 32.76 476.369 32.892 476.873 33.156C477.385 33.42 477.781 33.788 478.061 34.26C478.341 34.732 478.481 35.284 478.481 35.916C478.481 36.548 478.337 37.108 478.049 37.596C477.769 38.076 477.373 38.452 476.861 38.724C476.357 38.988 475.769 39.12 475.097 39.12ZM475.097 37.704C475.377 37.704 475.629 37.632 475.853 37.488C476.085 37.344 476.269 37.14 476.405 36.876C476.541 36.604 476.609 36.28 476.609 35.904C476.609 35.352 476.461 34.928 476.165 34.632C475.877 34.328 475.521 34.176 475.097 34.176C474.673 34.176 474.313 34.328 474.017 34.632C473.729 34.936 473.585 35.36 473.585 35.904C473.585 36.28 473.653 36.604 473.789 36.876C473.925 37.14 474.105 37.344 474.329 37.488C474.561 37.632 474.817 37.704 475.097 37.704ZM479.435 39V32.88H481.199V34.32H481.235V39H479.435ZM481.235 35.808L481.079 34.356C481.223 33.836 481.459 33.44 481.787 33.168C482.115 32.896 482.523 32.76 483.011 32.76C483.163 32.76 483.275 32.776 483.347 32.808V34.488C483.307 34.472 483.251 34.464 483.179 34.464C483.107 34.456 483.019 34.452 482.915 34.452C482.339 34.452 481.915 34.556 481.643 34.764C481.371 34.964 481.235 35.312 481.235 35.808ZM484.122 39V32.88H485.922V39H484.122ZM484.062 32.064V30.12H485.982V32.064H484.062ZM486.977 39V37.752L490.385 33.612L490.745 34.248H487.073V32.88H492.185V34.128L488.849 38.184L488.513 37.632H492.233V39H486.977ZM496.097 39.12C495.425 39.12 494.833 38.988 494.321 38.724C493.817 38.452 493.421 38.076 493.133 37.596C492.853 37.108 492.713 36.548 492.713 35.916C492.713 35.284 492.853 34.732 493.133 34.26C493.421 33.788 493.817 33.42 494.321 33.156C494.833 32.892 495.425 32.76 496.097 32.76C496.777 32.76 497.369 32.892 497.873 33.156C498.385 33.42 498.781 33.788 499.061 34.26C499.341 34.732 499.481 35.284 499.481 35.916C499.481 36.548 499.337 37.108 499.049 37.596C498.769 38.076 498.373 38.452 497.861 38.724C497.357 38.988 496.769 39.12 496.097 39.12ZM496.097 37.704C496.377 37.704 496.629 37.632 496.853 37.488C497.085 37.344 497.269 37.14 497.405 36.876C497.541 36.604 497.609 36.28 497.609 35.904C497.609 35.352 497.461 34.928 497.165 34.632C496.877 34.328 496.521 34.176 496.097 34.176C495.673 34.176 495.313 34.328 495.017 34.632C494.729 34.936 494.585 35.36 494.585 35.904C494.585 36.28 494.653 36.604 494.789 36.876C494.925 37.14 495.105 37.344 495.329 37.488C495.561 37.632 495.817 37.704 496.097 37.704ZM500.435 39V32.88H502.199V34.32H502.235V39H500.435ZM504.695 39V35.208C504.695 34.872 504.607 34.62 504.431 34.452C504.263 34.284 504.015 34.2 503.687 34.2C503.407 34.2 503.155 34.264 502.931 34.392C502.715 34.52 502.543 34.696 502.415 34.92C502.295 35.144 502.235 35.408 502.235 35.712L502.079 34.236C502.279 33.788 502.571 33.432 502.955 33.168C503.347 32.896 503.827 32.76 504.395 32.76C505.075 32.76 505.595 32.952 505.955 33.336C506.315 33.712 506.495 34.22 506.495 34.86V39H504.695ZM510.511 39.132C509.727 39.132 509.143 38.944 508.759 38.568C508.383 38.184 508.195 37.604 508.195 36.828V31.512L509.995 30.84V36.888C509.995 37.16 510.071 37.364 510.223 37.5C510.375 37.636 510.611 37.704 510.931 37.704C511.051 37.704 511.163 37.692 511.267 37.668C511.371 37.644 511.475 37.616 511.579 37.584V38.952C511.475 39.008 511.327 39.052 511.135 39.084C510.951 39.116 510.743 39.132 510.511 39.132ZM507.055 34.248V32.88H511.579V34.248H507.055ZM516.392 39C516.344 38.824 516.308 38.636 516.284 38.436C516.268 38.236 516.26 38.004 516.26 37.74H516.212V34.848C516.212 34.6 516.128 34.408 515.96 34.272C515.8 34.128 515.56 34.056 515.24 34.056C514.936 34.056 514.692 34.108 514.508 34.212C514.332 34.316 514.216 34.468 514.16 34.668H512.444C512.524 34.116 512.808 33.66 513.296 33.3C513.784 32.94 514.452 32.76 515.3 32.76C516.18 32.76 516.852 32.956 517.316 33.348C517.78 33.74 518.012 34.304 518.012 35.04V37.74C518.012 37.94 518.024 38.144 518.048 38.352C518.08 38.552 518.128 38.768 518.192 39H516.392ZM514.256 39.12C513.648 39.12 513.164 38.968 512.804 38.664C512.444 38.352 512.264 37.94 512.264 37.428C512.264 36.86 512.476 36.404 512.9 36.06C513.332 35.708 513.932 35.48 514.7 35.376L516.488 35.124V36.168L515 36.396C514.68 36.444 514.444 36.532 514.292 36.66C514.14 36.788 514.064 36.964 514.064 37.188C514.064 37.388 514.136 37.54 514.28 37.644C514.424 37.748 514.616 37.8 514.856 37.8C515.232 37.8 515.552 37.7 515.816 37.5C516.08 37.292 516.212 37.052 516.212 36.78L516.38 37.74C516.204 38.196 515.936 38.54 515.576 38.772C515.216 39.004 514.776 39.12 514.256 39.12ZM519.396 39V30.36H521.196V39H519.396Z" fill="white" fill-opacity="0.44"/>
<line x1="409.5" y1="25" x2="409.5" y2="43" stroke="#8436E4" stroke-width="3"/>
<line x1="297.5" y1="25" x2="297.5" y2="43" stroke="#8436E4" stroke-width="3"/>
<defs>
<filter id="filter0_d_2_2" x="16" y="248" width="1252" height="450" filterUnits="userSpaceOnUse" color-interpolation-filters="sRGB">
<feFlood flood-opacity="0" result="BackgroundImageFix"/>
<feColorMatrix in="SourceAlpha" type="matrix" values="0 0 0 0 0 0 0 0 0 0 0 0 0 0 0 0 0 0 127 0" result="hardAlpha"/>
<feOffset dx="2" dy="2"/>
<feGaussianBlur stdDeviation="3"/>
<feComposite in2="hardAlpha" operator="out"/>
<feColorMatrix type="matrix" values="0 0 0 0 0 0 0 0 0 0 0 0 0 0 0 0 0 0 0.25 0"/>
<feBlend mode="normal" in2="BackgroundImageFix" result="effect1_dropShadow_2_2"/>
<feBlend mode="normal" in="SourceGraphic" in2="effect1_dropShadow_2_2" result="shape"/>
</filter>
</defs>
</svg>
